<?xml version="1.0" encoding="utf-8" standalone="no"?>
<!DOCTYPE svg PUBLIC "-//W3C//DTD SVG 1.1//EN"
  "http://www.w3.org/Graphics/SVG/1.1/DTD/svg11.dtd">
<svg xmlns:xlink="http://www.w3.org/1999/xlink" width="613.062492pt" height="408.8741pt" viewBox="0 0 613.062492 408.8741" xmlns="http://www.w3.org/2000/svg" version="1.1">
 <metadata>
  <rdf:RDF xmlns:dc="http://purl.org/dc/elements/1.1/" xmlns:cc="http://creativecommons.org/ns#" xmlns:rdf="http://www.w3.org/1999/02/22-rdf-syntax-ns#">
   <cc:Work>
    <dc:type rdf:resource="http://purl.org/dc/dcmitype/StillImage"/>
    <dc:date>2023-11-28T14:35:46.590661</dc:date>
    <dc:format>image/svg+xml</dc:format>
    <dc:creator>
     <cc:Agent>
      <dc:title>Matplotlib v3.7.1, https://matplotlib.org/</dc:title>
     </cc:Agent>
    </dc:creator>
   </cc:Work>
  </rdf:RDF>
 </metadata>
 <defs>
  <style type="text/css">*{stroke-linejoin: round; stroke-linecap: butt}</style>
 </defs>
 <g id="figure_1">
  <g id="patch_1">
   <path d="M 0 408.8741 
L 613.062492 408.8741 
L 613.062492 0 
L 0 0 
z
" style="fill: #ffffff"/>
  </g>
  <g id="axes_1">
   <g id="patch_2">
    <path d="M 35.526064 359.676997 
L 593.526064 359.676997 
L 593.526064 27.036997 
L 35.526064 27.036997 
z
" style="fill: #ffffff"/>
   </g>
   <g id="matplotlib.axis_1">
    <g id="xtick_1">
     <g id="line2d_1">
      <path d="M 35.526064 359.676997 
L 35.526064 27.036997 
" clip-path="url(#pda586664fd)" style="fill: none; stroke-dasharray: 0.8,1.32; stroke-dashoffset: 0; stroke: #b0b0b0; stroke-width: 0.8"/>
     </g>
     <g id="line2d_2">
      <defs>
       <path id="m2aa5c5331a" d="M 0 0 
L 0 3.5 
" style="stroke: #000000; stroke-width: 0.8"/>
      </defs>
      <g>
       <use xlink:href="#m2aa5c5331a" x="35.526064" y="359.676997" style="stroke: #000000; stroke-width: 0.8"/>
      </g>
     </g>
     <g id="text_1">
      <!-- $\mathdefault{0}$ -->
      <g transform="translate(31.413921 379.130297) scale(0.18 -0.18)">
       <defs>
        <path id="CMR17-30" d="M 2688 2025 
C 2688 2416 2682 3080 2413 3591 
C 2176 4039 1798 4198 1466 4198 
C 1158 4198 768 4058 525 3597 
C 269 3118 243 2524 243 2025 
C 243 1661 250 1106 448 619 
C 723 -39 1216 -128 1466 -128 
C 1760 -128 2208 -7 2470 600 
C 2662 1042 2688 1559 2688 2025 
z
M 1466 -26 
C 1056 -26 813 325 723 812 
C 653 1188 653 1738 653 2096 
C 653 2588 653 2997 736 3387 
C 858 3929 1216 4096 1466 4096 
C 1728 4096 2067 3923 2189 3400 
C 2272 3036 2278 2607 2278 2096 
C 2278 1680 2278 1169 2202 792 
C 2067 95 1690 -26 1466 -26 
z
" transform="scale(0.015625)"/>
       </defs>
       <use xlink:href="#CMR17-30" transform="scale(0.996264)"/>
      </g>
     </g>
    </g>
    <g id="xtick_2">
     <g id="line2d_3">
      <path d="M 147.126064 359.676997 
L 147.126064 27.036997 
" clip-path="url(#pda586664fd)" style="fill: none; stroke-dasharray: 0.8,1.32; stroke-dashoffset: 0; stroke: #b0b0b0; stroke-width: 0.8"/>
     </g>
     <g id="line2d_4">
      <g>
       <use xlink:href="#m2aa5c5331a" x="147.126064" y="359.676997" style="stroke: #000000; stroke-width: 0.8"/>
      </g>
     </g>
     <g id="text_2">
      <!-- $\mathdefault{20}$ -->
      <g transform="translate(138.901778 379.130297) scale(0.18 -0.18)">
       <defs>
        <path id="CMR17-32" d="M 2669 989 
L 2554 989 
C 2490 536 2438 459 2413 420 
C 2381 369 1920 369 1830 369 
L 602 369 
C 832 619 1280 1072 1824 1597 
C 2214 1967 2669 2402 2669 3035 
C 2669 3790 2067 4224 1395 4224 
C 691 4224 262 3604 262 3030 
C 262 2780 448 2748 525 2748 
C 589 2748 781 2787 781 3010 
C 781 3207 614 3264 525 3264 
C 486 3264 448 3258 422 3245 
C 544 3790 915 4058 1306 4058 
C 1862 4058 2227 3617 2227 3035 
C 2227 2479 1901 2000 1536 1584 
L 262 146 
L 262 0 
L 2515 0 
L 2669 989 
z
" transform="scale(0.015625)"/>
       </defs>
       <use xlink:href="#CMR17-32" transform="scale(0.996264)"/>
       <use xlink:href="#CMR17-30" transform="translate(45.690477 0) scale(0.996264)"/>
      </g>
     </g>
    </g>
    <g id="xtick_3">
     <g id="line2d_5">
      <path d="M 258.726064 359.676997 
L 258.726064 27.036997 
" clip-path="url(#pda586664fd)" style="fill: none; stroke-dasharray: 0.8,1.32; stroke-dashoffset: 0; stroke: #b0b0b0; stroke-width: 0.8"/>
     </g>
     <g id="line2d_6">
      <g>
       <use xlink:href="#m2aa5c5331a" x="258.726064" y="359.676997" style="stroke: #000000; stroke-width: 0.8"/>
      </g>
     </g>
     <g id="text_3">
      <!-- $\mathdefault{40}$ -->
      <g transform="translate(250.501778 379.130297) scale(0.18 -0.18)">
       <defs>
        <path id="CMR17-34" d="M 2150 4122 
C 2150 4256 2144 4256 2029 4256 
L 128 1254 
L 128 1088 
L 1779 1088 
L 1779 457 
C 1779 224 1766 160 1318 160 
L 1197 160 
L 1197 0 
C 1402 0 1747 0 1965 0 
C 2182 0 2528 0 2733 0 
L 2733 160 
L 2611 160 
C 2163 160 2150 224 2150 457 
L 2150 1088 
L 2803 1088 
L 2803 1254 
L 2150 1254 
L 2150 4122 
z
M 1798 3703 
L 1798 1254 
L 256 1254 
L 1798 3703 
z
" transform="scale(0.015625)"/>
       </defs>
       <use xlink:href="#CMR17-34" transform="scale(0.996264)"/>
       <use xlink:href="#CMR17-30" transform="translate(45.690477 0) scale(0.996264)"/>
      </g>
     </g>
    </g>
    <g id="xtick_4">
     <g id="line2d_7">
      <path d="M 370.326064 359.676997 
L 370.326064 27.036997 
" clip-path="url(#pda586664fd)" style="fill: none; stroke-dasharray: 0.8,1.32; stroke-dashoffset: 0; stroke: #b0b0b0; stroke-width: 0.8"/>
     </g>
     <g id="line2d_8">
      <g>
       <use xlink:href="#m2aa5c5331a" x="370.326064" y="359.676997" style="stroke: #000000; stroke-width: 0.8"/>
      </g>
     </g>
     <g id="text_4">
      <!-- $\mathdefault{60}$ -->
      <g transform="translate(362.101778 379.130297) scale(0.18 -0.18)">
       <defs>
        <path id="CMR17-36" d="M 678 2176 
C 678 3690 1395 4032 1811 4032 
C 1946 4032 2272 4009 2400 3776 
C 2298 3776 2106 3776 2106 3553 
C 2106 3381 2246 3323 2336 3323 
C 2394 3323 2566 3348 2566 3560 
C 2566 3954 2246 4179 1805 4179 
C 1043 4179 243 3390 243 1984 
C 243 253 966 -128 1478 -128 
C 2099 -128 2688 427 2688 1283 
C 2688 2081 2170 2662 1517 2662 
C 1126 2662 838 2407 678 1960 
L 678 2176 
z
M 1478 25 
C 691 25 691 1200 691 1436 
C 691 1896 909 2560 1504 2560 
C 1613 2560 1926 2560 2138 2120 
C 2253 1870 2253 1609 2253 1289 
C 2253 944 2253 690 2118 434 
C 1978 171 1773 25 1478 25 
z
" transform="scale(0.015625)"/>
       </defs>
       <use xlink:href="#CMR17-36" transform="scale(0.996264)"/>
       <use xlink:href="#CMR17-30" transform="translate(45.690477 0) scale(0.996264)"/>
      </g>
     </g>
    </g>
    <g id="xtick_5">
     <g id="line2d_9">
      <path d="M 481.926064 359.676997 
L 481.926064 27.036997 
" clip-path="url(#pda586664fd)" style="fill: none; stroke-dasharray: 0.8,1.32; stroke-dashoffset: 0; stroke: #b0b0b0; stroke-width: 0.8"/>
     </g>
     <g id="line2d_10">
      <g>
       <use xlink:href="#m2aa5c5331a" x="481.926064" y="359.676997" style="stroke: #000000; stroke-width: 0.8"/>
      </g>
     </g>
     <g id="text_5">
      <!-- $\mathdefault{80}$ -->
      <g transform="translate(473.701778 379.130297) scale(0.18 -0.18)">
       <defs>
        <path id="CMR17-38" d="M 1741 2264 
C 2144 2467 2554 2773 2554 3263 
C 2554 3841 1990 4179 1472 4179 
C 890 4179 378 3759 378 3180 
C 378 3021 416 2747 666 2505 
C 730 2442 998 2251 1171 2130 
C 883 1983 211 1634 211 934 
C 211 279 838 -128 1459 -128 
C 2144 -128 2720 362 2720 1010 
C 2720 1590 2330 1857 2074 2029 
L 1741 2264 
z
M 902 2822 
C 851 2854 595 3051 595 3351 
C 595 3739 998 4032 1459 4032 
C 1965 4032 2336 3676 2336 3262 
C 2336 2669 1670 2331 1638 2331 
C 1632 2331 1626 2331 1574 2370 
L 902 2822 
z
M 2080 1519 
C 2176 1449 2483 1240 2483 851 
C 2483 381 2010 25 1472 25 
C 890 25 448 438 448 940 
C 448 1443 838 1862 1280 2060 
L 2080 1519 
z
" transform="scale(0.015625)"/>
       </defs>
       <use xlink:href="#CMR17-38" transform="scale(0.996264)"/>
       <use xlink:href="#CMR17-30" transform="translate(45.690477 0) scale(0.996264)"/>
      </g>
     </g>
    </g>
    <g id="xtick_6">
     <g id="line2d_11">
      <path d="M 593.526064 359.676997 
L 593.526064 27.036997 
" clip-path="url(#pda586664fd)" style="fill: none; stroke-dasharray: 0.8,1.32; stroke-dashoffset: 0; stroke: #b0b0b0; stroke-width: 0.8"/>
     </g>
     <g id="line2d_12">
      <g>
       <use xlink:href="#m2aa5c5331a" x="593.526064" y="359.676997" style="stroke: #000000; stroke-width: 0.8"/>
      </g>
     </g>
     <g id="text_6">
      <!-- $\mathdefault{100}$ -->
      <g transform="translate(581.189635 379.130297) scale(0.18 -0.18)">
       <defs>
        <path id="CMR17-31" d="M 1702 4058 
C 1702 4192 1696 4192 1606 4192 
C 1357 3916 979 3827 621 3827 
C 602 3827 570 3827 563 3808 
C 557 3795 557 3782 557 3648 
C 755 3648 1088 3686 1344 3839 
L 1344 461 
C 1344 236 1331 160 781 160 
L 589 160 
L 589 0 
C 896 0 1216 0 1523 0 
C 1830 0 2150 0 2458 0 
L 2458 160 
L 2266 160 
C 1715 160 1702 230 1702 458 
L 1702 4058 
z
" transform="scale(0.015625)"/>
       </defs>
       <use xlink:href="#CMR17-31" transform="scale(0.996264)"/>
       <use xlink:href="#CMR17-30" transform="translate(45.690477 0) scale(0.996264)"/>
       <use xlink:href="#CMR17-30" transform="translate(91.380954 0) scale(0.996264)"/>
      </g>
     </g>
    </g>
    <g id="text_7">
     <!-- time steps -->
     <g transform="translate(280.024805 398.379813) scale(0.17 -0.17)">
      <defs>
       <path id="CMR17-74" d="M 966 2560 
L 1862 2560 
L 1862 2725 
L 966 2725 
L 966 3904 
L 851 3904 
C 838 3245 614 2668 70 2668 
L 70 2560 
L 627 2560 
L 627 771 
C 627 650 627 -64 1370 -64 
C 1747 -64 1965 306 1965 777 
L 1965 1140 
L 1850 1140 
L 1850 783 
C 1850 344 1677 51 1408 51 
C 1222 51 966 178 966 758 
L 966 2560 
z
" transform="scale(0.015625)"/>
       <path id="CMR17-69" d="M 992 3909 
C 992 4049 877 4170 730 4170 
C 589 4170 467 4056 467 3909 
C 467 3769 582 3648 730 3648 
C 870 3648 992 3763 992 3909 
z
M 243 2706 
L 243 2541 
C 602 2541 653 2502 653 2197 
L 653 427 
C 653 184 627 153 218 153 
L 218 -13 
C 371 0 646 0 806 0 
C 960 0 1222 0 1370 -13 
L 1370 153 
C 992 153 979 191 979 420 
L 979 2776 
L 243 2706 
z
" transform="scale(0.015625)"/>
       <path id="CMR17-6d" d="M 4326 1933 
C 4326 2252 4269 2790 3507 2790 
C 3072 2790 2771 2496 2656 2151 
L 2650 2151 
C 2573 2676 2195 2790 1837 2790 
C 1331 2790 1069 2400 973 2144 
L 966 2144 
L 966 2790 
L 211 2720 
L 211 2554 
C 589 2554 646 2515 646 2208 
L 646 428 
C 646 184 621 153 211 153 
L 211 -13 
C 365 0 646 0 813 0 
C 979 0 1267 0 1421 -13 
L 1421 153 
C 1011 153 986 178 986 428 
L 986 1658 
C 986 2247 1344 2688 1792 2688 
C 2266 2688 2317 2266 2317 1958 
L 2317 428 
C 2317 184 2291 153 1882 153 
L 1882 -13 
C 2035 0 2317 0 2483 0 
C 2650 0 2938 0 3091 -13 
L 3091 153 
C 2682 153 2656 178 2656 428 
L 2656 1658 
C 2656 2247 3014 2688 3462 2688 
C 3936 2688 3987 2266 3987 1958 
L 3987 428 
C 3987 184 3962 153 3552 153 
L 3552 -13 
C 3706 0 3987 0 4154 0 
C 4320 0 4608 0 4762 -13 
L 4762 153 
C 4352 153 4326 178 4326 428 
L 4326 1933 
z
" transform="scale(0.015625)"/>
       <path id="CMR17-65" d="M 2438 1472 
C 2464 1498 2464 1511 2464 1576 
C 2464 2238 2118 2816 1389 2816 
C 710 2816 173 2169 173 1383 
C 173 551 781 -64 1459 -64 
C 2176 -64 2458 607 2458 740 
C 2458 784 2419 784 2406 784 
C 2362 784 2355 771 2330 696 
C 2189 265 1837 51 1504 51 
C 1229 51 954 203 781 480 
C 582 803 582 1176 582 1472 
L 2438 1472 
z
M 589 1568 
C 634 2505 1126 2714 1382 2714 
C 1818 2714 2112 2297 2118 1568 
L 589 1568 
z
" transform="scale(0.015625)"/>
       <path id="CMR17-73" d="M 1978 2697 
C 1978 2813 1971 2819 1933 2819 
C 1907 2819 1901 2813 1824 2717 
C 1805 2691 1747 2626 1728 2601 
C 1523 2819 1235 2819 1126 2819 
C 416 2819 160 2447 160 2076 
C 160 1498 813 1365 998 1325 
C 1402 1243 1542 1217 1677 1101 
C 1760 1025 1901 884 1901 654 
C 1901 384 1747 38 1158 38 
C 602 38 403 460 288 1021 
C 269 1110 269 1117 218 1117 
C 166 1117 160 1110 160 983 
L 160 63 
C 160 -51 166 -58 205 -58 
C 237 -58 243 -51 275 0 
C 314 57 410 211 448 276 
C 576 103 800 -64 1158 -64 
C 1792 -64 2131 283 2131 784 
C 2131 1112 1958 1285 1875 1362 
C 1683 1561 1459 1606 1190 1657 
C 838 1735 390 1825 390 2217 
C 390 2383 480 2737 1126 2737 
C 1811 2737 1850 2094 1862 1888 
C 1869 1856 1901 1849 1920 1849 
C 1978 1849 1978 1869 1978 1978 
L 1978 2697 
z
" transform="scale(0.015625)"/>
       <path id="CMR17-70" d="M 1408 -1063 
C 998 -1063 973 -1037 973 -789 
L 973 402 
C 1158 134 1427 -38 1766 -38 
C 2406 -38 3053 523 3053 1388 
C 3053 2191 2496 2802 1837 2802 
C 1453 2802 1139 2592 960 2338 
L 960 2802 
L 198 2732 
L 198 2567 
C 576 2567 634 2528 634 2223 
L 634 -789 
C 634 -1031 608 -1063 198 -1063 
L 198 -1228 
C 352 -1216 634 -1216 800 -1216 
C 966 -1216 1254 -1216 1408 -1228 
L 1408 -1063 
z
M 973 2012 
C 973 2102 973 2235 1222 2471 
C 1254 2497 1472 2688 1792 2688 
C 2259 2688 2643 2108 2643 1382 
C 2643 656 2234 64 1728 64 
C 1498 64 1248 172 1056 472 
C 973 612 973 650 973 752 
L 973 2012 
z
" transform="scale(0.015625)"/>
      </defs>
      <use xlink:href="#CMR17-74" transform="scale(0.996264)"/>
      <use xlink:href="#CMR17-69" transform="translate(35.280768 0) scale(0.996264)"/>
      <use xlink:href="#CMR17-6d" transform="translate(60.151826 0) scale(0.996264)"/>
      <use xlink:href="#CMR17-65" transform="translate(137.071416 0) scale(0.996264)"/>
      <use xlink:href="#CMR17-73" transform="translate(207.633043 0) scale(0.996264)"/>
      <use xlink:href="#CMR17-74" transform="translate(243.434381 0) scale(0.996264)"/>
      <use xlink:href="#CMR17-65" transform="translate(278.715148 0) scale(0.996264)"/>
      <use xlink:href="#CMR17-70" transform="translate(319.200809 0) scale(0.996264)"/>
      <use xlink:href="#CMR17-73" transform="translate(370.096179 0) scale(0.996264)"/>
     </g>
    </g>
   </g>
   <g id="matplotlib.axis_2">
    <g id="ytick_1">
     <g id="line2d_13">
      <path d="M 35.526064 333.154005 
L 593.526064 333.154005 
" clip-path="url(#pda586664fd)" style="fill: none; stroke-dasharray: 0.8,1.32; stroke-dashoffset: 0; stroke: #b0b0b0; stroke-width: 0.8"/>
     </g>
     <g id="line2d_14">
      <defs>
       <path id="mc9c17c2693" d="M 0 0 
L -3.5 0 
" style="stroke: #000000; stroke-width: 0.8"/>
      </defs>
      <g>
       <use xlink:href="#mc9c17c2693" x="35.526064" y="333.154005" style="stroke: #000000; stroke-width: 0.8"/>
      </g>
     </g>
     <g id="text_8">
      <!-- $\mathdefault{0.0}$ -->
      <g transform="translate(7.2 339.380655) scale(0.18 -0.18)">
       <defs>
        <path id="CMMI12-3a" d="M 1178 307 
C 1178 492 1024 619 870 619 
C 685 619 557 466 557 313 
C 557 128 710 0 864 0 
C 1050 0 1178 153 1178 307 
z
" transform="scale(0.015625)"/>
       </defs>
       <use xlink:href="#CMR17-30" transform="scale(0.996264)"/>
       <use xlink:href="#CMMI12-3a" transform="translate(45.690477 0) scale(0.996264)"/>
       <use xlink:href="#CMR17-30" transform="translate(72.787654 0) scale(0.996264)"/>
      </g>
     </g>
    </g>
    <g id="ytick_2">
     <g id="line2d_15">
      <path d="M 35.526064 293.599926 
L 593.526064 293.599926 
" clip-path="url(#pda586664fd)" style="fill: none; stroke-dasharray: 0.8,1.32; stroke-dashoffset: 0; stroke: #b0b0b0; stroke-width: 0.8"/>
     </g>
     <g id="line2d_16">
      <g>
       <use xlink:href="#mc9c17c2693" x="35.526064" y="293.599926" style="stroke: #000000; stroke-width: 0.8"/>
      </g>
     </g>
     <g id="text_9">
      <!-- $\mathdefault{0.2}$ -->
      <g transform="translate(7.2 299.826576) scale(0.18 -0.18)">
       <use xlink:href="#CMR17-30" transform="scale(0.996264)"/>
       <use xlink:href="#CMMI12-3a" transform="translate(45.690477 0) scale(0.996264)"/>
       <use xlink:href="#CMR17-32" transform="translate(72.787654 0) scale(0.996264)"/>
      </g>
     </g>
    </g>
    <g id="ytick_3">
     <g id="line2d_17">
      <path d="M 35.526064 254.045847 
L 593.526064 254.045847 
" clip-path="url(#pda586664fd)" style="fill: none; stroke-dasharray: 0.8,1.32; stroke-dashoffset: 0; stroke: #b0b0b0; stroke-width: 0.8"/>
     </g>
     <g id="line2d_18">
      <g>
       <use xlink:href="#mc9c17c2693" x="35.526064" y="254.045847" style="stroke: #000000; stroke-width: 0.8"/>
      </g>
     </g>
     <g id="text_10">
      <!-- $\mathdefault{0.4}$ -->
      <g transform="translate(7.2 260.272497) scale(0.18 -0.18)">
       <use xlink:href="#CMR17-30" transform="scale(0.996264)"/>
       <use xlink:href="#CMMI12-3a" transform="translate(45.690477 0) scale(0.996264)"/>
       <use xlink:href="#CMR17-34" transform="translate(72.787654 0) scale(0.996264)"/>
      </g>
     </g>
    </g>
    <g id="ytick_4">
     <g id="line2d_19">
      <path d="M 35.526064 214.491768 
L 593.526064 214.491768 
" clip-path="url(#pda586664fd)" style="fill: none; stroke-dasharray: 0.8,1.32; stroke-dashoffset: 0; stroke: #b0b0b0; stroke-width: 0.8"/>
     </g>
     <g id="line2d_20">
      <g>
       <use xlink:href="#mc9c17c2693" x="35.526064" y="214.491768" style="stroke: #000000; stroke-width: 0.8"/>
      </g>
     </g>
     <g id="text_11">
      <!-- $\mathdefault{0.6}$ -->
      <g transform="translate(7.2 220.718419) scale(0.18 -0.18)">
       <use xlink:href="#CMR17-30" transform="scale(0.996264)"/>
       <use xlink:href="#CMMI12-3a" transform="translate(45.690477 0) scale(0.996264)"/>
       <use xlink:href="#CMR17-36" transform="translate(72.787654 0) scale(0.996264)"/>
      </g>
     </g>
    </g>
    <g id="ytick_5">
     <g id="line2d_21">
      <path d="M 35.526064 174.93769 
L 593.526064 174.93769 
" clip-path="url(#pda586664fd)" style="fill: none; stroke-dasharray: 0.8,1.32; stroke-dashoffset: 0; stroke: #b0b0b0; stroke-width: 0.8"/>
     </g>
     <g id="line2d_22">
      <g>
       <use xlink:href="#mc9c17c2693" x="35.526064" y="174.93769" style="stroke: #000000; stroke-width: 0.8"/>
      </g>
     </g>
     <g id="text_12">
      <!-- $\mathdefault{0.8}$ -->
      <g transform="translate(7.2 181.16434) scale(0.18 -0.18)">
       <use xlink:href="#CMR17-30" transform="scale(0.996264)"/>
       <use xlink:href="#CMMI12-3a" transform="translate(45.690477 0) scale(0.996264)"/>
       <use xlink:href="#CMR17-38" transform="translate(72.787654 0) scale(0.996264)"/>
      </g>
     </g>
    </g>
    <g id="ytick_6">
     <g id="line2d_23">
      <path d="M 35.526064 135.383611 
L 593.526064 135.383611 
" clip-path="url(#pda586664fd)" style="fill: none; stroke-dasharray: 0.8,1.32; stroke-dashoffset: 0; stroke: #b0b0b0; stroke-width: 0.8"/>
     </g>
     <g id="line2d_24">
      <g>
       <use xlink:href="#mc9c17c2693" x="35.526064" y="135.383611" style="stroke: #000000; stroke-width: 0.8"/>
      </g>
     </g>
     <g id="text_13">
      <!-- $\mathdefault{1.0}$ -->
      <g transform="translate(7.2 141.610261) scale(0.18 -0.18)">
       <use xlink:href="#CMR17-31" transform="scale(0.996264)"/>
       <use xlink:href="#CMMI12-3a" transform="translate(45.690477 0) scale(0.996264)"/>
       <use xlink:href="#CMR17-30" transform="translate(72.787654 0) scale(0.996264)"/>
      </g>
     </g>
    </g>
    <g id="ytick_7">
     <g id="line2d_25">
      <path d="M 35.526064 95.829532 
L 593.526064 95.829532 
" clip-path="url(#pda586664fd)" style="fill: none; stroke-dasharray: 0.8,1.32; stroke-dashoffset: 0; stroke: #b0b0b0; stroke-width: 0.8"/>
     </g>
     <g id="line2d_26">
      <g>
       <use xlink:href="#mc9c17c2693" x="35.526064" y="95.829532" style="stroke: #000000; stroke-width: 0.8"/>
      </g>
     </g>
     <g id="text_14">
      <!-- $\mathdefault{1.2}$ -->
      <g transform="translate(7.2 102.056182) scale(0.18 -0.18)">
       <use xlink:href="#CMR17-31" transform="scale(0.996264)"/>
       <use xlink:href="#CMMI12-3a" transform="translate(45.690477 0) scale(0.996264)"/>
       <use xlink:href="#CMR17-32" transform="translate(72.787654 0) scale(0.996264)"/>
      </g>
     </g>
    </g>
    <g id="ytick_8">
     <g id="line2d_27">
      <path d="M 35.526064 56.275454 
L 593.526064 56.275454 
" clip-path="url(#pda586664fd)" style="fill: none; stroke-dasharray: 0.8,1.32; stroke-dashoffset: 0; stroke: #b0b0b0; stroke-width: 0.8"/>
     </g>
     <g id="line2d_28">
      <g>
       <use xlink:href="#mc9c17c2693" x="35.526064" y="56.275454" style="stroke: #000000; stroke-width: 0.8"/>
      </g>
     </g>
     <g id="text_15">
      <!-- $\mathdefault{1.4}$ -->
      <g transform="translate(7.2 62.502104) scale(0.18 -0.18)">
       <use xlink:href="#CMR17-31" transform="scale(0.996264)"/>
       <use xlink:href="#CMMI12-3a" transform="translate(45.690477 0) scale(0.996264)"/>
       <use xlink:href="#CMR17-34" transform="translate(72.787654 0) scale(0.996264)"/>
      </g>
     </g>
    </g>
   </g>
   <g id="line2d_29">
    <path d="M 35.526064 334.134712 
L 41.106064 343.074055 
L 46.686064 334.028549 
L 52.266064 339.665314 
L 57.846064 339.315351 
L 63.426064 334.093222 
L 69.006064 344.556997 
L 74.586064 339.223534 
L 80.166064 328.07518 
L 85.746064 329.634859 
L 91.326064 117.637572 
L 96.906064 137.463776 
L 102.486064 130.74136 
L 108.066064 125.042874 
L 113.646064 133.603383 
L 119.226064 122.498314 
L 124.806064 110.248035 
L 130.386064 110.599644 
L 135.966064 115.197497 
L 141.546064 102.120396 
L 147.126064 104.094156 
L 152.706064 112.282764 
L 158.286064 95.218158 
L 163.866064 102.313614 
L 169.446064 101.97468 
L 175.026064 95.939229 
L 180.606064 101.639875 
L 186.186064 91.469882 
L 191.766064 90.049957 
L 197.346064 83.427409 
L 202.926064 95.241878 
L 208.506064 87.376994 
L 214.086064 80.733929 
L 219.666064 87.105632 
L 225.246064 83.093677 
L 230.826064 79.415661 
L 236.406064 75.669359 
L 241.986064 75.372675 
L 247.566064 82.312363 
L 253.146064 79.927426 
L 258.726064 81.104389 
L 264.306064 67.180862 
L 269.886064 72.984359 
L 275.466064 74.808287 
L 281.046064 67.053967 
L 286.626064 72.63614 
L 292.206064 80.905427 
L 297.786064 70.247421 
L 303.366064 65.201203 
L 308.946064 65.152228 
L 314.526064 78.107444 
L 320.106064 64.034777 
L 325.686064 68.659186 
L 331.266064 68.050387 
L 336.846064 61.996898 
L 342.426064 69.924124 
L 348.006064 58.106773 
L 353.586064 68.093957 
L 359.166064 59.0273 
L 364.746064 61.712264 
L 370.326064 69.316529 
L 375.906064 56.354306 
L 381.486064 63.48577 
L 387.066064 56.844449 
L 392.646064 65.345324 
L 398.226064 60.338927 
L 403.806064 62.248525 
L 409.386064 58.701545 
L 414.966064 60.827816 
L 420.546064 56.181447 
L 426.126064 55.793443 
L 431.706064 62.161023 
L 437.286064 63.17201 
L 442.866064 66.103308 
L 448.446064 61.089022 
L 454.026064 58.684173 
L 459.606064 53.015344 
L 465.186064 55.746133 
L 470.766064 62.337669 
L 476.346064 60.225637 
L 481.926064 56.021153 
L 487.506064 60.624772 
L 493.086064 53.258451 
L 498.666064 65.909306 
L 504.246064 72.260694 
L 509.826064 66.026695 
L 515.406064 63.380308 
L 520.986064 55.022445 
L 526.566064 58.989568 
L 532.146064 49.990688 
L 537.726064 55.65392 
L 543.306064 48.269405 
L 548.886064 58.685459 
L 554.466064 57.619755 
L 560.046064 66.352654 
L 565.626064 52.136122 
L 571.206064 58.901847 
L 576.786064 53.38017 
L 582.366064 42.156997 
L 587.946064 55.65888 
" clip-path="url(#pda586664fd)" style="fill: none; stroke: #ff0000; stroke-width: 1.5; stroke-linecap: square"/>
   </g>
   <g id="line2d_30">
    <path d="M 35.526064 334.134712 
L 41.106064 343.074055 
L 46.686064 334.028549 
L 52.266064 339.665314 
L 57.846064 339.315351 
L 63.426064 334.093222 
L 69.006064 344.556997 
L 74.586064 339.223534 
L 80.166064 328.07518 
L 85.746064 329.634859 
L 91.326064 117.637572 
L 96.906064 156.410513 
L 102.486064 166.535137 
L 108.066064 170.541075 
L 113.646064 179.818889 
L 119.226064 173.92123 
L 124.806064 172.195621 
L 130.386064 173.63596 
L 135.966064 170.566007 
L 141.546064 170.923822 
L 147.126064 168.198086 
L 152.706064 179.471053 
L 158.286064 163.568035 
L 163.866064 171.893877 
L 169.446064 168.39307 
L 175.026064 159.162226 
L 180.606064 173.664924 
L 186.186064 156.308536 
L 191.766064 156.190569 
L 197.346064 144.853963 
L 202.926064 162.932605 
L 208.506064 151.165896 
L 214.086064 150.15637 
L 219.666064 150.636621 
L 225.246064 141.498393 
L 230.826064 141.678535 
L 236.406064 137.316455 
L 241.986064 135.468066 
L 247.566064 138.454107 
L 253.146064 136.346634 
L 258.726064 141.93151 
L 264.306064 129.028524 
L 269.886064 126.729916 
L 275.466064 134.022147 
L 281.046064 123.920126 
L 286.626064 136.171389 
L 292.206064 139.234196 
L 297.786064 132.498142 
L 303.366064 126.671603 
L 308.946064 120.735152 
L 314.526064 133.189394 
L 320.106064 122.845686 
L 325.686064 122.33498 
L 331.266064 123.891661 
L 336.846064 117.258945 
L 342.426064 121.914548 
L 348.006064 110.349599 
L 353.586064 122.910912 
L 359.166064 112.582195 
L 364.746064 112.667206 
L 370.326064 125.1114 
L 375.906064 107.886014 
L 381.486064 116.840586 
L 387.066064 106.386071 
L 392.646064 111.567018 
L 398.226064 109.562388 
L 403.806064 111.554646 
L 409.386064 105.615986 
L 414.966064 109.194458 
L 420.546064 104.334059 
L 426.126064 99.72319 
L 431.706064 111.977087 
L 437.286064 111.064767 
L 442.866064 108.212764 
L 448.446064 107.690634 
L 454.026064 109.64173 
L 459.606064 100.9144 
L 465.186064 99.705553 
L 470.766064 107.612666 
L 476.346064 104.339625 
L 481.926064 101.444367 
L 487.506064 103.447136 
L 493.086064 100.075119 
L 498.666064 102.975826 
L 504.246064 116.816863 
L 509.826064 111.364599 
L 515.406064 105.667894 
L 520.986064 97.291296 
L 526.566064 100.685436 
L 532.146064 93.29745 
L 537.726064 96.274055 
L 543.306064 85.441801 
L 548.886064 95.199431 
L 554.466064 97.977681 
L 560.046064 109.058225 
L 565.626064 94.831775 
L 571.206064 98.969487 
L 576.786064 90.778548 
L 582.366064 80.744918 
L 587.946064 94.317846 
" clip-path="url(#pda586664fd)" style="fill: none; stroke: #0000ff; stroke-width: 1.5; stroke-linecap: square"/>
   </g>
   <g id="line2d_31">
    <path d="M 35.526064 335.556883 
L 41.106064 289.549547 
L 46.686064 259.238407 
L 52.266064 241.551493 
L 57.846064 214.504056 
L 63.426064 210.945988 
L 69.006064 196.853454 
L 74.586064 187.663677 
L 80.166064 187.448963 
L 85.746064 173.453083 
L 91.326064 174.396191 
L 96.906064 168.409112 
L 102.486064 160.594116 
L 108.066064 163.67627 
L 113.646064 160.253693 
L 119.226064 162.165826 
L 124.806064 163.800004 
L 130.386064 159.575021 
L 135.966064 167.888663 
L 141.546064 142.358713 
L 147.126064 150.592301 
L 152.706064 146.4871 
L 158.286064 142.665143 
L 163.866064 142.244647 
L 169.446064 137.023308 
L 175.026064 133.540469 
L 180.606064 133.918951 
L 186.186064 139.824095 
L 191.766064 135.725811 
L 197.346064 141.477329 
L 202.926064 140.600671 
L 208.506064 121.938907 
L 214.086064 141.395805 
L 219.666064 136.647424 
L 225.246064 127.72295 
L 230.826064 124.557286 
L 236.406064 132.360515 
L 241.986064 121.524283 
L 247.566064 121.905591 
L 253.146064 128.540792 
L 258.726064 120.486866 
L 264.306064 122.273541 
L 269.886064 122.236143 
L 275.466064 127.717273 
L 281.046064 121.79368 
L 286.626064 111.903367 
L 292.206064 120.620027 
L 297.786064 111.215596 
L 303.366064 112.664054 
L 308.946064 113.320162 
L 314.526064 120.925252 
L 320.106064 117.652648 
L 325.686064 118.511557 
L 331.266064 109.0354 
L 336.846064 114.739202 
L 342.426064 120.162075 
L 348.006064 118.997898 
L 353.586064 119.138627 
L 359.166064 126.259656 
L 364.746064 113.874342 
L 370.326064 120.793729 
L 375.906064 103.611473 
L 381.486064 115.406782 
L 387.066064 118.161596 
L 392.646064 112.491535 
L 398.226064 114.32076 
L 403.806064 107.617394 
L 409.386064 109.028551 
L 414.966064 113.556412 
L 420.546064 104.559959 
L 426.126064 104.666367 
L 431.706064 102.574123 
L 437.286064 109.966988 
L 442.866064 109.259594 
L 448.446064 105.635838 
L 454.026064 104.259481 
L 459.606064 105.646984 
L 465.186064 110.384204 
L 470.766064 101.31299 
L 476.346064 114.405647 
L 481.926064 109.784975 
L 487.506064 104.945426 
L 493.086064 108.801335 
L 498.666064 108.214083 
L 504.246064 109.05139 
L 509.826064 100.663371 
L 515.406064 100.001543 
L 520.986064 100.609056 
L 526.566064 109.767756 
L 532.146064 97.190183 
L 537.726064 97.07235 
L 543.306064 93.19794 
L 548.886064 105.88171 
L 554.466064 102.034947 
L 560.046064 102.632302 
L 565.626064 100.42911 
L 571.206064 101.058283 
L 576.786064 100.702838 
L 582.366064 99.040672 
L 587.946064 106.174385 
" clip-path="url(#pda586664fd)" style="fill: none; stroke: #008000; stroke-width: 1.5; stroke-linecap: square"/>
   </g>
   <g id="patch_3">
    <path d="M 35.526064 359.676997 
L 35.526064 27.036997 
" style="fill: none; stroke: #000000; stroke-width: 0.8; stroke-linejoin: miter; stroke-linecap: square"/>
   </g>
   <g id="patch_4">
    <path d="M 593.526064 359.676997 
L 593.526064 27.036997 
" style="fill: none; stroke: #000000; stroke-width: 0.8; stroke-linejoin: miter; stroke-linecap: square"/>
   </g>
   <g id="patch_5">
    <path d="M 35.526064 359.676997 
L 593.526064 359.676997 
" style="fill: none; stroke: #000000; stroke-width: 0.8; stroke-linejoin: miter; stroke-linecap: square"/>
   </g>
   <g id="patch_6">
    <path d="M 35.526064 27.036997 
L 593.526064 27.036997 
" style="fill: none; stroke: #000000; stroke-width: 0.8; stroke-linejoin: miter; stroke-linecap: square"/>
   </g>
   <g id="text_16">
    <!-- Average rewards -->
    <g transform="translate(248.544726 21.036997) scale(0.2 -0.2)">
     <defs>
      <path id="CMR17-41" d="M 2323 4378 
C 2291 4461 2278 4480 2214 4480 
C 2150 4480 2138 4461 2106 4378 
L 749 566 
C 627 223 371 153 147 153 
L 147 -13 
C 262 0 518 0 640 0 
C 800 0 1056 0 1210 -13 
L 1210 153 
C 909 153 864 361 864 439 
C 864 497 877 530 890 569 
L 1229 1536 
L 2906 1536 
L 3290 442 
C 3322 365 3322 352 3322 327 
C 3322 153 3046 153 2925 153 
L 2925 0 
C 3110 0 3443 0 3642 0 
C 3808 0 4128 0 4282 -13 
L 4282 153 
C 3942 153 3827 153 3744 387 
L 2323 4378 
z
M 2067 3893 
L 2848 1702 
L 1286 1702 
L 2067 3893 
z
" transform="scale(0.015625)"/>
      <path id="CMR17-76" d="M 2502 2163 
C 2560 2304 2662 2560 3034 2560 
L 3034 2726 
C 2912 2726 2752 2726 2630 2726 
C 2496 2726 2285 2726 2157 2732 
L 2157 2566 
C 2317 2553 2406 2477 2406 2311 
C 2406 2253 2406 2240 2368 2151 
L 1664 377 
L 902 2286 
C 864 2369 864 2381 864 2407 
C 864 2560 1075 2560 1171 2560 
L 1171 2732 
C 1018 2726 736 2726 576 2726 
C 403 2726 205 2726 64 2732 
L 64 2560 
C 307 2560 442 2560 518 2362 
L 1446 44 
C 1485 -51 1491 -64 1549 -64 
C 1606 -64 1613 -51 1651 44 
L 2502 2163 
z
" transform="scale(0.015625)"/>
      <path id="CMR17-72" d="M 960 1497 
C 960 2112 1222 2688 1702 2688 
C 1747 2688 1792 2682 1837 2662 
C 1837 2662 1696 2617 1696 2452 
C 1696 2298 1818 2234 1914 2234 
C 1990 2234 2131 2279 2131 2458 
C 2131 2663 1926 2790 1709 2790 
C 1222 2790 1011 2317 947 2093 
L 941 2093 
L 941 2790 
L 198 2720 
L 198 2554 
C 576 2554 634 2515 634 2208 
L 634 428 
C 634 184 608 153 198 153 
L 198 -13 
C 352 0 646 0 813 0 
C 998 0 1325 0 1498 -13 
L 1498 153 
C 1037 153 960 153 960 440 
L 960 1497 
z
" transform="scale(0.015625)"/>
      <path id="CMR17-61" d="M 2304 1653 
C 2304 2072 2304 2294 2035 2543 
C 1798 2752 1523 2816 1306 2816 
C 800 2816 435 2407 435 1971 
C 435 1728 627 1728 666 1728 
C 749 1728 896 1778 896 1954 
C 896 2112 774 2181 666 2181 
C 640 2181 608 2174 589 2168 
C 723 2592 1069 2714 1293 2714 
C 1613 2714 1965 2429 1965 1885 
L 1965 1600 
C 1587 1600 1133 1549 774 1357 
C 371 1133 256 813 256 570 
C 256 77 832 -64 1171 -64 
C 1523 -64 1850 139 1990 511 
C 2003 233 2182 -18 2464 -18 
C 2598 -18 2938 70 2938 567 
L 2938 920 
L 2822 920 
L 2822 562 
C 2822 178 2650 128 2566 128 
C 2304 128 2304 458 2304 738 
L 2304 1653 
z
M 1965 870 
C 1965 317 1568 38 1216 38 
C 896 38 646 275 646 570 
C 646 761 730 1100 1101 1305 
C 1408 1478 1760 1504 1965 1504 
L 1965 870 
z
" transform="scale(0.015625)"/>
      <path id="CMR17-67" d="M 710 1164 
C 832 1068 1043 960 1299 960 
C 1805 960 2240 1357 2240 1888 
C 2240 2054 2189 2310 1997 2509 
C 2176 2692 2438 2752 2586 2752 
C 2611 2752 2650 2752 2682 2734 
C 2656 2728 2598 2703 2598 2605 
C 2598 2527 2656 2471 2739 2471 
C 2835 2471 2886 2533 2886 2614 
C 2886 2731 2790 2854 2586 2854 
C 2330 2854 2106 2738 1926 2580 
C 1734 2753 1504 2816 1299 2816 
C 794 2816 358 2419 358 1888 
C 358 1522 570 1292 634 1228 
C 442 1004 442 743 442 711 
C 442 545 506 302 723 168 
C 390 85 128 -169 128 -486 
C 128 -943 736 -1280 1466 -1280 
C 2170 -1280 2803 -956 2803 -479 
C 2803 384 1856 384 1363 384 
C 1216 384 954 384 922 391 
C 723 423 589 602 589 826 
C 589 883 589 1024 710 1164 
z
M 1299 1068 
C 736 1068 736 1760 736 1889 
C 736 2016 736 2708 1299 2708 
C 1862 2708 1862 2016 1862 1889 
C 1862 1760 1862 1068 1299 1068 
z
M 1466 -1171 
C 826 -1171 384 -835 384 -486 
C 384 -289 493 -105 634 -4 
C 794 104 858 104 1293 104 
C 1818 104 2547 104 2547 -486 
C 2547 -835 2106 -1171 1466 -1171 
z
" transform="scale(0.015625)"/>
      <path id="CMR17-77" d="M 3725 2183 
C 3853 2560 4109 2560 4205 2560 
L 4205 2732 
C 4077 2732 3949 2732 3821 2732 
C 3699 2732 3424 2732 3315 2738 
L 3315 2560 
C 3514 2560 3622 2445 3622 2286 
C 3622 2241 3610 2184 3597 2140 
L 2995 407 
L 2342 2275 
C 2330 2319 2310 2370 2310 2395 
C 2310 2560 2528 2560 2630 2560 
L 2630 2738 
C 2483 2732 2214 2732 2061 2732 
C 1901 2732 1734 2732 1587 2738 
L 1587 2560 
C 1939 2560 1939 2547 2074 2149 
L 1485 451 
L 851 2281 
C 819 2363 819 2376 819 2395 
C 819 2560 1037 2560 1139 2560 
L 1139 2738 
C 986 2732 717 2732 557 2732 
C 416 2732 198 2732 64 2738 
L 64 2560 
C 346 2560 416 2541 486 2331 
L 1274 49 
C 1299 -33 1318 -52 1370 -52 
C 1414 -52 1440 -39 1472 56 
L 2131 1980 
L 2797 56 
C 2829 -39 2854 -52 2899 -52 
C 2950 -52 2970 -33 2995 50 
L 3725 2183 
z
" transform="scale(0.015625)"/>
      <path id="CMR17-64" d="M 1869 4326 
L 1869 4160 
C 2246 4160 2304 4122 2304 3820 
L 2304 2345 
C 2278 2377 2016 2790 1498 2790 
C 845 2790 211 2208 211 1364 
C 211 525 806 -64 1434 -64 
C 1978 -64 2259 337 2291 380 
L 2291 -63 
L 3066 -63 
L 3066 128 
C 2688 128 2630 166 2630 473 
L 2630 4396 
L 1869 4326 
z
M 2291 755 
C 2291 563 2176 390 2029 262 
C 1811 70 1594 38 1472 38 
C 1286 38 621 134 621 1356 
C 621 2612 1363 2688 1530 2688 
C 1824 2688 2061 2522 2208 2291 
C 2291 2157 2291 2138 2291 2023 
L 2291 755 
z
" transform="scale(0.015625)"/>
     </defs>
     <use xlink:href="#CMR17-41" transform="scale(0.996264)"/>
     <use xlink:href="#CMR17-76" transform="translate(69.07243 0) scale(0.996264)"/>
     <use xlink:href="#CMR17-65" transform="translate(114.762892 0) scale(0.996264)"/>
     <use xlink:href="#CMR17-72" transform="translate(155.248552 0) scale(0.996264)"/>
     <use xlink:href="#CMR17-61" transform="translate(190.52932 0) scale(0.996264)"/>
     <use xlink:href="#CMR17-67" transform="translate(236.219797 0) scale(0.996264)"/>
     <use xlink:href="#CMR17-65" transform="translate(281.910274 0) scale(0.996264)"/>
     <use xlink:href="#CMR17-72" transform="translate(352.471901 0) scale(0.996264)"/>
     <use xlink:href="#CMR17-65" transform="translate(387.752669 0) scale(0.996264)"/>
     <use xlink:href="#CMR17-77" transform="translate(428.238329 0) scale(0.996264)"/>
     <use xlink:href="#CMR17-61" transform="translate(492.145756 0) scale(0.996264)"/>
     <use xlink:href="#CMR17-72" transform="translate(537.836233 0) scale(0.996264)"/>
     <use xlink:href="#CMR17-64" transform="translate(573.117001 0) scale(0.996264)"/>
     <use xlink:href="#CMR17-73" transform="translate(624.012371 0) scale(0.996264)"/>
    </g>
   </g>
   <g id="legend_1">
    <g id="patch_7">
     <path d="M 401.792298 350.676997 
L 580.926064 350.676997 
Q 584.526064 350.676997 584.526064 347.076997 
L 584.526064 273.612804 
Q 584.526064 270.012804 580.926064 270.012804 
L 401.792298 270.012804 
Q 398.192298 270.012804 398.192298 273.612804 
L 398.192298 347.076997 
Q 398.192298 350.676997 401.792298 350.676997 
z
" style="fill: #ffffff; opacity: 0.8; stroke: #cccccc; stroke-linejoin: miter"/>
    </g>
    <g id="line2d_32">
     <path d="M 405.392298 283.512804 
L 423.392298 283.512804 
L 441.392298 283.512804 
" style="fill: none; stroke: #ff0000; stroke-width: 1.5; stroke-linecap: square"/>
    </g>
    <g id="text_17">
     <!-- ucb, $c=1$ -->
     <g transform="translate(455.792298 289.812804) scale(0.18 -0.18)">
      <defs>
       <path id="CMR17-75" d="M 1882 2693 
L 1882 2528 
C 2259 2528 2317 2489 2317 2186 
L 2317 1032 
C 2317 500 2029 38 1555 38 
C 1030 38 986 348 986 678 
L 986 2763 
L 211 2693 
L 211 2528 
C 467 2528 640 2528 646 2274 
L 646 1058 
C 646 633 646 361 813 183 
C 896 101 1056 -64 1517 -64 
C 2061 -64 2272 377 2323 506 
L 2330 506 
L 2330 -63 
L 3091 -63 
L 3091 128 
C 2714 128 2656 166 2656 473 
L 2656 2763 
L 1882 2693 
z
" transform="scale(0.015625)"/>
       <path id="CMR17-63" d="M 2234 2240 
C 2112 2240 1933 2240 1933 2017 
C 1933 1838 2080 1787 2163 1787 
C 2208 1787 2394 1807 2394 2024 
C 2394 2467 1958 2803 1466 2803 
C 787 2803 211 2178 211 1363 
C 211 516 813 -64 1466 -64 
C 2259 -64 2458 677 2458 748 
C 2458 774 2451 793 2406 793 
C 2362 793 2355 787 2330 703 
C 2163 180 1798 51 1523 51 
C 1114 51 621 427 621 1369 
C 621 2338 1094 2688 1472 2688 
C 1722 2688 2093 2573 2234 2240 
z
" transform="scale(0.015625)"/>
       <path id="CMR17-62" d="M 960 4396 
L 198 4326 
L 198 4160 
C 576 4160 634 4122 634 3817 
L 634 -13 
L 749 -13 
L 934 441 
C 1120 141 1395 -64 1766 -64 
C 2406 -64 3053 500 3053 1370 
C 3053 2188 2477 2790 1830 2790 
C 1434 2790 1152 2579 960 2330 
L 960 4396 
z
M 973 2004 
C 973 2118 973 2138 1062 2272 
C 1312 2657 1670 2688 1792 2688 
C 1984 2688 2643 2585 2643 1376 
C 2643 108 1888 38 1734 38 
C 1536 38 1248 114 1043 486 
C 973 608 973 621 973 735 
L 973 2004 
z
" transform="scale(0.015625)"/>
       <path id="CMR17-2c" d="M 1011 102 
C 1024 45 1024 25 1024 -77 
C 1024 -463 896 -817 627 -1139 
C 595 -1170 595 -1183 595 -1197 
C 595 -1222 621 -1248 646 -1248 
C 685 -1248 1126 -799 1126 -87 
C 1126 124 1101 522 800 522 
C 659 522 538 427 538 261 
C 538 96 659 0 800 0 
C 877 0 960 32 1011 102 
z
" transform="scale(0.015625)"/>
       <path id="CMMI12-63" d="M 2502 2431 
C 2381 2431 2323 2431 2234 2355 
C 2195 2323 2125 2227 2125 2125 
C 2125 1997 2221 1920 2342 1920 
C 2496 1920 2669 2044 2669 2292 
C 2669 2588 2374 2816 1933 2816 
C 1094 2816 256 1903 256 996 
C 256 441 602 -64 1254 -64 
C 2125 -64 2675 622 2675 706 
C 2675 744 2637 776 2611 776 
C 2592 776 2586 770 2528 713 
C 2118 162 1510 64 1267 64 
C 826 64 685 446 685 764 
C 685 988 794 1605 1024 2039 
C 1190 2338 1536 2682 1939 2682 
C 2022 2682 2374 2682 2502 2431 
z
" transform="scale(0.015625)"/>
       <path id="CMR17-3d" d="M 4115 2017 
C 4211 2017 4307 2017 4307 2125 
C 4307 2240 4198 2240 4090 2240 
L 512 2240 
C 403 2240 294 2240 294 2125 
C 294 2017 390 2017 486 2017 
L 4115 2017 
z
M 4090 896 
C 4198 896 4307 896 4307 1011 
C 4307 1119 4211 1119 4115 1119 
L 486 1119 
C 390 1119 294 1119 294 1011 
C 294 896 403 896 512 896 
L 4090 896 
z
" transform="scale(0.015625)"/>
      </defs>
      <use xlink:href="#CMR17-75" transform="scale(0.996264)"/>
      <use xlink:href="#CMR17-63" transform="translate(50.89537 0) scale(0.996264)"/>
      <use xlink:href="#CMR17-62" transform="translate(91.38103 0) scale(0.996264)"/>
      <use xlink:href="#CMR17-2c" transform="translate(142.2764 0) scale(0.996264)"/>
      <use xlink:href="#CMMI12-63" transform="translate(197.223425 0) scale(0.996264)"/>
      <use xlink:href="#CMR17-3d" transform="translate(266.880667 0) scale(0.996264)"/>
      <use xlink:href="#CMR17-31" transform="translate(366.269464 0) scale(0.996264)"/>
     </g>
    </g>
    <g id="line2d_33">
     <path d="M 405.392298 308.600868 
L 423.392298 308.600868 
L 441.392298 308.600868 
" style="fill: none; stroke: #0000ff; stroke-width: 1.5; stroke-linecap: square"/>
    </g>
    <g id="text_18">
     <!-- ucb, $c=2$ -->
     <g transform="translate(455.792298 314.900868) scale(0.18 -0.18)">
      <use xlink:href="#CMR17-75" transform="scale(0.996264)"/>
      <use xlink:href="#CMR17-63" transform="translate(50.89537 0) scale(0.996264)"/>
      <use xlink:href="#CMR17-62" transform="translate(91.38103 0) scale(0.996264)"/>
      <use xlink:href="#CMR17-2c" transform="translate(142.2764 0) scale(0.996264)"/>
      <use xlink:href="#CMMI12-63" transform="translate(197.223425 0) scale(0.996264)"/>
      <use xlink:href="#CMR17-3d" transform="translate(266.880667 0) scale(0.996264)"/>
      <use xlink:href="#CMR17-32" transform="translate(366.269464 0) scale(0.996264)"/>
     </g>
    </g>
    <g id="line2d_34">
     <path d="M 405.392298 333.688933 
L 423.392298 333.688933 
L 441.392298 333.688933 
" style="fill: none; stroke: #008000; stroke-width: 1.5; stroke-linecap: square"/>
    </g>
    <g id="text_19">
     <!-- $\varepsilon$-greedy, $\varepsilon=0.1$ -->
     <g transform="translate(455.792298 339.988933) scale(0.18 -0.18)">
      <defs>
       <path id="CMMI12-22" d="M 890 1427 
C 1094 1345 1312 1345 1434 1345 
C 1600 1345 1933 1345 1933 1550 
C 1933 1678 1811 1728 1485 1728 
C 1325 1728 1133 1709 909 1613 
C 710 1708 634 1852 634 1990 
C 634 2379 1261 2606 1830 2606 
C 1939 2606 2170 2606 2438 2411 
C 2477 2387 2496 2367 2541 2367 
C 2618 2367 2701 2449 2701 2526 
C 2701 2639 2330 2880 1888 2880 
C 1171 2880 493 2449 493 1972 
C 493 1734 646 1586 755 1509 
C 384 1301 166 961 166 652 
C 166 219 563 -128 1178 -128 
C 2022 -128 2362 424 2362 512 
C 2362 543 2336 568 2304 568 
C 2272 568 2259 549 2234 512 
C 2163 395 1997 146 1235 146 
C 838 146 314 245 314 686 
C 314 898 474 1214 890 1427 
z
M 1088 1518 
C 1261 1600 1427 1600 1472 1600 
C 1651 1600 1683 1583 1786 1545 
C 1677 1472 1664 1472 1434 1472 
C 1318 1472 1216 1472 1088 1518 
z
" transform="scale(0.015625)"/>
       <path id="CMR17-2d" d="M 1632 1216 
L 1632 1496 
L 26 1496 
L 26 1216 
L 1632 1216 
z
" transform="scale(0.015625)"/>
       <path id="CMR17-79" d="M 2496 2197 
C 2656 2586 2944 2586 3034 2586 
L 3034 2752 
C 2912 2752 2752 2752 2630 2752 
C 2496 2752 2285 2752 2157 2758 
L 2157 2592 
C 2400 2573 2406 2394 2406 2343 
C 2406 2280 2394 2248 2362 2171 
L 1664 449 
L 902 2306 
C 870 2382 870 2426 870 2433 
C 870 2573 1018 2586 1171 2586 
L 1171 2758 
C 1018 2752 742 2752 582 2752 
C 410 2752 205 2752 64 2758 
L 64 2586 
C 410 2586 448 2554 531 2350 
L 1485 15 
C 1197 -738 1030 -1178 627 -1178 
C 557 -1178 397 -1159 282 -1044 
C 429 -1031 493 -942 493 -833 
C 493 -725 416 -629 288 -629 
C 147 -629 77 -725 77 -840 
C 77 -1095 339 -1280 627 -1280 
C 998 -1280 1229 -922 1357 -604 
L 2496 2197 
z
" transform="scale(0.015625)"/>
      </defs>
      <use xlink:href="#CMMI12-22" transform="scale(0.996264)"/>
      <use xlink:href="#CMR17-2d" transform="translate(45.650192 0) scale(0.996264)"/>
      <use xlink:href="#CMR17-67" transform="translate(75.726159 0) scale(0.996264)"/>
      <use xlink:href="#CMR17-72" transform="translate(121.416636 0) scale(0.996264)"/>
      <use xlink:href="#CMR17-65" transform="translate(156.697404 0) scale(0.996264)"/>
      <use xlink:href="#CMR17-65" transform="translate(197.183064 0) scale(0.996264)"/>
      <use xlink:href="#CMR17-64" transform="translate(237.668725 0) scale(0.996264)"/>
      <use xlink:href="#CMR17-79" transform="translate(288.564094 0) scale(0.996264)"/>
      <use xlink:href="#CMR17-2c" transform="translate(329.049755 0) scale(0.996264)"/>
      <use xlink:href="#CMMI12-22" transform="translate(383.99678 0) scale(0.996264)"/>
      <use xlink:href="#CMR17-3d" transform="translate(457.320981 0) scale(0.996264)"/>
      <use xlink:href="#CMR17-30" transform="translate(556.709778 0) scale(0.996264)"/>
      <use xlink:href="#CMMI12-3a" transform="translate(602.400255 0) scale(0.996264)"/>
      <use xlink:href="#CMR17-31" transform="translate(629.497432 0) scale(0.996264)"/>
     </g>
    </g>
   </g>
  </g>
 </g>
 <defs>
  <clipPath id="pda586664fd">
   <rect x="35.526064" y="27.036997" width="558" height="332.64"/>
  </clipPath>
 </defs>
</svg>