<?xml version="1.0" encoding="UTF-8" standalone="no"?>
<!DOCTYPE svg PUBLIC "-//W3C//DTD SVG 1.1//EN"
 "http://www.w3.org/Graphics/SVG/1.1/DTD/svg11.dtd">
<!-- Generated by graphviz version 8.1.0 (20230707.0739)
 -->
<!-- Title: Tree Pages: 1 -->
<svg width="805pt" height="671pt"
 viewBox="0.00 0.00 805.38 671.00" xmlns="http://www.w3.org/2000/svg" xmlns:xlink="http://www.w3.org/1999/xlink">
<g id="graph0" class="graph" transform="scale(1 1) rotate(0) translate(4 667)">
<title>Tree</title>
<polygon fill="white" stroke="none" points="-4,4 -4,-667 801.38,-667 801.38,4 -4,4"/>
<!-- 0 -->
<g id="node1" class="node">
<title>0</title>
<path fill="#ffffff" stroke="black" d="M481.88,-663C481.88,-663 374.38,-663 374.38,-663 368.38,-663 362.38,-657 362.38,-651 362.38,-651 362.38,-592 362.38,-592 362.38,-586 368.38,-580 374.38,-580 374.38,-580 481.88,-580 481.88,-580 487.88,-580 493.88,-586 493.88,-592 493.88,-592 493.88,-651 493.88,-651 493.88,-657 487.88,-663 481.88,-663"/>
<text text-anchor="start" x="370.75" y="-645.7" font-family="Helvetica,sans-Serif" font-size="14.00">petal_length ≤ 2.45</text>
<text text-anchor="start" x="392.88" y="-630.7" font-family="Helvetica,sans-Serif" font-size="14.00">gini = 0.667</text>
<text text-anchor="start" x="383.5" y="-615.7" font-family="Helvetica,sans-Serif" font-size="14.00">samples = 150</text>
<text text-anchor="start" x="370.38" y="-600.7" font-family="Helvetica,sans-Serif" font-size="14.00">value = [50, 50, 50]</text>
<text text-anchor="start" x="385" y="-585.7" font-family="Helvetica,sans-Serif" font-size="14.00">class = setosa</text>
</g>
<!-- 1 -->
<g id="node2" class="node">
<title>1</title>
<path fill="#e58139" stroke="black" d="M405.38,-536.5C405.38,-536.5 312.88,-536.5 312.88,-536.5 306.88,-536.5 300.88,-530.5 300.88,-524.5 300.88,-524.5 300.88,-480.5 300.88,-480.5 300.88,-474.5 306.88,-468.5 312.88,-468.5 312.88,-468.5 405.38,-468.5 405.38,-468.5 411.38,-468.5 417.38,-474.5 417.38,-480.5 417.38,-480.5 417.38,-524.5 417.38,-524.5 417.38,-530.5 411.38,-536.5 405.38,-536.5"/>
<text text-anchor="start" x="331.38" y="-519.2" font-family="Helvetica,sans-Serif" font-size="14.00">gini = 0.0</text>
<text text-anchor="start" x="318.25" y="-504.2" font-family="Helvetica,sans-Serif" font-size="14.00">samples = 50</text>
<text text-anchor="start" x="308.88" y="-489.2" font-family="Helvetica,sans-Serif" font-size="14.00">value = [50, 0, 0]</text>
<text text-anchor="start" x="316" y="-474.2" font-family="Helvetica,sans-Serif" font-size="14.00">class = setosa</text>
</g>
<!-- 0&#45;&gt;1 -->
<g id="edge1" class="edge">
<title>0&#45;&gt;1</title>
<path fill="none" stroke="black" d="M403.99,-579.58C397.62,-568.77 390.73,-557.09 384.3,-546.19"/>
<polygon fill="black" stroke="black" points="386.89,-544.7 378.8,-537.86 380.86,-548.25 386.89,-544.7"/>
<text text-anchor="middle" x="372.55" y="-555.27" font-family="Helvetica,sans-Serif" font-size="14.00">True</text>
</g>
<!-- 2 -->
<g id="node3" class="node">
<title>2</title>
<path fill="#ffffff" stroke="black" d="M548.88,-544C548.88,-544 447.38,-544 447.38,-544 441.38,-544 435.38,-538 435.38,-532 435.38,-532 435.38,-473 435.38,-473 435.38,-467 441.38,-461 447.38,-461 447.38,-461 548.88,-461 548.88,-461 554.88,-461 560.88,-467 560.88,-473 560.88,-473 560.88,-532 560.88,-532 560.88,-538 554.88,-544 548.88,-544"/>
<text text-anchor="start" x="443.38" y="-526.7" font-family="Helvetica,sans-Serif" font-size="14.00">petal_width ≤ 1.75</text>
<text text-anchor="start" x="470.38" y="-511.7" font-family="Helvetica,sans-Serif" font-size="14.00">gini = 0.5</text>
<text text-anchor="start" x="453.5" y="-496.7" font-family="Helvetica,sans-Serif" font-size="14.00">samples = 100</text>
<text text-anchor="start" x="444.12" y="-481.7" font-family="Helvetica,sans-Serif" font-size="14.00">value = [0, 50, 50]</text>
<text text-anchor="start" x="446" y="-466.7" font-family="Helvetica,sans-Serif" font-size="14.00">class = versicolor</text>
</g>
<!-- 0&#45;&gt;2 -->
<g id="edge2" class="edge">
<title>0&#45;&gt;2</title>
<path fill="none" stroke="black" d="M452.61,-579.58C457.65,-571.16 463,-562.2 468.21,-553.5"/>
<polygon fill="black" stroke="black" points="471.64,-555.58 473.77,-545.2 465.64,-551.98 471.64,-555.58"/>
<text text-anchor="middle" x="479.87" y="-562.65" font-family="Helvetica,sans-Serif" font-size="14.00">False</text>
</g>
<!-- 3 -->
<g id="node4" class="node">
<title>3</title>
<path fill="#4de88e" stroke="black" d="M448.5,-425C448.5,-425 341.75,-425 341.75,-425 335.75,-425 329.75,-419 329.75,-413 329.75,-413 329.75,-354 329.75,-354 329.75,-348 335.75,-342 341.75,-342 341.75,-342 448.5,-342 448.5,-342 454.5,-342 460.5,-348 460.5,-354 460.5,-354 460.5,-413 460.5,-413 460.5,-419 454.5,-425 448.5,-425"/>
<text text-anchor="start" x="337.75" y="-407.7" font-family="Helvetica,sans-Serif" font-size="14.00">petal_length ≤ 4.95</text>
<text text-anchor="start" x="359.88" y="-392.7" font-family="Helvetica,sans-Serif" font-size="14.00">gini = 0.168</text>
<text text-anchor="start" x="354.25" y="-377.7" font-family="Helvetica,sans-Serif" font-size="14.00">samples = 54</text>
<text text-anchor="start" x="344.88" y="-362.7" font-family="Helvetica,sans-Serif" font-size="14.00">value = [0, 49, 5]</text>
<text text-anchor="start" x="343" y="-347.7" font-family="Helvetica,sans-Serif" font-size="14.00">class = versicolor</text>
</g>
<!-- 2&#45;&gt;3 -->
<g id="edge3" class="edge">
<title>2&#45;&gt;3</title>
<path fill="none" stroke="black" d="M462.1,-460.58C454.37,-451.8 446.13,-442.44 438.17,-433.39"/>
<polygon fill="black" stroke="black" points="441.19,-431.39 431.96,-426.2 435.94,-436.02 441.19,-431.39"/>
</g>
<!-- 12 -->
<g id="node13" class="node">
<title>12</title>
<path fill="#843de6" stroke="black" d="M655.5,-425C655.5,-425 548.75,-425 548.75,-425 542.75,-425 536.75,-419 536.75,-413 536.75,-413 536.75,-354 536.75,-354 536.75,-348 542.75,-342 548.75,-342 548.75,-342 655.5,-342 655.5,-342 661.5,-342 667.5,-348 667.5,-354 667.5,-354 667.5,-413 667.5,-413 667.5,-419 661.5,-425 655.5,-425"/>
<text text-anchor="start" x="544.75" y="-407.7" font-family="Helvetica,sans-Serif" font-size="14.00">petal_length ≤ 4.85</text>
<text text-anchor="start" x="566.88" y="-392.7" font-family="Helvetica,sans-Serif" font-size="14.00">gini = 0.043</text>
<text text-anchor="start" x="561.25" y="-377.7" font-family="Helvetica,sans-Serif" font-size="14.00">samples = 46</text>
<text text-anchor="start" x="551.88" y="-362.7" font-family="Helvetica,sans-Serif" font-size="14.00">value = [0, 1, 45]</text>
<text text-anchor="start" x="554.12" y="-347.7" font-family="Helvetica,sans-Serif" font-size="14.00">class = virginica</text>
</g>
<!-- 2&#45;&gt;12 -->
<g id="edge12" class="edge">
<title>2&#45;&gt;12</title>
<path fill="none" stroke="black" d="M534.5,-460.58C542.3,-451.8 550.62,-442.44 558.66,-433.39"/>
<polygon fill="black" stroke="black" points="560.92,-436 564.95,-426.2 555.69,-431.35 560.92,-436"/>
</g>
<!-- 4 -->
<g id="node5" class="node">
<title>4</title>
<path fill="#3de684" stroke="black" d="M244.88,-306C244.88,-306 143.38,-306 143.38,-306 137.38,-306 131.38,-300 131.38,-294 131.38,-294 131.38,-235 131.38,-235 131.38,-229 137.38,-223 143.38,-223 143.38,-223 244.88,-223 244.88,-223 250.88,-223 256.88,-229 256.88,-235 256.88,-235 256.88,-294 256.88,-294 256.88,-300 250.88,-306 244.88,-306"/>
<text text-anchor="start" x="139.38" y="-288.7" font-family="Helvetica,sans-Serif" font-size="14.00">petal_width ≤ 1.65</text>
<text text-anchor="start" x="158.88" y="-273.7" font-family="Helvetica,sans-Serif" font-size="14.00">gini = 0.041</text>
<text text-anchor="start" x="153.25" y="-258.7" font-family="Helvetica,sans-Serif" font-size="14.00">samples = 48</text>
<text text-anchor="start" x="143.88" y="-243.7" font-family="Helvetica,sans-Serif" font-size="14.00">value = [0, 47, 1]</text>
<text text-anchor="start" x="142" y="-228.7" font-family="Helvetica,sans-Serif" font-size="14.00">class = versicolor</text>
</g>
<!-- 3&#45;&gt;4 -->
<g id="edge4" class="edge">
<title>3&#45;&gt;4</title>
<path fill="none" stroke="black" d="M329.31,-344.19C309.25,-332.52 287.1,-319.62 266.63,-307.7"/>
<polygon fill="black" stroke="black" points="268.76,-304.31 258.35,-302.3 265.23,-310.36 268.76,-304.31"/>
</g>
<!-- 7 -->
<g id="node8" class="node">
<title>7</title>
<path fill="#c09cf2" stroke="black" d="M445.88,-306C445.88,-306 344.38,-306 344.38,-306 338.38,-306 332.38,-300 332.38,-294 332.38,-294 332.38,-235 332.38,-235 332.38,-229 338.38,-223 344.38,-223 344.38,-223 445.88,-223 445.88,-223 451.88,-223 457.88,-229 457.88,-235 457.88,-235 457.88,-294 457.88,-294 457.88,-300 451.88,-306 445.88,-306"/>
<text text-anchor="start" x="340.38" y="-288.7" font-family="Helvetica,sans-Serif" font-size="14.00">petal_width ≤ 1.55</text>
<text text-anchor="start" x="359.88" y="-273.7" font-family="Helvetica,sans-Serif" font-size="14.00">gini = 0.444</text>
<text text-anchor="start" x="358" y="-258.7" font-family="Helvetica,sans-Serif" font-size="14.00">samples = 6</text>
<text text-anchor="start" x="348.62" y="-243.7" font-family="Helvetica,sans-Serif" font-size="14.00">value = [0, 2, 4]</text>
<text text-anchor="start" x="347.12" y="-228.7" font-family="Helvetica,sans-Serif" font-size="14.00">class = virginica</text>
</g>
<!-- 3&#45;&gt;7 -->
<g id="edge7" class="edge">
<title>3&#45;&gt;7</title>
<path fill="none" stroke="black" d="M395.12,-341.58C395.12,-333.7 395.12,-325.34 395.12,-317.17"/>
<polygon fill="black" stroke="black" points="398.63,-317.2 395.12,-307.2 391.63,-317.2 398.63,-317.2"/>
</g>
<!-- 5 -->
<g id="node6" class="node">
<title>5</title>
<path fill="#39e581" stroke="black" d="M108.25,-179.5C108.25,-179.5 12,-179.5 12,-179.5 6,-179.5 0,-173.5 0,-167.5 0,-167.5 0,-123.5 0,-123.5 0,-117.5 6,-111.5 12,-111.5 12,-111.5 108.25,-111.5 108.25,-111.5 114.25,-111.5 120.25,-117.5 120.25,-123.5 120.25,-123.5 120.25,-167.5 120.25,-167.5 120.25,-173.5 114.25,-179.5 108.25,-179.5"/>
<text text-anchor="start" x="32.38" y="-162.2" font-family="Helvetica,sans-Serif" font-size="14.00">gini = 0.0</text>
<text text-anchor="start" x="19.25" y="-147.2" font-family="Helvetica,sans-Serif" font-size="14.00">samples = 47</text>
<text text-anchor="start" x="9.88" y="-132.2" font-family="Helvetica,sans-Serif" font-size="14.00">value = [0, 47, 0]</text>
<text text-anchor="start" x="8" y="-117.2" font-family="Helvetica,sans-Serif" font-size="14.00">class = versicolor</text>
</g>
<!-- 4&#45;&gt;5 -->
<g id="edge5" class="edge">
<title>4&#45;&gt;5</title>
<path fill="none" stroke="black" d="M147.26,-222.58C134.01,-211.01 119.6,-198.43 106.39,-186.89"/>
<polygon fill="black" stroke="black" points="109.17,-183.8 99.33,-179.86 104.56,-189.07 109.17,-183.8"/>
</g>
<!-- 6 -->
<g id="node7" class="node">
<title>6</title>
<path fill="#8139e5" stroke="black" d="M238.12,-179.5C238.12,-179.5 150.12,-179.5 150.12,-179.5 144.12,-179.5 138.12,-173.5 138.12,-167.5 138.12,-167.5 138.12,-123.5 138.12,-123.5 138.12,-117.5 144.12,-111.5 150.12,-111.5 150.12,-111.5 238.12,-111.5 238.12,-111.5 244.12,-111.5 250.12,-117.5 250.12,-123.5 250.12,-123.5 250.12,-167.5 250.12,-167.5 250.12,-173.5 244.12,-179.5 238.12,-179.5"/>
<text text-anchor="start" x="166.38" y="-162.2" font-family="Helvetica,sans-Serif" font-size="14.00">gini = 0.0</text>
<text text-anchor="start" x="157" y="-147.2" font-family="Helvetica,sans-Serif" font-size="14.00">samples = 1</text>
<text text-anchor="start" x="147.62" y="-132.2" font-family="Helvetica,sans-Serif" font-size="14.00">value = [0, 0, 1]</text>
<text text-anchor="start" x="146.12" y="-117.2" font-family="Helvetica,sans-Serif" font-size="14.00">class = virginica</text>
</g>
<!-- 4&#45;&gt;6 -->
<g id="edge6" class="edge">
<title>4&#45;&gt;6</title>
<path fill="none" stroke="black" d="M194.12,-222.58C194.12,-212.32 194.12,-201.27 194.12,-190.85"/>
<polygon fill="black" stroke="black" points="197.63,-190.86 194.12,-180.86 190.63,-190.86 197.63,-190.86"/>
</g>
<!-- 8 -->
<g id="node9" class="node">
<title>8</title>
<path fill="#8139e5" stroke="black" d="M368.12,-179.5C368.12,-179.5 280.12,-179.5 280.12,-179.5 274.12,-179.5 268.12,-173.5 268.12,-167.5 268.12,-167.5 268.12,-123.5 268.12,-123.5 268.12,-117.5 274.12,-111.5 280.12,-111.5 280.12,-111.5 368.12,-111.5 368.12,-111.5 374.12,-111.5 380.12,-117.5 380.12,-123.5 380.12,-123.5 380.12,-167.5 380.12,-167.5 380.12,-173.5 374.12,-179.5 368.12,-179.5"/>
<text text-anchor="start" x="296.38" y="-162.2" font-family="Helvetica,sans-Serif" font-size="14.00">gini = 0.0</text>
<text text-anchor="start" x="287" y="-147.2" font-family="Helvetica,sans-Serif" font-size="14.00">samples = 3</text>
<text text-anchor="start" x="277.62" y="-132.2" font-family="Helvetica,sans-Serif" font-size="14.00">value = [0, 0, 3]</text>
<text text-anchor="start" x="276.12" y="-117.2" font-family="Helvetica,sans-Serif" font-size="14.00">class = virginica</text>
</g>
<!-- 7&#45;&gt;8 -->
<g id="edge8" class="edge">
<title>7&#45;&gt;8</title>
<path fill="none" stroke="black" d="M370.29,-222.58C363.74,-211.77 356.64,-200.09 350.03,-189.19"/>
<polygon fill="black" stroke="black" points="352.55,-187.59 344.37,-180.86 346.57,-191.23 352.55,-187.59"/>
</g>
<!-- 9 -->
<g id="node10" class="node">
<title>9</title>
<path fill="#9cf2c0" stroke="black" d="M516.5,-187C516.5,-187 409.75,-187 409.75,-187 403.75,-187 397.75,-181 397.75,-175 397.75,-175 397.75,-116 397.75,-116 397.75,-110 403.75,-104 409.75,-104 409.75,-104 516.5,-104 516.5,-104 522.5,-104 528.5,-110 528.5,-116 528.5,-116 528.5,-175 528.5,-175 528.5,-181 522.5,-187 516.5,-187"/>
<text text-anchor="start" x="405.75" y="-169.7" font-family="Helvetica,sans-Serif" font-size="14.00">petal_length ≤ 5.45</text>
<text text-anchor="start" x="427.88" y="-154.7" font-family="Helvetica,sans-Serif" font-size="14.00">gini = 0.444</text>
<text text-anchor="start" x="426" y="-139.7" font-family="Helvetica,sans-Serif" font-size="14.00">samples = 3</text>
<text text-anchor="start" x="416.62" y="-124.7" font-family="Helvetica,sans-Serif" font-size="14.00">value = [0, 2, 1]</text>
<text text-anchor="start" x="411" y="-109.7" font-family="Helvetica,sans-Serif" font-size="14.00">class = versicolor</text>
</g>
<!-- 7&#45;&gt;9 -->
<g id="edge9" class="edge">
<title>7&#45;&gt;9</title>
<path fill="none" stroke="black" d="M418.91,-222.58C423.8,-214.16 429.01,-205.2 434.06,-196.5"/>
<polygon fill="black" stroke="black" points="437.47,-198.6 439.47,-188.2 431.42,-195.09 437.47,-198.6"/>
</g>
<!-- 10 -->
<g id="node11" class="node">
<title>10</title>
<path fill="#39e581" stroke="black" d="M444.25,-68C444.25,-68 348,-68 348,-68 342,-68 336,-62 336,-56 336,-56 336,-12 336,-12 336,-6 342,0 348,0 348,0 444.25,0 444.25,0 450.25,0 456.25,-6 456.25,-12 456.25,-12 456.25,-56 456.25,-56 456.25,-62 450.25,-68 444.25,-68"/>
<text text-anchor="start" x="368.38" y="-50.7" font-family="Helvetica,sans-Serif" font-size="14.00">gini = 0.0</text>
<text text-anchor="start" x="359" y="-35.7" font-family="Helvetica,sans-Serif" font-size="14.00">samples = 2</text>
<text text-anchor="start" x="349.62" y="-20.7" font-family="Helvetica,sans-Serif" font-size="14.00">value = [0, 2, 0]</text>
<text text-anchor="start" x="344" y="-5.7" font-family="Helvetica,sans-Serif" font-size="14.00">class = versicolor</text>
</g>
<!-- 9&#45;&gt;10 -->
<g id="edge10" class="edge">
<title>9&#45;&gt;10</title>
<path fill="none" stroke="black" d="M438.18,-103.73C432.93,-95.15 427.38,-86.09 422.1,-77.46"/>
<polygon fill="black" stroke="black" points="424.7,-76 416.5,-69.3 418.73,-79.66 424.7,-76"/>
</g>
<!-- 11 -->
<g id="node12" class="node">
<title>11</title>
<path fill="#8139e5" stroke="black" d="M574.12,-68C574.12,-68 486.12,-68 486.12,-68 480.12,-68 474.12,-62 474.12,-56 474.12,-56 474.12,-12 474.12,-12 474.12,-6 480.12,0 486.12,0 486.12,0 574.12,0 574.12,0 580.12,0 586.12,-6 586.12,-12 586.12,-12 586.12,-56 586.12,-56 586.12,-62 580.12,-68 574.12,-68"/>
<text text-anchor="start" x="502.38" y="-50.7" font-family="Helvetica,sans-Serif" font-size="14.00">gini = 0.0</text>
<text text-anchor="start" x="493" y="-35.7" font-family="Helvetica,sans-Serif" font-size="14.00">samples = 1</text>
<text text-anchor="start" x="483.62" y="-20.7" font-family="Helvetica,sans-Serif" font-size="14.00">value = [0, 0, 1]</text>
<text text-anchor="start" x="482.12" y="-5.7" font-family="Helvetica,sans-Serif" font-size="14.00">class = virginica</text>
</g>
<!-- 9&#45;&gt;11 -->
<g id="edge11" class="edge">
<title>9&#45;&gt;11</title>
<path fill="none" stroke="black" d="M488.07,-103.73C493.32,-95.15 498.87,-86.09 504.15,-77.46"/>
<polygon fill="black" stroke="black" points="507.52,-79.66 509.75,-69.3 501.55,-76 507.52,-79.66"/>
</g>
<!-- 13 -->
<g id="node14" class="node">
<title>13</title>
<path fill="#c09cf2" stroke="black" d="M650.62,-306C650.62,-306 553.62,-306 553.62,-306 547.62,-306 541.62,-300 541.62,-294 541.62,-294 541.62,-235 541.62,-235 541.62,-229 547.62,-223 553.62,-223 553.62,-223 650.62,-223 650.62,-223 656.62,-223 662.62,-229 662.62,-235 662.62,-235 662.62,-294 662.62,-294 662.62,-300 656.62,-306 650.62,-306"/>
<text text-anchor="start" x="549.62" y="-288.7" font-family="Helvetica,sans-Serif" font-size="14.00">sepal_width ≤ 3.1</text>
<text text-anchor="start" x="566.88" y="-273.7" font-family="Helvetica,sans-Serif" font-size="14.00">gini = 0.444</text>
<text text-anchor="start" x="565" y="-258.7" font-family="Helvetica,sans-Serif" font-size="14.00">samples = 3</text>
<text text-anchor="start" x="555.62" y="-243.7" font-family="Helvetica,sans-Serif" font-size="14.00">value = [0, 1, 2]</text>
<text text-anchor="start" x="554.12" y="-228.7" font-family="Helvetica,sans-Serif" font-size="14.00">class = virginica</text>
</g>
<!-- 12&#45;&gt;13 -->
<g id="edge13" class="edge">
<title>12&#45;&gt;13</title>
<path fill="none" stroke="black" d="M602.12,-341.58C602.12,-333.7 602.12,-325.34 602.12,-317.17"/>
<polygon fill="black" stroke="black" points="605.63,-317.2 602.12,-307.2 598.63,-317.2 605.63,-317.2"/>
</g>
<!-- 16 -->
<g id="node17" class="node">
<title>16</title>
<path fill="#8139e5" stroke="black" d="M785.38,-298.5C785.38,-298.5 692.88,-298.5 692.88,-298.5 686.88,-298.5 680.88,-292.5 680.88,-286.5 680.88,-286.5 680.88,-242.5 680.88,-242.5 680.88,-236.5 686.88,-230.5 692.88,-230.5 692.88,-230.5 785.38,-230.5 785.38,-230.5 791.38,-230.5 797.38,-236.5 797.38,-242.5 797.38,-242.5 797.38,-286.5 797.38,-286.5 797.38,-292.5 791.38,-298.5 785.38,-298.5"/>
<text text-anchor="start" x="711.38" y="-281.2" font-family="Helvetica,sans-Serif" font-size="14.00">gini = 0.0</text>
<text text-anchor="start" x="698.25" y="-266.2" font-family="Helvetica,sans-Serif" font-size="14.00">samples = 43</text>
<text text-anchor="start" x="688.88" y="-251.2" font-family="Helvetica,sans-Serif" font-size="14.00">value = [0, 0, 43]</text>
<text text-anchor="start" x="691.12" y="-236.2" font-family="Helvetica,sans-Serif" font-size="14.00">class = virginica</text>
</g>
<!-- 12&#45;&gt;16 -->
<g id="edge16" class="edge">
<title>12&#45;&gt;16</title>
<path fill="none" stroke="black" d="M650.04,-341.58C663.59,-330.01 678.32,-317.43 691.83,-305.89"/>
<polygon fill="black" stroke="black" points="693.73,-308.02 699.06,-298.86 689.18,-302.69 693.73,-308.02"/>
</g>
<!-- 14 -->
<g id="node15" class="node">
<title>14</title>
<path fill="#8139e5" stroke="black" d="M646.12,-179.5C646.12,-179.5 558.12,-179.5 558.12,-179.5 552.12,-179.5 546.12,-173.5 546.12,-167.5 546.12,-167.5 546.12,-123.5 546.12,-123.5 546.12,-117.5 552.12,-111.5 558.12,-111.5 558.12,-111.5 646.12,-111.5 646.12,-111.5 652.12,-111.5 658.12,-117.5 658.12,-123.5 658.12,-123.5 658.12,-167.5 658.12,-167.5 658.12,-173.5 652.12,-179.5 646.12,-179.5"/>
<text text-anchor="start" x="574.38" y="-162.2" font-family="Helvetica,sans-Serif" font-size="14.00">gini = 0.0</text>
<text text-anchor="start" x="565" y="-147.2" font-family="Helvetica,sans-Serif" font-size="14.00">samples = 2</text>
<text text-anchor="start" x="555.62" y="-132.2" font-family="Helvetica,sans-Serif" font-size="14.00">value = [0, 0, 2]</text>
<text text-anchor="start" x="554.12" y="-117.2" font-family="Helvetica,sans-Serif" font-size="14.00">class = virginica</text>
</g>
<!-- 13&#45;&gt;14 -->
<g id="edge14" class="edge">
<title>13&#45;&gt;14</title>
<path fill="none" stroke="black" d="M602.12,-222.58C602.12,-212.32 602.12,-201.27 602.12,-190.85"/>
<polygon fill="black" stroke="black" points="605.63,-190.86 602.12,-180.86 598.63,-190.86 605.63,-190.86"/>
</g>
<!-- 15 -->
<g id="node16" class="node">
<title>15</title>
<path fill="#39e581" stroke="black" d="M784.25,-179.5C784.25,-179.5 688,-179.5 688,-179.5 682,-179.5 676,-173.5 676,-167.5 676,-167.5 676,-123.5 676,-123.5 676,-117.5 682,-111.5 688,-111.5 688,-111.5 784.25,-111.5 784.25,-111.5 790.25,-111.5 796.25,-117.5 796.25,-123.5 796.25,-123.5 796.25,-167.5 796.25,-167.5 796.25,-173.5 790.25,-179.5 784.25,-179.5"/>
<text text-anchor="start" x="708.38" y="-162.2" font-family="Helvetica,sans-Serif" font-size="14.00">gini = 0.0</text>
<text text-anchor="start" x="699" y="-147.2" font-family="Helvetica,sans-Serif" font-size="14.00">samples = 1</text>
<text text-anchor="start" x="689.62" y="-132.2" font-family="Helvetica,sans-Serif" font-size="14.00">value = [0, 1, 0]</text>
<text text-anchor="start" x="684" y="-117.2" font-family="Helvetica,sans-Serif" font-size="14.00">class = versicolor</text>
</g>
<!-- 13&#45;&gt;15 -->
<g id="edge15" class="edge">
<title>13&#45;&gt;15</title>
<path fill="none" stroke="black" d="M648.99,-222.58C662.24,-211.01 676.65,-198.43 689.86,-186.89"/>
<polygon fill="black" stroke="black" points="691.69,-189.07 696.92,-179.86 687.08,-183.8 691.69,-189.07"/>
</g>
</g>
</svg>