<?xml version="1.0" encoding="utf-8" standalone="no"?>
<!DOCTYPE svg PUBLIC "-//W3C//DTD SVG 1.1//EN"
  "http://www.w3.org/Graphics/SVG/1.1/DTD/svg11.dtd">
<svg xmlns:xlink="http://www.w3.org/1999/xlink" width="660.660158pt" height="369.830893pt" viewBox="0 0 660.660158 369.830893" xmlns="http://www.w3.org/2000/svg" version="1.1">
 <metadata>
  <rdf:RDF xmlns:dc="http://purl.org/dc/elements/1.1/" xmlns:cc="http://creativecommons.org/ns#" xmlns:rdf="http://www.w3.org/1999/02/22-rdf-syntax-ns#">
   <cc:Work>
    <dc:type rdf:resource="http://purl.org/dc/dcmitype/StillImage"/>
    <dc:date>2023-02-03T16:08:02.503063</dc:date>
    <dc:format>image/svg+xml</dc:format>
    <dc:creator>
     <cc:Agent>
      <dc:title>Matplotlib v3.5.2, https://matplotlib.org/</dc:title>
     </cc:Agent>
    </dc:creator>
   </cc:Work>
  </rdf:RDF>
 </metadata>
 <defs>
  <style type="text/css">*{stroke-linejoin: round; stroke-linecap: butt}</style>
 </defs>
 <g id="figure_1">
  <g id="patch_1">
   <path d="M 0 369.830893 
L 660.660158 369.830893 
L 660.660158 0 
L 0 0 
L 0 369.830893 
z
" style="fill: none"/>
  </g>
  <g id="axes_1">
   <g id="patch_2">
    <path d="M 39.660158 347.33072 
L 653.460158 347.33072 
L 653.460158 21.17072 
L 39.660158 21.17072 
z
" style="fill: #ffffff"/>
   </g>
   <g id="PathCollection_1">
    <defs>
     <path id="m9337a4d8d2" d="M 0 3 
C 0.795609 3 1.55874 2.683901 2.12132 2.12132 
C 2.683901 1.55874 3 0.795609 3 0 
C 3 -0.795609 2.683901 -1.55874 2.12132 -2.12132 
C 1.55874 -2.683901 0.795609 -3 0 -3 
C -0.795609 -3 -1.55874 -2.683901 -2.12132 -2.12132 
C -2.683901 -1.55874 -3 -0.795609 -3 0 
C -3 0.795609 -2.683901 1.55874 -2.12132 2.12132 
C -1.55874 2.683901 -0.795609 3 0 3 
z
" style="stroke: #0000ff"/>
    </defs>
    <g clip-path="url(#pd076357c39)">
     <use xlink:href="#m9337a4d8d2" x="67.560158" y="183.931555" style="fill: #0000ff; stroke: #0000ff"/>
     <use xlink:href="#m9337a4d8d2" x="129.560158" y="182.981157" style="fill: #0000ff; stroke: #0000ff"/>
     <use xlink:href="#m9337a4d8d2" x="191.560158" y="180.721799" style="fill: #0000ff; stroke: #0000ff"/>
     <use xlink:href="#m9337a4d8d2" x="253.560158" y="173.073913" style="fill: #0000ff; stroke: #0000ff"/>
     <use xlink:href="#m9337a4d8d2" x="315.560158" y="118.545752" style="fill: #0000ff; stroke: #0000ff"/>
     <use xlink:href="#m9337a4d8d2" x="377.560158" y="118.545752" style="fill: #0000ff; stroke: #0000ff"/>
     <use xlink:href="#m9337a4d8d2" x="439.560158" y="173.073913" style="fill: #0000ff; stroke: #0000ff"/>
     <use xlink:href="#m9337a4d8d2" x="501.560158" y="180.721799" style="fill: #0000ff; stroke: #0000ff"/>
     <use xlink:href="#m9337a4d8d2" x="563.560158" y="182.981157" style="fill: #0000ff; stroke: #0000ff"/>
     <use xlink:href="#m9337a4d8d2" x="625.560158" y="183.931555" style="fill: #0000ff; stroke: #0000ff"/>
    </g>
   </g>
   <g id="PathCollection_2">
    <defs>
     <path id="m5a6102a1f6" d="M 0 3 
C 0.795609 3 1.55874 2.683901 2.12132 2.12132 
C 2.683901 1.55874 3 0.795609 3 0 
C 3 -0.795609 2.683901 -1.55874 2.12132 -2.12132 
C 1.55874 -2.683901 0.795609 -3 0 -3 
C -0.795609 -3 -1.55874 -2.683901 -2.12132 -2.12132 
C -2.683901 -1.55874 -3 -0.795609 -3 0 
C -3 0.795609 -2.683901 1.55874 -2.12132 2.12132 
C -1.55874 2.683901 -0.795609 3 0 3 
z
" style="stroke: #0000ff; stroke-width: 1.5"/>
    </defs>
    <g clip-path="url(#pd076357c39)">
     <use xlink:href="#m5a6102a1f6" x="98.560158" y="183.543513" style="fill: #ffffff; stroke: #0000ff; stroke-width: 1.5"/>
     <use xlink:href="#m5a6102a1f6" x="160.560158" y="182.123054" style="fill: #ffffff; stroke: #0000ff; stroke-width: 1.5"/>
     <use xlink:href="#m5a6102a1f6" x="222.560158" y="178.21127" style="fill: #ffffff; stroke: #0000ff; stroke-width: 1.5"/>
     <use xlink:href="#m5a6102a1f6" x="284.560158" y="160.249592" style="fill: #ffffff; stroke: #0000ff; stroke-width: 1.5"/>
     <use xlink:href="#m5a6102a1f6" x="346.560158" y="35.996175" style="fill: #ffffff; stroke: #0000ff; stroke-width: 1.5"/>
     <use xlink:href="#m5a6102a1f6" x="408.560158" y="160.249592" style="fill: #ffffff; stroke: #0000ff; stroke-width: 1.5"/>
     <use xlink:href="#m5a6102a1f6" x="470.560158" y="178.21127" style="fill: #ffffff; stroke: #0000ff; stroke-width: 1.5"/>
     <use xlink:href="#m5a6102a1f6" x="532.560158" y="182.123054" style="fill: #ffffff; stroke: #0000ff; stroke-width: 1.5"/>
     <use xlink:href="#m5a6102a1f6" x="594.560158" y="183.543513" style="fill: #ffffff; stroke: #0000ff; stroke-width: 1.5"/>
    </g>
   </g>
   <g id="matplotlib.axis_1">
    <g id="xtick_1">
     <g id="line2d_1">
      <path d="M 67.560158 347.33072 
L 67.560158 21.17072 
" clip-path="url(#pd076357c39)" style="fill: none; stroke-dasharray: 0.8,1.32; stroke-dashoffset: 0; stroke: #b0b0b0; stroke-width: 0.8"/>
     </g>
     <g id="line2d_2">
      <defs>
       <path id="m48f9b8b23d" d="M 0 0 
L 0 3.5 
" style="stroke: #000000; stroke-width: 0.8"/>
      </defs>
      <g>
       <use xlink:href="#m48f9b8b23d" x="67.560158" y="347.33072" style="stroke: #000000; stroke-width: 0.8"/>
      </g>
     </g>
     <g id="text_1">
      <!-- $\mathdefault{−2.0}$ -->
      <g transform="translate(57.320747 360.417514)scale(0.1 -0.1)">
       <defs>
        <path id="CMSY10-0" d="M 4218 1472 
C 4326 1472 4442 1472 4442 1600 
C 4442 1728 4326 1728 4218 1728 
L 755 1728 
C 646 1728 531 1728 531 1600 
C 531 1472 646 1472 755 1472 
L 4218 1472 
z
" transform="scale(0.015625)"/>
        <path id="CMR17-32" d="M 2669 989 
L 2554 989 
C 2490 536 2438 459 2413 420 
C 2381 369 1920 369 1830 369 
L 602 369 
C 832 619 1280 1072 1824 1597 
C 2214 1967 2669 2402 2669 3035 
C 2669 3790 2067 4224 1395 4224 
C 691 4224 262 3604 262 3030 
C 262 2780 448 2748 525 2748 
C 589 2748 781 2787 781 3010 
C 781 3207 614 3264 525 3264 
C 486 3264 448 3258 422 3245 
C 544 3790 915 4058 1306 4058 
C 1862 4058 2227 3617 2227 3035 
C 2227 2479 1901 2000 1536 1584 
L 262 146 
L 262 0 
L 2515 0 
L 2669 989 
z
" transform="scale(0.015625)"/>
        <path id="CMMI12-3a" d="M 1178 307 
C 1178 492 1024 619 870 619 
C 685 619 557 466 557 313 
C 557 128 710 0 864 0 
C 1050 0 1178 153 1178 307 
z
" transform="scale(0.015625)"/>
        <path id="CMR17-30" d="M 2688 2025 
C 2688 2416 2682 3080 2413 3591 
C 2176 4039 1798 4198 1466 4198 
C 1158 4198 768 4058 525 3597 
C 269 3118 243 2524 243 2025 
C 243 1661 250 1106 448 619 
C 723 -39 1216 -128 1466 -128 
C 1760 -128 2208 -7 2470 600 
C 2662 1042 2688 1559 2688 2025 
z
M 1466 -26 
C 1056 -26 813 325 723 812 
C 653 1188 653 1738 653 2096 
C 653 2588 653 2997 736 3387 
C 858 3929 1216 4096 1466 4096 
C 1728 4096 2067 3923 2189 3400 
C 2272 3036 2278 2607 2278 2096 
C 2278 1680 2278 1169 2202 792 
C 2067 95 1690 -26 1466 -26 
z
" transform="scale(0.015625)"/>
       </defs>
       <use xlink:href="#CMSY10-0" transform="scale(0.996264)"/>
       <use xlink:href="#CMR17-32" transform="translate(77.487468 0)scale(0.996264)"/>
       <use xlink:href="#CMMI12-3a" transform="translate(123.177945 0)scale(0.996264)"/>
       <use xlink:href="#CMR17-30" transform="translate(150.275122 0)scale(0.996264)"/>
      </g>
     </g>
    </g>
    <g id="xtick_2">
     <g id="line2d_3">
      <path d="M 137.310158 347.33072 
L 137.310158 21.17072 
" clip-path="url(#pd076357c39)" style="fill: none; stroke-dasharray: 0.8,1.32; stroke-dashoffset: 0; stroke: #b0b0b0; stroke-width: 0.8"/>
     </g>
     <g id="line2d_4">
      <g>
       <use xlink:href="#m48f9b8b23d" x="137.310158" y="347.33072" style="stroke: #000000; stroke-width: 0.8"/>
      </g>
     </g>
     <g id="text_2">
      <!-- $\mathdefault{−1.5}$ -->
      <g transform="translate(127.070747 360.417514)scale(0.1 -0.1)">
       <defs>
        <path id="CMR17-31" d="M 1702 4058 
C 1702 4192 1696 4192 1606 4192 
C 1357 3916 979 3827 621 3827 
C 602 3827 570 3827 563 3808 
C 557 3795 557 3782 557 3648 
C 755 3648 1088 3686 1344 3839 
L 1344 461 
C 1344 236 1331 160 781 160 
L 589 160 
L 589 0 
C 896 0 1216 0 1523 0 
C 1830 0 2150 0 2458 0 
L 2458 160 
L 2266 160 
C 1715 160 1702 230 1702 458 
L 1702 4058 
z
" transform="scale(0.015625)"/>
        <path id="CMR17-35" d="M 730 3692 
C 794 3666 1056 3584 1325 3584 
C 1920 3584 2246 3911 2432 4100 
C 2432 4157 2432 4192 2394 4192 
C 2387 4192 2374 4192 2323 4163 
C 2099 4058 1837 3973 1517 3973 
C 1325 3973 1037 3999 723 4139 
C 653 4171 640 4171 634 4171 
C 602 4171 595 4164 595 4037 
L 595 2203 
C 595 2089 595 2057 659 2057 
C 691 2057 704 2070 736 2114 
C 941 2401 1222 2522 1542 2522 
C 1766 2522 2246 2382 2246 1289 
C 2246 1085 2246 715 2054 421 
C 1894 159 1645 25 1370 25 
C 947 25 518 320 403 814 
C 429 807 480 795 506 795 
C 589 795 749 840 749 1038 
C 749 1210 627 1280 506 1280 
C 358 1280 262 1190 262 1011 
C 262 454 704 -128 1382 -128 
C 2042 -128 2669 440 2669 1264 
C 2669 2030 2170 2624 1549 2624 
C 1222 2624 947 2503 730 2274 
L 730 3692 
z
" transform="scale(0.015625)"/>
       </defs>
       <use xlink:href="#CMSY10-0" transform="scale(0.996264)"/>
       <use xlink:href="#CMR17-31" transform="translate(77.487468 0)scale(0.996264)"/>
       <use xlink:href="#CMMI12-3a" transform="translate(123.177945 0)scale(0.996264)"/>
       <use xlink:href="#CMR17-35" transform="translate(150.275122 0)scale(0.996264)"/>
      </g>
     </g>
    </g>
    <g id="xtick_3">
     <g id="line2d_5">
      <path d="M 207.060158 347.33072 
L 207.060158 21.17072 
" clip-path="url(#pd076357c39)" style="fill: none; stroke-dasharray: 0.8,1.32; stroke-dashoffset: 0; stroke: #b0b0b0; stroke-width: 0.8"/>
     </g>
     <g id="line2d_6">
      <g>
       <use xlink:href="#m48f9b8b23d" x="207.060158" y="347.33072" style="stroke: #000000; stroke-width: 0.8"/>
      </g>
     </g>
     <g id="text_3">
      <!-- $\mathdefault{−1.0}$ -->
      <g transform="translate(196.820747 360.417514)scale(0.1 -0.1)">
       <use xlink:href="#CMSY10-0" transform="scale(0.996264)"/>
       <use xlink:href="#CMR17-31" transform="translate(77.487468 0)scale(0.996264)"/>
       <use xlink:href="#CMMI12-3a" transform="translate(123.177945 0)scale(0.996264)"/>
       <use xlink:href="#CMR17-30" transform="translate(150.275122 0)scale(0.996264)"/>
      </g>
     </g>
    </g>
    <g id="xtick_4">
     <g id="line2d_7">
      <path d="M 276.810158 347.33072 
L 276.810158 21.17072 
" clip-path="url(#pd076357c39)" style="fill: none; stroke-dasharray: 0.8,1.32; stroke-dashoffset: 0; stroke: #b0b0b0; stroke-width: 0.8"/>
     </g>
     <g id="line2d_8">
      <g>
       <use xlink:href="#m48f9b8b23d" x="276.810158" y="347.33072" style="stroke: #000000; stroke-width: 0.8"/>
      </g>
     </g>
     <g id="text_4">
      <!-- $\mathdefault{−0.5}$ -->
      <g transform="translate(266.570747 360.417514)scale(0.1 -0.1)">
       <use xlink:href="#CMSY10-0" transform="scale(0.996264)"/>
       <use xlink:href="#CMR17-30" transform="translate(77.487468 0)scale(0.996264)"/>
       <use xlink:href="#CMMI12-3a" transform="translate(123.177945 0)scale(0.996264)"/>
       <use xlink:href="#CMR17-35" transform="translate(150.275122 0)scale(0.996264)"/>
      </g>
     </g>
    </g>
    <g id="xtick_5">
     <g id="line2d_9">
      <path d="M 346.560158 347.33072 
L 346.560158 21.17072 
" clip-path="url(#pd076357c39)" style="fill: none; stroke-dasharray: 0.8,1.32; stroke-dashoffset: 0; stroke: #b0b0b0; stroke-width: 0.8"/>
     </g>
     <g id="line2d_10">
      <g>
       <use xlink:href="#m48f9b8b23d" x="346.560158" y="347.33072" style="stroke: #000000; stroke-width: 0.8"/>
      </g>
     </g>
     <g id="text_5">
      <!-- $\mathdefault{0.0}$ -->
      <g transform="translate(340.195118 360.417514)scale(0.1 -0.1)">
       <use xlink:href="#CMR17-30" transform="scale(0.996264)"/>
       <use xlink:href="#CMMI12-3a" transform="translate(45.690477 0)scale(0.996264)"/>
       <use xlink:href="#CMR17-30" transform="translate(72.787654 0)scale(0.996264)"/>
      </g>
     </g>
    </g>
    <g id="xtick_6">
     <g id="line2d_11">
      <path d="M 416.310158 347.33072 
L 416.310158 21.17072 
" clip-path="url(#pd076357c39)" style="fill: none; stroke-dasharray: 0.8,1.32; stroke-dashoffset: 0; stroke: #b0b0b0; stroke-width: 0.8"/>
     </g>
     <g id="line2d_12">
      <g>
       <use xlink:href="#m48f9b8b23d" x="416.310158" y="347.33072" style="stroke: #000000; stroke-width: 0.8"/>
      </g>
     </g>
     <g id="text_6">
      <!-- $\mathdefault{0.5}$ -->
      <g transform="translate(409.945118 360.417514)scale(0.1 -0.1)">
       <use xlink:href="#CMR17-30" transform="scale(0.996264)"/>
       <use xlink:href="#CMMI12-3a" transform="translate(45.690477 0)scale(0.996264)"/>
       <use xlink:href="#CMR17-35" transform="translate(72.787654 0)scale(0.996264)"/>
      </g>
     </g>
    </g>
    <g id="xtick_7">
     <g id="line2d_13">
      <path d="M 486.060158 347.33072 
L 486.060158 21.17072 
" clip-path="url(#pd076357c39)" style="fill: none; stroke-dasharray: 0.8,1.32; stroke-dashoffset: 0; stroke: #b0b0b0; stroke-width: 0.8"/>
     </g>
     <g id="line2d_14">
      <g>
       <use xlink:href="#m48f9b8b23d" x="486.060158" y="347.33072" style="stroke: #000000; stroke-width: 0.8"/>
      </g>
     </g>
     <g id="text_7">
      <!-- $\mathdefault{1.0}$ -->
      <g transform="translate(479.695118 360.417514)scale(0.1 -0.1)">
       <use xlink:href="#CMR17-31" transform="scale(0.996264)"/>
       <use xlink:href="#CMMI12-3a" transform="translate(45.690477 0)scale(0.996264)"/>
       <use xlink:href="#CMR17-30" transform="translate(72.787654 0)scale(0.996264)"/>
      </g>
     </g>
    </g>
    <g id="xtick_8">
     <g id="line2d_15">
      <path d="M 555.810158 347.33072 
L 555.810158 21.17072 
" clip-path="url(#pd076357c39)" style="fill: none; stroke-dasharray: 0.8,1.32; stroke-dashoffset: 0; stroke: #b0b0b0; stroke-width: 0.8"/>
     </g>
     <g id="line2d_16">
      <g>
       <use xlink:href="#m48f9b8b23d" x="555.810158" y="347.33072" style="stroke: #000000; stroke-width: 0.8"/>
      </g>
     </g>
     <g id="text_8">
      <!-- $\mathdefault{1.5}$ -->
      <g transform="translate(549.445118 360.417514)scale(0.1 -0.1)">
       <use xlink:href="#CMR17-31" transform="scale(0.996264)"/>
       <use xlink:href="#CMMI12-3a" transform="translate(45.690477 0)scale(0.996264)"/>
       <use xlink:href="#CMR17-35" transform="translate(72.787654 0)scale(0.996264)"/>
      </g>
     </g>
    </g>
    <g id="xtick_9">
     <g id="line2d_17">
      <path d="M 625.560158 347.33072 
L 625.560158 21.17072 
" clip-path="url(#pd076357c39)" style="fill: none; stroke-dasharray: 0.8,1.32; stroke-dashoffset: 0; stroke: #b0b0b0; stroke-width: 0.8"/>
     </g>
     <g id="line2d_18">
      <g>
       <use xlink:href="#m48f9b8b23d" x="625.560158" y="347.33072" style="stroke: #000000; stroke-width: 0.8"/>
      </g>
     </g>
     <g id="text_9">
      <!-- $\mathdefault{2.0}$ -->
      <g transform="translate(619.195118 360.417514)scale(0.1 -0.1)">
       <use xlink:href="#CMR17-32" transform="scale(0.996264)"/>
       <use xlink:href="#CMMI12-3a" transform="translate(45.690477 0)scale(0.996264)"/>
       <use xlink:href="#CMR17-30" transform="translate(72.787654 0)scale(0.996264)"/>
      </g>
     </g>
    </g>
   </g>
   <g id="matplotlib.axis_2">
    <g id="ytick_1">
     <g id="line2d_19">
      <path d="M 39.660158 334.825644 
L 653.460158 334.825644 
" clip-path="url(#pd076357c39)" style="fill: none; stroke-dasharray: 0.8,1.32; stroke-dashoffset: 0; stroke: #b0b0b0; stroke-width: 0.8"/>
     </g>
     <g id="line2d_20">
      <defs>
       <path id="m501e6f7d26" d="M 0 0 
L -3.5 0 
" style="stroke: #000000; stroke-width: 0.8"/>
      </defs>
      <g>
       <use xlink:href="#m501e6f7d26" x="39.660158" y="334.825644" style="stroke: #000000; stroke-width: 0.8"/>
      </g>
     </g>
     <g id="text_10">
      <!-- $\mathdefault{−1.00}$ -->
      <g transform="translate(7.2 337.86904)scale(0.1 -0.1)">
       <use xlink:href="#CMSY10-0" transform="scale(0.996264)"/>
       <use xlink:href="#CMR17-31" transform="translate(77.487468 0)scale(0.996264)"/>
       <use xlink:href="#CMMI12-3a" transform="translate(123.177945 0)scale(0.996264)"/>
       <use xlink:href="#CMR17-30" transform="translate(150.275122 0)scale(0.996264)"/>
       <use xlink:href="#CMR17-30" transform="translate(195.965599 0)scale(0.996264)"/>
      </g>
     </g>
    </g>
    <g id="ytick_2">
     <g id="line2d_21">
      <path d="M 39.660158 297.47196 
L 653.460158 297.47196 
" clip-path="url(#pd076357c39)" style="fill: none; stroke-dasharray: 0.8,1.32; stroke-dashoffset: 0; stroke: #b0b0b0; stroke-width: 0.8"/>
     </g>
     <g id="line2d_22">
      <g>
       <use xlink:href="#m501e6f7d26" x="39.660158" y="297.47196" style="stroke: #000000; stroke-width: 0.8"/>
      </g>
     </g>
     <g id="text_11">
      <!-- $\mathdefault{−0.75}$ -->
      <g transform="translate(7.2 300.515357)scale(0.1 -0.1)">
       <defs>
        <path id="CMR17-37" d="M 2886 3941 
L 2886 4081 
L 1382 4081 
C 634 4081 621 4165 595 4288 
L 480 4288 
L 294 3094 
L 410 3094 
C 429 3215 474 3540 550 3661 
C 589 3712 1062 3712 1171 3712 
L 2579 3712 
L 1869 2661 
C 1395 1954 1069 999 1069 165 
C 1069 89 1069 -128 1299 -128 
C 1530 -128 1530 89 1530 171 
L 1530 465 
C 1530 1508 1709 2196 2003 2636 
L 2886 3941 
z
" transform="scale(0.015625)"/>
       </defs>
       <use xlink:href="#CMSY10-0" transform="scale(0.996264)"/>
       <use xlink:href="#CMR17-30" transform="translate(77.487468 0)scale(0.996264)"/>
       <use xlink:href="#CMMI12-3a" transform="translate(123.177945 0)scale(0.996264)"/>
       <use xlink:href="#CMR17-37" transform="translate(150.275122 0)scale(0.996264)"/>
       <use xlink:href="#CMR17-35" transform="translate(195.965599 0)scale(0.996264)"/>
      </g>
     </g>
    </g>
    <g id="ytick_3">
     <g id="line2d_23">
      <path d="M 39.660158 260.118276 
L 653.460158 260.118276 
" clip-path="url(#pd076357c39)" style="fill: none; stroke-dasharray: 0.8,1.32; stroke-dashoffset: 0; stroke: #b0b0b0; stroke-width: 0.8"/>
     </g>
     <g id="line2d_24">
      <g>
       <use xlink:href="#m501e6f7d26" x="39.660158" y="260.118276" style="stroke: #000000; stroke-width: 0.8"/>
      </g>
     </g>
     <g id="text_12">
      <!-- $\mathdefault{−0.50}$ -->
      <g transform="translate(7.2 263.161673)scale(0.1 -0.1)">
       <use xlink:href="#CMSY10-0" transform="scale(0.996264)"/>
       <use xlink:href="#CMR17-30" transform="translate(77.487468 0)scale(0.996264)"/>
       <use xlink:href="#CMMI12-3a" transform="translate(123.177945 0)scale(0.996264)"/>
       <use xlink:href="#CMR17-35" transform="translate(150.275122 0)scale(0.996264)"/>
       <use xlink:href="#CMR17-30" transform="translate(195.965599 0)scale(0.996264)"/>
      </g>
     </g>
    </g>
    <g id="ytick_4">
     <g id="line2d_25">
      <path d="M 39.660158 222.764593 
L 653.460158 222.764593 
" clip-path="url(#pd076357c39)" style="fill: none; stroke-dasharray: 0.8,1.32; stroke-dashoffset: 0; stroke: #b0b0b0; stroke-width: 0.8"/>
     </g>
     <g id="line2d_26">
      <g>
       <use xlink:href="#m501e6f7d26" x="39.660158" y="222.764593" style="stroke: #000000; stroke-width: 0.8"/>
      </g>
     </g>
     <g id="text_13">
      <!-- $\mathdefault{−0.25}$ -->
      <g transform="translate(7.2 225.80799)scale(0.1 -0.1)">
       <use xlink:href="#CMSY10-0" transform="scale(0.996264)"/>
       <use xlink:href="#CMR17-30" transform="translate(77.487468 0)scale(0.996264)"/>
       <use xlink:href="#CMMI12-3a" transform="translate(123.177945 0)scale(0.996264)"/>
       <use xlink:href="#CMR17-32" transform="translate(150.275122 0)scale(0.996264)"/>
       <use xlink:href="#CMR17-35" transform="translate(195.965599 0)scale(0.996264)"/>
      </g>
     </g>
    </g>
    <g id="ytick_5">
     <g id="line2d_27">
      <path d="M 39.660158 185.410909 
L 653.460158 185.410909 
" clip-path="url(#pd076357c39)" style="fill: none; stroke-dasharray: 0.8,1.32; stroke-dashoffset: 0; stroke: #b0b0b0; stroke-width: 0.8"/>
     </g>
     <g id="line2d_28">
      <g>
       <use xlink:href="#m501e6f7d26" x="39.660158" y="185.410909" style="stroke: #000000; stroke-width: 0.8"/>
      </g>
     </g>
     <g id="text_14">
      <!-- $\mathdefault{0.00}$ -->
      <g transform="translate(14.948744 188.454306)scale(0.1 -0.1)">
       <use xlink:href="#CMR17-30" transform="scale(0.996264)"/>
       <use xlink:href="#CMMI12-3a" transform="translate(45.690477 0)scale(0.996264)"/>
       <use xlink:href="#CMR17-30" transform="translate(72.787654 0)scale(0.996264)"/>
       <use xlink:href="#CMR17-30" transform="translate(118.478131 0)scale(0.996264)"/>
      </g>
     </g>
    </g>
    <g id="ytick_6">
     <g id="line2d_29">
      <path d="M 39.660158 148.057226 
L 653.460158 148.057226 
" clip-path="url(#pd076357c39)" style="fill: none; stroke-dasharray: 0.8,1.32; stroke-dashoffset: 0; stroke: #b0b0b0; stroke-width: 0.8"/>
     </g>
     <g id="line2d_30">
      <g>
       <use xlink:href="#m501e6f7d26" x="39.660158" y="148.057226" style="stroke: #000000; stroke-width: 0.8"/>
      </g>
     </g>
     <g id="text_15">
      <!-- $\mathdefault{0.25}$ -->
      <g transform="translate(14.948744 151.100622)scale(0.1 -0.1)">
       <use xlink:href="#CMR17-30" transform="scale(0.996264)"/>
       <use xlink:href="#CMMI12-3a" transform="translate(45.690477 0)scale(0.996264)"/>
       <use xlink:href="#CMR17-32" transform="translate(72.787654 0)scale(0.996264)"/>
       <use xlink:href="#CMR17-35" transform="translate(118.478131 0)scale(0.996264)"/>
      </g>
     </g>
    </g>
    <g id="ytick_7">
     <g id="line2d_31">
      <path d="M 39.660158 110.703542 
L 653.460158 110.703542 
" clip-path="url(#pd076357c39)" style="fill: none; stroke-dasharray: 0.8,1.32; stroke-dashoffset: 0; stroke: #b0b0b0; stroke-width: 0.8"/>
     </g>
     <g id="line2d_32">
      <g>
       <use xlink:href="#m501e6f7d26" x="39.660158" y="110.703542" style="stroke: #000000; stroke-width: 0.8"/>
      </g>
     </g>
     <g id="text_16">
      <!-- $\mathdefault{0.50}$ -->
      <g transform="translate(14.948744 113.746939)scale(0.1 -0.1)">
       <use xlink:href="#CMR17-30" transform="scale(0.996264)"/>
       <use xlink:href="#CMMI12-3a" transform="translate(45.690477 0)scale(0.996264)"/>
       <use xlink:href="#CMR17-35" transform="translate(72.787654 0)scale(0.996264)"/>
       <use xlink:href="#CMR17-30" transform="translate(118.478131 0)scale(0.996264)"/>
      </g>
     </g>
    </g>
    <g id="ytick_8">
     <g id="line2d_33">
      <path d="M 39.660158 73.349858 
L 653.460158 73.349858 
" clip-path="url(#pd076357c39)" style="fill: none; stroke-dasharray: 0.8,1.32; stroke-dashoffset: 0; stroke: #b0b0b0; stroke-width: 0.8"/>
     </g>
     <g id="line2d_34">
      <g>
       <use xlink:href="#m501e6f7d26" x="39.660158" y="73.349858" style="stroke: #000000; stroke-width: 0.8"/>
      </g>
     </g>
     <g id="text_17">
      <!-- $\mathdefault{0.75}$ -->
      <g transform="translate(14.948744 76.393255)scale(0.1 -0.1)">
       <use xlink:href="#CMR17-30" transform="scale(0.996264)"/>
       <use xlink:href="#CMMI12-3a" transform="translate(45.690477 0)scale(0.996264)"/>
       <use xlink:href="#CMR17-37" transform="translate(72.787654 0)scale(0.996264)"/>
       <use xlink:href="#CMR17-35" transform="translate(118.478131 0)scale(0.996264)"/>
      </g>
     </g>
    </g>
    <g id="ytick_9">
     <g id="line2d_35">
      <path d="M 39.660158 35.996175 
L 653.460158 35.996175 
" clip-path="url(#pd076357c39)" style="fill: none; stroke-dasharray: 0.8,1.32; stroke-dashoffset: 0; stroke: #b0b0b0; stroke-width: 0.8"/>
     </g>
     <g id="line2d_36">
      <g>
       <use xlink:href="#m501e6f7d26" x="39.660158" y="35.996175" style="stroke: #000000; stroke-width: 0.8"/>
      </g>
     </g>
     <g id="text_18">
      <!-- $\mathdefault{1.00}$ -->
      <g transform="translate(14.948744 39.039572)scale(0.1 -0.1)">
       <use xlink:href="#CMR17-31" transform="scale(0.996264)"/>
       <use xlink:href="#CMMI12-3a" transform="translate(45.690477 0)scale(0.996264)"/>
       <use xlink:href="#CMR17-30" transform="translate(72.787654 0)scale(0.996264)"/>
       <use xlink:href="#CMR17-30" transform="translate(118.478131 0)scale(0.996264)"/>
      </g>
     </g>
    </g>
   </g>
   <g id="line2d_37">
    <path d="M 67.560158 183.931555 
L 107.816671 183.39789 
L 138.009056 182.783831 
L 161.492022 182.090598 
L 180.502042 181.308944 
L 196.157352 180.440446 
L 208.457954 179.551854 
L 219.640318 178.523627 
L 228.58621 177.496929 
L 236.413865 176.402359 
L 244.241521 175.070319 
L 250.95094 173.685969 
L 256.542122 172.315839 
L 262.133304 170.700378 
L 266.60625 169.192067 
L 271.079196 167.450783 
L 275.552142 165.428956 
L 278.906851 163.693323 
L 282.261561 161.736461 
L 285.61627 159.522389 
L 288.97098 157.008443 
L 292.325689 154.144091 
L 295.680398 150.869656 
L 297.916871 148.424746 
L 300.153344 145.743164 
L 302.389817 142.799094 
L 304.62629 139.564486 
L 306.862763 136.009277 
L 309.099236 132.101889 
L 311.335709 127.810103 
L 313.572182 123.102492 
L 315.808655 117.950618 
L 318.045128 112.33225 
L 320.281601 106.235895 
L 322.518074 99.666884 
L 325.872783 89.001679 
L 330.345729 73.719806 
L 334.818675 58.477128 
L 337.055148 51.534391 
L 339.291621 45.4926 
L 340.409857 42.920385 
L 341.528094 40.703505 
L 342.64633 38.879709 
L 343.764567 37.481405 
L 344.882803 36.534281 
L 346.00104 36.056156 
L 347.119276 36.056156 
L 348.237513 36.534281 
L 349.355749 37.481405 
L 350.473986 38.879709 
L 351.592222 40.703505 
L 352.710459 42.920385 
L 353.828695 45.4926 
L 356.065168 51.534391 
L 358.301641 58.477128 
L 361.65635 69.833703 
L 367.247533 89.001679 
L 370.602242 99.666884 
L 373.956952 109.343965 
L 376.193424 115.200779 
L 378.429897 120.583668 
L 380.66637 125.510155 
L 382.902843 130.00605 
L 385.139316 134.101618 
L 387.375789 137.828903 
L 389.612262 141.219943 
L 391.848735 144.305642 
L 394.085208 147.115099 
L 396.321681 149.675262 
L 399.67639 153.101412 
L 403.0311 156.09534 
L 406.385809 158.720048 
L 409.740519 161.028975 
L 413.095228 163.067269 
L 416.449938 164.873014 
L 420.922883 166.973722 
L 425.395829 168.780271 
L 429.868775 170.342907 
L 435.459958 172.014055 
L 441.05114 173.4292 
L 447.760559 174.856767 
L 454.469978 176.048719 
L 462.297633 177.20508 
L 471.243525 178.286221 
L 481.307653 179.268628 
L 492.490018 180.141983 
L 505.908855 180.966734 
L 521.564166 181.707466 
L 540.574186 182.383674 
L 564.057152 182.992069 
L 594.249537 183.538885 
L 625.560158 183.931555 
L 625.560158 183.931555 
" clip-path="url(#pd076357c39)" style="fill: none; stroke-dasharray: 7.4,3.2; stroke-dashoffset: 0; stroke: #ff0000; stroke-width: 2"/>
   </g>
   <g id="line2d_38">
    <path d="M 67.560158 183.931555 
L 69.796631 223.637914 
L 70.914867 240.564395 
L 72.033104 255.693529 
L 73.15134 269.134522 
L 74.269577 280.99186 
L 75.387813 291.365467 
L 76.50605 300.350853 
L 77.624286 308.039258 
L 78.742523 314.517798 
L 79.860759 319.869602 
L 80.978996 324.173949 
L 82.097232 327.506395 
L 83.215469 329.93891 
L 84.333705 331.539993 
L 85.451942 332.374801 
L 86.570178 332.505266 
L 87.688414 331.990207 
L 88.806651 330.885448 
L 89.924887 329.243922 
L 91.043124 327.11578 
L 92.16136 324.548496 
L 93.279597 321.586962 
L 95.51607 314.648411 
L 97.752543 306.611354 
L 99.989016 297.751738 
L 103.343725 283.444234 
L 114.52609 234.28387 
L 117.880799 220.771167 
L 121.235509 208.330721 
L 123.471982 200.714405 
L 125.708455 193.678993 
L 127.944927 187.2458 
L 130.1814 181.426675 
L 132.417873 176.225125 
L 134.654346 171.637354 
L 136.890819 167.653222 
L 139.127292 164.257136 
L 141.363765 161.428857 
L 143.600238 159.144256 
L 145.836711 157.375991 
L 148.073184 156.09414 
L 150.309657 155.266763 
L 152.54613 154.86042 
L 154.782603 154.840634 
L 157.019076 155.172317 
L 159.255549 155.820134 
L 161.492022 156.748845 
L 163.728495 157.923597 
L 165.964968 159.310185 
L 169.319677 161.714624 
L 172.674386 164.413114 
L 178.265569 169.292444 
L 187.211461 177.19305 
L 191.684406 180.817621 
L 195.039116 183.279751 
L 198.393825 185.471769 
L 201.748535 187.357421 
L 205.103244 188.908489 
L 207.339717 189.746176 
L 209.57619 190.421516 
L 211.812663 190.931506 
L 214.049136 191.274403 
L 216.285609 191.449649 
L 218.522082 191.457788 
L 220.758555 191.300395 
L 222.995028 190.979995 
L 225.231501 190.499982 
L 228.58621 189.490051 
L 231.940919 188.147669 
L 235.295629 186.492989 
L 238.650338 184.548686 
L 242.005048 182.339441 
L 245.359757 179.891458 
L 249.832703 176.303344 
L 254.305649 172.405632 
L 259.896831 167.199786 
L 266.60625 160.632102 
L 285.61627 141.830315 
L 291.207453 136.660556 
L 296.798635 131.803167 
L 301.271581 128.185786 
L 305.744527 124.837701 
L 310.217473 121.782767 
L 314.690418 119.041031 
L 319.163364 116.629093 
L 322.518074 115.044796 
L 325.872783 113.658329 
L 329.227493 112.473566 
L 332.582202 111.493667 
L 335.936911 110.721136 
L 339.291621 110.157878 
L 342.64633 109.805244 
L 346.00104 109.664063 
L 349.355749 109.734662 
L 352.710459 110.016879 
L 356.065168 110.510053 
L 359.419877 111.21301 
L 362.774587 112.124034 
L 366.129296 113.240826 
L 369.484006 114.560453 
L 372.838715 116.079284 
L 376.193424 117.792925 
L 380.66637 120.371635 
L 385.139316 123.272252 
L 389.612262 126.476498 
L 394.085208 129.962463 
L 398.558154 133.70427 
L 404.149336 138.694956 
L 410.858755 145.051102 
L 419.804647 153.913241 
L 432.105248 166.124442 
L 437.69643 171.390663 
L 442.169376 175.35533 
L 446.642322 179.027101 
L 449.997032 181.548644 
L 453.351741 183.840442 
L 456.706451 185.875886 
L 460.06116 187.629736 
L 463.415869 189.078592 
L 466.770579 190.201401 
L 469.007052 190.759696 
L 471.243525 191.160379 
L 473.479998 191.399647 
L 475.716471 191.474531 
L 477.952944 191.382973 
L 480.189416 191.123903 
L 482.425889 190.697317 
L 484.662362 190.104357 
L 486.898835 189.347387 
L 490.253545 187.912789 
L 493.608254 186.135915 
L 496.962964 184.042396 
L 500.317673 181.665763 
L 503.672382 179.047839 
L 508.145328 175.270366 
L 522.682402 162.586593 
L 526.037112 160.07246 
L 528.273585 158.592518 
L 530.510058 157.307622 
L 532.746531 156.251568 
L 534.983004 155.458917 
L 537.219477 154.964749 
L 539.45595 154.804391 
L 541.692422 155.013098 
L 543.928895 155.625703 
L 546.165368 156.676219 
L 548.401841 158.197398 
L 550.638314 160.220238 
L 552.874787 162.773446 
L 555.11126 165.882839 
L 557.347733 169.57069 
L 559.584206 173.855013 
L 561.820679 178.748781 
L 564.057152 184.259077 
L 566.293625 190.38617 
L 568.530098 197.122519 
L 570.766571 204.451684 
L 573.003044 212.347171 
L 576.357753 225.166114 
L 579.712463 238.988646 
L 584.185408 258.521439 
L 592.013064 293.090736 
L 595.367773 306.611354 
L 597.604246 314.648411 
L 599.840719 321.586962 
L 600.958956 324.548496 
L 602.077192 327.11578 
L 603.195428 329.243922 
L 604.313665 330.885448 
L 605.431901 331.990207 
L 606.550138 332.505266 
L 607.668374 332.374801 
L 608.786611 331.539993 
L 609.904847 329.93891 
L 611.023084 327.506395 
L 612.14132 324.173949 
L 613.259557 319.869602 
L 614.377793 314.517798 
L 615.49603 308.039258 
L 616.614266 300.350853 
L 617.732503 291.365467 
L 618.850739 280.99186 
L 619.968976 269.134522 
L 621.087212 255.693529 
L 622.205449 240.564395 
L 623.323685 223.637914 
L 624.441921 204.800006 
L 625.560158 183.931555 
L 625.560158 183.931555 
" clip-path="url(#pd076357c39)" style="fill: none; stroke: #008000; stroke-width: 2; stroke-linecap: square"/>
   </g>
   <g id="patch_3">
    <path d="M 39.660158 347.33072 
L 39.660158 21.17072 
" style="fill: none; stroke: #000000; stroke-width: 0.8; stroke-linejoin: miter; stroke-linecap: square"/>
   </g>
   <g id="patch_4">
    <path d="M 653.460158 347.33072 
L 653.460158 21.17072 
" style="fill: none; stroke: #000000; stroke-width: 0.8; stroke-linejoin: miter; stroke-linecap: square"/>
   </g>
   <g id="patch_5">
    <path d="M 39.660158 347.33072 
L 653.460158 347.33072 
" style="fill: none; stroke: #000000; stroke-width: 0.8; stroke-linejoin: miter; stroke-linecap: square"/>
   </g>
   <g id="patch_6">
    <path d="M 39.660158 21.17072 
L 653.460158 21.17072 
" style="fill: none; stroke: #000000; stroke-width: 0.8; stroke-linejoin: miter; stroke-linecap: square"/>
   </g>
   <g id="text_19">
    <!-- $\ell = 10, n=10$ -->
    <g transform="translate(310.535932 15.17072)scale(0.12 -0.12)">
     <defs>
      <path id="CMMI12-60" d="M 589 1088 
C 186 692 83 597 83 572 
C 83 546 109 501 154 501 
C 186 501 550 851 602 909 
C 640 482 800 -73 1299 -73 
C 1555 -73 1786 86 1888 163 
C 1971 227 2278 488 2278 546 
C 2278 578 2246 616 2214 616 
C 2189 616 2093 520 2067 495 
C 1843 278 1562 55 1306 55 
C 960 55 915 552 915 897 
C 915 960 915 1228 960 1279 
C 1338 1667 2522 2886 2522 4014 
C 2522 4269 2426 4492 2150 4492 
C 1555 4492 1037 3178 947 2936 
C 922 2873 550 1891 589 1088 
z
M 973 1471 
C 979 1509 1267 3186 1805 4082 
C 1914 4255 2022 4364 2150 4364 
C 2368 4364 2381 4159 2381 4018 
C 2381 3794 2317 3218 1760 2412 
C 1594 2175 1338 1855 973 1471 
z
" transform="scale(0.015625)"/>
      <path id="CMR17-3d" d="M 4115 2017 
C 4211 2017 4307 2017 4307 2125 
C 4307 2240 4198 2240 4090 2240 
L 512 2240 
C 403 2240 294 2240 294 2125 
C 294 2017 390 2017 486 2017 
L 4115 2017 
z
M 4090 896 
C 4198 896 4307 896 4307 1011 
C 4307 1119 4211 1119 4115 1119 
L 486 1119 
C 390 1119 294 1119 294 1011 
C 294 896 403 896 512 896 
L 4090 896 
z
" transform="scale(0.015625)"/>
      <path id="CMMI12-3b" d="M 1248 -31 
C 1248 343 1126 619 864 619 
C 659 619 557 453 557 313 
C 557 172 653 0 870 0 
C 954 0 1024 26 1082 83 
C 1094 96 1101 96 1107 96 
C 1120 96 1120 5 1120 -27 
C 1120 -240 1082 -659 710 -1080 
C 640 -1157 640 -1170 640 -1183 
C 640 -1216 672 -1248 704 -1248 
C 755 -1248 1248 -771 1248 -31 
z
" transform="scale(0.015625)"/>
      <path id="CMMI12-6e" d="M 1318 1871 
C 1331 1910 1491 2229 1728 2433 
C 1894 2586 2112 2689 2362 2689 
C 2618 2689 2707 2497 2707 2242 
C 2707 1878 2445 1150 2317 805 
C 2259 651 2227 568 2227 453 
C 2227 166 2426 -64 2733 -64 
C 3328 -64 3552 875 3552 913 
C 3552 945 3526 971 3488 971 
C 3430 971 3424 952 3392 843 
C 3245 319 3002 64 2752 64 
C 2688 64 2586 64 2586 269 
C 2586 429 2656 621 2694 710 
C 2822 1063 3091 1780 3091 2145 
C 3091 2528 2867 2816 2381 2816 
C 1811 2816 1510 2415 1395 2255 
C 1376 2618 1114 2816 832 2816 
C 627 2816 486 2695 378 2478 
C 262 2248 173 1865 173 1839 
C 173 1814 198 1782 243 1782 
C 294 1782 301 1788 339 1935 
C 442 2325 557 2689 813 2689 
C 960 2689 1011 2586 1011 2395 
C 1011 2254 947 2005 902 1807 
L 723 1118 
C 698 996 627 709 595 594 
C 550 428 480 128 480 96 
C 480 6 550 -64 646 -64 
C 723 -64 813 -26 864 70 
C 877 102 934 326 966 453 
L 1107 1028 
L 1318 1871 
z
" transform="scale(0.015625)"/>
     </defs>
     <use xlink:href="#CMMI12-60" transform="scale(0.996264)"/>
     <use xlink:href="#CMR17-3d" transform="translate(68.608228 0)scale(0.996264)"/>
     <use xlink:href="#CMR17-31" transform="translate(167.997025 0)scale(0.996264)"/>
     <use xlink:href="#CMR17-30" transform="translate(213.687502 0)scale(0.996264)"/>
     <use xlink:href="#CMMI12-3b" transform="translate(259.37798 0)scale(0.996264)"/>
     <use xlink:href="#CMMI12-6e" transform="translate(303.079562 0)scale(0.996264)"/>
     <use xlink:href="#CMR17-3d" transform="translate(388.983618 0)scale(0.996264)"/>
     <use xlink:href="#CMR17-31" transform="translate(488.372415 0)scale(0.996264)"/>
     <use xlink:href="#CMR17-30" transform="translate(534.062892 0)scale(0.996264)"/>
    </g>
   </g>
   <g id="legend_1">
    <g id="patch_7">
     <path d="M 568.303564 90.242723 
L 646.460158 90.242723 
Q 648.460158 90.242723 648.460158 88.242723 
L 648.460158 28.17072 
Q 648.460158 26.17072 646.460158 26.17072 
L 568.303564 26.17072 
Q 566.303564 26.17072 566.303564 28.17072 
L 566.303564 88.242723 
Q 566.303564 90.242723 568.303564 90.242723 
z
" style="fill: #ffffff; opacity: 0.8; stroke: #cccccc; stroke-linejoin: miter"/>
    </g>
    <g id="line2d_39">
     <path d="M 570.303564 35.087582 
L 580.303564 35.087582 
L 590.303564 35.087582 
" style="fill: none; stroke-dasharray: 7.4,3.2; stroke-dashoffset: 0; stroke: #ff0000; stroke-width: 2"/>
    </g>
    <g id="text_20">
     <!-- $y=\frac 1{1+25x^2}$ -->
     <g transform="translate(598.303564 38.587582)scale(0.1 -0.1)">
      <defs>
       <path id="CMMI12-79" d="M 1683 -700 
C 1510 -939 1261 -1152 947 -1152 
C 870 -1152 563 -1152 467 -889 
C 486 -895 518 -895 531 -895 
C 723 -895 851 -729 851 -582 
C 851 -435 730 -384 634 -384 
C 531 -384 307 -458 307 -759 
C 307 -1071 582 -1286 947 -1286 
C 1587 -1286 2234 -700 2413 6 
L 3040 2485 
C 3046 2517 3059 2556 3059 2594 
C 3059 2689 2982 2753 2886 2753 
C 2829 2753 2694 2727 2643 2535 
L 2170 658 
C 2138 543 2138 530 2086 460 
C 1958 281 1747 64 1440 64 
C 1082 64 1050 415 1050 588 
C 1050 952 1222 1443 1395 1903 
C 1466 2088 1504 2178 1504 2305 
C 1504 2574 1312 2816 998 2816 
C 410 2816 173 1890 173 1839 
C 173 1814 198 1782 243 1782 
C 301 1782 307 1807 333 1897 
C 486 2433 730 2689 979 2689 
C 1037 2689 1146 2689 1146 2478 
C 1146 2312 1075 2127 979 1884 
C 666 1047 666 837 666 683 
C 666 77 1101 -64 1421 -64 
C 1606 -64 1837 -6 2061 230 
L 2067 224 
C 1971 -147 1907 -392 1683 -700 
z
" transform="scale(0.015625)"/>
       <path id="CMR17-2b" d="M 2413 1472 
L 4109 1472 
C 4198 1472 4307 1472 4307 1580 
C 4307 1695 4205 1695 4109 1695 
L 2413 1695 
L 2413 3386 
C 2413 3475 2413 3584 2304 3584 
C 2189 3584 2189 3482 2189 3386 
L 2189 1695 
L 493 1695 
C 403 1695 294 1695 294 1587 
C 294 1472 397 1472 493 1472 
L 2189 1472 
L 2189 -218 
C 2189 -307 2189 -416 2298 -416 
C 2413 -416 2413 -314 2413 -218 
L 2413 1472 
z
" transform="scale(0.015625)"/>
       <path id="CMMI12-78" d="M 3034 2606 
C 2829 2567 2752 2414 2752 2293 
C 2752 2139 2874 2088 2963 2088 
C 3155 2088 3290 2254 3290 2427 
C 3290 2695 2982 2816 2714 2816 
C 2323 2816 2106 2433 2048 2312 
C 1901 2816 1504 2816 1389 2816 
C 736 2816 390 1980 390 1839 
C 390 1814 416 1782 461 1782 
C 512 1782 525 1820 538 1846 
C 755 2555 1184 2689 1370 2689 
C 1658 2689 1715 2420 1715 2267 
C 1715 2127 1677 1980 1600 1673 
L 1382 798 
C 1286 415 1101 64 762 64 
C 730 64 570 64 435 147 
C 666 192 717 383 717 460 
C 717 588 621 664 499 664 
C 346 664 179 530 179 326 
C 179 57 480 -64 755 -64 
C 1062 -64 1280 179 1414 441 
C 1517 64 1837 -64 2074 -64 
C 2726 -64 3072 773 3072 913 
C 3072 945 3046 971 3008 971 
C 2950 971 2944 939 2925 888 
C 2752 326 2381 64 2093 64 
C 1869 64 1747 230 1747 492 
C 1747 632 1773 734 1875 1156 
L 2099 2024 
C 2195 2408 2413 2689 2707 2689 
C 2720 2689 2899 2689 3034 2606 
z
" transform="scale(0.015625)"/>
      </defs>
      <use xlink:href="#CMMI12-79" transform="scale(0.996264)"/>
      <use xlink:href="#CMR17-3d" transform="translate(78.812789 0)scale(0.996264)"/>
      <use xlink:href="#CMR17-31" transform="translate(267.553863 39.226102)scale(0.697382)"/>
      <use xlink:href="#CMR17-31" transform="translate(179.3971 -34.355253)scale(0.697382)"/>
      <use xlink:href="#CMR17-2b" transform="translate(211.380282 -34.355253)scale(0.697382)"/>
      <use xlink:href="#CMR17-32" transform="translate(261.580414 -34.355253)scale(0.697382)"/>
      <use xlink:href="#CMR17-35" transform="translate(293.563596 -34.355253)scale(0.697382)"/>
      <use xlink:href="#CMMI12-78" transform="translate(325.546778 -34.355253)scale(0.697382)"/>
      <use xlink:href="#CMR17-32" transform="translate(364.350437 -14.20868)scale(0.498132)"/>
      <path d="M 179.3971 22.914133 
L 387.693808 22.914133 
L 387.693808 26.899083 
L 179.3971 26.899083 
L 179.3971 22.914133 
z
"/>
     </g>
    </g>
    <g id="PathCollection_3">
     <g>
      <use xlink:href="#m9337a4d8d2" x="580.303564" y="52.228324" style="fill: #0000ff; stroke: #0000ff"/>
     </g>
    </g>
    <g id="text_21">
     <!-- train -->
     <g transform="translate(598.303564 54.853324)scale(0.1 -0.1)">
      <defs>
       <path id="SFTT3583-74" d="M 960 2752 
L 486 2752 
C 442 2752 397 2752 352 2752 
C 224 2752 147 2709 147 2602 
C 147 2483 237 2459 320 2459 
L 960 2459 
L 960 637 
C 998 242 1261 -32 1683 -32 
C 2125 -32 2669 191 2669 751 
L 2669 898 
C 2669 993 2624 1076 2515 1076 
C 2413 1076 2362 1006 2362 904 
L 2362 783 
C 2362 407 2080 261 1786 261 
C 1370 261 1267 535 1267 809 
L 1267 2459 
L 2227 2459 
C 2259 2459 2304 2459 2342 2459 
C 2451 2459 2534 2490 2534 2627 
C 2534 2739 2432 2752 2355 2752 
L 1267 2752 
L 1267 3351 
C 1267 3439 1235 3520 1120 3520 
C 1011 3520 954 3451 954 3333 
C 954 3290 960 3239 960 3201 
L 960 2752 
z
" transform="scale(0.015625)"/>
       <path id="SFTT3583-72" d="M 1274 2100 
L 1267 2599 
C 1267 2707 1210 2752 1101 2752 
L 486 2752 
C 384 2752 320 2714 320 2605 
C 320 2497 390 2459 499 2459 
L 960 2459 
L 960 293 
L 486 293 
C 378 293 320 236 320 147 
C 320 51 378 0 480 0 
L 1952 0 
C 2029 13 2067 77 2067 147 
C 2067 242 2016 293 1894 293 
L 1267 293 
L 1267 1232 
C 1267 1845 1632 2496 2336 2496 
L 2426 2496 
C 2598 2496 2509 2318 2714 2318 
C 2810 2318 2893 2393 2893 2494 
C 2893 2751 2573 2789 2362 2789 
L 2298 2789 
C 1882 2789 1408 2473 1274 2100 
z
" transform="scale(0.015625)"/>
       <path id="SFTT3583-61" d="M 2093 1625 
C 1472 1625 365 1490 365 716 
C 365 294 717 -32 1158 -32 
C 1498 -32 1882 77 2112 326 
C 2144 114 2349 -32 2554 -32 
C 2842 -32 3078 194 3078 490 
L 3078 580 
C 3078 613 3085 652 3085 691 
C 3085 789 3027 861 2925 861 
C 2829 861 2771 795 2771 704 
L 2771 665 
C 2771 619 2778 574 2778 528 
C 2778 410 2714 267 2586 267 
C 2470 267 2400 377 2400 506 
L 2400 1938 
C 2355 2462 1888 2816 1376 2816 
C 1037 2816 544 2646 544 2216 
C 544 2096 627 2026 730 2026 
C 838 2026 909 2108 909 2208 
L 909 2234 
C 902 2252 890 2277 890 2303 
L 890 2316 
C 934 2473 1248 2523 1370 2523 
C 1632 2523 1888 2397 2016 2158 
C 2086 2026 2093 1882 2093 1744 
L 2093 1625 
z
M 2093 1408 
L 2093 870 
C 2093 434 1702 261 1299 261 
C 1037 261 672 389 672 723 
C 672 1113 1171 1286 1478 1351 
C 1683 1389 1888 1408 2093 1408 
z
" transform="scale(0.015625)"/>
       <path id="SFTT3583-69" d="M 1478 2432 
L 1478 293 
L 813 293 
C 691 293 621 249 621 147 
C 621 77 659 13 736 0 
L 2394 0 
C 2490 0 2554 38 2554 144 
C 2554 249 2470 293 2368 293 
C 2323 293 2278 293 2240 293 
L 1786 293 
L 1786 2548 
C 1786 2713 1715 2732 1613 2732 
L 864 2732 
C 774 2732 666 2719 666 2585 
C 666 2471 749 2432 858 2432 
C 902 2432 954 2432 998 2432 
L 1478 2432 
z
M 1549 3898 
C 1523 3898 1498 3885 1472 3872 
L 1414 3814 
C 1389 3782 1382 3743 1382 3705 
C 1382 3602 1466 3499 1581 3499 
C 1619 3499 1658 3512 1696 3531 
L 1754 3589 
C 1779 3621 1786 3660 1786 3698 
C 1786 3801 1702 3904 1587 3904 
C 1574 3904 1562 3898 1549 3898 
z
" transform="scale(0.015625)"/>
       <path id="SFTT3583-6e" d="M 941 2312 
L 934 2573 
C 934 2688 902 2752 774 2752 
L 346 2752 
C 250 2752 173 2707 173 2605 
C 173 2503 250 2459 352 2459 
L 627 2459 
L 627 293 
L 333 293 
C 237 293 173 236 173 147 
C 173 39 256 0 352 0 
L 1203 0 
C 1299 0 1382 32 1382 147 
C 1382 236 1331 293 1229 293 
L 934 293 
L 934 1641 
C 960 2037 1178 2496 1619 2496 
C 2061 2496 2176 2189 2176 1819 
L 2176 293 
L 1882 293 
C 1786 293 1722 236 1722 147 
C 1722 39 1805 0 1901 0 
L 2752 0 
C 2848 0 2931 32 2931 147 
C 2931 236 2880 293 2778 293 
L 2483 293 
L 2483 1864 
C 2483 2291 2355 2789 1734 2789 
C 1414 2789 1082 2619 941 2312 
z
" transform="scale(0.015625)"/>
      </defs>
      <use xlink:href="#SFTT3583-74" transform="scale(0.996264)"/>
      <use xlink:href="#SFTT3583-72" transform="translate(48.495008 0)scale(0.996264)"/>
      <use xlink:href="#SFTT3583-61" transform="translate(96.990017 0)scale(0.996264)"/>
      <use xlink:href="#SFTT3583-69" transform="translate(145.485025 0)scale(0.996264)"/>
      <use xlink:href="#SFTT3583-6e" transform="translate(193.980033 0)scale(0.996264)"/>
     </g>
    </g>
    <g id="PathCollection_4">
     <g>
      <use xlink:href="#m5a6102a1f6" x="580.303564" y="66.441703" style="fill: #ffffff; stroke: #0000ff; stroke-width: 1.5"/>
     </g>
    </g>
    <g id="text_22">
     <!-- test -->
     <g transform="translate(598.303564 69.066703)scale(0.1 -0.1)">
      <defs>
       <path id="SFTT3583-65" d="M 691 1287 
L 2573 1287 
C 2675 1287 2733 1338 2733 1447 
L 2733 1511 
C 2733 2163 2362 2816 1606 2816 
C 858 2816 378 2098 378 1405 
C 378 743 806 38 1606 -32 
L 1683 -32 
C 2106 -32 2592 208 2714 632 
C 2720 656 2726 682 2726 707 
C 2726 789 2662 827 2573 827 
C 2413 827 2419 689 2368 601 
C 2240 393 2003 261 1754 261 
C 1210 261 691 758 691 1287 
z
M 691 1536 
C 710 1620 717 1702 742 1786 
C 864 2177 1184 2516 1619 2516 
C 2157 2516 2419 2023 2419 1536 
L 691 1536 
z
" transform="scale(0.015625)"/>
       <path id="SFTT3583-73" d="M 730 350 
C 966 82 1254 -32 1587 -32 
C 2061 -32 2720 133 2720 777 
C 2720 1503 1830 1586 1434 1656 
C 1274 1681 723 1752 723 2089 
C 723 2516 1376 2516 1536 2516 
C 1837 2516 2170 2389 2221 2056 
C 2253 1955 2202 1809 2362 1809 
L 2413 1809 
C 2515 1809 2554 1854 2554 1943 
C 2554 1975 2547 2013 2547 2039 
L 2547 2676 
C 2547 2758 2528 2816 2438 2816 
C 2330 2816 2291 2669 2278 2580 
C 2189 2637 2112 2701 2010 2739 
C 1862 2797 1702 2816 1549 2816 
C 1050 2816 429 2660 429 2105 
C 429 1355 1638 1355 2048 1203 
C 2234 1136 2426 990 2426 790 
L 2426 758 
C 2368 344 1933 261 1613 261 
C 1210 261 922 465 774 923 
C 749 1051 742 1159 602 1159 
L 563 1159 
C 474 1159 422 1134 422 993 
C 422 936 429 885 429 834 
L 429 114 
C 429 38 442 -32 538 -32 
C 666 -32 698 216 730 350 
z
" transform="scale(0.015625)"/>
      </defs>
      <use xlink:href="#SFTT3583-74" transform="scale(0.996264)"/>
      <use xlink:href="#SFTT3583-65" transform="translate(48.495008 0)scale(0.996264)"/>
      <use xlink:href="#SFTT3583-73" transform="translate(96.990017 0)scale(0.996264)"/>
      <use xlink:href="#SFTT3583-74" transform="translate(145.485025 0)scale(0.996264)"/>
     </g>
    </g>
    <g id="line2d_40">
     <path d="M 570.303564 80.252063 
L 580.303564 80.252063 
L 590.303564 80.252063 
" style="fill: none; stroke: #008000; stroke-width: 2; stroke-linecap: square"/>
    </g>
    <g id="text_23">
     <!-- $f_\theta(x)$ -->
     <g transform="translate(598.303564 83.752063)scale(0.1 -0.1)">
      <defs>
       <path id="CMMI12-66" d="M 2854 2566 
C 2982 2566 3034 2566 3034 2688 
C 3034 2752 2982 2752 2867 2752 
L 2349 2752 
C 2470 3429 2560 3897 2611 4107 
C 2650 4265 2784 4416 2950 4416 
C 3085 4416 3219 4358 3283 4298 
C 3034 4272 2957 4082 2957 3969 
C 2957 3837 3053 3759 3174 3759 
C 3302 3759 3494 3870 3494 4119 
C 3494 4393 3226 4544 2944 4544 
C 2669 4544 2400 4334 2272 4078 
C 2157 3848 2093 3611 1946 2752 
L 1517 2752 
C 1395 2752 1331 2752 1331 2637 
C 1331 2566 1370 2566 1498 2566 
L 1907 2566 
C 1792 1976 1530 542 1382 -137 
C 1274 -689 1178 -1152 858 -1152 
C 838 -1152 653 -1152 538 -1031 
C 864 -1005 864 -726 864 -720 
C 864 -593 768 -517 646 -517 
C 518 -517 326 -625 326 -867 
C 326 -1140 608 -1280 858 -1280 
C 1510 -1280 1779 -118 1850 199 
C 1965 688 2278 2376 2310 2566 
L 2854 2566 
z
" transform="scale(0.015625)"/>
       <path id="CMMI12-12" d="M 2835 3200 
C 2835 3850 2630 4480 2106 4480 
C 1210 4480 256 2615 256 1216 
C 256 923 320 -64 992 -64 
C 1862 -64 2835 1756 2835 3200 
z
M 896 2304 
C 992 2679 1126 3214 1382 3665 
C 1594 4047 1818 4352 2099 4352 
C 2310 4352 2451 4174 2451 3564 
C 2451 3334 2432 3017 2246 2304 
L 896 2304 
z
M 2202 2113 
C 2042 1490 1907 1088 1677 687 
C 1491 363 1267 64 998 64 
C 800 64 640 217 640 846 
C 640 1260 742 1693 845 2113 
L 2202 2113 
z
" transform="scale(0.015625)"/>
       <path id="CMR17-28" d="M 1958 -1561 
C 1958 -1555 1958 -1542 1939 -1523 
C 1645 -1224 858 -407 858 1581 
C 858 3569 1632 4379 1946 4697 
C 1946 4704 1958 4717 1958 4736 
C 1958 4755 1939 4768 1914 4768 
C 1843 4768 1299 4296 986 3594 
C 666 2887 576 2199 576 1588 
C 576 1128 621 351 1005 -471 
C 1312 -1135 1837 -1600 1914 -1600 
C 1946 -1600 1958 -1587 1958 -1561 
z
" transform="scale(0.015625)"/>
       <path id="CMR17-29" d="M 1683 1581 
C 1683 2040 1638 2817 1254 3639 
C 947 4303 422 4768 346 4768 
C 326 4768 301 4761 301 4729 
C 301 4717 307 4710 314 4697 
C 621 4378 1402 3568 1402 1584 
C 1402 -407 627 -1217 314 -1537 
C 307 -1549 301 -1556 301 -1568 
C 301 -1600 326 -1600 346 -1600 
C 416 -1600 960 -1128 1274 -426 
C 1594 281 1683 969 1683 1581 
z
" transform="scale(0.015625)"/>
      </defs>
      <use xlink:href="#CMMI12-66" transform="scale(0.996264)"/>
      <use xlink:href="#CMMI12-12" transform="translate(48.083238 -14.943915)scale(0.697382)"/>
      <use xlink:href="#CMR17-28" transform="translate(82.299865 0)scale(0.996264)"/>
      <use xlink:href="#CMMI12-78" transform="translate(117.580633 0)scale(0.996264)"/>
      <use xlink:href="#CMR17-29" transform="translate(173.014693 0)scale(0.996264)"/>
     </g>
    </g>
   </g>
  </g>
 </g>
 <defs>
  <clipPath id="pd076357c39">
   <rect x="39.660158" y="21.17072" width="613.8" height="326.16"/>
  </clipPath>
 </defs>
</svg>