<?xml version="1.0" encoding="UTF-8" standalone="no"?>
<!DOCTYPE svg PUBLIC "-//W3C//DTD SVG 1.1//EN"
 "http://www.w3.org/Graphics/SVG/1.1/DTD/svg11.dtd">
<!-- Generated by graphviz version 8.1.0 (20230707.0739)
 -->
<!-- Title: Tree Pages: 1 -->
<svg width="819pt" height="671pt"
 viewBox="0.00 0.00 819.38 671.00" xmlns="http://www.w3.org/2000/svg" xmlns:xlink="http://www.w3.org/1999/xlink">
<g id="graph0" class="graph" transform="scale(1 1) rotate(0) translate(4 667)">
<title>Tree</title>
<polygon fill="white" stroke="none" points="-4,4 -4,-667 815.38,-667 815.38,4 -4,4"/>
<!-- 0 -->
<g id="node1" class="node">
<title>0</title>
<path fill="#ffffff" stroke="black" d="M487.88,-663C487.88,-663 380.38,-663 380.38,-663 374.38,-663 368.38,-657 368.38,-651 368.38,-651 368.38,-592 368.38,-592 368.38,-586 374.38,-580 380.38,-580 380.38,-580 487.88,-580 487.88,-580 493.88,-580 499.88,-586 499.88,-592 499.88,-592 499.88,-651 499.88,-651 499.88,-657 493.88,-663 487.88,-663"/>
<text text-anchor="start" x="383.12" y="-645.7" font-family="Helvetica,sans-Serif" font-size="14.00">petal_width ≤ 0.8</text>
<text text-anchor="start" x="398.88" y="-630.7" font-family="Helvetica,sans-Serif" font-size="14.00">gini = 0.667</text>
<text text-anchor="start" x="389.5" y="-615.7" font-family="Helvetica,sans-Serif" font-size="14.00">samples = 150</text>
<text text-anchor="start" x="376.38" y="-600.7" font-family="Helvetica,sans-Serif" font-size="14.00">value = [50, 50, 50]</text>
<text text-anchor="start" x="391" y="-585.7" font-family="Helvetica,sans-Serif" font-size="14.00">class = setosa</text>
</g>
<!-- 1 -->
<g id="node2" class="node">
<title>1</title>
<path fill="#e58139" stroke="black" d="M411.38,-536.5C411.38,-536.5 318.88,-536.5 318.88,-536.5 312.88,-536.5 306.88,-530.5 306.88,-524.5 306.88,-524.5 306.88,-480.5 306.88,-480.5 306.88,-474.5 312.88,-468.5 318.88,-468.5 318.88,-468.5 411.38,-468.5 411.38,-468.5 417.38,-468.5 423.38,-474.5 423.38,-480.5 423.38,-480.5 423.38,-524.5 423.38,-524.5 423.38,-530.5 417.38,-536.5 411.38,-536.5"/>
<text text-anchor="start" x="337.38" y="-519.2" font-family="Helvetica,sans-Serif" font-size="14.00">gini = 0.0</text>
<text text-anchor="start" x="324.25" y="-504.2" font-family="Helvetica,sans-Serif" font-size="14.00">samples = 50</text>
<text text-anchor="start" x="314.88" y="-489.2" font-family="Helvetica,sans-Serif" font-size="14.00">value = [50, 0, 0]</text>
<text text-anchor="start" x="322" y="-474.2" font-family="Helvetica,sans-Serif" font-size="14.00">class = setosa</text>
</g>
<!-- 0&#45;&gt;1 -->
<g id="edge1" class="edge">
<title>0&#45;&gt;1</title>
<path fill="none" stroke="black" d="M409.99,-579.58C403.62,-568.77 396.73,-557.09 390.3,-546.19"/>
<polygon fill="black" stroke="black" points="392.89,-544.7 384.8,-537.86 386.86,-548.25 392.89,-544.7"/>
<text text-anchor="middle" x="378.55" y="-555.27" font-family="Helvetica,sans-Serif" font-size="14.00">True</text>
</g>
<!-- 2 -->
<g id="node3" class="node">
<title>2</title>
<path fill="#ffffff" stroke="black" d="M554.88,-544C554.88,-544 453.38,-544 453.38,-544 447.38,-544 441.38,-538 441.38,-532 441.38,-532 441.38,-473 441.38,-473 441.38,-467 447.38,-461 453.38,-461 453.38,-461 554.88,-461 554.88,-461 560.88,-461 566.88,-467 566.88,-473 566.88,-473 566.88,-532 566.88,-532 566.88,-538 560.88,-544 554.88,-544"/>
<text text-anchor="start" x="449.38" y="-526.7" font-family="Helvetica,sans-Serif" font-size="14.00">petal_width ≤ 1.75</text>
<text text-anchor="start" x="476.38" y="-511.7" font-family="Helvetica,sans-Serif" font-size="14.00">gini = 0.5</text>
<text text-anchor="start" x="459.5" y="-496.7" font-family="Helvetica,sans-Serif" font-size="14.00">samples = 100</text>
<text text-anchor="start" x="450.12" y="-481.7" font-family="Helvetica,sans-Serif" font-size="14.00">value = [0, 50, 50]</text>
<text text-anchor="start" x="452" y="-466.7" font-family="Helvetica,sans-Serif" font-size="14.00">class = versicolor</text>
</g>
<!-- 0&#45;&gt;2 -->
<g id="edge2" class="edge">
<title>0&#45;&gt;2</title>
<path fill="none" stroke="black" d="M458.61,-579.58C463.65,-571.16 469,-562.2 474.21,-553.5"/>
<polygon fill="black" stroke="black" points="477.64,-555.58 479.77,-545.2 471.64,-551.98 477.64,-555.58"/>
<text text-anchor="middle" x="485.87" y="-562.65" font-family="Helvetica,sans-Serif" font-size="14.00">False</text>
</g>
<!-- 3 -->
<g id="node4" class="node">
<title>3</title>
<path fill="#4de88e" stroke="black" d="M452.5,-425C452.5,-425 345.75,-425 345.75,-425 339.75,-425 333.75,-419 333.75,-413 333.75,-413 333.75,-354 333.75,-354 333.75,-348 339.75,-342 345.75,-342 345.75,-342 452.5,-342 452.5,-342 458.5,-342 464.5,-348 464.5,-354 464.5,-354 464.5,-413 464.5,-413 464.5,-419 458.5,-425 452.5,-425"/>
<text text-anchor="start" x="341.75" y="-407.7" font-family="Helvetica,sans-Serif" font-size="14.00">petal_length ≤ 4.95</text>
<text text-anchor="start" x="363.88" y="-392.7" font-family="Helvetica,sans-Serif" font-size="14.00">gini = 0.168</text>
<text text-anchor="start" x="358.25" y="-377.7" font-family="Helvetica,sans-Serif" font-size="14.00">samples = 54</text>
<text text-anchor="start" x="348.88" y="-362.7" font-family="Helvetica,sans-Serif" font-size="14.00">value = [0, 49, 5]</text>
<text text-anchor="start" x="347" y="-347.7" font-family="Helvetica,sans-Serif" font-size="14.00">class = versicolor</text>
</g>
<!-- 2&#45;&gt;3 -->
<g id="edge3" class="edge">
<title>2&#45;&gt;3</title>
<path fill="none" stroke="black" d="M467.4,-460.58C459.44,-451.71 450.95,-442.25 442.76,-433.12"/>
<polygon fill="black" stroke="black" points="445.93,-431.3 436.65,-426.2 440.73,-435.98 445.93,-431.3"/>
</g>
<!-- 12 -->
<g id="node13" class="node">
<title>12</title>
<path fill="#843de6" stroke="black" d="M663.5,-425C663.5,-425 556.75,-425 556.75,-425 550.75,-425 544.75,-419 544.75,-413 544.75,-413 544.75,-354 544.75,-354 544.75,-348 550.75,-342 556.75,-342 556.75,-342 663.5,-342 663.5,-342 669.5,-342 675.5,-348 675.5,-354 675.5,-354 675.5,-413 675.5,-413 675.5,-419 669.5,-425 663.5,-425"/>
<text text-anchor="start" x="552.75" y="-407.7" font-family="Helvetica,sans-Serif" font-size="14.00">petal_length ≤ 4.85</text>
<text text-anchor="start" x="574.88" y="-392.7" font-family="Helvetica,sans-Serif" font-size="14.00">gini = 0.043</text>
<text text-anchor="start" x="569.25" y="-377.7" font-family="Helvetica,sans-Serif" font-size="14.00">samples = 46</text>
<text text-anchor="start" x="559.88" y="-362.7" font-family="Helvetica,sans-Serif" font-size="14.00">value = [0, 1, 45]</text>
<text text-anchor="start" x="562.12" y="-347.7" font-family="Helvetica,sans-Serif" font-size="14.00">class = virginica</text>
</g>
<!-- 2&#45;&gt;12 -->
<g id="edge12" class="edge">
<title>2&#45;&gt;12</title>
<path fill="none" stroke="black" d="M541.2,-460.58C549.23,-451.71 557.81,-442.25 566.08,-433.12"/>
<polygon fill="black" stroke="black" points="568.13,-435.96 572.25,-426.2 562.94,-431.26 568.13,-435.96"/>
</g>
<!-- 4 -->
<g id="node5" class="node">
<title>4</title>
<path fill="#3de684" stroke="black" d="M244.88,-306C244.88,-306 143.38,-306 143.38,-306 137.38,-306 131.38,-300 131.38,-294 131.38,-294 131.38,-235 131.38,-235 131.38,-229 137.38,-223 143.38,-223 143.38,-223 244.88,-223 244.88,-223 250.88,-223 256.88,-229 256.88,-235 256.88,-235 256.88,-294 256.88,-294 256.88,-300 250.88,-306 244.88,-306"/>
<text text-anchor="start" x="139.38" y="-288.7" font-family="Helvetica,sans-Serif" font-size="14.00">petal_width ≤ 1.65</text>
<text text-anchor="start" x="158.88" y="-273.7" font-family="Helvetica,sans-Serif" font-size="14.00">gini = 0.041</text>
<text text-anchor="start" x="153.25" y="-258.7" font-family="Helvetica,sans-Serif" font-size="14.00">samples = 48</text>
<text text-anchor="start" x="143.88" y="-243.7" font-family="Helvetica,sans-Serif" font-size="14.00">value = [0, 47, 1]</text>
<text text-anchor="start" x="142" y="-228.7" font-family="Helvetica,sans-Serif" font-size="14.00">class = versicolor</text>
</g>
<!-- 3&#45;&gt;4 -->
<g id="edge4" class="edge">
<title>3&#45;&gt;4</title>
<path fill="none" stroke="black" d="M333.42,-345C312.2,-332.89 288.55,-319.39 266.86,-307.01"/>
<polygon fill="black" stroke="black" points="268.79,-303.51 258.37,-301.59 265.32,-309.59 268.79,-303.51"/>
</g>
<!-- 7 -->
<g id="node8" class="node">
<title>7</title>
<path fill="#c09cf2" stroke="black" d="M449.88,-306C449.88,-306 348.38,-306 348.38,-306 342.38,-306 336.38,-300 336.38,-294 336.38,-294 336.38,-235 336.38,-235 336.38,-229 342.38,-223 348.38,-223 348.38,-223 449.88,-223 449.88,-223 455.88,-223 461.88,-229 461.88,-235 461.88,-235 461.88,-294 461.88,-294 461.88,-300 455.88,-306 449.88,-306"/>
<text text-anchor="start" x="344.38" y="-288.7" font-family="Helvetica,sans-Serif" font-size="14.00">petal_width ≤ 1.55</text>
<text text-anchor="start" x="363.88" y="-273.7" font-family="Helvetica,sans-Serif" font-size="14.00">gini = 0.444</text>
<text text-anchor="start" x="362" y="-258.7" font-family="Helvetica,sans-Serif" font-size="14.00">samples = 6</text>
<text text-anchor="start" x="352.62" y="-243.7" font-family="Helvetica,sans-Serif" font-size="14.00">value = [0, 2, 4]</text>
<text text-anchor="start" x="351.12" y="-228.7" font-family="Helvetica,sans-Serif" font-size="14.00">class = virginica</text>
</g>
<!-- 3&#45;&gt;7 -->
<g id="edge7" class="edge">
<title>3&#45;&gt;7</title>
<path fill="none" stroke="black" d="M399.12,-341.58C399.12,-333.7 399.12,-325.34 399.12,-317.17"/>
<polygon fill="black" stroke="black" points="402.63,-317.2 399.12,-307.2 395.63,-317.2 402.63,-317.2"/>
</g>
<!-- 5 -->
<g id="node6" class="node">
<title>5</title>
<path fill="#39e581" stroke="black" d="M108.25,-179.5C108.25,-179.5 12,-179.5 12,-179.5 6,-179.5 0,-173.5 0,-167.5 0,-167.5 0,-123.5 0,-123.5 0,-117.5 6,-111.5 12,-111.5 12,-111.5 108.25,-111.5 108.25,-111.5 114.25,-111.5 120.25,-117.5 120.25,-123.5 120.25,-123.5 120.25,-167.5 120.25,-167.5 120.25,-173.5 114.25,-179.5 108.25,-179.5"/>
<text text-anchor="start" x="32.38" y="-162.2" font-family="Helvetica,sans-Serif" font-size="14.00">gini = 0.0</text>
<text text-anchor="start" x="19.25" y="-147.2" font-family="Helvetica,sans-Serif" font-size="14.00">samples = 47</text>
<text text-anchor="start" x="9.88" y="-132.2" font-family="Helvetica,sans-Serif" font-size="14.00">value = [0, 47, 0]</text>
<text text-anchor="start" x="8" y="-117.2" font-family="Helvetica,sans-Serif" font-size="14.00">class = versicolor</text>
</g>
<!-- 4&#45;&gt;5 -->
<g id="edge5" class="edge">
<title>4&#45;&gt;5</title>
<path fill="none" stroke="black" d="M147.26,-222.58C134.01,-211.01 119.6,-198.43 106.39,-186.89"/>
<polygon fill="black" stroke="black" points="109.17,-183.8 99.33,-179.86 104.56,-189.07 109.17,-183.8"/>
</g>
<!-- 6 -->
<g id="node7" class="node">
<title>6</title>
<path fill="#8139e5" stroke="black" d="M238.12,-179.5C238.12,-179.5 150.12,-179.5 150.12,-179.5 144.12,-179.5 138.12,-173.5 138.12,-167.5 138.12,-167.5 138.12,-123.5 138.12,-123.5 138.12,-117.5 144.12,-111.5 150.12,-111.5 150.12,-111.5 238.12,-111.5 238.12,-111.5 244.12,-111.5 250.12,-117.5 250.12,-123.5 250.12,-123.5 250.12,-167.5 250.12,-167.5 250.12,-173.5 244.12,-179.5 238.12,-179.5"/>
<text text-anchor="start" x="166.38" y="-162.2" font-family="Helvetica,sans-Serif" font-size="14.00">gini = 0.0</text>
<text text-anchor="start" x="157" y="-147.2" font-family="Helvetica,sans-Serif" font-size="14.00">samples = 1</text>
<text text-anchor="start" x="147.62" y="-132.2" font-family="Helvetica,sans-Serif" font-size="14.00">value = [0, 0, 1]</text>
<text text-anchor="start" x="146.12" y="-117.2" font-family="Helvetica,sans-Serif" font-size="14.00">class = virginica</text>
</g>
<!-- 4&#45;&gt;6 -->
<g id="edge6" class="edge">
<title>4&#45;&gt;6</title>
<path fill="none" stroke="black" d="M194.12,-222.58C194.12,-212.32 194.12,-201.27 194.12,-190.85"/>
<polygon fill="black" stroke="black" points="197.63,-190.86 194.12,-180.86 190.63,-190.86 197.63,-190.86"/>
</g>
<!-- 8 -->
<g id="node9" class="node">
<title>8</title>
<path fill="#8139e5" stroke="black" d="M368.12,-179.5C368.12,-179.5 280.12,-179.5 280.12,-179.5 274.12,-179.5 268.12,-173.5 268.12,-167.5 268.12,-167.5 268.12,-123.5 268.12,-123.5 268.12,-117.5 274.12,-111.5 280.12,-111.5 280.12,-111.5 368.12,-111.5 368.12,-111.5 374.12,-111.5 380.12,-117.5 380.12,-123.5 380.12,-123.5 380.12,-167.5 380.12,-167.5 380.12,-173.5 374.12,-179.5 368.12,-179.5"/>
<text text-anchor="start" x="296.38" y="-162.2" font-family="Helvetica,sans-Serif" font-size="14.00">gini = 0.0</text>
<text text-anchor="start" x="287" y="-147.2" font-family="Helvetica,sans-Serif" font-size="14.00">samples = 3</text>
<text text-anchor="start" x="277.62" y="-132.2" font-family="Helvetica,sans-Serif" font-size="14.00">value = [0, 0, 3]</text>
<text text-anchor="start" x="276.12" y="-117.2" font-family="Helvetica,sans-Serif" font-size="14.00">class = virginica</text>
</g>
<!-- 7&#45;&gt;8 -->
<g id="edge8" class="edge">
<title>7&#45;&gt;8</title>
<path fill="none" stroke="black" d="M372.89,-222.58C365.9,-211.66 358.32,-199.85 351.28,-188.86"/>
<polygon fill="black" stroke="black" points="353.85,-187.39 345.51,-180.86 347.96,-191.17 353.85,-187.39"/>
</g>
<!-- 9 -->
<g id="node10" class="node">
<title>9</title>
<path fill="#9cf2c0" stroke="black" d="M520,-187C520,-187 410.25,-187 410.25,-187 404.25,-187 398.25,-181 398.25,-175 398.25,-175 398.25,-116 398.25,-116 398.25,-110 404.25,-104 410.25,-104 410.25,-104 520,-104 520,-104 526,-104 532,-110 532,-116 532,-116 532,-175 532,-175 532,-181 526,-187 520,-187"/>
<text text-anchor="start" x="406.25" y="-169.7" font-family="Helvetica,sans-Serif" font-size="14.00">sepal_length ≤ 6.95</text>
<text text-anchor="start" x="429.88" y="-154.7" font-family="Helvetica,sans-Serif" font-size="14.00">gini = 0.444</text>
<text text-anchor="start" x="428" y="-139.7" font-family="Helvetica,sans-Serif" font-size="14.00">samples = 3</text>
<text text-anchor="start" x="418.62" y="-124.7" font-family="Helvetica,sans-Serif" font-size="14.00">value = [0, 2, 1]</text>
<text text-anchor="start" x="413" y="-109.7" font-family="Helvetica,sans-Serif" font-size="14.00">class = versicolor</text>
</g>
<!-- 7&#45;&gt;9 -->
<g id="edge9" class="edge">
<title>7&#45;&gt;9</title>
<path fill="none" stroke="black" d="M422.21,-222.58C426.91,-214.25 431.9,-205.39 436.76,-196.78"/>
<polygon fill="black" stroke="black" points="440.3,-198.63 442.17,-188.2 434.2,-195.19 440.3,-198.63"/>
</g>
<!-- 10 -->
<g id="node11" class="node">
<title>10</title>
<path fill="#39e581" stroke="black" d="M446.25,-68C446.25,-68 350,-68 350,-68 344,-68 338,-62 338,-56 338,-56 338,-12 338,-12 338,-6 344,0 350,0 350,0 446.25,0 446.25,0 452.25,0 458.25,-6 458.25,-12 458.25,-12 458.25,-56 458.25,-56 458.25,-62 452.25,-68 446.25,-68"/>
<text text-anchor="start" x="370.38" y="-50.7" font-family="Helvetica,sans-Serif" font-size="14.00">gini = 0.0</text>
<text text-anchor="start" x="361" y="-35.7" font-family="Helvetica,sans-Serif" font-size="14.00">samples = 2</text>
<text text-anchor="start" x="351.62" y="-20.7" font-family="Helvetica,sans-Serif" font-size="14.00">value = [0, 2, 0]</text>
<text text-anchor="start" x="346" y="-5.7" font-family="Helvetica,sans-Serif" font-size="14.00">class = versicolor</text>
</g>
<!-- 9&#45;&gt;10 -->
<g id="edge10" class="edge">
<title>9&#45;&gt;10</title>
<path fill="none" stroke="black" d="M440.18,-103.73C434.93,-95.15 429.38,-86.09 424.1,-77.46"/>
<polygon fill="black" stroke="black" points="426.7,-76 418.5,-69.3 420.73,-79.66 426.7,-76"/>
</g>
<!-- 11 -->
<g id="node12" class="node">
<title>11</title>
<path fill="#8139e5" stroke="black" d="M576.12,-68C576.12,-68 488.12,-68 488.12,-68 482.12,-68 476.12,-62 476.12,-56 476.12,-56 476.12,-12 476.12,-12 476.12,-6 482.12,0 488.12,0 488.12,0 576.12,0 576.12,0 582.12,0 588.12,-6 588.12,-12 588.12,-12 588.12,-56 588.12,-56 588.12,-62 582.12,-68 576.12,-68"/>
<text text-anchor="start" x="504.38" y="-50.7" font-family="Helvetica,sans-Serif" font-size="14.00">gini = 0.0</text>
<text text-anchor="start" x="495" y="-35.7" font-family="Helvetica,sans-Serif" font-size="14.00">samples = 1</text>
<text text-anchor="start" x="485.62" y="-20.7" font-family="Helvetica,sans-Serif" font-size="14.00">value = [0, 0, 1]</text>
<text text-anchor="start" x="484.12" y="-5.7" font-family="Helvetica,sans-Serif" font-size="14.00">class = virginica</text>
</g>
<!-- 9&#45;&gt;11 -->
<g id="edge11" class="edge">
<title>9&#45;&gt;11</title>
<path fill="none" stroke="black" d="M490.07,-103.73C495.32,-95.15 500.87,-86.09 506.15,-77.46"/>
<polygon fill="black" stroke="black" points="509.52,-79.66 511.75,-69.3 503.55,-76 509.52,-79.66"/>
</g>
<!-- 13 -->
<g id="node14" class="node">
<title>13</title>
<path fill="#c09cf2" stroke="black" d="M665,-306C665,-306 555.25,-306 555.25,-306 549.25,-306 543.25,-300 543.25,-294 543.25,-294 543.25,-235 543.25,-235 543.25,-229 549.25,-223 555.25,-223 555.25,-223 665,-223 665,-223 671,-223 677,-229 677,-235 677,-235 677,-294 677,-294 677,-300 671,-306 665,-306"/>
<text text-anchor="start" x="551.25" y="-288.7" font-family="Helvetica,sans-Serif" font-size="14.00">sepal_length ≤ 5.95</text>
<text text-anchor="start" x="574.88" y="-273.7" font-family="Helvetica,sans-Serif" font-size="14.00">gini = 0.444</text>
<text text-anchor="start" x="573" y="-258.7" font-family="Helvetica,sans-Serif" font-size="14.00">samples = 3</text>
<text text-anchor="start" x="563.62" y="-243.7" font-family="Helvetica,sans-Serif" font-size="14.00">value = [0, 1, 2]</text>
<text text-anchor="start" x="562.12" y="-228.7" font-family="Helvetica,sans-Serif" font-size="14.00">class = virginica</text>
</g>
<!-- 12&#45;&gt;13 -->
<g id="edge13" class="edge">
<title>12&#45;&gt;13</title>
<path fill="none" stroke="black" d="M610.12,-341.58C610.12,-333.7 610.12,-325.34 610.12,-317.17"/>
<polygon fill="black" stroke="black" points="613.63,-317.2 610.12,-307.2 606.63,-317.2 613.63,-317.2"/>
</g>
<!-- 16 -->
<g id="node17" class="node">
<title>16</title>
<path fill="#8139e5" stroke="black" d="M799.38,-298.5C799.38,-298.5 706.88,-298.5 706.88,-298.5 700.88,-298.5 694.88,-292.5 694.88,-286.5 694.88,-286.5 694.88,-242.5 694.88,-242.5 694.88,-236.5 700.88,-230.5 706.88,-230.5 706.88,-230.5 799.38,-230.5 799.38,-230.5 805.38,-230.5 811.38,-236.5 811.38,-242.5 811.38,-242.5 811.38,-286.5 811.38,-286.5 811.38,-292.5 805.38,-298.5 799.38,-298.5"/>
<text text-anchor="start" x="725.38" y="-281.2" font-family="Helvetica,sans-Serif" font-size="14.00">gini = 0.0</text>
<text text-anchor="start" x="712.25" y="-266.2" font-family="Helvetica,sans-Serif" font-size="14.00">samples = 43</text>
<text text-anchor="start" x="702.88" y="-251.2" font-family="Helvetica,sans-Serif" font-size="14.00">value = [0, 0, 43]</text>
<text text-anchor="start" x="705.12" y="-236.2" font-family="Helvetica,sans-Serif" font-size="14.00">class = virginica</text>
</g>
<!-- 12&#45;&gt;16 -->
<g id="edge16" class="edge">
<title>12&#45;&gt;16</title>
<path fill="none" stroke="black" d="M660.14,-341.58C674.41,-329.9 689.95,-317.19 704.16,-305.57"/>
<polygon fill="black" stroke="black" points="705.83,-307.9 711.35,-298.86 701.39,-302.48 705.83,-307.9"/>
</g>
<!-- 14 -->
<g id="node15" class="node">
<title>14</title>
<path fill="#39e581" stroke="black" d="M658.25,-179.5C658.25,-179.5 562,-179.5 562,-179.5 556,-179.5 550,-173.5 550,-167.5 550,-167.5 550,-123.5 550,-123.5 550,-117.5 556,-111.5 562,-111.5 562,-111.5 658.25,-111.5 658.25,-111.5 664.25,-111.5 670.25,-117.5 670.25,-123.5 670.25,-123.5 670.25,-167.5 670.25,-167.5 670.25,-173.5 664.25,-179.5 658.25,-179.5"/>
<text text-anchor="start" x="582.38" y="-162.2" font-family="Helvetica,sans-Serif" font-size="14.00">gini = 0.0</text>
<text text-anchor="start" x="573" y="-147.2" font-family="Helvetica,sans-Serif" font-size="14.00">samples = 1</text>
<text text-anchor="start" x="563.62" y="-132.2" font-family="Helvetica,sans-Serif" font-size="14.00">value = [0, 1, 0]</text>
<text text-anchor="start" x="558" y="-117.2" font-family="Helvetica,sans-Serif" font-size="14.00">class = versicolor</text>
</g>
<!-- 13&#45;&gt;14 -->
<g id="edge14" class="edge">
<title>13&#45;&gt;14</title>
<path fill="none" stroke="black" d="M610.12,-222.58C610.12,-212.32 610.12,-201.27 610.12,-190.85"/>
<polygon fill="black" stroke="black" points="613.63,-190.86 610.12,-180.86 606.63,-190.86 613.63,-190.86"/>
</g>
<!-- 15 -->
<g id="node16" class="node">
<title>15</title>
<path fill="#8139e5" stroke="black" d="M788.12,-179.5C788.12,-179.5 700.12,-179.5 700.12,-179.5 694.12,-179.5 688.12,-173.5 688.12,-167.5 688.12,-167.5 688.12,-123.5 688.12,-123.5 688.12,-117.5 694.12,-111.5 700.12,-111.5 700.12,-111.5 788.12,-111.5 788.12,-111.5 794.12,-111.5 800.12,-117.5 800.12,-123.5 800.12,-123.5 800.12,-167.5 800.12,-167.5 800.12,-173.5 794.12,-179.5 788.12,-179.5"/>
<text text-anchor="start" x="716.38" y="-162.2" font-family="Helvetica,sans-Serif" font-size="14.00">gini = 0.0</text>
<text text-anchor="start" x="707" y="-147.2" font-family="Helvetica,sans-Serif" font-size="14.00">samples = 2</text>
<text text-anchor="start" x="697.62" y="-132.2" font-family="Helvetica,sans-Serif" font-size="14.00">value = [0, 0, 2]</text>
<text text-anchor="start" x="696.12" y="-117.2" font-family="Helvetica,sans-Serif" font-size="14.00">class = virginica</text>
</g>
<!-- 13&#45;&gt;15 -->
<g id="edge15" class="edge">
<title>13&#45;&gt;15</title>
<path fill="none" stroke="black" d="M656.99,-222.58C670.24,-211.01 684.65,-198.43 697.86,-186.89"/>
<polygon fill="black" stroke="black" points="699.69,-189.07 704.92,-179.86 695.08,-183.8 699.69,-189.07"/>
</g>
</g>
</svg>