<?xml version="1.0" encoding="utf-8" standalone="no"?>
<!DOCTYPE svg PUBLIC "-//W3C//DTD SVG 1.1//EN"
  "http://www.w3.org/Graphics/SVG/1.1/DTD/svg11.dtd">
<svg xmlns:xlink="http://www.w3.org/1999/xlink" width="394.423125pt" height="297.190125pt" viewBox="0 0 394.423125 297.190125" xmlns="http://www.w3.org/2000/svg" version="1.1">
 <metadata>
  <rdf:RDF xmlns:dc="http://purl.org/dc/elements/1.1/" xmlns:cc="http://creativecommons.org/ns#" xmlns:rdf="http://www.w3.org/1999/02/22-rdf-syntax-ns#">
   <cc:Work>
    <dc:type rdf:resource="http://purl.org/dc/dcmitype/StillImage"/>
    <dc:date>2023-09-26T12:22:13.893225</dc:date>
    <dc:format>image/svg+xml</dc:format>
    <dc:creator>
     <cc:Agent>
      <dc:title>Matplotlib v3.7.1, https://matplotlib.org/</dc:title>
     </cc:Agent>
    </dc:creator>
   </cc:Work>
  </rdf:RDF>
 </metadata>
 <defs>
  <style type="text/css">*{stroke-linejoin: round; stroke-linecap: butt}</style>
 </defs>
 <g id="figure_1">
  <g id="patch_1">
   <path d="M 0 297.190125 
L 394.423125 297.190125 
L 394.423125 0 
L 0 0 
z
" style="fill: #ffffff"/>
  </g>
  <g id="axes_1">
   <g id="patch_2">
    <path d="M 30.103125 273.312 
L 387.223125 273.312 
L 387.223125 7.2 
L 30.103125 7.2 
z
" style="fill: #ffffff"/>
   </g>
   <g id="PathCollection_1">
    <defs>
     <path id="m451007e491" d="M 0 1.581139 
C 0.419323 1.581139 0.821528 1.41454 1.118034 1.118034 
C 1.41454 0.821528 1.581139 0.419323 1.581139 0 
C 1.581139 -0.419323 1.41454 -0.821528 1.118034 -1.118034 
C 0.821528 -1.41454 0.419323 -1.581139 0 -1.581139 
C -0.419323 -1.581139 -0.821528 -1.41454 -1.118034 -1.118034 
C -1.41454 -0.821528 -1.581139 -0.419323 -1.581139 0 
C -1.581139 0.419323 -1.41454 0.821528 -1.118034 1.118034 
C -0.821528 1.41454 -0.419323 1.581139 0 1.581139 
z
" style="stroke: #0000ff"/>
    </defs>
    <g clip-path="url(#pa185efe633)">
     <use xlink:href="#m451007e491" x="46.335852" y="178.835911" style="fill: #0000ff; stroke: #0000ff"/>
     <use xlink:href="#m451007e491" x="49.615191" y="46.813036" style="fill: #0000ff; stroke: #0000ff"/>
     <use xlink:href="#m451007e491" x="52.89453" y="69.217711" style="fill: #0000ff; stroke: #0000ff"/>
     <use xlink:href="#m451007e491" x="56.173869" y="119.80561" style="fill: #0000ff; stroke: #0000ff"/>
     <use xlink:href="#m451007e491" x="59.453208" y="153.566297" style="fill: #0000ff; stroke: #0000ff"/>
     <use xlink:href="#m451007e491" x="62.732546" y="133.537979" style="fill: #0000ff; stroke: #0000ff"/>
     <use xlink:href="#m451007e491" x="66.011885" y="72.389211" style="fill: #0000ff; stroke: #0000ff"/>
     <use xlink:href="#m451007e491" x="69.291224" y="19.296" style="fill: #0000ff; stroke: #0000ff"/>
     <use xlink:href="#m451007e491" x="72.570563" y="185.369518" style="fill: #0000ff; stroke: #0000ff"/>
     <use xlink:href="#m451007e491" x="75.849902" y="105.663301" style="fill: #0000ff; stroke: #0000ff"/>
     <use xlink:href="#m451007e491" x="79.129241" y="181.560968" style="fill: #0000ff; stroke: #0000ff"/>
     <use xlink:href="#m451007e491" x="82.40858" y="137.943737" style="fill: #0000ff; stroke: #0000ff"/>
     <use xlink:href="#m451007e491" x="85.687918" y="160.746698" style="fill: #0000ff; stroke: #0000ff"/>
     <use xlink:href="#m451007e491" x="88.967257" y="27.344811" style="fill: #0000ff; stroke: #0000ff"/>
     <use xlink:href="#m451007e491" x="92.246596" y="60.262065" style="fill: #0000ff; stroke: #0000ff"/>
     <use xlink:href="#m451007e491" x="95.525935" y="146.04125" style="fill: #0000ff; stroke: #0000ff"/>
     <use xlink:href="#m451007e491" x="98.805274" y="179.607232" style="fill: #0000ff; stroke: #0000ff"/>
     <use xlink:href="#m451007e491" x="102.084613" y="82.392613" style="fill: #0000ff; stroke: #0000ff"/>
     <use xlink:href="#m451007e491" x="105.363951" y="127.173414" style="fill: #0000ff; stroke: #0000ff"/>
     <use xlink:href="#m451007e491" x="108.64329" y="128.330361" style="fill: #0000ff; stroke: #0000ff"/>
     <use xlink:href="#m451007e491" x="111.922629" y="116.15716" style="fill: #0000ff; stroke: #0000ff"/>
     <use xlink:href="#m451007e491" x="115.201968" y="82.762257" style="fill: #0000ff; stroke: #0000ff"/>
     <use xlink:href="#m451007e491" x="118.481307" y="109.332227" style="fill: #0000ff; stroke: #0000ff"/>
     <use xlink:href="#m451007e491" x="121.760646" y="107.085038" style="fill: #0000ff; stroke: #0000ff"/>
     <use xlink:href="#m451007e491" x="125.039985" y="215.380835" style="fill: #0000ff; stroke: #0000ff"/>
     <use xlink:href="#m451007e491" x="128.319323" y="186.32229" style="fill: #0000ff; stroke: #0000ff"/>
     <use xlink:href="#m451007e491" x="131.598662" y="72.607675" style="fill: #0000ff; stroke: #0000ff"/>
     <use xlink:href="#m451007e491" x="134.878001" y="142.315508" style="fill: #0000ff; stroke: #0000ff"/>
     <use xlink:href="#m451007e491" x="138.15734" y="168.095066" style="fill: #0000ff; stroke: #0000ff"/>
     <use xlink:href="#m451007e491" x="141.436679" y="193.344181" style="fill: #0000ff; stroke: #0000ff"/>
     <use xlink:href="#m451007e491" x="144.716018" y="216.739645" style="fill: #0000ff; stroke: #0000ff"/>
     <use xlink:href="#m451007e491" x="147.995356" y="150.304083" style="fill: #0000ff; stroke: #0000ff"/>
     <use xlink:href="#m451007e491" x="151.274695" y="107.106712" style="fill: #0000ff; stroke: #0000ff"/>
     <use xlink:href="#m451007e491" x="154.554034" y="130.280455" style="fill: #0000ff; stroke: #0000ff"/>
     <use xlink:href="#m451007e491" x="157.833373" y="143.968376" style="fill: #0000ff; stroke: #0000ff"/>
     <use xlink:href="#m451007e491" x="161.112712" y="162.082645" style="fill: #0000ff; stroke: #0000ff"/>
     <use xlink:href="#m451007e491" x="164.392051" y="197.838608" style="fill: #0000ff; stroke: #0000ff"/>
     <use xlink:href="#m451007e491" x="167.671389" y="78.117692" style="fill: #0000ff; stroke: #0000ff"/>
     <use xlink:href="#m451007e491" x="170.950728" y="124.151342" style="fill: #0000ff; stroke: #0000ff"/>
     <use xlink:href="#m451007e491" x="174.230067" y="178.244714" style="fill: #0000ff; stroke: #0000ff"/>
     <use xlink:href="#m451007e491" x="177.509406" y="139.456946" style="fill: #0000ff; stroke: #0000ff"/>
     <use xlink:href="#m451007e491" x="180.788745" y="83.118371" style="fill: #0000ff; stroke: #0000ff"/>
     <use xlink:href="#m451007e491" x="184.068084" y="25.967872" style="fill: #0000ff; stroke: #0000ff"/>
     <use xlink:href="#m451007e491" x="187.347423" y="129.217751" style="fill: #0000ff; stroke: #0000ff"/>
     <use xlink:href="#m451007e491" x="190.626761" y="103.212981" style="fill: #0000ff; stroke: #0000ff"/>
     <use xlink:href="#m451007e491" x="193.9061" y="210.293729" style="fill: #0000ff; stroke: #0000ff"/>
     <use xlink:href="#m451007e491" x="197.185439" y="97.988367" style="fill: #0000ff; stroke: #0000ff"/>
     <use xlink:href="#m451007e491" x="200.464778" y="200.00113" style="fill: #0000ff; stroke: #0000ff"/>
     <use xlink:href="#m451007e491" x="203.744117" y="142.788079" style="fill: #0000ff; stroke: #0000ff"/>
     <use xlink:href="#m451007e491" x="207.023456" y="149.136725" style="fill: #0000ff; stroke: #0000ff"/>
     <use xlink:href="#m451007e491" x="210.302794" y="160.13991" style="fill: #0000ff; stroke: #0000ff"/>
     <use xlink:href="#m451007e491" x="213.582133" y="118.558736" style="fill: #0000ff; stroke: #0000ff"/>
     <use xlink:href="#m451007e491" x="216.861472" y="175.818482" style="fill: #0000ff; stroke: #0000ff"/>
     <use xlink:href="#m451007e491" x="220.140811" y="50.461719" style="fill: #0000ff; stroke: #0000ff"/>
     <use xlink:href="#m451007e491" x="223.42015" y="63.52651" style="fill: #0000ff; stroke: #0000ff"/>
     <use xlink:href="#m451007e491" x="226.699489" y="194.734027" style="fill: #0000ff; stroke: #0000ff"/>
     <use xlink:href="#m451007e491" x="229.978827" y="164.686017" style="fill: #0000ff; stroke: #0000ff"/>
     <use xlink:href="#m451007e491" x="233.258166" y="161.814403" style="fill: #0000ff; stroke: #0000ff"/>
     <use xlink:href="#m451007e491" x="236.537505" y="110.64387" style="fill: #0000ff; stroke: #0000ff"/>
     <use xlink:href="#m451007e491" x="239.816844" y="110.489896" style="fill: #0000ff; stroke: #0000ff"/>
     <use xlink:href="#m451007e491" x="243.096183" y="66.227473" style="fill: #0000ff; stroke: #0000ff"/>
     <use xlink:href="#m451007e491" x="246.375522" y="65.549839" style="fill: #0000ff; stroke: #0000ff"/>
     <use xlink:href="#m451007e491" x="249.654861" y="39.850626" style="fill: #0000ff; stroke: #0000ff"/>
     <use xlink:href="#m451007e491" x="252.934199" y="118.770733" style="fill: #0000ff; stroke: #0000ff"/>
     <use xlink:href="#m451007e491" x="256.213538" y="68.752402" style="fill: #0000ff; stroke: #0000ff"/>
     <use xlink:href="#m451007e491" x="259.492877" y="155.176559" style="fill: #0000ff; stroke: #0000ff"/>
     <use xlink:href="#m451007e491" x="262.772216" y="102.918958" style="fill: #0000ff; stroke: #0000ff"/>
     <use xlink:href="#m451007e491" x="266.051555" y="156.058146" style="fill: #0000ff; stroke: #0000ff"/>
     <use xlink:href="#m451007e491" x="269.330894" y="128.241463" style="fill: #0000ff; stroke: #0000ff"/>
     <use xlink:href="#m451007e491" x="272.610232" y="86.816983" style="fill: #0000ff; stroke: #0000ff"/>
     <use xlink:href="#m451007e491" x="275.889571" y="158.634585" style="fill: #0000ff; stroke: #0000ff"/>
     <use xlink:href="#m451007e491" x="279.16891" y="205.355933" style="fill: #0000ff; stroke: #0000ff"/>
     <use xlink:href="#m451007e491" x="282.448249" y="130.154006" style="fill: #0000ff; stroke: #0000ff"/>
     <use xlink:href="#m451007e491" x="285.727588" y="83.621908" style="fill: #0000ff; stroke: #0000ff"/>
     <use xlink:href="#m451007e491" x="289.006927" y="261.216" style="fill: #0000ff; stroke: #0000ff"/>
     <use xlink:href="#m451007e491" x="292.286265" y="133.121236" style="fill: #0000ff; stroke: #0000ff"/>
     <use xlink:href="#m451007e491" x="295.565604" y="161.062074" style="fill: #0000ff; stroke: #0000ff"/>
     <use xlink:href="#m451007e491" x="298.844943" y="148.405384" style="fill: #0000ff; stroke: #0000ff"/>
     <use xlink:href="#m451007e491" x="302.124282" y="140.237977" style="fill: #0000ff; stroke: #0000ff"/>
     <use xlink:href="#m451007e491" x="305.403621" y="130.142975" style="fill: #0000ff; stroke: #0000ff"/>
     <use xlink:href="#m451007e491" x="308.68296" y="110.325552" style="fill: #0000ff; stroke: #0000ff"/>
     <use xlink:href="#m451007e491" x="311.962299" y="55.035946" style="fill: #0000ff; stroke: #0000ff"/>
     <use xlink:href="#m451007e491" x="315.241637" y="189.762701" style="fill: #0000ff; stroke: #0000ff"/>
     <use xlink:href="#m451007e491" x="318.520976" y="205.886398" style="fill: #0000ff; stroke: #0000ff"/>
     <use xlink:href="#m451007e491" x="321.800315" y="34.777567" style="fill: #0000ff; stroke: #0000ff"/>
     <use xlink:href="#m451007e491" x="325.079654" y="77.20891" style="fill: #0000ff; stroke: #0000ff"/>
     <use xlink:href="#m451007e491" x="328.358993" y="210.698227" style="fill: #0000ff; stroke: #0000ff"/>
     <use xlink:href="#m451007e491" x="331.638332" y="229.604538" style="fill: #0000ff; stroke: #0000ff"/>
     <use xlink:href="#m451007e491" x="334.91767" y="203.799778" style="fill: #0000ff; stroke: #0000ff"/>
     <use xlink:href="#m451007e491" x="338.197009" y="116.518974" style="fill: #0000ff; stroke: #0000ff"/>
     <use xlink:href="#m451007e491" x="341.476348" y="197.319512" style="fill: #0000ff; stroke: #0000ff"/>
     <use xlink:href="#m451007e491" x="344.755687" y="187.612948" style="fill: #0000ff; stroke: #0000ff"/>
     <use xlink:href="#m451007e491" x="348.035026" y="95.243654" style="fill: #0000ff; stroke: #0000ff"/>
     <use xlink:href="#m451007e491" x="351.314365" y="105.531631" style="fill: #0000ff; stroke: #0000ff"/>
     <use xlink:href="#m451007e491" x="354.593704" y="251.560347" style="fill: #0000ff; stroke: #0000ff"/>
     <use xlink:href="#m451007e491" x="357.873042" y="239.65489" style="fill: #0000ff; stroke: #0000ff"/>
     <use xlink:href="#m451007e491" x="361.152381" y="225.904122" style="fill: #0000ff; stroke: #0000ff"/>
     <use xlink:href="#m451007e491" x="364.43172" y="113.500302" style="fill: #0000ff; stroke: #0000ff"/>
     <use xlink:href="#m451007e491" x="367.711059" y="174.225676" style="fill: #0000ff; stroke: #0000ff"/>
     <use xlink:href="#m451007e491" x="370.990398" y="198.710761" style="fill: #0000ff; stroke: #0000ff"/>
    </g>
   </g>
   <g id="matplotlib.axis_1">
    <g id="xtick_1">
     <g id="line2d_1">
      <path d="M 46.335852 273.312 
L 46.335852 7.2 
" clip-path="url(#pa185efe633)" style="fill: none; stroke-dasharray: 0.8,1.32; stroke-dashoffset: 0; stroke: #b0b0b0; stroke-width: 0.8"/>
     </g>
     <g id="line2d_2">
      <defs>
       <path id="m6d94dc6cbd" d="M 0 0 
L 0 3.5 
" style="stroke: #000000; stroke-width: 0.8"/>
      </defs>
      <g>
       <use xlink:href="#m6d94dc6cbd" x="46.335852" y="273.312" style="stroke: #000000; stroke-width: 0.8"/>
      </g>
     </g>
     <g id="text_1">
      <!-- 0.0 -->
      <g transform="translate(38.38429 287.910437) scale(0.1 -0.1)">
       <defs>
        <path id="DejaVuSans-30" d="M 2034 4250 
Q 1547 4250 1301 3770 
Q 1056 3291 1056 2328 
Q 1056 1369 1301 889 
Q 1547 409 2034 409 
Q 2525 409 2770 889 
Q 3016 1369 3016 2328 
Q 3016 3291 2770 3770 
Q 2525 4250 2034 4250 
z
M 2034 4750 
Q 2819 4750 3233 4129 
Q 3647 3509 3647 2328 
Q 3647 1150 3233 529 
Q 2819 -91 2034 -91 
Q 1250 -91 836 529 
Q 422 1150 422 2328 
Q 422 3509 836 4129 
Q 1250 4750 2034 4750 
z
" transform="scale(0.015625)"/>
        <path id="DejaVuSans-2e" d="M 684 794 
L 1344 794 
L 1344 0 
L 684 0 
L 684 794 
z
" transform="scale(0.015625)"/>
       </defs>
       <use xlink:href="#DejaVuSans-30"/>
       <use xlink:href="#DejaVuSans-2e" x="63.623047"/>
       <use xlink:href="#DejaVuSans-30" x="95.410156"/>
      </g>
     </g>
    </g>
    <g id="xtick_2">
     <g id="line2d_3">
      <path d="M 111.922629 273.312 
L 111.922629 7.2 
" clip-path="url(#pa185efe633)" style="fill: none; stroke-dasharray: 0.8,1.32; stroke-dashoffset: 0; stroke: #b0b0b0; stroke-width: 0.8"/>
     </g>
     <g id="line2d_4">
      <g>
       <use xlink:href="#m6d94dc6cbd" x="111.922629" y="273.312" style="stroke: #000000; stroke-width: 0.8"/>
      </g>
     </g>
     <g id="text_2">
      <!-- 0.2 -->
      <g transform="translate(103.971067 287.910437) scale(0.1 -0.1)">
       <defs>
        <path id="DejaVuSans-32" d="M 1228 531 
L 3431 531 
L 3431 0 
L 469 0 
L 469 531 
Q 828 903 1448 1529 
Q 2069 2156 2228 2338 
Q 2531 2678 2651 2914 
Q 2772 3150 2772 3378 
Q 2772 3750 2511 3984 
Q 2250 4219 1831 4219 
Q 1534 4219 1204 4116 
Q 875 4013 500 3803 
L 500 4441 
Q 881 4594 1212 4672 
Q 1544 4750 1819 4750 
Q 2544 4750 2975 4387 
Q 3406 4025 3406 3419 
Q 3406 3131 3298 2873 
Q 3191 2616 2906 2266 
Q 2828 2175 2409 1742 
Q 1991 1309 1228 531 
z
" transform="scale(0.015625)"/>
       </defs>
       <use xlink:href="#DejaVuSans-30"/>
       <use xlink:href="#DejaVuSans-2e" x="63.623047"/>
       <use xlink:href="#DejaVuSans-32" x="95.410156"/>
      </g>
     </g>
    </g>
    <g id="xtick_3">
     <g id="line2d_5">
      <path d="M 177.509406 273.312 
L 177.509406 7.2 
" clip-path="url(#pa185efe633)" style="fill: none; stroke-dasharray: 0.8,1.32; stroke-dashoffset: 0; stroke: #b0b0b0; stroke-width: 0.8"/>
     </g>
     <g id="line2d_6">
      <g>
       <use xlink:href="#m6d94dc6cbd" x="177.509406" y="273.312" style="stroke: #000000; stroke-width: 0.8"/>
      </g>
     </g>
     <g id="text_3">
      <!-- 0.4 -->
      <g transform="translate(169.557843 287.910437) scale(0.1 -0.1)">
       <defs>
        <path id="DejaVuSans-34" d="M 2419 4116 
L 825 1625 
L 2419 1625 
L 2419 4116 
z
M 2253 4666 
L 3047 4666 
L 3047 1625 
L 3713 1625 
L 3713 1100 
L 3047 1100 
L 3047 0 
L 2419 0 
L 2419 1100 
L 313 1100 
L 313 1709 
L 2253 4666 
z
" transform="scale(0.015625)"/>
       </defs>
       <use xlink:href="#DejaVuSans-30"/>
       <use xlink:href="#DejaVuSans-2e" x="63.623047"/>
       <use xlink:href="#DejaVuSans-34" x="95.410156"/>
      </g>
     </g>
    </g>
    <g id="xtick_4">
     <g id="line2d_7">
      <path d="M 243.096183 273.312 
L 243.096183 7.2 
" clip-path="url(#pa185efe633)" style="fill: none; stroke-dasharray: 0.8,1.32; stroke-dashoffset: 0; stroke: #b0b0b0; stroke-width: 0.8"/>
     </g>
     <g id="line2d_8">
      <g>
       <use xlink:href="#m6d94dc6cbd" x="243.096183" y="273.312" style="stroke: #000000; stroke-width: 0.8"/>
      </g>
     </g>
     <g id="text_4">
      <!-- 0.6 -->
      <g transform="translate(235.14462 287.910437) scale(0.1 -0.1)">
       <defs>
        <path id="DejaVuSans-36" d="M 2113 2584 
Q 1688 2584 1439 2293 
Q 1191 2003 1191 1497 
Q 1191 994 1439 701 
Q 1688 409 2113 409 
Q 2538 409 2786 701 
Q 3034 994 3034 1497 
Q 3034 2003 2786 2293 
Q 2538 2584 2113 2584 
z
M 3366 4563 
L 3366 3988 
Q 3128 4100 2886 4159 
Q 2644 4219 2406 4219 
Q 1781 4219 1451 3797 
Q 1122 3375 1075 2522 
Q 1259 2794 1537 2939 
Q 1816 3084 2150 3084 
Q 2853 3084 3261 2657 
Q 3669 2231 3669 1497 
Q 3669 778 3244 343 
Q 2819 -91 2113 -91 
Q 1303 -91 875 529 
Q 447 1150 447 2328 
Q 447 3434 972 4092 
Q 1497 4750 2381 4750 
Q 2619 4750 2861 4703 
Q 3103 4656 3366 4563 
z
" transform="scale(0.015625)"/>
       </defs>
       <use xlink:href="#DejaVuSans-30"/>
       <use xlink:href="#DejaVuSans-2e" x="63.623047"/>
       <use xlink:href="#DejaVuSans-36" x="95.410156"/>
      </g>
     </g>
    </g>
    <g id="xtick_5">
     <g id="line2d_9">
      <path d="M 308.68296 273.312 
L 308.68296 7.2 
" clip-path="url(#pa185efe633)" style="fill: none; stroke-dasharray: 0.8,1.32; stroke-dashoffset: 0; stroke: #b0b0b0; stroke-width: 0.8"/>
     </g>
     <g id="line2d_10">
      <g>
       <use xlink:href="#m6d94dc6cbd" x="308.68296" y="273.312" style="stroke: #000000; stroke-width: 0.8"/>
      </g>
     </g>
     <g id="text_5">
      <!-- 0.8 -->
      <g transform="translate(300.731397 287.910437) scale(0.1 -0.1)">
       <defs>
        <path id="DejaVuSans-38" d="M 2034 2216 
Q 1584 2216 1326 1975 
Q 1069 1734 1069 1313 
Q 1069 891 1326 650 
Q 1584 409 2034 409 
Q 2484 409 2743 651 
Q 3003 894 3003 1313 
Q 3003 1734 2745 1975 
Q 2488 2216 2034 2216 
z
M 1403 2484 
Q 997 2584 770 2862 
Q 544 3141 544 3541 
Q 544 4100 942 4425 
Q 1341 4750 2034 4750 
Q 2731 4750 3128 4425 
Q 3525 4100 3525 3541 
Q 3525 3141 3298 2862 
Q 3072 2584 2669 2484 
Q 3125 2378 3379 2068 
Q 3634 1759 3634 1313 
Q 3634 634 3220 271 
Q 2806 -91 2034 -91 
Q 1263 -91 848 271 
Q 434 634 434 1313 
Q 434 1759 690 2068 
Q 947 2378 1403 2484 
z
M 1172 3481 
Q 1172 3119 1398 2916 
Q 1625 2713 2034 2713 
Q 2441 2713 2670 2916 
Q 2900 3119 2900 3481 
Q 2900 3844 2670 4047 
Q 2441 4250 2034 4250 
Q 1625 4250 1398 4047 
Q 1172 3844 1172 3481 
z
" transform="scale(0.015625)"/>
       </defs>
       <use xlink:href="#DejaVuSans-30"/>
       <use xlink:href="#DejaVuSans-2e" x="63.623047"/>
       <use xlink:href="#DejaVuSans-38" x="95.410156"/>
      </g>
     </g>
    </g>
    <g id="xtick_6">
     <g id="line2d_11">
      <path d="M 374.269737 273.312 
L 374.269737 7.2 
" clip-path="url(#pa185efe633)" style="fill: none; stroke-dasharray: 0.8,1.32; stroke-dashoffset: 0; stroke: #b0b0b0; stroke-width: 0.8"/>
     </g>
     <g id="line2d_12">
      <g>
       <use xlink:href="#m6d94dc6cbd" x="374.269737" y="273.312" style="stroke: #000000; stroke-width: 0.8"/>
      </g>
     </g>
     <g id="text_6">
      <!-- 1.0 -->
      <g transform="translate(366.318174 287.910437) scale(0.1 -0.1)">
       <defs>
        <path id="DejaVuSans-31" d="M 794 531 
L 1825 531 
L 1825 4091 
L 703 3866 
L 703 4441 
L 1819 4666 
L 2450 4666 
L 2450 531 
L 3481 531 
L 3481 0 
L 794 0 
L 794 531 
z
" transform="scale(0.015625)"/>
       </defs>
       <use xlink:href="#DejaVuSans-31"/>
       <use xlink:href="#DejaVuSans-2e" x="63.623047"/>
       <use xlink:href="#DejaVuSans-30" x="95.410156"/>
      </g>
     </g>
    </g>
   </g>
   <g id="matplotlib.axis_2">
    <g id="ytick_1">
     <g id="line2d_13">
      <path d="M 30.103125 233.939704 
L 387.223125 233.939704 
" clip-path="url(#pa185efe633)" style="fill: none; stroke-dasharray: 0.8,1.32; stroke-dashoffset: 0; stroke: #b0b0b0; stroke-width: 0.8"/>
     </g>
     <g id="line2d_14">
      <defs>
       <path id="m83eeb9ce24" d="M 0 0 
L -3.5 0 
" style="stroke: #000000; stroke-width: 0.8"/>
      </defs>
      <g>
       <use xlink:href="#m83eeb9ce24" x="30.103125" y="233.939704" style="stroke: #000000; stroke-width: 0.8"/>
      </g>
     </g>
     <g id="text_7">
      <!-- 0.5 -->
      <g transform="translate(7.2 237.738923) scale(0.1 -0.1)">
       <defs>
        <path id="DejaVuSans-35" d="M 691 4666 
L 3169 4666 
L 3169 4134 
L 1269 4134 
L 1269 2991 
Q 1406 3038 1543 3061 
Q 1681 3084 1819 3084 
Q 2600 3084 3056 2656 
Q 3513 2228 3513 1497 
Q 3513 744 3044 326 
Q 2575 -91 1722 -91 
Q 1428 -91 1123 -41 
Q 819 9 494 109 
L 494 744 
Q 775 591 1075 516 
Q 1375 441 1709 441 
Q 2250 441 2565 725 
Q 2881 1009 2881 1497 
Q 2881 1984 2565 2268 
Q 2250 2553 1709 2553 
Q 1456 2553 1204 2497 
Q 953 2441 691 2322 
L 691 4666 
z
" transform="scale(0.015625)"/>
       </defs>
       <use xlink:href="#DejaVuSans-30"/>
       <use xlink:href="#DejaVuSans-2e" x="63.623047"/>
       <use xlink:href="#DejaVuSans-35" x="95.410156"/>
      </g>
     </g>
    </g>
    <g id="ytick_2">
     <g id="line2d_15">
      <path d="M 30.103125 176.904957 
L 387.223125 176.904957 
" clip-path="url(#pa185efe633)" style="fill: none; stroke-dasharray: 0.8,1.32; stroke-dashoffset: 0; stroke: #b0b0b0; stroke-width: 0.8"/>
     </g>
     <g id="line2d_16">
      <g>
       <use xlink:href="#m83eeb9ce24" x="30.103125" y="176.904957" style="stroke: #000000; stroke-width: 0.8"/>
      </g>
     </g>
     <g id="text_8">
      <!-- 1.0 -->
      <g transform="translate(7.2 180.704176) scale(0.1 -0.1)">
       <use xlink:href="#DejaVuSans-31"/>
       <use xlink:href="#DejaVuSans-2e" x="63.623047"/>
       <use xlink:href="#DejaVuSans-30" x="95.410156"/>
      </g>
     </g>
    </g>
    <g id="ytick_3">
     <g id="line2d_17">
      <path d="M 30.103125 119.87021 
L 387.223125 119.87021 
" clip-path="url(#pa185efe633)" style="fill: none; stroke-dasharray: 0.8,1.32; stroke-dashoffset: 0; stroke: #b0b0b0; stroke-width: 0.8"/>
     </g>
     <g id="line2d_18">
      <g>
       <use xlink:href="#m83eeb9ce24" x="30.103125" y="119.87021" style="stroke: #000000; stroke-width: 0.8"/>
      </g>
     </g>
     <g id="text_9">
      <!-- 1.5 -->
      <g transform="translate(7.2 123.669429) scale(0.1 -0.1)">
       <use xlink:href="#DejaVuSans-31"/>
       <use xlink:href="#DejaVuSans-2e" x="63.623047"/>
       <use xlink:href="#DejaVuSans-35" x="95.410156"/>
      </g>
     </g>
    </g>
    <g id="ytick_4">
     <g id="line2d_19">
      <path d="M 30.103125 62.835463 
L 387.223125 62.835463 
" clip-path="url(#pa185efe633)" style="fill: none; stroke-dasharray: 0.8,1.32; stroke-dashoffset: 0; stroke: #b0b0b0; stroke-width: 0.8"/>
     </g>
     <g id="line2d_20">
      <g>
       <use xlink:href="#m83eeb9ce24" x="30.103125" y="62.835463" style="stroke: #000000; stroke-width: 0.8"/>
      </g>
     </g>
     <g id="text_10">
      <!-- 2.0 -->
      <g transform="translate(7.2 66.634682) scale(0.1 -0.1)">
       <use xlink:href="#DejaVuSans-32"/>
       <use xlink:href="#DejaVuSans-2e" x="63.623047"/>
       <use xlink:href="#DejaVuSans-30" x="95.410156"/>
      </g>
     </g>
    </g>
   </g>
   <g id="line2d_21">
    <path d="M 46.335852 97.056311 
L 49.615191 97.626659 
L 52.89453 98.197006 
L 56.173869 98.767354 
L 59.453208 99.337701 
L 62.732546 99.908049 
L 66.011885 100.478396 
L 69.291224 101.048744 
L 72.570563 101.619091 
L 75.849902 102.189439 
L 79.129241 102.759786 
L 82.40858 103.330134 
L 85.687918 103.900481 
L 88.967257 104.470829 
L 92.246596 105.041176 
L 95.525935 105.611523 
L 98.805274 106.181871 
L 102.084613 106.752218 
L 105.363951 107.322566 
L 108.64329 107.892913 
L 111.922629 108.463261 
L 115.201968 109.033608 
L 118.481307 109.603956 
L 121.760646 110.174303 
L 125.039985 110.744651 
L 128.319323 111.314998 
L 131.598662 111.885346 
L 134.878001 112.455693 
L 138.15734 113.026041 
L 141.436679 113.596388 
L 144.716018 114.166736 
L 147.995356 114.737083 
L 151.274695 115.30743 
L 154.554034 115.877778 
L 157.833373 116.448125 
L 161.112712 117.018473 
L 164.392051 117.58882 
L 167.671389 118.159168 
L 170.950728 118.729515 
L 174.230067 119.299863 
L 177.509406 119.87021 
L 180.788745 120.440558 
L 184.068084 121.010905 
L 187.347423 121.581253 
L 190.626761 122.1516 
L 193.9061 122.721948 
L 197.185439 123.292295 
L 200.464778 123.862643 
L 203.744117 124.43299 
L 207.023456 125.003337 
L 210.302794 125.573685 
L 213.582133 126.144032 
L 216.861472 126.71438 
L 220.140811 127.284727 
L 223.42015 127.855075 
L 226.699489 128.425422 
L 229.978827 128.99577 
L 233.258166 129.566117 
L 236.537505 130.136465 
L 239.816844 130.706812 
L 243.096183 131.27716 
L 246.375522 131.847507 
L 249.654861 132.417855 
L 252.934199 132.988202 
L 256.213538 133.558549 
L 259.492877 134.128897 
L 262.772216 134.699244 
L 266.051555 135.269592 
L 269.330894 135.839939 
L 272.610232 136.410287 
L 275.889571 136.980634 
L 279.16891 137.550982 
L 282.448249 138.121329 
L 285.727588 138.691677 
L 289.006927 139.262024 
L 292.286265 139.832372 
L 295.565604 140.402719 
L 298.844943 140.973067 
L 302.124282 141.543414 
L 305.403621 142.113762 
L 308.68296 142.684109 
L 311.962299 143.254456 
L 315.241637 143.824804 
L 318.520976 144.395151 
L 321.800315 144.965499 
L 325.079654 145.535846 
L 328.358993 146.106194 
L 331.638332 146.676541 
L 334.91767 147.246889 
L 338.197009 147.817236 
L 341.476348 148.387584 
L 344.755687 148.957931 
L 348.035026 149.528279 
L 351.314365 150.098626 
L 354.593704 150.668974 
L 357.873042 151.239321 
L 361.152381 151.809669 
L 364.43172 152.380016 
L 367.711059 152.950363 
L 370.990398 153.520711 
" clip-path="url(#pa185efe633)" style="fill: none; stroke: #ff0000; stroke-width: 2; stroke-linecap: square"/>
   </g>
   <g id="patch_3">
    <path d="M 30.103125 273.312 
L 30.103125 7.2 
" style="fill: none; stroke: #000000; stroke-width: 0.8; stroke-linejoin: miter; stroke-linecap: square"/>
   </g>
   <g id="patch_4">
    <path d="M 387.223125 273.312 
L 387.223125 7.2 
" style="fill: none; stroke: #000000; stroke-width: 0.8; stroke-linejoin: miter; stroke-linecap: square"/>
   </g>
   <g id="patch_5">
    <path d="M 30.103125 273.312 
L 387.223125 273.312 
" style="fill: none; stroke: #000000; stroke-width: 0.8; stroke-linejoin: miter; stroke-linecap: square"/>
   </g>
   <g id="patch_6">
    <path d="M 30.103125 7.2 
L 387.223125 7.2 
" style="fill: none; stroke: #000000; stroke-width: 0.8; stroke-linejoin: miter; stroke-linecap: square"/>
   </g>
   <g id="legend_1">
    <g id="patch_7">
     <path d="M 37.103125 268.312 
L 133.684375 268.312 
Q 135.684375 268.312 135.684375 266.312 
L 135.684375 237.95575 
Q 135.684375 235.95575 133.684375 235.95575 
L 37.103125 235.95575 
Q 35.103125 235.95575 35.103125 237.95575 
L 35.103125 266.312 
Q 35.103125 268.312 37.103125 268.312 
z
" style="fill: #ffffff; opacity: 0.8; stroke: #cccccc; stroke-linejoin: miter"/>
    </g>
    <g id="line2d_22">
     <path d="M 39.103125 244.054187 
L 49.103125 244.054187 
L 59.103125 244.054187 
" style="fill: none; stroke: #ff0000; stroke-width: 2; stroke-linecap: square"/>
    </g>
    <g id="text_11">
     <!-- Ground truth -->
     <g transform="translate(67.103125 247.554187) scale(0.1 -0.1)">
      <defs>
       <path id="DejaVuSans-47" d="M 3809 666 
L 3809 1919 
L 2778 1919 
L 2778 2438 
L 4434 2438 
L 4434 434 
Q 4069 175 3628 42 
Q 3188 -91 2688 -91 
Q 1594 -91 976 548 
Q 359 1188 359 2328 
Q 359 3472 976 4111 
Q 1594 4750 2688 4750 
Q 3144 4750 3555 4637 
Q 3966 4525 4313 4306 
L 4313 3634 
Q 3963 3931 3569 4081 
Q 3175 4231 2741 4231 
Q 1884 4231 1454 3753 
Q 1025 3275 1025 2328 
Q 1025 1384 1454 906 
Q 1884 428 2741 428 
Q 3075 428 3337 486 
Q 3600 544 3809 666 
z
" transform="scale(0.015625)"/>
       <path id="DejaVuSans-72" d="M 2631 2963 
Q 2534 3019 2420 3045 
Q 2306 3072 2169 3072 
Q 1681 3072 1420 2755 
Q 1159 2438 1159 1844 
L 1159 0 
L 581 0 
L 581 3500 
L 1159 3500 
L 1159 2956 
Q 1341 3275 1631 3429 
Q 1922 3584 2338 3584 
Q 2397 3584 2469 3576 
Q 2541 3569 2628 3553 
L 2631 2963 
z
" transform="scale(0.015625)"/>
       <path id="DejaVuSans-6f" d="M 1959 3097 
Q 1497 3097 1228 2736 
Q 959 2375 959 1747 
Q 959 1119 1226 758 
Q 1494 397 1959 397 
Q 2419 397 2687 759 
Q 2956 1122 2956 1747 
Q 2956 2369 2687 2733 
Q 2419 3097 1959 3097 
z
M 1959 3584 
Q 2709 3584 3137 3096 
Q 3566 2609 3566 1747 
Q 3566 888 3137 398 
Q 2709 -91 1959 -91 
Q 1206 -91 779 398 
Q 353 888 353 1747 
Q 353 2609 779 3096 
Q 1206 3584 1959 3584 
z
" transform="scale(0.015625)"/>
       <path id="DejaVuSans-75" d="M 544 1381 
L 544 3500 
L 1119 3500 
L 1119 1403 
Q 1119 906 1312 657 
Q 1506 409 1894 409 
Q 2359 409 2629 706 
Q 2900 1003 2900 1516 
L 2900 3500 
L 3475 3500 
L 3475 0 
L 2900 0 
L 2900 538 
Q 2691 219 2414 64 
Q 2138 -91 1772 -91 
Q 1169 -91 856 284 
Q 544 659 544 1381 
z
M 1991 3584 
L 1991 3584 
z
" transform="scale(0.015625)"/>
       <path id="DejaVuSans-6e" d="M 3513 2113 
L 3513 0 
L 2938 0 
L 2938 2094 
Q 2938 2591 2744 2837 
Q 2550 3084 2163 3084 
Q 1697 3084 1428 2787 
Q 1159 2491 1159 1978 
L 1159 0 
L 581 0 
L 581 3500 
L 1159 3500 
L 1159 2956 
Q 1366 3272 1645 3428 
Q 1925 3584 2291 3584 
Q 2894 3584 3203 3211 
Q 3513 2838 3513 2113 
z
" transform="scale(0.015625)"/>
       <path id="DejaVuSans-64" d="M 2906 2969 
L 2906 4863 
L 3481 4863 
L 3481 0 
L 2906 0 
L 2906 525 
Q 2725 213 2448 61 
Q 2172 -91 1784 -91 
Q 1150 -91 751 415 
Q 353 922 353 1747 
Q 353 2572 751 3078 
Q 1150 3584 1784 3584 
Q 2172 3584 2448 3432 
Q 2725 3281 2906 2969 
z
M 947 1747 
Q 947 1113 1208 752 
Q 1469 391 1925 391 
Q 2381 391 2643 752 
Q 2906 1113 2906 1747 
Q 2906 2381 2643 2742 
Q 2381 3103 1925 3103 
Q 1469 3103 1208 2742 
Q 947 2381 947 1747 
z
" transform="scale(0.015625)"/>
       <path id="DejaVuSans-20" transform="scale(0.015625)"/>
       <path id="DejaVuSans-74" d="M 1172 4494 
L 1172 3500 
L 2356 3500 
L 2356 3053 
L 1172 3053 
L 1172 1153 
Q 1172 725 1289 603 
Q 1406 481 1766 481 
L 2356 481 
L 2356 0 
L 1766 0 
Q 1100 0 847 248 
Q 594 497 594 1153 
L 594 3053 
L 172 3053 
L 172 3500 
L 594 3500 
L 594 4494 
L 1172 4494 
z
" transform="scale(0.015625)"/>
       <path id="DejaVuSans-68" d="M 3513 2113 
L 3513 0 
L 2938 0 
L 2938 2094 
Q 2938 2591 2744 2837 
Q 2550 3084 2163 3084 
Q 1697 3084 1428 2787 
Q 1159 2491 1159 1978 
L 1159 0 
L 581 0 
L 581 4863 
L 1159 4863 
L 1159 2956 
Q 1366 3272 1645 3428 
Q 1925 3584 2291 3584 
Q 2894 3584 3203 3211 
Q 3513 2838 3513 2113 
z
" transform="scale(0.015625)"/>
      </defs>
      <use xlink:href="#DejaVuSans-47"/>
      <use xlink:href="#DejaVuSans-72" x="77.490234"/>
      <use xlink:href="#DejaVuSans-6f" x="116.353516"/>
      <use xlink:href="#DejaVuSans-75" x="177.535156"/>
      <use xlink:href="#DejaVuSans-6e" x="240.914062"/>
      <use xlink:href="#DejaVuSans-64" x="304.292969"/>
      <use xlink:href="#DejaVuSans-20" x="367.769531"/>
      <use xlink:href="#DejaVuSans-74" x="399.556641"/>
      <use xlink:href="#DejaVuSans-72" x="438.765625"/>
      <use xlink:href="#DejaVuSans-75" x="479.878906"/>
      <use xlink:href="#DejaVuSans-74" x="543.257812"/>
      <use xlink:href="#DejaVuSans-68" x="582.466797"/>
     </g>
    </g>
    <g id="PathCollection_2">
     <g>
      <use xlink:href="#m451007e491" x="49.103125" y="259.607312" style="fill: #0000ff; stroke: #0000ff"/>
     </g>
    </g>
    <g id="text_12">
     <!-- Data -->
     <g transform="translate(67.103125 262.232312) scale(0.1 -0.1)">
      <defs>
       <path id="DejaVuSans-44" d="M 1259 4147 
L 1259 519 
L 2022 519 
Q 2988 519 3436 956 
Q 3884 1394 3884 2338 
Q 3884 3275 3436 3711 
Q 2988 4147 2022 4147 
L 1259 4147 
z
M 628 4666 
L 1925 4666 
Q 3281 4666 3915 4102 
Q 4550 3538 4550 2338 
Q 4550 1131 3912 565 
Q 3275 0 1925 0 
L 628 0 
L 628 4666 
z
" transform="scale(0.015625)"/>
       <path id="DejaVuSans-61" d="M 2194 1759 
Q 1497 1759 1228 1600 
Q 959 1441 959 1056 
Q 959 750 1161 570 
Q 1363 391 1709 391 
Q 2188 391 2477 730 
Q 2766 1069 2766 1631 
L 2766 1759 
L 2194 1759 
z
M 3341 1997 
L 3341 0 
L 2766 0 
L 2766 531 
Q 2569 213 2275 61 
Q 1981 -91 1556 -91 
Q 1019 -91 701 211 
Q 384 513 384 1019 
Q 384 1609 779 1909 
Q 1175 2209 1959 2209 
L 2766 2209 
L 2766 2266 
Q 2766 2663 2505 2880 
Q 2244 3097 1772 3097 
Q 1472 3097 1187 3025 
Q 903 2953 641 2809 
L 641 3341 
Q 956 3463 1253 3523 
Q 1550 3584 1831 3584 
Q 2591 3584 2966 3190 
Q 3341 2797 3341 1997 
z
" transform="scale(0.015625)"/>
      </defs>
      <use xlink:href="#DejaVuSans-44"/>
      <use xlink:href="#DejaVuSans-61" x="77.001953"/>
      <use xlink:href="#DejaVuSans-74" x="138.28125"/>
      <use xlink:href="#DejaVuSans-61" x="177.490234"/>
     </g>
    </g>
   </g>
  </g>
 </g>
 <defs>
  <clipPath id="pa185efe633">
   <rect x="30.103125" y="7.2" width="357.12" height="266.112"/>
  </clipPath>
 </defs>
</svg>