<?xml version="1.0" encoding="UTF-8" standalone="no"?>
<!DOCTYPE svg PUBLIC "-//W3C//DTD SVG 1.1//EN"
 "http://www.w3.org/Graphics/SVG/1.1/DTD/svg11.dtd">
<!-- Generated by graphviz version 8.1.0 (20230707.0739)
 -->
<!-- Title: Tree Pages: 1 -->
<svg width="3439pt" height="581pt"
 viewBox="0.00 0.00 3438.75 581.00" xmlns="http://www.w3.org/2000/svg" xmlns:xlink="http://www.w3.org/1999/xlink">
<g id="graph0" class="graph" transform="scale(1 1) rotate(0) translate(4 577)">
<title>Tree</title>
<polygon fill="white" stroke="none" points="-4,4 -4,-577 3434.75,-577 3434.75,4 -4,4"/>
<!-- 0 -->
<g id="node1" class="node">
<title>0</title>
<path fill="#f6d5be" stroke="black" d="M2262.5,-573C2262.5,-573 2128.75,-573 2128.75,-573 2122.75,-573 2116.75,-567 2116.75,-561 2116.75,-561 2116.75,-517 2116.75,-517 2116.75,-511 2122.75,-505 2128.75,-505 2128.75,-505 2262.5,-505 2262.5,-505 2268.5,-505 2274.5,-511 2274.5,-517 2274.5,-517 2274.5,-561 2274.5,-561 2274.5,-567 2268.5,-573 2262.5,-573"/>
<text text-anchor="start" x="2163" y="-555.7" font-family="Helvetica,sans-Serif" font-size="14.00">rm ≤ 6.941</text>
<text text-anchor="start" x="2124.75" y="-540.7" font-family="Helvetica,sans-Serif" font-size="14.00">squared_error = 92.244</text>
<text text-anchor="start" x="2151" y="-525.7" font-family="Helvetica,sans-Serif" font-size="14.00">samples = 404</text>
<text text-anchor="start" x="2151" y="-510.7" font-family="Helvetica,sans-Serif" font-size="14.00">value = 22.871</text>
</g>
<!-- 1 -->
<g id="node2" class="node">
<title>1</title>
<path fill="#f8decb" stroke="black" d="M1612.5,-469C1612.5,-469 1478.75,-469 1478.75,-469 1472.75,-469 1466.75,-463 1466.75,-457 1466.75,-457 1466.75,-413 1466.75,-413 1466.75,-407 1472.75,-401 1478.75,-401 1478.75,-401 1612.5,-401 1612.5,-401 1618.5,-401 1624.5,-407 1624.5,-413 1624.5,-413 1624.5,-457 1624.5,-457 1624.5,-463 1618.5,-469 1612.5,-469"/>
<text text-anchor="start" x="1512.62" y="-451.7" font-family="Helvetica,sans-Serif" font-size="14.00">lstat ≤ 14.4</text>
<text text-anchor="start" x="1474.75" y="-436.7" font-family="Helvetica,sans-Serif" font-size="14.00">squared_error = 42.011</text>
<text text-anchor="start" x="1501" y="-421.7" font-family="Helvetica,sans-Serif" font-size="14.00">samples = 343</text>
<text text-anchor="start" x="1501" y="-406.7" font-family="Helvetica,sans-Serif" font-size="14.00">value = 20.052</text>
</g>
<!-- 0&#45;&gt;1 -->
<g id="edge1" class="edge">
<title>0&#45;&gt;1</title>
<path fill="none" stroke="black" d="M2116.57,-525.59C1995.06,-506.53 1763.08,-470.12 1635.41,-450.09"/>
<polygon fill="black" stroke="black" points="1636.31,-446.53 1625.89,-448.44 1635.23,-453.45 1636.31,-446.53"/>
<text text-anchor="middle" x="1639.61" y="-462.84" font-family="Helvetica,sans-Serif" font-size="14.00">True</text>
</g>
<!-- 28 -->
<g id="node29" class="node">
<title>28</title>
<path fill="#eca470" stroke="black" d="M2671.5,-469C2671.5,-469 2537.75,-469 2537.75,-469 2531.75,-469 2525.75,-463 2525.75,-457 2525.75,-457 2525.75,-413 2525.75,-413 2525.75,-407 2531.75,-401 2537.75,-401 2537.75,-401 2671.5,-401 2671.5,-401 2677.5,-401 2683.5,-407 2683.5,-413 2683.5,-413 2683.5,-457 2683.5,-457 2683.5,-463 2677.5,-469 2671.5,-469"/>
<text text-anchor="start" x="2572" y="-451.7" font-family="Helvetica,sans-Serif" font-size="14.00">rm ≤ 7.437</text>
<text text-anchor="start" x="2533.75" y="-436.7" font-family="Helvetica,sans-Serif" font-size="14.00">squared_error = 78.739</text>
<text text-anchor="start" x="2563.75" y="-421.7" font-family="Helvetica,sans-Serif" font-size="14.00">samples = 61</text>
<text text-anchor="start" x="2560" y="-406.7" font-family="Helvetica,sans-Serif" font-size="14.00">value = 38.723</text>
</g>
<!-- 0&#45;&gt;28 -->
<g id="edge28" class="edge">
<title>0&#45;&gt;28</title>
<path fill="none" stroke="black" d="M2274.97,-518.21C2343.83,-501.04 2443.45,-476.19 2515.13,-458.32"/>
<polygon fill="black" stroke="black" points="2515.65,-461.55 2524.5,-455.73 2513.95,-454.76 2515.65,-461.55"/>
<text text-anchor="middle" x="2512.63" y="-471.36" font-family="Helvetica,sans-Serif" font-size="14.00">False</text>
</g>
<!-- 2 -->
<g id="node3" class="node">
<title>2</title>
<path fill="#f6d3ba" stroke="black" d="M546.5,-365C546.5,-365 412.75,-365 412.75,-365 406.75,-365 400.75,-359 400.75,-353 400.75,-353 400.75,-309 400.75,-309 400.75,-303 406.75,-297 412.75,-297 412.75,-297 546.5,-297 546.5,-297 552.5,-297 558.5,-303 558.5,-309 558.5,-309 558.5,-353 558.5,-353 558.5,-359 552.5,-365 546.5,-365"/>
<text text-anchor="start" x="446.62" y="-347.7" font-family="Helvetica,sans-Serif" font-size="14.00">dis ≤ 1.483</text>
<text text-anchor="start" x="408.75" y="-332.7" font-family="Helvetica,sans-Serif" font-size="14.00">squared_error = 28.591</text>
<text text-anchor="start" x="435" y="-317.7" font-family="Helvetica,sans-Serif" font-size="14.00">samples = 204</text>
<text text-anchor="start" x="435" y="-302.7" font-family="Helvetica,sans-Serif" font-size="14.00">value = 23.545</text>
</g>
<!-- 1&#45;&gt;2 -->
<g id="edge2" class="edge">
<title>1&#45;&gt;2</title>
<path fill="none" stroke="black" d="M1466.37,-426.42C1272.26,-407.84 773.98,-360.17 569.37,-340.59"/>
<polygon fill="black" stroke="black" points="569.96,-337.03 559.67,-339.56 569.3,-344 569.96,-337.03"/>
</g>
<!-- 13 -->
<g id="node14" class="node">
<title>13</title>
<path fill="#fceee4" stroke="black" d="M1612.5,-365C1612.5,-365 1478.75,-365 1478.75,-365 1472.75,-365 1466.75,-359 1466.75,-353 1466.75,-353 1466.75,-309 1466.75,-309 1466.75,-303 1472.75,-297 1478.75,-297 1478.75,-297 1612.5,-297 1612.5,-297 1618.5,-297 1624.5,-303 1624.5,-309 1624.5,-309 1624.5,-353 1624.5,-353 1624.5,-359 1618.5,-365 1612.5,-365"/>
<text text-anchor="start" x="1510.38" y="-347.7" font-family="Helvetica,sans-Serif" font-size="14.00">nox ≤ 0.603</text>
<text text-anchor="start" x="1474.75" y="-332.7" font-family="Helvetica,sans-Serif" font-size="14.00">squared_error = 17.534</text>
<text text-anchor="start" x="1501" y="-317.7" font-family="Helvetica,sans-Serif" font-size="14.00">samples = 139</text>
<text text-anchor="start" x="1501" y="-302.7" font-family="Helvetica,sans-Serif" font-size="14.00">value = 14.927</text>
</g>
<!-- 1&#45;&gt;13 -->
<g id="edge13" class="edge">
<title>1&#45;&gt;13</title>
<path fill="none" stroke="black" d="M1545.62,-400.6C1545.62,-392.85 1545.62,-384.49 1545.62,-376.35"/>
<polygon fill="black" stroke="black" points="1549.13,-376.47 1545.62,-366.47 1542.13,-376.47 1549.13,-376.47"/>
</g>
<!-- 3 -->
<g id="node4" class="node">
<title>3</title>
<path fill="#e88f4f" stroke="black" d="M290.5,-261C290.5,-261 156.75,-261 156.75,-261 150.75,-261 144.75,-255 144.75,-249 144.75,-249 144.75,-205 144.75,-205 144.75,-199 150.75,-193 156.75,-193 156.75,-193 290.5,-193 290.5,-193 296.5,-193 302.5,-199 302.5,-205 302.5,-205 302.5,-249 302.5,-249 302.5,-255 296.5,-261 290.5,-261"/>
<text text-anchor="start" x="186.88" y="-243.7" font-family="Helvetica,sans-Serif" font-size="14.00">lstat ≤ 10.83</text>
<text text-anchor="start" x="152.75" y="-228.7" font-family="Helvetica,sans-Serif" font-size="14.00">squared_error = 78.146</text>
<text text-anchor="start" x="186.5" y="-213.7" font-family="Helvetica,sans-Serif" font-size="14.00">samples = 5</text>
<text text-anchor="start" x="182.75" y="-198.7" font-family="Helvetica,sans-Serif" font-size="14.00">value = 45.58</text>
</g>
<!-- 2&#45;&gt;3 -->
<g id="edge3" class="edge">
<title>2&#45;&gt;3</title>
<path fill="none" stroke="black" d="M400.38,-298.43C372.66,-287.38 341.36,-274.91 312.88,-263.56"/>
<polygon fill="black" stroke="black" points="314.52,-260.05 303.94,-259.6 311.93,-266.55 314.52,-260.05"/>
</g>
<!-- 6 -->
<g id="node7" class="node">
<title>6</title>
<path fill="#f6d5bd" stroke="black" d="M546.5,-261C546.5,-261 412.75,-261 412.75,-261 406.75,-261 400.75,-255 400.75,-249 400.75,-249 400.75,-205 400.75,-205 400.75,-199 406.75,-193 412.75,-193 412.75,-193 546.5,-193 546.5,-193 552.5,-193 558.5,-199 558.5,-205 558.5,-205 558.5,-249 558.5,-249 558.5,-255 552.5,-261 546.5,-261"/>
<text text-anchor="start" x="447" y="-243.7" font-family="Helvetica,sans-Serif" font-size="14.00">rm ≤ 6.543</text>
<text text-anchor="start" x="408.75" y="-228.7" font-family="Helvetica,sans-Serif" font-size="14.00">squared_error = 14.839</text>
<text text-anchor="start" x="435" y="-213.7" font-family="Helvetica,sans-Serif" font-size="14.00">samples = 199</text>
<text text-anchor="start" x="435" y="-198.7" font-family="Helvetica,sans-Serif" font-size="14.00">value = 22.991</text>
</g>
<!-- 2&#45;&gt;6 -->
<g id="edge6" class="edge">
<title>2&#45;&gt;6</title>
<path fill="none" stroke="black" d="M479.62,-296.6C479.62,-288.85 479.62,-280.49 479.62,-272.35"/>
<polygon fill="black" stroke="black" points="483.13,-272.47 479.62,-262.47 476.13,-272.47 483.13,-272.47"/>
</g>
<!-- 4 -->
<g id="node5" class="node">
<title>4</title>
<path fill="#e58139" stroke="black" d="M123.25,-149.5C123.25,-149.5 12,-149.5 12,-149.5 6,-149.5 0,-143.5 0,-137.5 0,-137.5 0,-108.5 0,-108.5 0,-102.5 6,-96.5 12,-96.5 12,-96.5 123.25,-96.5 123.25,-96.5 129.25,-96.5 135.25,-102.5 135.25,-108.5 135.25,-108.5 135.25,-137.5 135.25,-137.5 135.25,-143.5 129.25,-149.5 123.25,-149.5"/>
<text text-anchor="start" x="8" y="-132.2" font-family="Helvetica,sans-Serif" font-size="14.00">squared_error = 0.0</text>
<text text-anchor="start" x="30.5" y="-117.2" font-family="Helvetica,sans-Serif" font-size="14.00">samples = 4</text>
<text text-anchor="start" x="30.5" y="-102.2" font-family="Helvetica,sans-Serif" font-size="14.00">value = 50.0</text>
</g>
<!-- 3&#45;&gt;4 -->
<g id="edge4" class="edge">
<title>3&#45;&gt;4</title>
<path fill="none" stroke="black" d="M172.54,-192.6C154.46,-180.78 134.17,-167.51 116.29,-155.82"/>
<polygon fill="black" stroke="black" points="118.47,-152.41 108.19,-149.87 114.64,-158.27 118.47,-152.41"/>
</g>
<!-- 5 -->
<g id="node6" class="node">
<title>5</title>
<path fill="#f3c6a5" stroke="black" d="M281.5,-149.5C281.5,-149.5 165.75,-149.5 165.75,-149.5 159.75,-149.5 153.75,-143.5 153.75,-137.5 153.75,-137.5 153.75,-108.5 153.75,-108.5 153.75,-102.5 159.75,-96.5 165.75,-96.5 165.75,-96.5 281.5,-96.5 281.5,-96.5 287.5,-96.5 293.5,-102.5 293.5,-108.5 293.5,-108.5 293.5,-137.5 293.5,-137.5 293.5,-143.5 287.5,-149.5 281.5,-149.5"/>
<text text-anchor="start" x="161.75" y="-132.2" font-family="Helvetica,sans-Serif" font-size="14.00">squared_error = &#45;0.0</text>
<text text-anchor="start" x="186.5" y="-117.2" font-family="Helvetica,sans-Serif" font-size="14.00">samples = 1</text>
<text text-anchor="start" x="186.5" y="-102.2" font-family="Helvetica,sans-Serif" font-size="14.00">value = 27.9</text>
</g>
<!-- 3&#45;&gt;5 -->
<g id="edge5" class="edge">
<title>3&#45;&gt;5</title>
<path fill="none" stroke="black" d="M223.62,-192.6C223.62,-182.36 223.62,-171.04 223.62,-160.6"/>
<polygon fill="black" stroke="black" points="227.13,-160.71 223.62,-150.71 220.13,-160.71 227.13,-160.71"/>
</g>
<!-- 7 -->
<g id="node8" class="node">
<title>7</title>
<path fill="#f7d9c3" stroke="black" d="M449.75,-157C449.75,-157 323.5,-157 323.5,-157 317.5,-157 311.5,-151 311.5,-145 311.5,-145 311.5,-101 311.5,-101 311.5,-95 317.5,-89 323.5,-89 323.5,-89 449.75,-89 449.75,-89 455.75,-89 461.75,-95 461.75,-101 461.75,-101 461.75,-145 461.75,-145 461.75,-151 455.75,-157 449.75,-157"/>
<text text-anchor="start" x="354" y="-139.7" font-family="Helvetica,sans-Serif" font-size="14.00">rm ≤ 6.099</text>
<text text-anchor="start" x="319.5" y="-124.7" font-family="Helvetica,sans-Serif" font-size="14.00">squared_error = 9.244</text>
<text text-anchor="start" x="342" y="-109.7" font-family="Helvetica,sans-Serif" font-size="14.00">samples = 151</text>
<text text-anchor="start" x="342" y="-94.7" font-family="Helvetica,sans-Serif" font-size="14.00">value = 21.723</text>
</g>
<!-- 6&#45;&gt;7 -->
<g id="edge7" class="edge">
<title>6&#45;&gt;7</title>
<path fill="none" stroke="black" d="M449.17,-192.6C441.31,-183.97 432.74,-174.58 424.54,-165.58"/>
<polygon fill="black" stroke="black" points="427.47,-163.51 418.15,-158.47 422.3,-168.22 427.47,-163.51"/>
</g>
<!-- 10 -->
<g id="node11" class="node">
<title>10</title>
<path fill="#f4c9a9" stroke="black" d="M625.5,-157C625.5,-157 491.75,-157 491.75,-157 485.75,-157 479.75,-151 479.75,-145 479.75,-145 479.75,-101 479.75,-101 479.75,-95 485.75,-89 491.75,-89 491.75,-89 625.5,-89 625.5,-89 631.5,-89 637.5,-95 637.5,-101 637.5,-101 637.5,-145 637.5,-145 637.5,-151 631.5,-157 625.5,-157"/>
<text text-anchor="start" x="525.25" y="-139.7" font-family="Helvetica,sans-Serif" font-size="14.00">tax ≤ 269.0</text>
<text text-anchor="start" x="487.75" y="-124.7" font-family="Helvetica,sans-Serif" font-size="14.00">squared_error = 11.478</text>
<text text-anchor="start" x="517.75" y="-109.7" font-family="Helvetica,sans-Serif" font-size="14.00">samples = 48</text>
<text text-anchor="start" x="514" y="-94.7" font-family="Helvetica,sans-Serif" font-size="14.00">value = 26.979</text>
</g>
<!-- 6&#45;&gt;10 -->
<g id="edge10" class="edge">
<title>6&#45;&gt;10</title>
<path fill="none" stroke="black" d="M505.49,-192.6C512.04,-184.15 519.16,-174.96 525.99,-166.13"/>
<polygon fill="black" stroke="black" points="529.34,-168.52 532.7,-158.47 523.81,-164.24 529.34,-168.52"/>
</g>
<!-- 8 -->
<g id="node9" class="node">
<title>8</title>
<path fill="#f8decb" stroke="black" d="M281.75,-53C281.75,-53 155.5,-53 155.5,-53 149.5,-53 143.5,-47 143.5,-41 143.5,-41 143.5,-12 143.5,-12 143.5,-6 149.5,0 155.5,0 155.5,0 281.75,0 281.75,0 287.75,0 293.75,-6 293.75,-12 293.75,-12 293.75,-41 293.75,-41 293.75,-47 287.75,-53 281.75,-53"/>
<text text-anchor="start" x="151.5" y="-35.7" font-family="Helvetica,sans-Serif" font-size="14.00">squared_error = 6.637</text>
<text text-anchor="start" x="177.75" y="-20.7" font-family="Helvetica,sans-Serif" font-size="14.00">samples = 71</text>
<text text-anchor="start" x="174" y="-5.7" font-family="Helvetica,sans-Serif" font-size="14.00">value = 20.217</text>
</g>
<!-- 7&#45;&gt;8 -->
<g id="edge8" class="edge">
<title>7&#45;&gt;8</title>
<path fill="none" stroke="black" d="M327.39,-88.68C310.02,-78.91 291.09,-68.26 273.96,-58.63"/>
<polygon fill="black" stroke="black" points="276.09,-55.25 265.66,-53.39 272.66,-61.35 276.09,-55.25"/>
</g>
<!-- 9 -->
<g id="node10" class="node">
<title>9</title>
<path fill="#f6d5bd" stroke="black" d="M449.75,-53C449.75,-53 323.5,-53 323.5,-53 317.5,-53 311.5,-47 311.5,-41 311.5,-41 311.5,-12 311.5,-12 311.5,-6 317.5,0 323.5,0 323.5,0 449.75,0 449.75,0 455.75,0 461.75,-6 461.75,-12 461.75,-12 461.75,-41 461.75,-41 461.75,-47 455.75,-53 449.75,-53"/>
<text text-anchor="start" x="319.5" y="-35.7" font-family="Helvetica,sans-Serif" font-size="14.00">squared_error = 7.757</text>
<text text-anchor="start" x="345.75" y="-20.7" font-family="Helvetica,sans-Serif" font-size="14.00">samples = 80</text>
<text text-anchor="start" x="345.75" y="-5.7" font-family="Helvetica,sans-Serif" font-size="14.00">value = 23.06</text>
</g>
<!-- 7&#45;&gt;9 -->
<g id="edge9" class="edge">
<title>7&#45;&gt;9</title>
<path fill="none" stroke="black" d="M386.62,-88.68C386.62,-80.81 386.62,-72.37 386.62,-64.35"/>
<polygon fill="black" stroke="black" points="390.13,-64.39 386.62,-54.39 383.13,-64.39 390.13,-64.39"/>
</g>
<!-- 11 -->
<g id="node12" class="node">
<title>11</title>
<path fill="#f2bf9b" stroke="black" d="M611,-53C611,-53 492.25,-53 492.25,-53 486.25,-53 480.25,-47 480.25,-41 480.25,-41 480.25,-12 480.25,-12 480.25,-6 486.25,0 492.25,0 492.25,0 611,0 611,0 617,0 623,-6 623,-12 623,-12 623,-41 623,-41 623,-47 617,-53 611,-53"/>
<text text-anchor="start" x="488.25" y="-35.7" font-family="Helvetica,sans-Serif" font-size="14.00">squared_error = 5.48</text>
<text text-anchor="start" x="510.75" y="-20.7" font-family="Helvetica,sans-Serif" font-size="14.00">samples = 15</text>
<text text-anchor="start" x="507" y="-5.7" font-family="Helvetica,sans-Serif" font-size="14.00">value = 30.013</text>
</g>
<!-- 10&#45;&gt;11 -->
<g id="edge11" class="edge">
<title>10&#45;&gt;11</title>
<path fill="none" stroke="black" d="M556.16,-88.68C555.57,-80.81 554.95,-72.37 554.35,-64.35"/>
<polygon fill="black" stroke="black" points="557.77,-64.11 553.54,-54.39 550.79,-64.63 557.77,-64.11"/>
</g>
<!-- 12 -->
<g id="node13" class="node">
<title>12</title>
<path fill="#f5cdb0" stroke="black" d="M779.75,-53C779.75,-53 653.5,-53 653.5,-53 647.5,-53 641.5,-47 641.5,-41 641.5,-41 641.5,-12 641.5,-12 641.5,-6 647.5,0 653.5,0 653.5,0 779.75,0 779.75,0 785.75,0 791.75,-6 791.75,-12 791.75,-12 791.75,-41 791.75,-41 791.75,-47 785.75,-53 779.75,-53"/>
<text text-anchor="start" x="649.5" y="-35.7" font-family="Helvetica,sans-Serif" font-size="14.00">squared_error = 8.118</text>
<text text-anchor="start" x="675.75" y="-20.7" font-family="Helvetica,sans-Serif" font-size="14.00">samples = 33</text>
<text text-anchor="start" x="679.5" y="-5.7" font-family="Helvetica,sans-Serif" font-size="14.00">value = 25.6</text>
</g>
<!-- 10&#45;&gt;12 -->
<g id="edge12" class="edge">
<title>10&#45;&gt;12</title>
<path fill="none" stroke="black" d="M614.33,-88.68C630.52,-79 648.15,-68.46 664.13,-58.9"/>
<polygon fill="black" stroke="black" points="665.55,-61.53 672.33,-53.39 661.95,-55.52 665.55,-61.53"/>
</g>
<!-- 14 -->
<g id="node15" class="node">
<title>14</title>
<path fill="#f9e4d5" stroke="black" d="M1367.5,-261C1367.5,-261 1233.75,-261 1233.75,-261 1227.75,-261 1221.75,-255 1221.75,-249 1221.75,-249 1221.75,-205 1221.75,-205 1221.75,-199 1227.75,-193 1233.75,-193 1233.75,-193 1367.5,-193 1367.5,-193 1373.5,-193 1379.5,-199 1379.5,-205 1379.5,-205 1379.5,-249 1379.5,-249 1379.5,-255 1373.5,-261 1367.5,-261"/>
<text text-anchor="start" x="1266.88" y="-243.7" font-family="Helvetica,sans-Serif" font-size="14.00">crim ≤ 0.54</text>
<text text-anchor="start" x="1229.75" y="-228.7" font-family="Helvetica,sans-Serif" font-size="14.00">squared_error = 11.159</text>
<text text-anchor="start" x="1259.75" y="-213.7" font-family="Helvetica,sans-Serif" font-size="14.00">samples = 50</text>
<text text-anchor="start" x="1259.75" y="-198.7" font-family="Helvetica,sans-Serif" font-size="14.00">value = 18.11</text>
</g>
<!-- 13&#45;&gt;14 -->
<g id="edge14" class="edge">
<title>13&#45;&gt;14</title>
<path fill="none" stroke="black" d="M1466.42,-297.02C1441.98,-286.85 1414.91,-275.58 1389.84,-265.14"/>
<polygon fill="black" stroke="black" points="1391.55,-261.65 1380.98,-261.04 1388.86,-268.11 1391.55,-261.65"/>
</g>
<!-- 21 -->
<g id="node22" class="node">
<title>21</title>
<path fill="#fdf4ed" stroke="black" d="M1695.5,-261C1695.5,-261 1561.75,-261 1561.75,-261 1555.75,-261 1549.75,-255 1549.75,-249 1549.75,-249 1549.75,-205 1549.75,-205 1549.75,-199 1555.75,-193 1561.75,-193 1561.75,-193 1695.5,-193 1695.5,-193 1701.5,-193 1707.5,-199 1707.5,-205 1707.5,-205 1707.5,-249 1707.5,-249 1707.5,-255 1701.5,-261 1695.5,-261"/>
<text text-anchor="start" x="1591.88" y="-243.7" font-family="Helvetica,sans-Serif" font-size="14.00">lstat ≤ 18.93</text>
<text text-anchor="start" x="1557.75" y="-228.7" font-family="Helvetica,sans-Serif" font-size="14.00">squared_error = 12.224</text>
<text text-anchor="start" x="1587.75" y="-213.7" font-family="Helvetica,sans-Serif" font-size="14.00">samples = 89</text>
<text text-anchor="start" x="1584" y="-198.7" font-family="Helvetica,sans-Serif" font-size="14.00">value = 13.138</text>
</g>
<!-- 13&#45;&gt;21 -->
<g id="edge21" class="edge">
<title>13&#45;&gt;21</title>
<path fill="none" stroke="black" d="M1572.8,-296.6C1579.75,-288.06 1587.31,-278.77 1594.56,-269.86"/>
<polygon fill="black" stroke="black" points="1597.79,-272.44 1601.39,-262.47 1592.36,-268.02 1597.79,-272.44"/>
</g>
<!-- 15 -->
<g id="node16" class="node">
<title>15</title>
<path fill="#f9e0ce" stroke="black" d="M1112,-157C1112,-157 993.25,-157 993.25,-157 987.25,-157 981.25,-151 981.25,-145 981.25,-145 981.25,-101 981.25,-101 981.25,-95 987.25,-89 993.25,-89 993.25,-89 1112,-89 1112,-89 1118,-89 1124,-95 1124,-101 1124,-101 1124,-145 1124,-145 1124,-151 1118,-157 1112,-157"/>
<text text-anchor="start" x="1023.38" y="-139.7" font-family="Helvetica,sans-Serif" font-size="14.00">dis ≤ 5.57</text>
<text text-anchor="start" x="989.25" y="-124.7" font-family="Helvetica,sans-Serif" font-size="14.00">squared_error = 5.85</text>
<text text-anchor="start" x="1011.75" y="-109.7" font-family="Helvetica,sans-Serif" font-size="14.00">samples = 30</text>
<text text-anchor="start" x="1008" y="-94.7" font-family="Helvetica,sans-Serif" font-size="14.00">value = 19.437</text>
</g>
<!-- 14&#45;&gt;15 -->
<g id="edge15" class="edge">
<title>14&#45;&gt;15</title>
<path fill="none" stroke="black" d="M1221.47,-193.45C1193.7,-182.02 1162.45,-169.17 1134.46,-157.66"/>
<polygon fill="black" stroke="black" points="1135.89,-154.05 1125.31,-153.48 1133.23,-160.52 1135.89,-154.05"/>
</g>
<!-- 18 -->
<g id="node19" class="node">
<title>18</title>
<path fill="#fbeadf" stroke="black" d="M1367.5,-157C1367.5,-157 1233.75,-157 1233.75,-157 1227.75,-157 1221.75,-151 1221.75,-145 1221.75,-145 1221.75,-101 1221.75,-101 1221.75,-95 1227.75,-89 1233.75,-89 1233.75,-89 1367.5,-89 1367.5,-89 1373.5,-89 1379.5,-95 1379.5,-101 1379.5,-101 1379.5,-145 1379.5,-145 1379.5,-151 1373.5,-157 1367.5,-157"/>
<text text-anchor="start" x="1268" y="-139.7" font-family="Helvetica,sans-Serif" font-size="14.00">rm ≤ 6.843</text>
<text text-anchor="start" x="1229.75" y="-124.7" font-family="Helvetica,sans-Serif" font-size="14.00">squared_error = 12.524</text>
<text text-anchor="start" x="1259.75" y="-109.7" font-family="Helvetica,sans-Serif" font-size="14.00">samples = 20</text>
<text text-anchor="start" x="1259.75" y="-94.7" font-family="Helvetica,sans-Serif" font-size="14.00">value = 16.12</text>
</g>
<!-- 14&#45;&gt;18 -->
<g id="edge18" class="edge">
<title>14&#45;&gt;18</title>
<path fill="none" stroke="black" d="M1300.62,-192.6C1300.62,-184.85 1300.62,-176.49 1300.62,-168.35"/>
<polygon fill="black" stroke="black" points="1304.13,-168.47 1300.62,-158.47 1297.13,-168.47 1304.13,-168.47"/>
</g>
<!-- 16 -->
<g id="node17" class="node">
<title>16</title>
<path fill="#f8deca" stroke="black" d="M947.75,-53C947.75,-53 821.5,-53 821.5,-53 815.5,-53 809.5,-47 809.5,-41 809.5,-41 809.5,-12 809.5,-12 809.5,-6 815.5,0 821.5,0 821.5,0 947.75,0 947.75,0 953.75,0 959.75,-6 959.75,-12 959.75,-12 959.75,-41 959.75,-41 959.75,-47 953.75,-53 947.75,-53"/>
<text text-anchor="start" x="817.5" y="-35.7" font-family="Helvetica,sans-Serif" font-size="14.00">squared_error = 4.306</text>
<text text-anchor="start" x="843.75" y="-20.7" font-family="Helvetica,sans-Serif" font-size="14.00">samples = 22</text>
<text text-anchor="start" x="840" y="-5.7" font-family="Helvetica,sans-Serif" font-size="14.00">value = 20.245</text>
</g>
<!-- 15&#45;&gt;16 -->
<g id="edge16" class="edge">
<title>15&#45;&gt;16</title>
<path fill="none" stroke="black" d="M993.39,-88.68C976.02,-78.91 957.09,-68.26 939.96,-58.63"/>
<polygon fill="black" stroke="black" points="942.09,-55.25 931.66,-53.39 938.66,-61.35 942.09,-55.25"/>
</g>
<!-- 17 -->
<g id="node18" class="node">
<title>17</title>
<path fill="#fae7d9" stroke="black" d="M1115.75,-53C1115.75,-53 989.5,-53 989.5,-53 983.5,-53 977.5,-47 977.5,-41 977.5,-41 977.5,-12 977.5,-12 977.5,-6 983.5,0 989.5,0 989.5,0 1115.75,0 1115.75,0 1121.75,0 1127.75,-6 1127.75,-12 1127.75,-12 1127.75,-41 1127.75,-41 1127.75,-47 1121.75,-53 1115.75,-53"/>
<text text-anchor="start" x="985.5" y="-35.7" font-family="Helvetica,sans-Serif" font-size="14.00">squared_error = 3.349</text>
<text text-anchor="start" x="1015.5" y="-20.7" font-family="Helvetica,sans-Serif" font-size="14.00">samples = 8</text>
<text text-anchor="start" x="1008" y="-5.7" font-family="Helvetica,sans-Serif" font-size="14.00">value = 17.213</text>
</g>
<!-- 15&#45;&gt;17 -->
<g id="edge17" class="edge">
<title>15&#45;&gt;17</title>
<path fill="none" stroke="black" d="M1052.62,-88.68C1052.62,-80.81 1052.62,-72.37 1052.62,-64.35"/>
<polygon fill="black" stroke="black" points="1056.13,-64.39 1052.62,-54.39 1049.13,-64.39 1056.13,-64.39"/>
</g>
<!-- 19 -->
<g id="node20" class="node">
<title>19</title>
<path fill="#fbece1" stroke="black" d="M1283.75,-53C1283.75,-53 1157.5,-53 1157.5,-53 1151.5,-53 1145.5,-47 1145.5,-41 1145.5,-41 1145.5,-12 1145.5,-12 1145.5,-6 1151.5,0 1157.5,0 1157.5,0 1283.75,0 1283.75,0 1289.75,0 1295.75,-6 1295.75,-12 1295.75,-12 1295.75,-41 1295.75,-41 1295.75,-47 1289.75,-53 1283.75,-53"/>
<text text-anchor="start" x="1153.5" y="-35.7" font-family="Helvetica,sans-Serif" font-size="14.00">squared_error = 6.008</text>
<text text-anchor="start" x="1179.75" y="-20.7" font-family="Helvetica,sans-Serif" font-size="14.00">samples = 19</text>
<text text-anchor="start" x="1176" y="-5.7" font-family="Helvetica,sans-Serif" font-size="14.00">value = 15.521</text>
</g>
<!-- 18&#45;&gt;19 -->
<g id="edge19" class="edge">
<title>18&#45;&gt;19</title>
<path fill="none" stroke="black" d="M1272.42,-88.68C1264.99,-79.9 1256.96,-70.42 1249.49,-61.6"/>
<polygon fill="black" stroke="black" points="1251.68,-59.76 1242.55,-54.39 1246.34,-64.29 1251.68,-59.76"/>
</g>
<!-- 20 -->
<g id="node21" class="node">
<title>20</title>
<path fill="#f3c7a7" stroke="black" d="M1437.25,-53C1437.25,-53 1326,-53 1326,-53 1320,-53 1314,-47 1314,-41 1314,-41 1314,-12 1314,-12 1314,-6 1320,0 1326,0 1326,0 1437.25,0 1437.25,0 1443.25,0 1449.25,-6 1449.25,-12 1449.25,-12 1449.25,-41 1449.25,-41 1449.25,-47 1443.25,-53 1437.25,-53"/>
<text text-anchor="start" x="1322" y="-35.7" font-family="Helvetica,sans-Serif" font-size="14.00">squared_error = 0.0</text>
<text text-anchor="start" x="1344.5" y="-20.7" font-family="Helvetica,sans-Serif" font-size="14.00">samples = 1</text>
<text text-anchor="start" x="1344.5" y="-5.7" font-family="Helvetica,sans-Serif" font-size="14.00">value = 27.5</text>
</g>
<!-- 18&#45;&gt;20 -->
<g id="edge20" class="edge">
<title>18&#45;&gt;20</title>
<path fill="none" stroke="black" d="M1329.18,-88.68C1336.71,-79.9 1344.84,-70.42 1352.4,-61.6"/>
<polygon fill="black" stroke="black" points="1355.58,-64.26 1359.43,-54.39 1350.26,-59.71 1355.58,-64.26"/>
</g>
<!-- 22 -->
<g id="node23" class="node">
<title>22</title>
<path fill="#fbece1" stroke="black" d="M1691.75,-157C1691.75,-157 1565.5,-157 1565.5,-157 1559.5,-157 1553.5,-151 1553.5,-145 1553.5,-145 1553.5,-101 1553.5,-101 1553.5,-95 1559.5,-89 1565.5,-89 1565.5,-89 1691.75,-89 1691.75,-89 1697.75,-89 1703.75,-95 1703.75,-101 1703.75,-101 1703.75,-145 1703.75,-145 1703.75,-151 1697.75,-157 1691.75,-157"/>
<text text-anchor="start" x="1587.38" y="-139.7" font-family="Helvetica,sans-Serif" font-size="14.00">crim ≤ 12.754</text>
<text text-anchor="start" x="1561.5" y="-124.7" font-family="Helvetica,sans-Serif" font-size="14.00">squared_error = 6.094</text>
<text text-anchor="start" x="1587.75" y="-109.7" font-family="Helvetica,sans-Serif" font-size="14.00">samples = 41</text>
<text text-anchor="start" x="1584" y="-94.7" font-family="Helvetica,sans-Serif" font-size="14.00">value = 15.685</text>
</g>
<!-- 21&#45;&gt;22 -->
<g id="edge22" class="edge">
<title>21&#45;&gt;22</title>
<path fill="none" stroke="black" d="M1628.62,-192.6C1628.62,-184.85 1628.62,-176.49 1628.62,-168.35"/>
<polygon fill="black" stroke="black" points="1632.13,-168.47 1628.62,-158.47 1625.13,-168.47 1632.13,-168.47"/>
</g>
<!-- 25 -->
<g id="node26" class="node">
<title>25</title>
<path fill="#fefaf8" stroke="black" d="M1941.75,-157C1941.75,-157 1815.5,-157 1815.5,-157 1809.5,-157 1803.5,-151 1803.5,-145 1803.5,-145 1803.5,-101 1803.5,-101 1803.5,-95 1809.5,-89 1815.5,-89 1815.5,-89 1941.75,-89 1941.75,-89 1947.75,-89 1953.75,-95 1953.75,-101 1953.75,-101 1953.75,-145 1953.75,-145 1953.75,-151 1947.75,-157 1941.75,-157"/>
<text text-anchor="start" x="1837.38" y="-139.7" font-family="Helvetica,sans-Serif" font-size="14.00">crim ≤ 11.369</text>
<text text-anchor="start" x="1811.5" y="-124.7" font-family="Helvetica,sans-Serif" font-size="14.00">squared_error = 7.184</text>
<text text-anchor="start" x="1837.75" y="-109.7" font-family="Helvetica,sans-Serif" font-size="14.00">samples = 48</text>
<text text-anchor="start" x="1834" y="-94.7" font-family="Helvetica,sans-Serif" font-size="14.00">value = 10.962</text>
</g>
<!-- 21&#45;&gt;25 -->
<g id="edge25" class="edge">
<title>21&#45;&gt;25</title>
<path fill="none" stroke="black" d="M1707.73,-193.73C1734.86,-182.65 1765.35,-170.22 1792.98,-158.94"/>
<polygon fill="black" stroke="black" points="1794.09,-161.86 1802.02,-154.85 1791.44,-155.38 1794.09,-161.86"/>
</g>
<!-- 23 -->
<g id="node24" class="node">
<title>23</title>
<path fill="#fbebdf" stroke="black" d="M1605.75,-53C1605.75,-53 1479.5,-53 1479.5,-53 1473.5,-53 1467.5,-47 1467.5,-41 1467.5,-41 1467.5,-12 1467.5,-12 1467.5,-6 1473.5,0 1479.5,0 1479.5,0 1605.75,0 1605.75,0 1611.75,0 1617.75,-6 1617.75,-12 1617.75,-12 1617.75,-41 1617.75,-41 1617.75,-47 1611.75,-53 1605.75,-53"/>
<text text-anchor="start" x="1475.5" y="-35.7" font-family="Helvetica,sans-Serif" font-size="14.00">squared_error = 4.793</text>
<text text-anchor="start" x="1501.75" y="-20.7" font-family="Helvetica,sans-Serif" font-size="14.00">samples = 39</text>
<text text-anchor="start" x="1498" y="-5.7" font-family="Helvetica,sans-Serif" font-size="14.00">value = 15.964</text>
</g>
<!-- 22&#45;&gt;23 -->
<g id="edge23" class="edge">
<title>22&#45;&gt;23</title>
<path fill="none" stroke="black" d="M1598.3,-88.68C1590.23,-79.81 1581.51,-70.23 1573.41,-61.33"/>
<polygon fill="black" stroke="black" points="1576.51,-59.43 1567.19,-54.39 1571.33,-64.15 1576.51,-59.43"/>
</g>
<!-- 24 -->
<g id="node25" class="node">
<title>24</title>
<path fill="#fffdfb" stroke="black" d="M1773.75,-53C1773.75,-53 1647.5,-53 1647.5,-53 1641.5,-53 1635.5,-47 1635.5,-41 1635.5,-41 1635.5,-12 1635.5,-12 1635.5,-6 1641.5,0 1647.5,0 1647.5,0 1773.75,0 1773.75,0 1779.75,0 1785.75,-6 1785.75,-12 1785.75,-12 1785.75,-41 1785.75,-41 1785.75,-47 1779.75,-53 1773.75,-53"/>
<text text-anchor="start" x="1643.5" y="-35.7" font-family="Helvetica,sans-Serif" font-size="14.00">squared_error = 0.423</text>
<text text-anchor="start" x="1673.5" y="-20.7" font-family="Helvetica,sans-Serif" font-size="14.00">samples = 2</text>
<text text-anchor="start" x="1669.75" y="-5.7" font-family="Helvetica,sans-Serif" font-size="14.00">value = 10.25</text>
</g>
<!-- 22&#45;&gt;24 -->
<g id="edge24" class="edge">
<title>22&#45;&gt;24</title>
<path fill="none" stroke="black" d="M1657.54,-88.68C1665.15,-79.9 1673.38,-70.42 1681.03,-61.6"/>
<polygon fill="black" stroke="black" points="1684.25,-64.24 1688.16,-54.39 1678.96,-59.65 1684.25,-64.24"/>
</g>
<!-- 26 -->
<g id="node27" class="node">
<title>26</title>
<path fill="#fdf6f1" stroke="black" d="M1941.75,-53C1941.75,-53 1815.5,-53 1815.5,-53 1809.5,-53 1803.5,-47 1803.5,-41 1803.5,-41 1803.5,-12 1803.5,-12 1803.5,-6 1809.5,0 1815.5,0 1815.5,0 1941.75,0 1941.75,0 1947.75,0 1953.75,-6 1953.75,-12 1953.75,-12 1953.75,-41 1953.75,-41 1953.75,-47 1947.75,-53 1941.75,-53"/>
<text text-anchor="start" x="1811.5" y="-35.7" font-family="Helvetica,sans-Serif" font-size="14.00">squared_error = 4.435</text>
<text text-anchor="start" x="1837.75" y="-20.7" font-family="Helvetica,sans-Serif" font-size="14.00">samples = 24</text>
<text text-anchor="start" x="1834" y="-5.7" font-family="Helvetica,sans-Serif" font-size="14.00">value = 12.446</text>
</g>
<!-- 25&#45;&gt;26 -->
<g id="edge26" class="edge">
<title>25&#45;&gt;26</title>
<path fill="none" stroke="black" d="M1878.62,-88.68C1878.62,-80.81 1878.62,-72.37 1878.62,-64.35"/>
<polygon fill="black" stroke="black" points="1882.13,-64.39 1878.62,-54.39 1875.13,-64.39 1882.13,-64.39"/>
</g>
<!-- 27 -->
<g id="node28" class="node">
<title>27</title>
<path fill="#ffffff" stroke="black" d="M2109.75,-53C2109.75,-53 1983.5,-53 1983.5,-53 1977.5,-53 1971.5,-47 1971.5,-41 1971.5,-41 1971.5,-12 1971.5,-12 1971.5,-6 1977.5,0 1983.5,0 1983.5,0 2109.75,0 2109.75,0 2115.75,0 2121.75,-6 2121.75,-12 2121.75,-12 2121.75,-41 2121.75,-41 2121.75,-47 2115.75,-53 2109.75,-53"/>
<text text-anchor="start" x="1979.5" y="-35.7" font-family="Helvetica,sans-Serif" font-size="14.00">squared_error = 5.532</text>
<text text-anchor="start" x="2005.75" y="-20.7" font-family="Helvetica,sans-Serif" font-size="14.00">samples = 24</text>
<text text-anchor="start" x="2005.75" y="-5.7" font-family="Helvetica,sans-Serif" font-size="14.00">value = 9.479</text>
</g>
<!-- 25&#45;&gt;27 -->
<g id="edge27" class="edge">
<title>25&#45;&gt;27</title>
<path fill="none" stroke="black" d="M1937.86,-88.68C1955.23,-78.91 1974.16,-68.26 1991.29,-58.63"/>
<polygon fill="black" stroke="black" points="1992.59,-61.35 1999.59,-53.39 1989.16,-55.25 1992.59,-61.35"/>
</g>
<!-- 29 -->
<g id="node30" class="node">
<title>29</title>
<path fill="#f0b68d" stroke="black" d="M2671.5,-365C2671.5,-365 2537.75,-365 2537.75,-365 2531.75,-365 2525.75,-359 2525.75,-353 2525.75,-353 2525.75,-309 2525.75,-309 2525.75,-303 2531.75,-297 2537.75,-297 2537.75,-297 2671.5,-297 2671.5,-297 2677.5,-297 2683.5,-303 2683.5,-309 2683.5,-309 2683.5,-353 2683.5,-353 2683.5,-359 2677.5,-365 2671.5,-365"/>
<text text-anchor="start" x="2567.88" y="-347.7" font-family="Helvetica,sans-Serif" font-size="14.00">lstat ≤ 12.55</text>
<text text-anchor="start" x="2533.75" y="-332.7" font-family="Helvetica,sans-Serif" font-size="14.00">squared_error = 43.347</text>
<text text-anchor="start" x="2563.75" y="-317.7" font-family="Helvetica,sans-Serif" font-size="14.00">samples = 32</text>
<text text-anchor="start" x="2560" y="-302.7" font-family="Helvetica,sans-Serif" font-size="14.00">value = 32.841</text>
</g>
<!-- 28&#45;&gt;29 -->
<g id="edge29" class="edge">
<title>28&#45;&gt;29</title>
<path fill="none" stroke="black" d="M2604.62,-400.6C2604.62,-392.85 2604.62,-384.49 2604.62,-376.35"/>
<polygon fill="black" stroke="black" points="2608.13,-376.47 2604.62,-366.47 2601.13,-376.47 2608.13,-376.47"/>
</g>
<!-- 40 -->
<g id="node41" class="node">
<title>40</title>
<path fill="#e89050" stroke="black" d="M3072.75,-365C3072.75,-365 2946.5,-365 2946.5,-365 2940.5,-365 2934.5,-359 2934.5,-353 2934.5,-353 2934.5,-309 2934.5,-309 2934.5,-303 2940.5,-297 2946.5,-297 2946.5,-297 3072.75,-297 3072.75,-297 3078.75,-297 3084.75,-303 3084.75,-309 3084.75,-309 3084.75,-353 3084.75,-353 3084.75,-359 3078.75,-365 3072.75,-365"/>
<text text-anchor="start" x="2977" y="-347.7" font-family="Helvetica,sans-Serif" font-size="14.00">rm ≤ 8.753</text>
<text text-anchor="start" x="2942.5" y="-332.7" font-family="Helvetica,sans-Serif" font-size="14.00">squared_error = 37.48</text>
<text text-anchor="start" x="2968.75" y="-317.7" font-family="Helvetica,sans-Serif" font-size="14.00">samples = 29</text>
<text text-anchor="start" x="2965" y="-302.7" font-family="Helvetica,sans-Serif" font-size="14.00">value = 45.214</text>
</g>
<!-- 28&#45;&gt;40 -->
<g id="edge40" class="edge">
<title>28&#45;&gt;40</title>
<path fill="none" stroke="black" d="M2683.67,-414.09C2752.79,-396.68 2852.93,-371.46 2923.94,-353.58"/>
<polygon fill="black" stroke="black" points="2924.36,-356.83 2933.2,-351 2922.65,-350.04 2924.36,-356.83"/>
</g>
<!-- 30 -->
<g id="node31" class="node">
<title>30</title>
<path fill="#efb286" stroke="black" d="M2587.5,-261C2587.5,-261 2453.75,-261 2453.75,-261 2447.75,-261 2441.75,-255 2441.75,-249 2441.75,-249 2441.75,-205 2441.75,-205 2441.75,-199 2447.75,-193 2453.75,-193 2453.75,-193 2587.5,-193 2587.5,-193 2593.5,-193 2599.5,-199 2599.5,-205 2599.5,-205 2599.5,-249 2599.5,-249 2599.5,-255 2593.5,-261 2587.5,-261"/>
<text text-anchor="start" x="2487.62" y="-243.7" font-family="Helvetica,sans-Serif" font-size="14.00">dis ≤ 1.886</text>
<text text-anchor="start" x="2449.75" y="-228.7" font-family="Helvetica,sans-Serif" font-size="14.00">squared_error = 17.039</text>
<text text-anchor="start" x="2479.75" y="-213.7" font-family="Helvetica,sans-Serif" font-size="14.00">samples = 30</text>
<text text-anchor="start" x="2476" y="-198.7" font-family="Helvetica,sans-Serif" font-size="14.00">value = 34.183</text>
</g>
<!-- 29&#45;&gt;30 -->
<g id="edge30" class="edge">
<title>29&#45;&gt;30</title>
<path fill="none" stroke="black" d="M2577.12,-296.6C2570.09,-288.06 2562.43,-278.77 2555.1,-269.86"/>
<polygon fill="black" stroke="black" points="2557.25,-267.97 2548.19,-262.47 2551.85,-272.42 2557.25,-267.97"/>
</g>
<!-- 37 -->
<g id="node38" class="node">
<title>37</title>
<path fill="#fdf5ef" stroke="black" d="M2748,-261C2748,-261 2629.25,-261 2629.25,-261 2623.25,-261 2617.25,-255 2617.25,-249 2617.25,-249 2617.25,-205 2617.25,-205 2617.25,-199 2623.25,-193 2629.25,-193 2629.25,-193 2748,-193 2748,-193 2754,-193 2760,-199 2760,-205 2760,-205 2760,-249 2760,-249 2760,-255 2754,-261 2748,-261"/>
<text text-anchor="start" x="2648.12" y="-243.7" font-family="Helvetica,sans-Serif" font-size="14.00">lstat ≤ 15.325</text>
<text text-anchor="start" x="2625.25" y="-228.7" font-family="Helvetica,sans-Serif" font-size="14.00">squared_error = 5.29</text>
<text text-anchor="start" x="2651.5" y="-213.7" font-family="Helvetica,sans-Serif" font-size="14.00">samples = 2</text>
<text text-anchor="start" x="2651.5" y="-198.7" font-family="Helvetica,sans-Serif" font-size="14.00">value = 12.7</text>
</g>
<!-- 29&#45;&gt;37 -->
<g id="edge37" class="edge">
<title>29&#45;&gt;37</title>
<path fill="none" stroke="black" d="M2632.13,-296.6C2639.16,-288.06 2646.82,-278.77 2654.15,-269.86"/>
<polygon fill="black" stroke="black" points="2657.4,-272.42 2661.06,-262.47 2652,-267.97 2657.4,-272.42"/>
</g>
<!-- 31 -->
<g id="node32" class="node">
<title>31</title>
<path fill="#e88f4e" stroke="black" d="M2418.5,-157C2418.5,-157 2284.75,-157 2284.75,-157 2278.75,-157 2272.75,-151 2272.75,-145 2272.75,-145 2272.75,-101 2272.75,-101 2272.75,-95 2278.75,-89 2284.75,-89 2284.75,-89 2418.5,-89 2418.5,-89 2424.5,-89 2430.5,-95 2430.5,-101 2430.5,-101 2430.5,-145 2430.5,-145 2430.5,-151 2424.5,-157 2418.5,-157"/>
<text text-anchor="start" x="2316.38" y="-139.7" font-family="Helvetica,sans-Serif" font-size="14.00">nox ≤ 0.618</text>
<text text-anchor="start" x="2280.75" y="-124.7" font-family="Helvetica,sans-Serif" font-size="14.00">squared_error = 18.923</text>
<text text-anchor="start" x="2314.5" y="-109.7" font-family="Helvetica,sans-Serif" font-size="14.00">samples = 2</text>
<text text-anchor="start" x="2310.75" y="-94.7" font-family="Helvetica,sans-Serif" font-size="14.00">value = 45.65</text>
</g>
<!-- 30&#45;&gt;31 -->
<g id="edge31" class="edge">
<title>30&#45;&gt;31</title>
<path fill="none" stroke="black" d="M2465.29,-192.6C2449.68,-183.18 2432.55,-172.84 2416.44,-163.12"/>
<polygon fill="black" stroke="black" points="2418.46,-159.64 2408.09,-157.47 2414.84,-165.64 2418.46,-159.64"/>
</g>
<!-- 34 -->
<g id="node35" class="node">
<title>34</title>
<path fill="#f0b58a" stroke="black" d="M2586.75,-157C2586.75,-157 2460.5,-157 2460.5,-157 2454.5,-157 2448.5,-151 2448.5,-145 2448.5,-145 2448.5,-101 2448.5,-101 2448.5,-95 2454.5,-89 2460.5,-89 2460.5,-89 2586.75,-89 2586.75,-89 2592.75,-89 2598.75,-95 2598.75,-101 2598.75,-101 2598.75,-145 2598.75,-145 2598.75,-151 2592.75,-157 2586.75,-157"/>
<text text-anchor="start" x="2490.62" y="-139.7" font-family="Helvetica,sans-Serif" font-size="14.00">lstat ≤ 9.65</text>
<text text-anchor="start" x="2456.5" y="-124.7" font-family="Helvetica,sans-Serif" font-size="14.00">squared_error = 6.842</text>
<text text-anchor="start" x="2482.75" y="-109.7" font-family="Helvetica,sans-Serif" font-size="14.00">samples = 28</text>
<text text-anchor="start" x="2479" y="-94.7" font-family="Helvetica,sans-Serif" font-size="14.00">value = 33.364</text>
</g>
<!-- 30&#45;&gt;34 -->
<g id="edge34" class="edge">
<title>30&#45;&gt;34</title>
<path fill="none" stroke="black" d="M2521.61,-192.6C2521.84,-184.85 2522.08,-176.49 2522.32,-168.35"/>
<polygon fill="black" stroke="black" points="2525.84,-168.57 2522.64,-158.47 2518.85,-168.37 2525.84,-168.57"/>
</g>
<!-- 32 -->
<g id="node33" class="node">
<title>32</title>
<path fill="#eb9c64" stroke="black" d="M2263.25,-53C2263.25,-53 2152,-53 2152,-53 2146,-53 2140,-47 2140,-41 2140,-41 2140,-12 2140,-12 2140,-6 2146,0 2152,0 2152,0 2263.25,0 2263.25,0 2269.25,0 2275.25,-6 2275.25,-12 2275.25,-12 2275.25,-41 2275.25,-41 2275.25,-47 2269.25,-53 2263.25,-53"/>
<text text-anchor="start" x="2148" y="-35.7" font-family="Helvetica,sans-Serif" font-size="14.00">squared_error = 0.0</text>
<text text-anchor="start" x="2170.5" y="-20.7" font-family="Helvetica,sans-Serif" font-size="14.00">samples = 1</text>
<text text-anchor="start" x="2170.5" y="-5.7" font-family="Helvetica,sans-Serif" font-size="14.00">value = 41.3</text>
</g>
<!-- 31&#45;&gt;32 -->
<g id="edge32" class="edge">
<title>31&#45;&gt;32</title>
<path fill="none" stroke="black" d="M2300.86,-88.68C2286.24,-79.09 2270.34,-68.65 2255.88,-59.16"/>
<polygon fill="black" stroke="black" points="2258.36,-55.95 2248.08,-53.39 2254.52,-61.81 2258.36,-55.95"/>
</g>
<!-- 33 -->
<g id="node34" class="node">
<title>33</title>
<path fill="#e58139" stroke="black" d="M2416.25,-53C2416.25,-53 2305,-53 2305,-53 2299,-53 2293,-47 2293,-41 2293,-41 2293,-12 2293,-12 2293,-6 2299,0 2305,0 2305,0 2416.25,0 2416.25,0 2422.25,0 2428.25,-6 2428.25,-12 2428.25,-12 2428.25,-41 2428.25,-41 2428.25,-47 2422.25,-53 2416.25,-53"/>
<text text-anchor="start" x="2301" y="-35.7" font-family="Helvetica,sans-Serif" font-size="14.00">squared_error = 0.0</text>
<text text-anchor="start" x="2323.5" y="-20.7" font-family="Helvetica,sans-Serif" font-size="14.00">samples = 1</text>
<text text-anchor="start" x="2323.5" y="-5.7" font-family="Helvetica,sans-Serif" font-size="14.00">value = 50.0</text>
</g>
<!-- 31&#45;&gt;33 -->
<g id="edge33" class="edge">
<title>31&#45;&gt;33</title>
<path fill="none" stroke="black" d="M2354.8,-88.68C2355.56,-80.72 2356.37,-72.17 2357.14,-64.07"/>
<polygon fill="black" stroke="black" points="2360.69,-64.68 2358.16,-54.39 2353.73,-64.02 2360.69,-64.68"/>
</g>
<!-- 35 -->
<g id="node36" class="node">
<title>35</title>
<path fill="#efb388" stroke="black" d="M2584.75,-53C2584.75,-53 2458.5,-53 2458.5,-53 2452.5,-53 2446.5,-47 2446.5,-41 2446.5,-41 2446.5,-12 2446.5,-12 2446.5,-6 2452.5,0 2458.5,0 2458.5,0 2584.75,0 2584.75,0 2590.75,0 2596.75,-6 2596.75,-12 2596.75,-12 2596.75,-41 2596.75,-41 2596.75,-47 2590.75,-53 2584.75,-53"/>
<text text-anchor="start" x="2454.5" y="-35.7" font-family="Helvetica,sans-Serif" font-size="14.00">squared_error = 4.901</text>
<text text-anchor="start" x="2480.75" y="-20.7" font-family="Helvetica,sans-Serif" font-size="14.00">samples = 25</text>
<text text-anchor="start" x="2477" y="-5.7" font-family="Helvetica,sans-Serif" font-size="14.00">value = 33.868</text>
</g>
<!-- 34&#45;&gt;35 -->
<g id="edge35" class="edge">
<title>34&#45;&gt;35</title>
<path fill="none" stroke="black" d="M2522.92,-88.68C2522.75,-80.81 2522.57,-72.37 2522.4,-64.35"/>
<polygon fill="black" stroke="black" points="2525.88,-64.32 2522.17,-54.39 2518.89,-64.47 2525.88,-64.32"/>
</g>
<!-- 36 -->
<g id="node37" class="node">
<title>36</title>
<path fill="#f2c29f" stroke="black" d="M2752.75,-53C2752.75,-53 2626.5,-53 2626.5,-53 2620.5,-53 2614.5,-47 2614.5,-41 2614.5,-41 2614.5,-12 2614.5,-12 2614.5,-6 2620.5,0 2626.5,0 2626.5,0 2752.75,0 2752.75,0 2758.75,0 2764.75,-6 2764.75,-12 2764.75,-12 2764.75,-41 2764.75,-41 2764.75,-47 2758.75,-53 2752.75,-53"/>
<text text-anchor="start" x="2622.5" y="-35.7" font-family="Helvetica,sans-Serif" font-size="14.00">squared_error = 3.282</text>
<text text-anchor="start" x="2652.5" y="-20.7" font-family="Helvetica,sans-Serif" font-size="14.00">samples = 3</text>
<text text-anchor="start" x="2645" y="-5.7" font-family="Helvetica,sans-Serif" font-size="14.00">value = 29.167</text>
</g>
<!-- 34&#45;&gt;36 -->
<g id="edge36" class="edge">
<title>34&#45;&gt;36</title>
<path fill="none" stroke="black" d="M2582.15,-88.68C2599.32,-78.91 2618.02,-68.26 2634.94,-58.63"/>
<polygon fill="black" stroke="black" points="2636.18,-61.38 2643.14,-53.39 2632.72,-55.3 2636.18,-61.38"/>
</g>
<!-- 38 -->
<g id="node39" class="node">
<title>38</title>
<path fill="#fbeee4" stroke="black" d="M2742.25,-149.5C2742.25,-149.5 2631,-149.5 2631,-149.5 2625,-149.5 2619,-143.5 2619,-137.5 2619,-137.5 2619,-108.5 2619,-108.5 2619,-102.5 2625,-96.5 2631,-96.5 2631,-96.5 2742.25,-96.5 2742.25,-96.5 2748.25,-96.5 2754.25,-102.5 2754.25,-108.5 2754.25,-108.5 2754.25,-137.5 2754.25,-137.5 2754.25,-143.5 2748.25,-149.5 2742.25,-149.5"/>
<text text-anchor="start" x="2627" y="-132.2" font-family="Helvetica,sans-Serif" font-size="14.00">squared_error = 0.0</text>
<text text-anchor="start" x="2649.5" y="-117.2" font-family="Helvetica,sans-Serif" font-size="14.00">samples = 1</text>
<text text-anchor="start" x="2649.5" y="-102.2" font-family="Helvetica,sans-Serif" font-size="14.00">value = 15.0</text>
</g>
<!-- 37&#45;&gt;38 -->
<g id="edge38" class="edge">
<title>37&#45;&gt;38</title>
<path fill="none" stroke="black" d="M2687.97,-192.6C2687.77,-182.36 2687.55,-171.04 2687.34,-160.6"/>
<polygon fill="black" stroke="black" points="2690.82,-160.64 2687.13,-150.71 2683.83,-160.77 2690.82,-160.64"/>
</g>
<!-- 39 -->
<g id="node40" class="node">
<title>39</title>
<path fill="#fefcfb" stroke="black" d="M2895.25,-149.5C2895.25,-149.5 2784,-149.5 2784,-149.5 2778,-149.5 2772,-143.5 2772,-137.5 2772,-137.5 2772,-108.5 2772,-108.5 2772,-102.5 2778,-96.5 2784,-96.5 2784,-96.5 2895.25,-96.5 2895.25,-96.5 2901.25,-96.5 2907.25,-102.5 2907.25,-108.5 2907.25,-108.5 2907.25,-137.5 2907.25,-137.5 2907.25,-143.5 2901.25,-149.5 2895.25,-149.5"/>
<text text-anchor="start" x="2780" y="-132.2" font-family="Helvetica,sans-Serif" font-size="14.00">squared_error = 0.0</text>
<text text-anchor="start" x="2802.5" y="-117.2" font-family="Helvetica,sans-Serif" font-size="14.00">samples = 1</text>
<text text-anchor="start" x="2802.5" y="-102.2" font-family="Helvetica,sans-Serif" font-size="14.00">value = 10.4</text>
</g>
<!-- 37&#45;&gt;39 -->
<g id="edge39" class="edge">
<title>37&#45;&gt;39</title>
<path fill="none" stroke="black" d="M2738.07,-192.6C2755.65,-180.73 2775.37,-167.4 2792.73,-155.68"/>
<polygon fill="black" stroke="black" points="2794.24,-158.2 2800.57,-149.71 2790.32,-152.4 2794.24,-158.2"/>
</g>
<!-- 41 -->
<g id="node42" class="node">
<title>41</title>
<path fill="#e88d4c" stroke="black" d="M3076.5,-261C3076.5,-261 2942.75,-261 2942.75,-261 2936.75,-261 2930.75,-255 2930.75,-249 2930.75,-249 2930.75,-205 2930.75,-205 2930.75,-199 2936.75,-193 2942.75,-193 2942.75,-193 3076.5,-193 3076.5,-193 3082.5,-193 3088.5,-199 3088.5,-205 3088.5,-205 3088.5,-249 3088.5,-249 3088.5,-255 3082.5,-261 3076.5,-261"/>
<text text-anchor="start" x="2970.25" y="-243.7" font-family="Helvetica,sans-Serif" font-size="14.00">ptratio ≤ 17.9</text>
<text text-anchor="start" x="2938.75" y="-228.7" font-family="Helvetica,sans-Serif" font-size="14.00">squared_error = 18.713</text>
<text text-anchor="start" x="2968.75" y="-213.7" font-family="Helvetica,sans-Serif" font-size="14.00">samples = 28</text>
<text text-anchor="start" x="2965" y="-198.7" font-family="Helvetica,sans-Serif" font-size="14.00">value = 46.046</text>
</g>
<!-- 40&#45;&gt;41 -->
<g id="edge41" class="edge">
<title>40&#45;&gt;41</title>
<path fill="none" stroke="black" d="M3009.62,-296.6C3009.62,-288.85 3009.62,-280.49 3009.62,-272.35"/>
<polygon fill="black" stroke="black" points="3013.13,-272.47 3009.62,-262.47 3006.13,-272.47 3013.13,-272.47"/>
</g>
<!-- 48 -->
<g id="node49" class="node">
<title>48</title>
<path fill="#f7d8c2" stroke="black" d="M3234.5,-253.5C3234.5,-253.5 3118.75,-253.5 3118.75,-253.5 3112.75,-253.5 3106.75,-247.5 3106.75,-241.5 3106.75,-241.5 3106.75,-212.5 3106.75,-212.5 3106.75,-206.5 3112.75,-200.5 3118.75,-200.5 3118.75,-200.5 3234.5,-200.5 3234.5,-200.5 3240.5,-200.5 3246.5,-206.5 3246.5,-212.5 3246.5,-212.5 3246.5,-241.5 3246.5,-241.5 3246.5,-247.5 3240.5,-253.5 3234.5,-253.5"/>
<text text-anchor="start" x="3114.75" y="-236.2" font-family="Helvetica,sans-Serif" font-size="14.00">squared_error = &#45;0.0</text>
<text text-anchor="start" x="3139.5" y="-221.2" font-family="Helvetica,sans-Serif" font-size="14.00">samples = 1</text>
<text text-anchor="start" x="3139.5" y="-206.2" font-family="Helvetica,sans-Serif" font-size="14.00">value = 21.9</text>
</g>
<!-- 40&#45;&gt;48 -->
<g id="edge48" class="edge">
<title>40&#45;&gt;48</title>
<path fill="none" stroke="black" d="M3064.31,-296.6C3083.84,-284.67 3105.78,-271.27 3125.05,-259.5"/>
<polygon fill="black" stroke="black" points="3126.56,-262.07 3133.27,-253.87 3122.91,-256.09 3126.56,-262.07"/>
</g>
<!-- 42 -->
<g id="node43" class="node">
<title>42</title>
<path fill="#e78a47" stroke="black" d="M3076.5,-157C3076.5,-157 2942.75,-157 2942.75,-157 2936.75,-157 2930.75,-151 2930.75,-145 2930.75,-145 2930.75,-101 2930.75,-101 2930.75,-95 2936.75,-89 2942.75,-89 2942.75,-89 3076.5,-89 3076.5,-89 3082.5,-89 3088.5,-95 3088.5,-101 3088.5,-101 3088.5,-145 3088.5,-145 3088.5,-151 3082.5,-157 3076.5,-157"/>
<text text-anchor="start" x="2977" y="-139.7" font-family="Helvetica,sans-Serif" font-size="14.00">rm ≤ 7.783</text>
<text text-anchor="start" x="2938.75" y="-124.7" font-family="Helvetica,sans-Serif" font-size="14.00">squared_error = 13.058</text>
<text text-anchor="start" x="2968.75" y="-109.7" font-family="Helvetica,sans-Serif" font-size="14.00">samples = 24</text>
<text text-anchor="start" x="2965" y="-94.7" font-family="Helvetica,sans-Serif" font-size="14.00">value = 47.033</text>
</g>
<!-- 41&#45;&gt;42 -->
<g id="edge42" class="edge">
<title>41&#45;&gt;42</title>
<path fill="none" stroke="black" d="M3009.62,-192.6C3009.62,-184.85 3009.62,-176.49 3009.62,-168.35"/>
<polygon fill="black" stroke="black" points="3013.13,-168.47 3009.62,-158.47 3006.13,-168.47 3013.13,-168.47"/>
</g>
<!-- 45 -->
<g id="node46" class="node">
<title>45</title>
<path fill="#eba069" stroke="black" d="M3257.5,-157C3257.5,-157 3123.75,-157 3123.75,-157 3117.75,-157 3111.75,-151 3111.75,-145 3111.75,-145 3111.75,-101 3111.75,-101 3111.75,-95 3117.75,-89 3123.75,-89 3123.75,-89 3257.5,-89 3257.5,-89 3263.5,-89 3269.5,-95 3269.5,-101 3269.5,-101 3269.5,-145 3269.5,-145 3269.5,-151 3263.5,-157 3257.5,-157"/>
<text text-anchor="start" x="3157.62" y="-139.7" font-family="Helvetica,sans-Serif" font-size="14.00">lstat ≤ 3.89</text>
<text text-anchor="start" x="3119.75" y="-124.7" font-family="Helvetica,sans-Serif" font-size="14.00">squared_error = 11.737</text>
<text text-anchor="start" x="3153.5" y="-109.7" font-family="Helvetica,sans-Serif" font-size="14.00">samples = 4</text>
<text text-anchor="start" x="3146" y="-94.7" font-family="Helvetica,sans-Serif" font-size="14.00">value = 40.125</text>
</g>
<!-- 41&#45;&gt;45 -->
<g id="edge45" class="edge">
<title>41&#45;&gt;45</title>
<path fill="none" stroke="black" d="M3068.89,-192.6C3085.77,-183.09 3104.3,-172.65 3121.69,-162.85"/>
<polygon fill="black" stroke="black" points="3123.23,-165.43 3130.23,-157.47 3119.8,-159.33 3123.23,-165.43"/>
</g>
<!-- 43 -->
<g id="node44" class="node">
<title>43</title>
<path fill="#e99254" stroke="black" d="M2920.75,-53C2920.75,-53 2794.5,-53 2794.5,-53 2788.5,-53 2782.5,-47 2782.5,-41 2782.5,-41 2782.5,-12 2782.5,-12 2782.5,-6 2788.5,0 2794.5,0 2794.5,0 2920.75,0 2920.75,0 2926.75,0 2932.75,-6 2932.75,-12 2932.75,-12 2932.75,-41 2932.75,-41 2932.75,-47 2926.75,-53 2920.75,-53"/>
<text text-anchor="start" x="2790.5" y="-35.7" font-family="Helvetica,sans-Serif" font-size="14.00">squared_error = 8.429</text>
<text text-anchor="start" x="2820.5" y="-20.7" font-family="Helvetica,sans-Serif" font-size="14.00">samples = 8</text>
<text text-anchor="start" x="2813" y="-5.7" font-family="Helvetica,sans-Serif" font-size="14.00">value = 44.425</text>
</g>
<!-- 42&#45;&gt;43 -->
<g id="edge43" class="edge">
<title>42&#45;&gt;43</title>
<path fill="none" stroke="black" d="M2956.04,-88.68C2940.61,-79.09 2923.82,-68.65 2908.56,-59.16"/>
<polygon fill="black" stroke="black" points="2910.61,-55.7 2900.27,-53.39 2906.92,-61.65 2910.61,-55.7"/>
</g>
<!-- 44 -->
<g id="node45" class="node">
<title>44</title>
<path fill="#e68641" stroke="black" d="M3088.75,-53C3088.75,-53 2962.5,-53 2962.5,-53 2956.5,-53 2950.5,-47 2950.5,-41 2950.5,-41 2950.5,-12 2950.5,-12 2950.5,-6 2956.5,0 2962.5,0 2962.5,0 3088.75,0 3088.75,0 3094.75,0 3100.75,-6 3100.75,-12 3100.75,-12 3100.75,-41 3100.75,-41 3100.75,-47 3094.75,-53 3088.75,-53"/>
<text text-anchor="start" x="2958.5" y="-35.7" font-family="Helvetica,sans-Serif" font-size="14.00">squared_error = 10.27</text>
<text text-anchor="start" x="2984.75" y="-20.7" font-family="Helvetica,sans-Serif" font-size="14.00">samples = 16</text>
<text text-anchor="start" x="2981" y="-5.7" font-family="Helvetica,sans-Serif" font-size="14.00">value = 48.338</text>
</g>
<!-- 42&#45;&gt;44 -->
<g id="edge44" class="edge">
<title>42&#45;&gt;44</title>
<path fill="none" stroke="black" d="M3015.27,-88.68C3016.61,-80.72 3018.06,-72.17 3019.43,-64.07"/>
<polygon fill="black" stroke="black" points="3023.02,-64.84 3021.24,-54.39 3016.12,-63.67 3023.02,-64.84"/>
</g>
<!-- 46 -->
<g id="node47" class="node">
<title>46</title>
<path fill="#e9965a" stroke="black" d="M3250,-53C3250,-53 3131.25,-53 3131.25,-53 3125.25,-53 3119.25,-47 3119.25,-41 3119.25,-41 3119.25,-12 3119.25,-12 3119.25,-6 3125.25,0 3131.25,0 3131.25,0 3250,0 3250,0 3256,0 3262,-6 3262,-12 3262,-12 3262,-41 3262,-41 3262,-47 3256,-53 3250,-53"/>
<text text-anchor="start" x="3127.25" y="-35.7" font-family="Helvetica,sans-Serif" font-size="14.00">squared_error = 0.25</text>
<text text-anchor="start" x="3153.5" y="-20.7" font-family="Helvetica,sans-Serif" font-size="14.00">samples = 2</text>
<text text-anchor="start" x="3153.5" y="-5.7" font-family="Helvetica,sans-Serif" font-size="14.00">value = 43.3</text>
</g>
<!-- 45&#45;&gt;46 -->
<g id="edge46" class="edge">
<title>45&#45;&gt;46</title>
<path fill="none" stroke="black" d="M3190.62,-88.68C3190.62,-80.81 3190.62,-72.37 3190.62,-64.35"/>
<polygon fill="black" stroke="black" points="3194.13,-64.39 3190.62,-54.39 3187.13,-64.39 3194.13,-64.39"/>
</g>
<!-- 47 -->
<g id="node48" class="node">
<title>47</title>
<path fill="#edaa79" stroke="black" d="M3418.75,-53C3418.75,-53 3292.5,-53 3292.5,-53 3286.5,-53 3280.5,-47 3280.5,-41 3280.5,-41 3280.5,-12 3280.5,-12 3280.5,-6 3286.5,0 3292.5,0 3292.5,0 3418.75,0 3418.75,0 3424.75,0 3430.75,-6 3430.75,-12 3430.75,-12 3430.75,-41 3430.75,-41 3430.75,-47 3424.75,-53 3418.75,-53"/>
<text text-anchor="start" x="3288.5" y="-35.7" font-family="Helvetica,sans-Serif" font-size="14.00">squared_error = 3.062</text>
<text text-anchor="start" x="3318.5" y="-20.7" font-family="Helvetica,sans-Serif" font-size="14.00">samples = 2</text>
<text text-anchor="start" x="3314.75" y="-5.7" font-family="Helvetica,sans-Serif" font-size="14.00">value = 36.95</text>
</g>
<!-- 45&#45;&gt;47 -->
<g id="edge47" class="edge">
<title>45&#45;&gt;47</title>
<path fill="none" stroke="black" d="M3248.8,-88.68C3265.86,-78.91 3284.46,-68.26 3301.27,-58.63"/>
<polygon fill="black" stroke="black" points="3302.48,-61.4 3309.41,-53.39 3299,-55.33 3302.48,-61.4"/>
</g>
</g>
</svg>