<?xml version="1.0" encoding="utf-8" standalone="no"?>
<!DOCTYPE svg PUBLIC "-//W3C//DTD SVG 1.1//EN"
  "http://www.w3.org/Graphics/SVG/1.1/DTD/svg11.dtd">
<svg xmlns:xlink="http://www.w3.org/1999/xlink" width="391.245pt" height="297.190125pt" viewBox="0 0 391.245 297.190125" xmlns="http://www.w3.org/2000/svg" version="1.1">
 <metadata>
  <rdf:RDF xmlns:dc="http://purl.org/dc/elements/1.1/" xmlns:cc="http://creativecommons.org/ns#" xmlns:rdf="http://www.w3.org/1999/02/22-rdf-syntax-ns#">
   <cc:Work>
    <dc:type rdf:resource="http://purl.org/dc/dcmitype/StillImage"/>
    <dc:date>2023-10-07T11:51:33.248163</dc:date>
    <dc:format>image/svg+xml</dc:format>
    <dc:creator>
     <cc:Agent>
      <dc:title>Matplotlib v3.7.1, https://matplotlib.org/</dc:title>
     </cc:Agent>
    </dc:creator>
   </cc:Work>
  </rdf:RDF>
 </metadata>
 <defs>
  <style type="text/css">*{stroke-linejoin: round; stroke-linecap: butt}</style>
 </defs>
 <g id="figure_1">
  <g id="patch_1">
   <path d="M 0 297.190125 
L 391.245 297.190125 
L 391.245 0 
L 0 0 
z
" style="fill: #ffffff"/>
  </g>
  <g id="axes_1">
   <g id="patch_2">
    <path d="M 26.925 273.312 
L 384.045 273.312 
L 384.045 7.2 
L 26.925 7.2 
z
" style="fill: #ffffff"/>
   </g>
   <g id="PathCollection_1">
    <defs>
     <path id="mc5acd933f1" d="M 0 1.581139 
C 0.419323 1.581139 0.821528 1.41454 1.118034 1.118034 
C 1.41454 0.821528 1.581139 0.419323 1.581139 0 
C 1.581139 -0.419323 1.41454 -0.821528 1.118034 -1.118034 
C 0.821528 -1.41454 0.419323 -1.581139 0 -1.581139 
C -0.419323 -1.581139 -0.821528 -1.41454 -1.118034 -1.118034 
C -1.41454 -0.821528 -1.581139 -0.419323 -1.581139 0 
C -1.581139 0.419323 -1.41454 0.821528 -1.118034 1.118034 
C -0.821528 1.41454 -0.419323 1.581139 0 1.581139 
z
" style="stroke: #0000ff"/>
    </defs>
    <g clip-path="url(#p6d5447678b)">
     <use xlink:href="#mc5acd933f1" x="43.157727" y="247.073335" style="fill: #0000ff; stroke: #0000ff"/>
     <use xlink:href="#mc5acd933f1" x="46.437066" y="242.13457" style="fill: #0000ff; stroke: #0000ff"/>
     <use xlink:href="#mc5acd933f1" x="49.716405" y="245.479836" style="fill: #0000ff; stroke: #0000ff"/>
     <use xlink:href="#mc5acd933f1" x="52.995744" y="241.579662" style="fill: #0000ff; stroke: #0000ff"/>
     <use xlink:href="#mc5acd933f1" x="56.275083" y="239.929107" style="fill: #0000ff; stroke: #0000ff"/>
     <use xlink:href="#mc5acd933f1" x="59.554421" y="248.955979" style="fill: #0000ff; stroke: #0000ff"/>
     <use xlink:href="#mc5acd933f1" x="62.83376" y="240.293049" style="fill: #0000ff; stroke: #0000ff"/>
     <use xlink:href="#mc5acd933f1" x="66.113099" y="246.152287" style="fill: #0000ff; stroke: #0000ff"/>
     <use xlink:href="#mc5acd933f1" x="69.392438" y="250.369064" style="fill: #0000ff; stroke: #0000ff"/>
     <use xlink:href="#mc5acd933f1" x="72.671777" y="246.949658" style="fill: #0000ff; stroke: #0000ff"/>
     <use xlink:href="#mc5acd933f1" x="75.951116" y="234.89429" style="fill: #0000ff; stroke: #0000ff"/>
     <use xlink:href="#mc5acd933f1" x="79.230455" y="233.355165" style="fill: #0000ff; stroke: #0000ff"/>
     <use xlink:href="#mc5acd933f1" x="82.509793" y="245.893277" style="fill: #0000ff; stroke: #0000ff"/>
     <use xlink:href="#mc5acd933f1" x="85.789132" y="235.496341" style="fill: #0000ff; stroke: #0000ff"/>
     <use xlink:href="#mc5acd933f1" x="89.068471" y="250.543459" style="fill: #0000ff; stroke: #0000ff"/>
     <use xlink:href="#mc5acd933f1" x="92.34781" y="252.712951" style="fill: #0000ff; stroke: #0000ff"/>
     <use xlink:href="#mc5acd933f1" x="95.627149" y="242.438109" style="fill: #0000ff; stroke: #0000ff"/>
     <use xlink:href="#mc5acd933f1" x="98.906488" y="249.485706" style="fill: #0000ff; stroke: #0000ff"/>
     <use xlink:href="#mc5acd933f1" x="102.185826" y="250.327185" style="fill: #0000ff; stroke: #0000ff"/>
     <use xlink:href="#mc5acd933f1" x="105.465165" y="248.06694" style="fill: #0000ff; stroke: #0000ff"/>
     <use xlink:href="#mc5acd933f1" x="108.744504" y="242.396517" style="fill: #0000ff; stroke: #0000ff"/>
     <use xlink:href="#mc5acd933f1" x="112.023843" y="252.676261" style="fill: #0000ff; stroke: #0000ff"/>
     <use xlink:href="#mc5acd933f1" x="115.303182" y="249.157385" style="fill: #0000ff; stroke: #0000ff"/>
     <use xlink:href="#mc5acd933f1" x="118.582521" y="233.364324" style="fill: #0000ff; stroke: #0000ff"/>
     <use xlink:href="#mc5acd933f1" x="121.86186" y="252.89661" style="fill: #0000ff; stroke: #0000ff"/>
     <use xlink:href="#mc5acd933f1" x="125.141198" y="245.177299" style="fill: #0000ff; stroke: #0000ff"/>
     <use xlink:href="#mc5acd933f1" x="128.420537" y="257.445055" style="fill: #0000ff; stroke: #0000ff"/>
     <use xlink:href="#mc5acd933f1" x="131.699876" y="243.464526" style="fill: #0000ff; stroke: #0000ff"/>
     <use xlink:href="#mc5acd933f1" x="134.979215" y="243.920435" style="fill: #0000ff; stroke: #0000ff"/>
     <use xlink:href="#mc5acd933f1" x="138.258554" y="245.860292" style="fill: #0000ff; stroke: #0000ff"/>
     <use xlink:href="#mc5acd933f1" x="141.537893" y="239.329539" style="fill: #0000ff; stroke: #0000ff"/>
     <use xlink:href="#mc5acd933f1" x="144.817231" y="249.525742" style="fill: #0000ff; stroke: #0000ff"/>
     <use xlink:href="#mc5acd933f1" x="148.09657" y="247.521865" style="fill: #0000ff; stroke: #0000ff"/>
     <use xlink:href="#mc5acd933f1" x="151.375909" y="239.571064" style="fill: #0000ff; stroke: #0000ff"/>
     <use xlink:href="#mc5acd933f1" x="154.655248" y="248.593234" style="fill: #0000ff; stroke: #0000ff"/>
     <use xlink:href="#mc5acd933f1" x="157.934587" y="251.257513" style="fill: #0000ff; stroke: #0000ff"/>
     <use xlink:href="#mc5acd933f1" x="161.213926" y="252.606064" style="fill: #0000ff; stroke: #0000ff"/>
     <use xlink:href="#mc5acd933f1" x="164.493264" y="252.110043" style="fill: #0000ff; stroke: #0000ff"/>
     <use xlink:href="#mc5acd933f1" x="167.772603" y="244.020063" style="fill: #0000ff; stroke: #0000ff"/>
     <use xlink:href="#mc5acd933f1" x="171.051942" y="243.049106" style="fill: #0000ff; stroke: #0000ff"/>
     <use xlink:href="#mc5acd933f1" x="174.331281" y="243.363148" style="fill: #0000ff; stroke: #0000ff"/>
     <use xlink:href="#mc5acd933f1" x="177.61062" y="246.133925" style="fill: #0000ff; stroke: #0000ff"/>
     <use xlink:href="#mc5acd933f1" x="180.889959" y="243.346746" style="fill: #0000ff; stroke: #0000ff"/>
     <use xlink:href="#mc5acd933f1" x="184.169298" y="249.665906" style="fill: #0000ff; stroke: #0000ff"/>
     <use xlink:href="#mc5acd933f1" x="187.448636" y="244.218493" style="fill: #0000ff; stroke: #0000ff"/>
     <use xlink:href="#mc5acd933f1" x="190.727975" y="243.862914" style="fill: #0000ff; stroke: #0000ff"/>
     <use xlink:href="#mc5acd933f1" x="194.007314" y="252.735185" style="fill: #0000ff; stroke: #0000ff"/>
     <use xlink:href="#mc5acd933f1" x="197.286653" y="237.531405" style="fill: #0000ff; stroke: #0000ff"/>
     <use xlink:href="#mc5acd933f1" x="200.565992" y="256.577033" style="fill: #0000ff; stroke: #0000ff"/>
     <use xlink:href="#mc5acd933f1" x="203.845331" y="249.493564" style="fill: #0000ff; stroke: #0000ff"/>
     <use xlink:href="#mc5acd933f1" x="207.124669" y="239.221089" style="fill: #0000ff; stroke: #0000ff"/>
     <use xlink:href="#mc5acd933f1" x="210.404008" y="259.831402" style="fill: #0000ff; stroke: #0000ff"/>
     <use xlink:href="#mc5acd933f1" x="213.683347" y="251.039882" style="fill: #0000ff; stroke: #0000ff"/>
     <use xlink:href="#mc5acd933f1" x="216.962686" y="254.210525" style="fill: #0000ff; stroke: #0000ff"/>
     <use xlink:href="#mc5acd933f1" x="220.242025" y="236.636174" style="fill: #0000ff; stroke: #0000ff"/>
     <use xlink:href="#mc5acd933f1" x="223.521364" y="252.607942" style="fill: #0000ff; stroke: #0000ff"/>
     <use xlink:href="#mc5acd933f1" x="226.800702" y="249.637797" style="fill: #0000ff; stroke: #0000ff"/>
     <use xlink:href="#mc5acd933f1" x="230.080041" y="240.610233" style="fill: #0000ff; stroke: #0000ff"/>
     <use xlink:href="#mc5acd933f1" x="233.35938" y="256.800344" style="fill: #0000ff; stroke: #0000ff"/>
     <use xlink:href="#mc5acd933f1" x="236.638719" y="253.099712" style="fill: #0000ff; stroke: #0000ff"/>
     <use xlink:href="#mc5acd933f1" x="239.918058" y="251.002492" style="fill: #0000ff; stroke: #0000ff"/>
     <use xlink:href="#mc5acd933f1" x="243.197397" y="241.006746" style="fill: #0000ff; stroke: #0000ff"/>
     <use xlink:href="#mc5acd933f1" x="246.476736" y="234.17993" style="fill: #0000ff; stroke: #0000ff"/>
     <use xlink:href="#mc5acd933f1" x="249.756074" y="245.017493" style="fill: #0000ff; stroke: #0000ff"/>
     <use xlink:href="#mc5acd933f1" x="253.035413" y="250.230609" style="fill: #0000ff; stroke: #0000ff"/>
     <use xlink:href="#mc5acd933f1" x="256.314752" y="241.260315" style="fill: #0000ff; stroke: #0000ff"/>
     <use xlink:href="#mc5acd933f1" x="259.594091" y="244.151914" style="fill: #0000ff; stroke: #0000ff"/>
     <use xlink:href="#mc5acd933f1" x="262.87343" y="234.780626" style="fill: #0000ff; stroke: #0000ff"/>
     <use xlink:href="#mc5acd933f1" x="266.152769" y="246.656466" style="fill: #0000ff; stroke: #0000ff"/>
     <use xlink:href="#mc5acd933f1" x="269.432107" y="252.161911" style="fill: #0000ff; stroke: #0000ff"/>
     <use xlink:href="#mc5acd933f1" x="272.711446" y="252.292432" style="fill: #0000ff; stroke: #0000ff"/>
     <use xlink:href="#mc5acd933f1" x="275.990785" y="244.494643" style="fill: #0000ff; stroke: #0000ff"/>
     <use xlink:href="#mc5acd933f1" x="279.270124" y="251.726831" style="fill: #0000ff; stroke: #0000ff"/>
     <use xlink:href="#mc5acd933f1" x="282.549463" y="19.296" style="fill: #0000ff; stroke: #0000ff"/>
     <use xlink:href="#mc5acd933f1" x="285.828802" y="248.899862" style="fill: #0000ff; stroke: #0000ff"/>
     <use xlink:href="#mc5acd933f1" x="289.10814" y="244.375257" style="fill: #0000ff; stroke: #0000ff"/>
     <use xlink:href="#mc5acd933f1" x="292.387479" y="254.933229" style="fill: #0000ff; stroke: #0000ff"/>
     <use xlink:href="#mc5acd933f1" x="295.666818" y="244.807504" style="fill: #0000ff; stroke: #0000ff"/>
     <use xlink:href="#mc5acd933f1" x="298.946157" y="250.711654" style="fill: #0000ff; stroke: #0000ff"/>
     <use xlink:href="#mc5acd933f1" x="302.225496" y="246.728096" style="fill: #0000ff; stroke: #0000ff"/>
     <use xlink:href="#mc5acd933f1" x="305.504835" y="248.391989" style="fill: #0000ff; stroke: #0000ff"/>
     <use xlink:href="#mc5acd933f1" x="308.784174" y="246.319677" style="fill: #0000ff; stroke: #0000ff"/>
     <use xlink:href="#mc5acd933f1" x="312.063512" y="248.00225" style="fill: #0000ff; stroke: #0000ff"/>
     <use xlink:href="#mc5acd933f1" x="315.342851" y="246.465912" style="fill: #0000ff; stroke: #0000ff"/>
     <use xlink:href="#mc5acd933f1" x="318.62219" y="257.242428" style="fill: #0000ff; stroke: #0000ff"/>
     <use xlink:href="#mc5acd933f1" x="321.901529" y="242.4867" style="fill: #0000ff; stroke: #0000ff"/>
     <use xlink:href="#mc5acd933f1" x="325.180868" y="257.212792" style="fill: #0000ff; stroke: #0000ff"/>
     <use xlink:href="#mc5acd933f1" x="328.460207" y="253.348979" style="fill: #0000ff; stroke: #0000ff"/>
     <use xlink:href="#mc5acd933f1" x="331.739545" y="248.480581" style="fill: #0000ff; stroke: #0000ff"/>
     <use xlink:href="#mc5acd933f1" x="335.018884" y="252.910174" style="fill: #0000ff; stroke: #0000ff"/>
     <use xlink:href="#mc5acd933f1" x="338.298223" y="247.23179" style="fill: #0000ff; stroke: #0000ff"/>
     <use xlink:href="#mc5acd933f1" x="341.577562" y="245.232806" style="fill: #0000ff; stroke: #0000ff"/>
     <use xlink:href="#mc5acd933f1" x="344.856901" y="255.904641" style="fill: #0000ff; stroke: #0000ff"/>
     <use xlink:href="#mc5acd933f1" x="348.13624" y="241.523509" style="fill: #0000ff; stroke: #0000ff"/>
     <use xlink:href="#mc5acd933f1" x="351.415579" y="239.975146" style="fill: #0000ff; stroke: #0000ff"/>
     <use xlink:href="#mc5acd933f1" x="354.694917" y="240.72259" style="fill: #0000ff; stroke: #0000ff"/>
     <use xlink:href="#mc5acd933f1" x="357.974256" y="254.640841" style="fill: #0000ff; stroke: #0000ff"/>
     <use xlink:href="#mc5acd933f1" x="361.253595" y="261.216" style="fill: #0000ff; stroke: #0000ff"/>
     <use xlink:href="#mc5acd933f1" x="364.532934" y="249.350198" style="fill: #0000ff; stroke: #0000ff"/>
     <use xlink:href="#mc5acd933f1" x="367.812273" y="248.036456" style="fill: #0000ff; stroke: #0000ff"/>
    </g>
   </g>
   <g id="matplotlib.axis_1">
    <g id="xtick_1">
     <g id="line2d_1">
      <path d="M 43.157727 273.312 
L 43.157727 7.2 
" clip-path="url(#p6d5447678b)" style="fill: none; stroke-dasharray: 0.8,1.32; stroke-dashoffset: 0; stroke: #b0b0b0; stroke-width: 0.8"/>
     </g>
     <g id="line2d_2">
      <defs>
       <path id="m4b08fabe7b" d="M 0 0 
L 0 3.5 
" style="stroke: #000000; stroke-width: 0.8"/>
      </defs>
      <g>
       <use xlink:href="#m4b08fabe7b" x="43.157727" y="273.312" style="stroke: #000000; stroke-width: 0.8"/>
      </g>
     </g>
     <g id="text_1">
      <!-- 0.0 -->
      <g transform="translate(35.206165 287.910437) scale(0.1 -0.1)">
       <defs>
        <path id="DejaVuSans-30" d="M 2034 4250 
Q 1547 4250 1301 3770 
Q 1056 3291 1056 2328 
Q 1056 1369 1301 889 
Q 1547 409 2034 409 
Q 2525 409 2770 889 
Q 3016 1369 3016 2328 
Q 3016 3291 2770 3770 
Q 2525 4250 2034 4250 
z
M 2034 4750 
Q 2819 4750 3233 4129 
Q 3647 3509 3647 2328 
Q 3647 1150 3233 529 
Q 2819 -91 2034 -91 
Q 1250 -91 836 529 
Q 422 1150 422 2328 
Q 422 3509 836 4129 
Q 1250 4750 2034 4750 
z
" transform="scale(0.015625)"/>
        <path id="DejaVuSans-2e" d="M 684 794 
L 1344 794 
L 1344 0 
L 684 0 
L 684 794 
z
" transform="scale(0.015625)"/>
       </defs>
       <use xlink:href="#DejaVuSans-30"/>
       <use xlink:href="#DejaVuSans-2e" x="63.623047"/>
       <use xlink:href="#DejaVuSans-30" x="95.410156"/>
      </g>
     </g>
    </g>
    <g id="xtick_2">
     <g id="line2d_3">
      <path d="M 108.744504 273.312 
L 108.744504 7.2 
" clip-path="url(#p6d5447678b)" style="fill: none; stroke-dasharray: 0.8,1.32; stroke-dashoffset: 0; stroke: #b0b0b0; stroke-width: 0.8"/>
     </g>
     <g id="line2d_4">
      <g>
       <use xlink:href="#m4b08fabe7b" x="108.744504" y="273.312" style="stroke: #000000; stroke-width: 0.8"/>
      </g>
     </g>
     <g id="text_2">
      <!-- 0.2 -->
      <g transform="translate(100.792942 287.910437) scale(0.1 -0.1)">
       <defs>
        <path id="DejaVuSans-32" d="M 1228 531 
L 3431 531 
L 3431 0 
L 469 0 
L 469 531 
Q 828 903 1448 1529 
Q 2069 2156 2228 2338 
Q 2531 2678 2651 2914 
Q 2772 3150 2772 3378 
Q 2772 3750 2511 3984 
Q 2250 4219 1831 4219 
Q 1534 4219 1204 4116 
Q 875 4013 500 3803 
L 500 4441 
Q 881 4594 1212 4672 
Q 1544 4750 1819 4750 
Q 2544 4750 2975 4387 
Q 3406 4025 3406 3419 
Q 3406 3131 3298 2873 
Q 3191 2616 2906 2266 
Q 2828 2175 2409 1742 
Q 1991 1309 1228 531 
z
" transform="scale(0.015625)"/>
       </defs>
       <use xlink:href="#DejaVuSans-30"/>
       <use xlink:href="#DejaVuSans-2e" x="63.623047"/>
       <use xlink:href="#DejaVuSans-32" x="95.410156"/>
      </g>
     </g>
    </g>
    <g id="xtick_3">
     <g id="line2d_5">
      <path d="M 174.331281 273.312 
L 174.331281 7.2 
" clip-path="url(#p6d5447678b)" style="fill: none; stroke-dasharray: 0.8,1.32; stroke-dashoffset: 0; stroke: #b0b0b0; stroke-width: 0.8"/>
     </g>
     <g id="line2d_6">
      <g>
       <use xlink:href="#m4b08fabe7b" x="174.331281" y="273.312" style="stroke: #000000; stroke-width: 0.8"/>
      </g>
     </g>
     <g id="text_3">
      <!-- 0.4 -->
      <g transform="translate(166.379718 287.910437) scale(0.1 -0.1)">
       <defs>
        <path id="DejaVuSans-34" d="M 2419 4116 
L 825 1625 
L 2419 1625 
L 2419 4116 
z
M 2253 4666 
L 3047 4666 
L 3047 1625 
L 3713 1625 
L 3713 1100 
L 3047 1100 
L 3047 0 
L 2419 0 
L 2419 1100 
L 313 1100 
L 313 1709 
L 2253 4666 
z
" transform="scale(0.015625)"/>
       </defs>
       <use xlink:href="#DejaVuSans-30"/>
       <use xlink:href="#DejaVuSans-2e" x="63.623047"/>
       <use xlink:href="#DejaVuSans-34" x="95.410156"/>
      </g>
     </g>
    </g>
    <g id="xtick_4">
     <g id="line2d_7">
      <path d="M 239.918058 273.312 
L 239.918058 7.2 
" clip-path="url(#p6d5447678b)" style="fill: none; stroke-dasharray: 0.8,1.32; stroke-dashoffset: 0; stroke: #b0b0b0; stroke-width: 0.8"/>
     </g>
     <g id="line2d_8">
      <g>
       <use xlink:href="#m4b08fabe7b" x="239.918058" y="273.312" style="stroke: #000000; stroke-width: 0.8"/>
      </g>
     </g>
     <g id="text_4">
      <!-- 0.6 -->
      <g transform="translate(231.966495 287.910437) scale(0.1 -0.1)">
       <defs>
        <path id="DejaVuSans-36" d="M 2113 2584 
Q 1688 2584 1439 2293 
Q 1191 2003 1191 1497 
Q 1191 994 1439 701 
Q 1688 409 2113 409 
Q 2538 409 2786 701 
Q 3034 994 3034 1497 
Q 3034 2003 2786 2293 
Q 2538 2584 2113 2584 
z
M 3366 4563 
L 3366 3988 
Q 3128 4100 2886 4159 
Q 2644 4219 2406 4219 
Q 1781 4219 1451 3797 
Q 1122 3375 1075 2522 
Q 1259 2794 1537 2939 
Q 1816 3084 2150 3084 
Q 2853 3084 3261 2657 
Q 3669 2231 3669 1497 
Q 3669 778 3244 343 
Q 2819 -91 2113 -91 
Q 1303 -91 875 529 
Q 447 1150 447 2328 
Q 447 3434 972 4092 
Q 1497 4750 2381 4750 
Q 2619 4750 2861 4703 
Q 3103 4656 3366 4563 
z
" transform="scale(0.015625)"/>
       </defs>
       <use xlink:href="#DejaVuSans-30"/>
       <use xlink:href="#DejaVuSans-2e" x="63.623047"/>
       <use xlink:href="#DejaVuSans-36" x="95.410156"/>
      </g>
     </g>
    </g>
    <g id="xtick_5">
     <g id="line2d_9">
      <path d="M 305.504835 273.312 
L 305.504835 7.2 
" clip-path="url(#p6d5447678b)" style="fill: none; stroke-dasharray: 0.8,1.32; stroke-dashoffset: 0; stroke: #b0b0b0; stroke-width: 0.8"/>
     </g>
     <g id="line2d_10">
      <g>
       <use xlink:href="#m4b08fabe7b" x="305.504835" y="273.312" style="stroke: #000000; stroke-width: 0.8"/>
      </g>
     </g>
     <g id="text_5">
      <!-- 0.8 -->
      <g transform="translate(297.553272 287.910437) scale(0.1 -0.1)">
       <defs>
        <path id="DejaVuSans-38" d="M 2034 2216 
Q 1584 2216 1326 1975 
Q 1069 1734 1069 1313 
Q 1069 891 1326 650 
Q 1584 409 2034 409 
Q 2484 409 2743 651 
Q 3003 894 3003 1313 
Q 3003 1734 2745 1975 
Q 2488 2216 2034 2216 
z
M 1403 2484 
Q 997 2584 770 2862 
Q 544 3141 544 3541 
Q 544 4100 942 4425 
Q 1341 4750 2034 4750 
Q 2731 4750 3128 4425 
Q 3525 4100 3525 3541 
Q 3525 3141 3298 2862 
Q 3072 2584 2669 2484 
Q 3125 2378 3379 2068 
Q 3634 1759 3634 1313 
Q 3634 634 3220 271 
Q 2806 -91 2034 -91 
Q 1263 -91 848 271 
Q 434 634 434 1313 
Q 434 1759 690 2068 
Q 947 2378 1403 2484 
z
M 1172 3481 
Q 1172 3119 1398 2916 
Q 1625 2713 2034 2713 
Q 2441 2713 2670 2916 
Q 2900 3119 2900 3481 
Q 2900 3844 2670 4047 
Q 2441 4250 2034 4250 
Q 1625 4250 1398 4047 
Q 1172 3844 1172 3481 
z
" transform="scale(0.015625)"/>
       </defs>
       <use xlink:href="#DejaVuSans-30"/>
       <use xlink:href="#DejaVuSans-2e" x="63.623047"/>
       <use xlink:href="#DejaVuSans-38" x="95.410156"/>
      </g>
     </g>
    </g>
    <g id="xtick_6">
     <g id="line2d_11">
      <path d="M 371.091612 273.312 
L 371.091612 7.2 
" clip-path="url(#p6d5447678b)" style="fill: none; stroke-dasharray: 0.8,1.32; stroke-dashoffset: 0; stroke: #b0b0b0; stroke-width: 0.8"/>
     </g>
     <g id="line2d_12">
      <g>
       <use xlink:href="#m4b08fabe7b" x="371.091612" y="273.312" style="stroke: #000000; stroke-width: 0.8"/>
      </g>
     </g>
     <g id="text_6">
      <!-- 1.0 -->
      <g transform="translate(363.140049 287.910437) scale(0.1 -0.1)">
       <defs>
        <path id="DejaVuSans-31" d="M 794 531 
L 1825 531 
L 1825 4091 
L 703 3866 
L 703 4441 
L 1819 4666 
L 2450 4666 
L 2450 531 
L 3481 531 
L 3481 0 
L 794 0 
L 794 531 
z
" transform="scale(0.015625)"/>
       </defs>
       <use xlink:href="#DejaVuSans-31"/>
       <use xlink:href="#DejaVuSans-2e" x="63.623047"/>
       <use xlink:href="#DejaVuSans-30" x="95.410156"/>
      </g>
     </g>
    </g>
   </g>
   <g id="matplotlib.axis_2">
    <g id="ytick_1">
     <g id="line2d_13">
      <path d="M 26.925 263.564158 
L 384.045 263.564158 
" clip-path="url(#p6d5447678b)" style="fill: none; stroke-dasharray: 0.8,1.32; stroke-dashoffset: 0; stroke: #b0b0b0; stroke-width: 0.8"/>
     </g>
     <g id="line2d_14">
      <defs>
       <path id="m7bd7811440" d="M 0 0 
L -3.5 0 
" style="stroke: #000000; stroke-width: 0.8"/>
      </defs>
      <g>
       <use xlink:href="#m7bd7811440" x="26.925" y="263.564158" style="stroke: #000000; stroke-width: 0.8"/>
      </g>
     </g>
     <g id="text_7">
      <!-- 0 -->
      <g transform="translate(13.5625 267.363377) scale(0.1 -0.1)">
       <use xlink:href="#DejaVuSans-30"/>
      </g>
     </g>
    </g>
    <g id="ytick_2">
     <g id="line2d_15">
      <path d="M 26.925 207.447869 
L 384.045 207.447869 
" clip-path="url(#p6d5447678b)" style="fill: none; stroke-dasharray: 0.8,1.32; stroke-dashoffset: 0; stroke: #b0b0b0; stroke-width: 0.8"/>
     </g>
     <g id="line2d_16">
      <g>
       <use xlink:href="#m7bd7811440" x="26.925" y="207.447869" style="stroke: #000000; stroke-width: 0.8"/>
      </g>
     </g>
     <g id="text_8">
      <!-- 5 -->
      <g transform="translate(13.5625 211.247088) scale(0.1 -0.1)">
       <defs>
        <path id="DejaVuSans-35" d="M 691 4666 
L 3169 4666 
L 3169 4134 
L 1269 4134 
L 1269 2991 
Q 1406 3038 1543 3061 
Q 1681 3084 1819 3084 
Q 2600 3084 3056 2656 
Q 3513 2228 3513 1497 
Q 3513 744 3044 326 
Q 2575 -91 1722 -91 
Q 1428 -91 1123 -41 
Q 819 9 494 109 
L 494 744 
Q 775 591 1075 516 
Q 1375 441 1709 441 
Q 2250 441 2565 725 
Q 2881 1009 2881 1497 
Q 2881 1984 2565 2268 
Q 2250 2553 1709 2553 
Q 1456 2553 1204 2497 
Q 953 2441 691 2322 
L 691 4666 
z
" transform="scale(0.015625)"/>
       </defs>
       <use xlink:href="#DejaVuSans-35"/>
      </g>
     </g>
    </g>
    <g id="ytick_3">
     <g id="line2d_17">
      <path d="M 26.925 151.331581 
L 384.045 151.331581 
" clip-path="url(#p6d5447678b)" style="fill: none; stroke-dasharray: 0.8,1.32; stroke-dashoffset: 0; stroke: #b0b0b0; stroke-width: 0.8"/>
     </g>
     <g id="line2d_18">
      <g>
       <use xlink:href="#m7bd7811440" x="26.925" y="151.331581" style="stroke: #000000; stroke-width: 0.8"/>
      </g>
     </g>
     <g id="text_9">
      <!-- 10 -->
      <g transform="translate(7.2 155.130799) scale(0.1 -0.1)">
       <use xlink:href="#DejaVuSans-31"/>
       <use xlink:href="#DejaVuSans-30" x="63.623047"/>
      </g>
     </g>
    </g>
    <g id="ytick_4">
     <g id="line2d_19">
      <path d="M 26.925 95.215292 
L 384.045 95.215292 
" clip-path="url(#p6d5447678b)" style="fill: none; stroke-dasharray: 0.8,1.32; stroke-dashoffset: 0; stroke: #b0b0b0; stroke-width: 0.8"/>
     </g>
     <g id="line2d_20">
      <g>
       <use xlink:href="#m7bd7811440" x="26.925" y="95.215292" style="stroke: #000000; stroke-width: 0.8"/>
      </g>
     </g>
     <g id="text_10">
      <!-- 15 -->
      <g transform="translate(7.2 99.014511) scale(0.1 -0.1)">
       <use xlink:href="#DejaVuSans-31"/>
       <use xlink:href="#DejaVuSans-35" x="63.623047"/>
      </g>
     </g>
    </g>
    <g id="ytick_5">
     <g id="line2d_21">
      <path d="M 26.925 39.099003 
L 384.045 39.099003 
" clip-path="url(#p6d5447678b)" style="fill: none; stroke-dasharray: 0.8,1.32; stroke-dashoffset: 0; stroke: #b0b0b0; stroke-width: 0.8"/>
     </g>
     <g id="line2d_22">
      <g>
       <use xlink:href="#m7bd7811440" x="26.925" y="39.099003" style="stroke: #000000; stroke-width: 0.8"/>
      </g>
     </g>
     <g id="text_11">
      <!-- 20 -->
      <g transform="translate(7.2 42.898222) scale(0.1 -0.1)">
       <use xlink:href="#DejaVuSans-32"/>
       <use xlink:href="#DejaVuSans-30" x="63.623047"/>
      </g>
     </g>
    </g>
   </g>
   <g id="line2d_23">
    <path d="M 43.157727 244.48462 
L 46.437066 244.540736 
L 49.716405 244.596852 
L 52.995744 244.652969 
L 56.275083 244.709085 
L 59.554421 244.765201 
L 62.83376 244.821318 
L 66.113099 244.877434 
L 69.392438 244.93355 
L 72.671777 244.989666 
L 75.951116 245.045783 
L 79.230455 245.101899 
L 82.509793 245.158015 
L 85.789132 245.214132 
L 89.068471 245.270248 
L 92.34781 245.326364 
L 95.627149 245.38248 
L 98.906488 245.438597 
L 102.185826 245.494713 
L 105.465165 245.550829 
L 108.744504 245.606946 
L 112.023843 245.663062 
L 115.303182 245.719178 
L 118.582521 245.775294 
L 121.86186 245.831411 
L 125.141198 245.887527 
L 128.420537 245.943643 
L 131.699876 245.99976 
L 134.979215 246.055876 
L 138.258554 246.111992 
L 141.537893 246.168108 
L 144.817231 246.224225 
L 148.09657 246.280341 
L 151.375909 246.336457 
L 154.655248 246.392574 
L 157.934587 246.44869 
L 161.213926 246.504806 
L 164.493264 246.560922 
L 167.772603 246.617039 
L 171.051942 246.673155 
L 174.331281 246.729271 
L 177.61062 246.785388 
L 180.889959 246.841504 
L 184.169298 246.89762 
L 187.448636 246.953736 
L 190.727975 247.009853 
L 194.007314 247.065969 
L 197.286653 247.122085 
L 200.565992 247.178202 
L 203.845331 247.234318 
L 207.124669 247.290434 
L 210.404008 247.34655 
L 213.683347 247.402667 
L 216.962686 247.458783 
L 220.242025 247.514899 
L 223.521364 247.571016 
L 226.800702 247.627132 
L 230.080041 247.683248 
L 233.35938 247.739365 
L 236.638719 247.795481 
L 239.918058 247.851597 
L 243.197397 247.907713 
L 246.476736 247.96383 
L 249.756074 248.019946 
L 253.035413 248.076062 
L 256.314752 248.132179 
L 259.594091 248.188295 
L 262.87343 248.244411 
L 266.152769 248.300527 
L 269.432107 248.356644 
L 272.711446 248.41276 
L 275.990785 248.468876 
L 279.270124 248.524993 
L 282.549463 248.581109 
L 285.828802 248.637225 
L 289.10814 248.693341 
L 292.387479 248.749458 
L 295.666818 248.805574 
L 298.946157 248.86169 
L 302.225496 248.917807 
L 305.504835 248.973923 
L 308.784174 249.030039 
L 312.063512 249.086155 
L 315.342851 249.142272 
L 318.62219 249.198388 
L 321.901529 249.254504 
L 325.180868 249.310621 
L 328.460207 249.366737 
L 331.739545 249.422853 
L 335.018884 249.478969 
L 338.298223 249.535086 
L 341.577562 249.591202 
L 344.856901 249.647318 
L 348.13624 249.703435 
L 351.415579 249.759551 
L 354.694917 249.815667 
L 357.974256 249.871783 
L 361.253595 249.9279 
L 364.532934 249.984016 
L 367.812273 250.040132 
" clip-path="url(#p6d5447678b)" style="fill: none; stroke: #ff0000; stroke-width: 2; stroke-linecap: square"/>
   </g>
   <g id="patch_3">
    <path d="M 26.925 273.312 
L 26.925 7.2 
" style="fill: none; stroke: #000000; stroke-width: 0.8; stroke-linejoin: miter; stroke-linecap: square"/>
   </g>
   <g id="patch_4">
    <path d="M 384.045 273.312 
L 384.045 7.2 
" style="fill: none; stroke: #000000; stroke-width: 0.8; stroke-linejoin: miter; stroke-linecap: square"/>
   </g>
   <g id="patch_5">
    <path d="M 26.925 273.312 
L 384.045 273.312 
" style="fill: none; stroke: #000000; stroke-width: 0.8; stroke-linejoin: miter; stroke-linecap: square"/>
   </g>
   <g id="patch_6">
    <path d="M 26.925 7.2 
L 384.045 7.2 
" style="fill: none; stroke: #000000; stroke-width: 0.8; stroke-linejoin: miter; stroke-linecap: square"/>
   </g>
   <g id="legend_1">
    <g id="patch_7">
     <path d="M 33.925 44.55625 
L 130.50625 44.55625 
Q 132.50625 44.55625 132.50625 42.55625 
L 132.50625 14.2 
Q 132.50625 12.2 130.50625 12.2 
L 33.925 12.2 
Q 31.925 12.2 31.925 14.2 
L 31.925 42.55625 
Q 31.925 44.55625 33.925 44.55625 
z
" style="fill: #ffffff; opacity: 0.8; stroke: #cccccc; stroke-linejoin: miter"/>
    </g>
    <g id="line2d_24">
     <path d="M 35.925 20.298437 
L 45.925 20.298437 
L 55.925 20.298437 
" style="fill: none; stroke: #ff0000; stroke-width: 2; stroke-linecap: square"/>
    </g>
    <g id="text_12">
     <!-- Ground truth -->
     <g transform="translate(63.925 23.798437) scale(0.1 -0.1)">
      <defs>
       <path id="DejaVuSans-47" d="M 3809 666 
L 3809 1919 
L 2778 1919 
L 2778 2438 
L 4434 2438 
L 4434 434 
Q 4069 175 3628 42 
Q 3188 -91 2688 -91 
Q 1594 -91 976 548 
Q 359 1188 359 2328 
Q 359 3472 976 4111 
Q 1594 4750 2688 4750 
Q 3144 4750 3555 4637 
Q 3966 4525 4313 4306 
L 4313 3634 
Q 3963 3931 3569 4081 
Q 3175 4231 2741 4231 
Q 1884 4231 1454 3753 
Q 1025 3275 1025 2328 
Q 1025 1384 1454 906 
Q 1884 428 2741 428 
Q 3075 428 3337 486 
Q 3600 544 3809 666 
z
" transform="scale(0.015625)"/>
       <path id="DejaVuSans-72" d="M 2631 2963 
Q 2534 3019 2420 3045 
Q 2306 3072 2169 3072 
Q 1681 3072 1420 2755 
Q 1159 2438 1159 1844 
L 1159 0 
L 581 0 
L 581 3500 
L 1159 3500 
L 1159 2956 
Q 1341 3275 1631 3429 
Q 1922 3584 2338 3584 
Q 2397 3584 2469 3576 
Q 2541 3569 2628 3553 
L 2631 2963 
z
" transform="scale(0.015625)"/>
       <path id="DejaVuSans-6f" d="M 1959 3097 
Q 1497 3097 1228 2736 
Q 959 2375 959 1747 
Q 959 1119 1226 758 
Q 1494 397 1959 397 
Q 2419 397 2687 759 
Q 2956 1122 2956 1747 
Q 2956 2369 2687 2733 
Q 2419 3097 1959 3097 
z
M 1959 3584 
Q 2709 3584 3137 3096 
Q 3566 2609 3566 1747 
Q 3566 888 3137 398 
Q 2709 -91 1959 -91 
Q 1206 -91 779 398 
Q 353 888 353 1747 
Q 353 2609 779 3096 
Q 1206 3584 1959 3584 
z
" transform="scale(0.015625)"/>
       <path id="DejaVuSans-75" d="M 544 1381 
L 544 3500 
L 1119 3500 
L 1119 1403 
Q 1119 906 1312 657 
Q 1506 409 1894 409 
Q 2359 409 2629 706 
Q 2900 1003 2900 1516 
L 2900 3500 
L 3475 3500 
L 3475 0 
L 2900 0 
L 2900 538 
Q 2691 219 2414 64 
Q 2138 -91 1772 -91 
Q 1169 -91 856 284 
Q 544 659 544 1381 
z
M 1991 3584 
L 1991 3584 
z
" transform="scale(0.015625)"/>
       <path id="DejaVuSans-6e" d="M 3513 2113 
L 3513 0 
L 2938 0 
L 2938 2094 
Q 2938 2591 2744 2837 
Q 2550 3084 2163 3084 
Q 1697 3084 1428 2787 
Q 1159 2491 1159 1978 
L 1159 0 
L 581 0 
L 581 3500 
L 1159 3500 
L 1159 2956 
Q 1366 3272 1645 3428 
Q 1925 3584 2291 3584 
Q 2894 3584 3203 3211 
Q 3513 2838 3513 2113 
z
" transform="scale(0.015625)"/>
       <path id="DejaVuSans-64" d="M 2906 2969 
L 2906 4863 
L 3481 4863 
L 3481 0 
L 2906 0 
L 2906 525 
Q 2725 213 2448 61 
Q 2172 -91 1784 -91 
Q 1150 -91 751 415 
Q 353 922 353 1747 
Q 353 2572 751 3078 
Q 1150 3584 1784 3584 
Q 2172 3584 2448 3432 
Q 2725 3281 2906 2969 
z
M 947 1747 
Q 947 1113 1208 752 
Q 1469 391 1925 391 
Q 2381 391 2643 752 
Q 2906 1113 2906 1747 
Q 2906 2381 2643 2742 
Q 2381 3103 1925 3103 
Q 1469 3103 1208 2742 
Q 947 2381 947 1747 
z
" transform="scale(0.015625)"/>
       <path id="DejaVuSans-20" transform="scale(0.015625)"/>
       <path id="DejaVuSans-74" d="M 1172 4494 
L 1172 3500 
L 2356 3500 
L 2356 3053 
L 1172 3053 
L 1172 1153 
Q 1172 725 1289 603 
Q 1406 481 1766 481 
L 2356 481 
L 2356 0 
L 1766 0 
Q 1100 0 847 248 
Q 594 497 594 1153 
L 594 3053 
L 172 3053 
L 172 3500 
L 594 3500 
L 594 4494 
L 1172 4494 
z
" transform="scale(0.015625)"/>
       <path id="DejaVuSans-68" d="M 3513 2113 
L 3513 0 
L 2938 0 
L 2938 2094 
Q 2938 2591 2744 2837 
Q 2550 3084 2163 3084 
Q 1697 3084 1428 2787 
Q 1159 2491 1159 1978 
L 1159 0 
L 581 0 
L 581 4863 
L 1159 4863 
L 1159 2956 
Q 1366 3272 1645 3428 
Q 1925 3584 2291 3584 
Q 2894 3584 3203 3211 
Q 3513 2838 3513 2113 
z
" transform="scale(0.015625)"/>
      </defs>
      <use xlink:href="#DejaVuSans-47"/>
      <use xlink:href="#DejaVuSans-72" x="77.490234"/>
      <use xlink:href="#DejaVuSans-6f" x="116.353516"/>
      <use xlink:href="#DejaVuSans-75" x="177.535156"/>
      <use xlink:href="#DejaVuSans-6e" x="240.914062"/>
      <use xlink:href="#DejaVuSans-64" x="304.292969"/>
      <use xlink:href="#DejaVuSans-20" x="367.769531"/>
      <use xlink:href="#DejaVuSans-74" x="399.556641"/>
      <use xlink:href="#DejaVuSans-72" x="438.765625"/>
      <use xlink:href="#DejaVuSans-75" x="479.878906"/>
      <use xlink:href="#DejaVuSans-74" x="543.257812"/>
      <use xlink:href="#DejaVuSans-68" x="582.466797"/>
     </g>
    </g>
    <g id="PathCollection_2">
     <g>
      <use xlink:href="#mc5acd933f1" x="45.925" y="35.851562" style="fill: #0000ff; stroke: #0000ff"/>
     </g>
    </g>
    <g id="text_13">
     <!-- Data -->
     <g transform="translate(63.925 38.476562) scale(0.1 -0.1)">
      <defs>
       <path id="DejaVuSans-44" d="M 1259 4147 
L 1259 519 
L 2022 519 
Q 2988 519 3436 956 
Q 3884 1394 3884 2338 
Q 3884 3275 3436 3711 
Q 2988 4147 2022 4147 
L 1259 4147 
z
M 628 4666 
L 1925 4666 
Q 3281 4666 3915 4102 
Q 4550 3538 4550 2338 
Q 4550 1131 3912 565 
Q 3275 0 1925 0 
L 628 0 
L 628 4666 
z
" transform="scale(0.015625)"/>
       <path id="DejaVuSans-61" d="M 2194 1759 
Q 1497 1759 1228 1600 
Q 959 1441 959 1056 
Q 959 750 1161 570 
Q 1363 391 1709 391 
Q 2188 391 2477 730 
Q 2766 1069 2766 1631 
L 2766 1759 
L 2194 1759 
z
M 3341 1997 
L 3341 0 
L 2766 0 
L 2766 531 
Q 2569 213 2275 61 
Q 1981 -91 1556 -91 
Q 1019 -91 701 211 
Q 384 513 384 1019 
Q 384 1609 779 1909 
Q 1175 2209 1959 2209 
L 2766 2209 
L 2766 2266 
Q 2766 2663 2505 2880 
Q 2244 3097 1772 3097 
Q 1472 3097 1187 3025 
Q 903 2953 641 2809 
L 641 3341 
Q 956 3463 1253 3523 
Q 1550 3584 1831 3584 
Q 2591 3584 2966 3190 
Q 3341 2797 3341 1997 
z
" transform="scale(0.015625)"/>
      </defs>
      <use xlink:href="#DejaVuSans-44"/>
      <use xlink:href="#DejaVuSans-61" x="77.001953"/>
      <use xlink:href="#DejaVuSans-74" x="138.28125"/>
      <use xlink:href="#DejaVuSans-61" x="177.490234"/>
     </g>
    </g>
   </g>
  </g>
 </g>
 <defs>
  <clipPath id="p6d5447678b">
   <rect x="26.925" y="7.2" width="357.12" height="266.112"/>
  </clipPath>
 </defs>
</svg>