<?xml version="1.0" encoding="UTF-8" standalone="no"?>
<!DOCTYPE svg PUBLIC "-//W3C//DTD SVG 1.1//EN"
 "http://www.w3.org/Graphics/SVG/1.1/DTD/svg11.dtd">
<!-- Generated by graphviz version 8.1.0 (20230707.0739)
 -->
<!-- Title: Tree Pages: 1 -->
<svg width="3439pt" height="581pt"
 viewBox="0.00 0.00 3438.75 581.00" xmlns="http://www.w3.org/2000/svg" xmlns:xlink="http://www.w3.org/1999/xlink">
<g id="graph0" class="graph" transform="scale(1 1) rotate(0) translate(4 577)">
<title>Tree</title>
<polygon fill="white" stroke="none" points="-4,4 -4,-577 3434.75,-577 3434.75,4 -4,4"/>
<!-- 0 -->
<g id="node1" class="node">
<title>0</title>
<path fill="#f7d9c3" stroke="black" d="M2238.5,-573C2238.5,-573 2104.75,-573 2104.75,-573 2098.75,-573 2092.75,-567 2092.75,-561 2092.75,-561 2092.75,-517 2092.75,-517 2092.75,-511 2098.75,-505 2104.75,-505 2104.75,-505 2238.5,-505 2238.5,-505 2244.5,-505 2250.5,-511 2250.5,-517 2250.5,-517 2250.5,-561 2250.5,-561 2250.5,-567 2244.5,-573 2238.5,-573"/>
<text text-anchor="start" x="2139" y="-555.7" font-family="Helvetica,sans-Serif" font-size="14.00">rm ≤ 6.941</text>
<text text-anchor="start" x="2100.75" y="-540.7" font-family="Helvetica,sans-Serif" font-size="14.00">squared_error = 75.339</text>
<text text-anchor="start" x="2127" y="-525.7" font-family="Helvetica,sans-Serif" font-size="14.00">samples = 404</text>
<text text-anchor="start" x="2127" y="-510.7" font-family="Helvetica,sans-Serif" font-size="14.00">value = 22.108</text>
</g>
<!-- 1 -->
<g id="node2" class="node">
<title>1</title>
<path fill="#f9e0ce" stroke="black" d="M1583.5,-469C1583.5,-469 1449.75,-469 1449.75,-469 1443.75,-469 1437.75,-463 1437.75,-457 1437.75,-457 1437.75,-413 1437.75,-413 1437.75,-407 1443.75,-401 1449.75,-401 1449.75,-401 1583.5,-401 1583.5,-401 1589.5,-401 1595.5,-407 1595.5,-413 1595.5,-413 1595.5,-457 1595.5,-457 1595.5,-463 1589.5,-469 1583.5,-469"/>
<text text-anchor="start" x="1483.62" y="-451.7" font-family="Helvetica,sans-Serif" font-size="14.00">lstat ≤ 14.4</text>
<text text-anchor="start" x="1445.75" y="-436.7" font-family="Helvetica,sans-Serif" font-size="14.00">squared_error = 36.453</text>
<text text-anchor="start" x="1472" y="-421.7" font-family="Helvetica,sans-Serif" font-size="14.00">samples = 349</text>
<text text-anchor="start" x="1479.5" y="-406.7" font-family="Helvetica,sans-Serif" font-size="14.00">value = 19.8</text>
</g>
<!-- 0&#45;&gt;1 -->
<g id="edge1" class="edge">
<title>0&#45;&gt;1</title>
<path fill="none" stroke="black" d="M2092.29,-525.65C1969.72,-506.56 1735.04,-470.01 1606.41,-449.98"/>
<polygon fill="black" stroke="black" points="1607.24,-446.41 1596.82,-448.33 1606.17,-453.33 1607.24,-446.41"/>
<text text-anchor="middle" x="1610.57" y="-462.72" font-family="Helvetica,sans-Serif" font-size="14.00">True</text>
</g>
<!-- 28 -->
<g id="node29" class="node">
<title>28</title>
<path fill="#eeab7a" stroke="black" d="M2686.5,-469C2686.5,-469 2552.75,-469 2552.75,-469 2546.75,-469 2540.75,-463 2540.75,-457 2540.75,-457 2540.75,-413 2540.75,-413 2540.75,-407 2546.75,-401 2552.75,-401 2552.75,-401 2686.5,-401 2686.5,-401 2692.5,-401 2698.5,-407 2698.5,-413 2698.5,-413 2698.5,-457 2698.5,-457 2698.5,-463 2692.5,-469 2686.5,-469"/>
<text text-anchor="start" x="2587" y="-451.7" font-family="Helvetica,sans-Serif" font-size="14.00">rm ≤ 7.443</text>
<text text-anchor="start" x="2548.75" y="-436.7" font-family="Helvetica,sans-Serif" font-size="14.00">squared_error = 73.653</text>
<text text-anchor="start" x="2578.75" y="-421.7" font-family="Helvetica,sans-Serif" font-size="14.00">samples = 55</text>
<text text-anchor="start" x="2575" y="-406.7" font-family="Helvetica,sans-Serif" font-size="14.00">value = 36.758</text>
</g>
<!-- 0&#45;&gt;28 -->
<g id="edge28" class="edge">
<title>0&#45;&gt;28</title>
<path fill="none" stroke="black" d="M2250.94,-519.94C2329.15,-502.13 2448.49,-474.96 2530.06,-456.39"/>
<polygon fill="black" stroke="black" points="2530.34,-459.69 2539.32,-454.06 2528.79,-452.86 2530.34,-459.69"/>
<text text-anchor="middle" x="2527.01" y="-469.42" font-family="Helvetica,sans-Serif" font-size="14.00">False</text>
</g>
<!-- 2 -->
<g id="node3" class="node">
<title>2</title>
<path fill="#f6d6be" stroke="black" d="M548.5,-365C548.5,-365 414.75,-365 414.75,-365 408.75,-365 402.75,-359 402.75,-353 402.75,-353 402.75,-309 402.75,-309 402.75,-303 408.75,-297 414.75,-297 414.75,-297 548.5,-297 548.5,-297 554.5,-297 560.5,-303 560.5,-309 560.5,-309 560.5,-353 560.5,-353 560.5,-359 554.5,-365 548.5,-365"/>
<text text-anchor="start" x="448.62" y="-347.7" font-family="Helvetica,sans-Serif" font-size="14.00">dis ≤ 1.373</text>
<text text-anchor="start" x="410.75" y="-332.7" font-family="Helvetica,sans-Serif" font-size="14.00">squared_error = 21.001</text>
<text text-anchor="start" x="437" y="-317.7" font-family="Helvetica,sans-Serif" font-size="14.00">samples = 209</text>
<text text-anchor="start" x="437" y="-302.7" font-family="Helvetica,sans-Serif" font-size="14.00">value = 23.082</text>
</g>
<!-- 1&#45;&gt;2 -->
<g id="edge2" class="edge">
<title>1&#45;&gt;2</title>
<path fill="none" stroke="black" d="M1437.56,-426.21C1248.47,-407.57 771.08,-360.53 571.5,-340.86"/>
<polygon fill="black" stroke="black" points="572.06,-337.3 561.77,-339.8 571.38,-344.26 572.06,-337.3"/>
</g>
<!-- 13 -->
<g id="node14" class="node">
<title>13</title>
<path fill="#fcefe6" stroke="black" d="M1583.5,-365C1583.5,-365 1449.75,-365 1449.75,-365 1443.75,-365 1437.75,-359 1437.75,-353 1437.75,-353 1437.75,-309 1437.75,-309 1437.75,-303 1443.75,-297 1449.75,-297 1449.75,-297 1583.5,-297 1583.5,-297 1589.5,-297 1595.5,-303 1595.5,-309 1595.5,-309 1595.5,-353 1595.5,-353 1595.5,-359 1589.5,-365 1583.5,-365"/>
<text text-anchor="start" x="1479.12" y="-347.7" font-family="Helvetica,sans-Serif" font-size="14.00">crim ≤ 6.992</text>
<text text-anchor="start" x="1445.75" y="-332.7" font-family="Helvetica,sans-Serif" font-size="14.00">squared_error = 19.419</text>
<text text-anchor="start" x="1472" y="-317.7" font-family="Helvetica,sans-Serif" font-size="14.00">samples = 140</text>
<text text-anchor="start" x="1472" y="-302.7" font-family="Helvetica,sans-Serif" font-size="14.00">value = 14.899</text>
</g>
<!-- 1&#45;&gt;13 -->
<g id="edge13" class="edge">
<title>1&#45;&gt;13</title>
<path fill="none" stroke="black" d="M1516.62,-400.6C1516.62,-392.85 1516.62,-384.49 1516.62,-376.35"/>
<polygon fill="black" stroke="black" points="1520.13,-376.47 1516.62,-366.47 1513.13,-376.47 1520.13,-376.47"/>
</g>
<!-- 3 -->
<g id="node4" class="node">
<title>3</title>
<path fill="#ea985d" stroke="black" d="M294.25,-261C294.25,-261 153,-261 153,-261 147,-261 141,-255 141,-249 141,-249 141,-205 141,-205 141,-199 147,-193 153,-193 153,-193 294.25,-193 294.25,-193 300.25,-193 306.25,-199 306.25,-205 306.25,-205 306.25,-249 306.25,-249 306.25,-255 300.25,-261 294.25,-261"/>
<text text-anchor="start" x="183.12" y="-243.7" font-family="Helvetica,sans-Serif" font-size="14.00">lstat ≤ 10.505</text>
<text text-anchor="start" x="149" y="-228.7" font-family="Helvetica,sans-Serif" font-size="14.00">squared_error = 108.536</text>
<text text-anchor="start" x="186.5" y="-213.7" font-family="Helvetica,sans-Serif" font-size="14.00">samples = 3</text>
<text text-anchor="start" x="179" y="-198.7" font-family="Helvetica,sans-Serif" font-size="14.00">value = 42.633</text>
</g>
<!-- 2&#45;&gt;3 -->
<g id="edge3" class="edge">
<title>2&#45;&gt;3</title>
<path fill="none" stroke="black" d="M402.46,-298.7C375.42,-288.01 344.92,-275.95 316.87,-264.86"/>
<polygon fill="black" stroke="black" points="318.25,-261.25 307.66,-260.83 315.67,-267.76 318.25,-261.25"/>
</g>
<!-- 6 -->
<g id="node7" class="node">
<title>6</title>
<path fill="#f7d7bf" stroke="black" d="M548.5,-261C548.5,-261 414.75,-261 414.75,-261 408.75,-261 402.75,-255 402.75,-249 402.75,-249 402.75,-205 402.75,-205 402.75,-199 408.75,-193 414.75,-193 414.75,-193 548.5,-193 548.5,-193 554.5,-193 560.5,-199 560.5,-205 560.5,-205 560.5,-249 560.5,-249 560.5,-255 554.5,-261 548.5,-261"/>
<text text-anchor="start" x="449" y="-243.7" font-family="Helvetica,sans-Serif" font-size="14.00">rm ≤ 6.543</text>
<text text-anchor="start" x="410.75" y="-228.7" font-family="Helvetica,sans-Serif" font-size="14.00">squared_error = 14.079</text>
<text text-anchor="start" x="437" y="-213.7" font-family="Helvetica,sans-Serif" font-size="14.00">samples = 206</text>
<text text-anchor="start" x="437" y="-198.7" font-family="Helvetica,sans-Serif" font-size="14.00">value = 22.798</text>
</g>
<!-- 2&#45;&gt;6 -->
<g id="edge6" class="edge">
<title>2&#45;&gt;6</title>
<path fill="none" stroke="black" d="M481.62,-296.6C481.62,-288.85 481.62,-280.49 481.62,-272.35"/>
<polygon fill="black" stroke="black" points="485.13,-272.47 481.62,-262.47 478.13,-272.47 485.13,-272.47"/>
</g>
<!-- 4 -->
<g id="node5" class="node">
<title>4</title>
<path fill="#e58139" stroke="black" d="M123.25,-149.5C123.25,-149.5 12,-149.5 12,-149.5 6,-149.5 0,-143.5 0,-137.5 0,-137.5 0,-108.5 0,-108.5 0,-102.5 6,-96.5 12,-96.5 12,-96.5 123.25,-96.5 123.25,-96.5 129.25,-96.5 135.25,-102.5 135.25,-108.5 135.25,-108.5 135.25,-137.5 135.25,-137.5 135.25,-143.5 129.25,-149.5 123.25,-149.5"/>
<text text-anchor="start" x="8" y="-132.2" font-family="Helvetica,sans-Serif" font-size="14.00">squared_error = 0.0</text>
<text text-anchor="start" x="30.5" y="-117.2" font-family="Helvetica,sans-Serif" font-size="14.00">samples = 2</text>
<text text-anchor="start" x="30.5" y="-102.2" font-family="Helvetica,sans-Serif" font-size="14.00">value = 50.0</text>
</g>
<!-- 3&#45;&gt;4 -->
<g id="edge4" class="edge">
<title>3&#45;&gt;4</title>
<path fill="none" stroke="black" d="M172.54,-192.6C154.46,-180.78 134.17,-167.51 116.29,-155.82"/>
<polygon fill="black" stroke="black" points="118.47,-152.41 108.19,-149.87 114.64,-158.27 118.47,-152.41"/>
</g>
<!-- 5 -->
<g id="node6" class="node">
<title>5</title>
<path fill="#f3c6a6" stroke="black" d="M281.5,-149.5C281.5,-149.5 165.75,-149.5 165.75,-149.5 159.75,-149.5 153.75,-143.5 153.75,-137.5 153.75,-137.5 153.75,-108.5 153.75,-108.5 153.75,-102.5 159.75,-96.5 165.75,-96.5 165.75,-96.5 281.5,-96.5 281.5,-96.5 287.5,-96.5 293.5,-102.5 293.5,-108.5 293.5,-108.5 293.5,-137.5 293.5,-137.5 293.5,-143.5 287.5,-149.5 281.5,-149.5"/>
<text text-anchor="start" x="161.75" y="-132.2" font-family="Helvetica,sans-Serif" font-size="14.00">squared_error = &#45;0.0</text>
<text text-anchor="start" x="186.5" y="-117.2" font-family="Helvetica,sans-Serif" font-size="14.00">samples = 1</text>
<text text-anchor="start" x="186.5" y="-102.2" font-family="Helvetica,sans-Serif" font-size="14.00">value = 27.9</text>
</g>
<!-- 3&#45;&gt;5 -->
<g id="edge5" class="edge">
<title>3&#45;&gt;5</title>
<path fill="none" stroke="black" d="M223.62,-192.6C223.62,-182.36 223.62,-171.04 223.62,-160.6"/>
<polygon fill="black" stroke="black" points="227.13,-160.71 223.62,-150.71 220.13,-160.71 227.13,-160.71"/>
</g>
<!-- 7 -->
<g id="node8" class="node">
<title>7</title>
<path fill="#f7dac5" stroke="black" d="M449.75,-157C449.75,-157 323.5,-157 323.5,-157 317.5,-157 311.5,-151 311.5,-145 311.5,-145 311.5,-101 311.5,-101 311.5,-95 317.5,-89 323.5,-89 323.5,-89 449.75,-89 449.75,-89 455.75,-89 461.75,-95 461.75,-101 461.75,-101 461.75,-145 461.75,-145 461.75,-151 455.75,-157 449.75,-157"/>
<text text-anchor="start" x="353.62" y="-139.7" font-family="Helvetica,sans-Serif" font-size="14.00">lstat ≤ 7.57</text>
<text text-anchor="start" x="319.5" y="-124.7" font-family="Helvetica,sans-Serif" font-size="14.00">squared_error = 8.597</text>
<text text-anchor="start" x="342" y="-109.7" font-family="Helvetica,sans-Serif" font-size="14.00">samples = 162</text>
<text text-anchor="start" x="342" y="-94.7" font-family="Helvetica,sans-Serif" font-size="14.00">value = 21.623</text>
</g>
<!-- 6&#45;&gt;7 -->
<g id="edge7" class="edge">
<title>6&#45;&gt;7</title>
<path fill="none" stroke="black" d="M450.52,-192.6C442.4,-183.88 433.55,-174.38 425.1,-165.31"/>
<polygon fill="black" stroke="black" points="428.18,-163.41 418.8,-158.47 423.06,-168.18 428.18,-163.41"/>
</g>
<!-- 10 -->
<g id="node11" class="node">
<title>10</title>
<path fill="#f4c9aa" stroke="black" d="M625.5,-157C625.5,-157 491.75,-157 491.75,-157 485.75,-157 479.75,-151 479.75,-145 479.75,-145 479.75,-101 479.75,-101 479.75,-95 485.75,-89 491.75,-89 491.75,-89 625.5,-89 625.5,-89 631.5,-89 637.5,-95 637.5,-101 637.5,-101 637.5,-145 637.5,-145 637.5,-151 631.5,-157 625.5,-157"/>
<text text-anchor="start" x="525.25" y="-139.7" font-family="Helvetica,sans-Serif" font-size="14.00">tax ≤ 269.0</text>
<text text-anchor="start" x="487.75" y="-124.7" font-family="Helvetica,sans-Serif" font-size="14.00">squared_error = 10.498</text>
<text text-anchor="start" x="517.75" y="-109.7" font-family="Helvetica,sans-Serif" font-size="14.00">samples = 44</text>
<text text-anchor="start" x="517.75" y="-94.7" font-family="Helvetica,sans-Serif" font-size="14.00">value = 27.12</text>
</g>
<!-- 6&#45;&gt;10 -->
<g id="edge10" class="edge">
<title>6&#45;&gt;10</title>
<path fill="none" stroke="black" d="M506.84,-192.6C513.22,-184.15 520.16,-174.96 526.82,-166.13"/>
<polygon fill="black" stroke="black" points="530.12,-168.56 533.36,-158.47 524.54,-164.35 530.12,-168.56"/>
</g>
<!-- 8 -->
<g id="node9" class="node">
<title>8</title>
<path fill="#f6d3ba" stroke="black" d="M281.75,-53C281.75,-53 155.5,-53 155.5,-53 149.5,-53 143.5,-47 143.5,-41 143.5,-41 143.5,-12 143.5,-12 143.5,-6 149.5,0 155.5,0 155.5,0 281.75,0 281.75,0 287.75,0 293.75,-6 293.75,-12 293.75,-12 293.75,-41 293.75,-41 293.75,-47 287.75,-53 281.75,-53"/>
<text text-anchor="start" x="151.5" y="-35.7" font-family="Helvetica,sans-Serif" font-size="14.00">squared_error = 3.293</text>
<text text-anchor="start" x="177.75" y="-20.7" font-family="Helvetica,sans-Serif" font-size="14.00">samples = 38</text>
<text text-anchor="start" x="174" y="-5.7" font-family="Helvetica,sans-Serif" font-size="14.00">value = 23.976</text>
</g>
<!-- 7&#45;&gt;8 -->
<g id="edge8" class="edge">
<title>7&#45;&gt;8</title>
<path fill="none" stroke="black" d="M327.39,-88.68C310.02,-78.91 291.09,-68.26 273.96,-58.63"/>
<polygon fill="black" stroke="black" points="276.09,-55.25 265.66,-53.39 272.66,-61.35 276.09,-55.25"/>
</g>
<!-- 9 -->
<g id="node10" class="node">
<title>9</title>
<path fill="#f8dcc9" stroke="black" d="M449.75,-53C449.75,-53 323.5,-53 323.5,-53 317.5,-53 311.5,-47 311.5,-41 311.5,-41 311.5,-12 311.5,-12 311.5,-6 317.5,0 323.5,0 323.5,0 449.75,0 449.75,0 455.75,0 461.75,-6 461.75,-12 461.75,-12 461.75,-41 461.75,-41 461.75,-47 455.75,-53 449.75,-53"/>
<text text-anchor="start" x="319.5" y="-35.7" font-family="Helvetica,sans-Serif" font-size="14.00">squared_error = 8.006</text>
<text text-anchor="start" x="342" y="-20.7" font-family="Helvetica,sans-Serif" font-size="14.00">samples = 124</text>
<text text-anchor="start" x="342" y="-5.7" font-family="Helvetica,sans-Serif" font-size="14.00">value = 20.902</text>
</g>
<!-- 7&#45;&gt;9 -->
<g id="edge9" class="edge">
<title>7&#45;&gt;9</title>
<path fill="none" stroke="black" d="M386.62,-88.68C386.62,-80.81 386.62,-72.37 386.62,-64.35"/>
<polygon fill="black" stroke="black" points="390.13,-64.39 386.62,-54.39 383.13,-64.39 390.13,-64.39"/>
</g>
<!-- 11 -->
<g id="node12" class="node">
<title>11</title>
<path fill="#f2c09c" stroke="black" d="M617.75,-53C617.75,-53 491.5,-53 491.5,-53 485.5,-53 479.5,-47 479.5,-41 479.5,-41 479.5,-12 479.5,-12 479.5,-6 485.5,0 491.5,0 491.5,0 617.75,0 617.75,0 623.75,0 629.75,-6 629.75,-12 629.75,-12 629.75,-41 629.75,-41 629.75,-47 623.75,-53 617.75,-53"/>
<text text-anchor="start" x="487.5" y="-35.7" font-family="Helvetica,sans-Serif" font-size="14.00">squared_error = 5.538</text>
<text text-anchor="start" x="513.75" y="-20.7" font-family="Helvetica,sans-Serif" font-size="14.00">samples = 13</text>
<text text-anchor="start" x="510" y="-5.7" font-family="Helvetica,sans-Serif" font-size="14.00">value = 29.946</text>
</g>
<!-- 10&#45;&gt;11 -->
<g id="edge11" class="edge">
<title>10&#45;&gt;11</title>
<path fill="none" stroke="black" d="M557.21,-88.68C556.88,-80.81 556.52,-72.37 556.18,-64.35"/>
<polygon fill="black" stroke="black" points="559.64,-64.24 555.72,-54.39 552.65,-64.53 559.64,-64.24"/>
</g>
<!-- 12 -->
<g id="node13" class="node">
<title>12</title>
<path fill="#f5cdb0" stroke="black" d="M785.75,-53C785.75,-53 659.5,-53 659.5,-53 653.5,-53 647.5,-47 647.5,-41 647.5,-41 647.5,-12 647.5,-12 647.5,-6 653.5,0 659.5,0 659.5,0 785.75,0 785.75,0 791.75,0 797.75,-6 797.75,-12 797.75,-12 797.75,-41 797.75,-41 797.75,-47 791.75,-53 785.75,-53"/>
<text text-anchor="start" x="655.5" y="-35.7" font-family="Helvetica,sans-Serif" font-size="14.00">squared_error = 7.825</text>
<text text-anchor="start" x="681.75" y="-20.7" font-family="Helvetica,sans-Serif" font-size="14.00">samples = 31</text>
<text text-anchor="start" x="678" y="-5.7" font-family="Helvetica,sans-Serif" font-size="14.00">value = 25.935</text>
</g>
<!-- 10&#45;&gt;12 -->
<g id="edge12" class="edge">
<title>10&#45;&gt;12</title>
<path fill="none" stroke="black" d="M616.45,-88.68C633.41,-78.91 651.89,-68.26 668.6,-58.63"/>
<polygon fill="black" stroke="black" points="669.77,-61.42 676.69,-53.39 666.28,-55.35 669.77,-61.42"/>
</g>
<!-- 14 -->
<g id="node15" class="node">
<title>14</title>
<path fill="#fae7da" stroke="black" d="M1373.75,-261C1373.75,-261 1247.5,-261 1247.5,-261 1241.5,-261 1235.5,-255 1235.5,-249 1235.5,-249 1235.5,-205 1235.5,-205 1235.5,-199 1241.5,-193 1247.5,-193 1247.5,-193 1373.75,-193 1373.75,-193 1379.75,-193 1385.75,-199 1385.75,-205 1385.75,-205 1385.75,-249 1385.75,-249 1385.75,-255 1379.75,-261 1373.75,-261"/>
<text text-anchor="start" x="1275" y="-243.7" font-family="Helvetica,sans-Serif" font-size="14.00">age ≤ 82.55</text>
<text text-anchor="start" x="1243.5" y="-228.7" font-family="Helvetica,sans-Serif" font-size="14.00">squared_error = 9.401</text>
<text text-anchor="start" x="1269.75" y="-213.7" font-family="Helvetica,sans-Serif" font-size="14.00">samples = 75</text>
<text text-anchor="start" x="1266" y="-198.7" font-family="Helvetica,sans-Serif" font-size="14.00">value = 17.449</text>
</g>
<!-- 13&#45;&gt;14 -->
<g id="edge14" class="edge">
<title>13&#45;&gt;14</title>
<path fill="none" stroke="black" d="M1449.17,-296.6C1429.61,-286.91 1408.1,-276.26 1387.98,-266.3"/>
<polygon fill="black" stroke="black" points="1389.74,-262.77 1379.23,-261.47 1386.64,-269.05 1389.74,-262.77"/>
</g>
<!-- 21 -->
<g id="node22" class="node">
<title>21</title>
<path fill="#fef9f5" stroke="black" d="M1706.5,-261C1706.5,-261 1572.75,-261 1572.75,-261 1566.75,-261 1560.75,-255 1560.75,-249 1560.75,-249 1560.75,-205 1560.75,-205 1560.75,-199 1566.75,-193 1572.75,-193 1572.75,-193 1706.5,-193 1706.5,-193 1712.5,-193 1718.5,-199 1718.5,-205 1718.5,-205 1718.5,-249 1718.5,-249 1718.5,-255 1712.5,-261 1706.5,-261"/>
<text text-anchor="start" x="1604.38" y="-243.7" font-family="Helvetica,sans-Serif" font-size="14.00">nox ≤ 0.606</text>
<text text-anchor="start" x="1568.75" y="-228.7" font-family="Helvetica,sans-Serif" font-size="14.00">squared_error = 14.818</text>
<text text-anchor="start" x="1598.75" y="-213.7" font-family="Helvetica,sans-Serif" font-size="14.00">samples = 65</text>
<text text-anchor="start" x="1595" y="-198.7" font-family="Helvetica,sans-Serif" font-size="14.00">value = 11.957</text>
</g>
<!-- 13&#45;&gt;21 -->
<g id="edge21" class="edge">
<title>13&#45;&gt;21</title>
<path fill="none" stroke="black" d="M1556.9,-296.6C1567.73,-287.62 1579.56,-277.81 1590.8,-268.49"/>
<polygon fill="black" stroke="black" points="1592.8,-270.55 1598.26,-261.47 1588.33,-265.16 1592.8,-270.55"/>
</g>
<!-- 15 -->
<g id="node16" class="node">
<title>15</title>
<path fill="#f8ddc9" stroke="black" d="M1121.75,-157C1121.75,-157 995.5,-157 995.5,-157 989.5,-157 983.5,-151 983.5,-145 983.5,-145 983.5,-101 983.5,-101 983.5,-95 989.5,-89 995.5,-89 995.5,-89 1121.75,-89 1121.75,-89 1127.75,-89 1133.75,-95 1133.75,-101 1133.75,-101 1133.75,-145 1133.75,-145 1133.75,-151 1127.75,-157 1121.75,-157"/>
<text text-anchor="start" x="1025.25" y="-139.7" font-family="Helvetica,sans-Serif" font-size="14.00">tax ≤ 290.5</text>
<text text-anchor="start" x="991.5" y="-124.7" font-family="Helvetica,sans-Serif" font-size="14.00">squared_error = 4.974</text>
<text text-anchor="start" x="1017.75" y="-109.7" font-family="Helvetica,sans-Serif" font-size="14.00">samples = 15</text>
<text text-anchor="start" x="1014" y="-94.7" font-family="Helvetica,sans-Serif" font-size="14.00">value = 20.827</text>
</g>
<!-- 14&#45;&gt;15 -->
<g id="edge15" class="edge">
<title>14&#45;&gt;15</title>
<path fill="none" stroke="black" d="M1235.02,-195.4C1206.36,-183.8 1173.54,-170.51 1144.05,-158.57"/>
<polygon fill="black" stroke="black" points="1145.76,-155.09 1135.18,-154.58 1143.14,-161.58 1145.76,-155.09"/>
</g>
<!-- 18 -->
<g id="node19" class="node">
<title>18</title>
<path fill="#fbeade" stroke="black" d="M1373.75,-157C1373.75,-157 1247.5,-157 1247.5,-157 1241.5,-157 1235.5,-151 1235.5,-145 1235.5,-145 1235.5,-101 1235.5,-101 1235.5,-95 1241.5,-89 1247.5,-89 1247.5,-89 1373.75,-89 1373.75,-89 1379.75,-89 1385.75,-95 1385.75,-101 1385.75,-101 1385.75,-145 1385.75,-145 1385.75,-151 1379.75,-157 1373.75,-157"/>
<text text-anchor="start" x="1273.12" y="-139.7" font-family="Helvetica,sans-Serif" font-size="14.00">crim ≤ 0.615</text>
<text text-anchor="start" x="1243.5" y="-124.7" font-family="Helvetica,sans-Serif" font-size="14.00">squared_error = 6.943</text>
<text text-anchor="start" x="1269.75" y="-109.7" font-family="Helvetica,sans-Serif" font-size="14.00">samples = 60</text>
<text text-anchor="start" x="1266" y="-94.7" font-family="Helvetica,sans-Serif" font-size="14.00">value = 16.605</text>
</g>
<!-- 14&#45;&gt;18 -->
<g id="edge18" class="edge">
<title>14&#45;&gt;18</title>
<path fill="none" stroke="black" d="M1310.62,-192.6C1310.62,-184.85 1310.62,-176.49 1310.62,-168.35"/>
<polygon fill="black" stroke="black" points="1314.13,-168.47 1310.62,-158.47 1307.13,-168.47 1314.13,-168.47"/>
</g>
<!-- 16 -->
<g id="node17" class="node">
<title>16</title>
<path fill="#f6d5bd" stroke="black" d="M953.75,-53C953.75,-53 827.5,-53 827.5,-53 821.5,-53 815.5,-47 815.5,-41 815.5,-41 815.5,-12 815.5,-12 815.5,-6 821.5,0 827.5,0 827.5,0 953.75,0 953.75,0 959.75,0 965.75,-6 965.75,-12 965.75,-12 965.75,-41 965.75,-41 965.75,-47 959.75,-53 953.75,-53"/>
<text text-anchor="start" x="823.5" y="-35.7" font-family="Helvetica,sans-Serif" font-size="14.00">squared_error = 0.702</text>
<text text-anchor="start" x="853.5" y="-20.7" font-family="Helvetica,sans-Serif" font-size="14.00">samples = 4</text>
<text text-anchor="start" x="849.75" y="-5.7" font-family="Helvetica,sans-Serif" font-size="14.00">value = 23.25</text>
</g>
<!-- 15&#45;&gt;16 -->
<g id="edge16" class="edge">
<title>15&#45;&gt;16</title>
<path fill="none" stroke="black" d="M999.39,-88.68C982.02,-78.91 963.09,-68.26 945.96,-58.63"/>
<polygon fill="black" stroke="black" points="948.09,-55.25 937.66,-53.39 944.66,-61.35 948.09,-55.25"/>
</g>
<!-- 17 -->
<g id="node18" class="node">
<title>17</title>
<path fill="#f8dfcd" stroke="black" d="M1121.75,-53C1121.75,-53 995.5,-53 995.5,-53 989.5,-53 983.5,-47 983.5,-41 983.5,-41 983.5,-12 983.5,-12 983.5,-6 989.5,0 995.5,0 995.5,0 1121.75,0 1121.75,0 1127.75,0 1133.75,-6 1133.75,-12 1133.75,-12 1133.75,-41 1133.75,-41 1133.75,-47 1127.75,-53 1121.75,-53"/>
<text text-anchor="start" x="991.5" y="-35.7" font-family="Helvetica,sans-Serif" font-size="14.00">squared_error = 3.615</text>
<text text-anchor="start" x="1017.75" y="-20.7" font-family="Helvetica,sans-Serif" font-size="14.00">samples = 11</text>
<text text-anchor="start" x="1014" y="-5.7" font-family="Helvetica,sans-Serif" font-size="14.00">value = 19.945</text>
</g>
<!-- 15&#45;&gt;17 -->
<g id="edge17" class="edge">
<title>15&#45;&gt;17</title>
<path fill="none" stroke="black" d="M1058.62,-88.68C1058.62,-80.81 1058.62,-72.37 1058.62,-64.35"/>
<polygon fill="black" stroke="black" points="1062.13,-64.39 1058.62,-54.39 1055.13,-64.39 1062.13,-64.39"/>
</g>
<!-- 19 -->
<g id="node20" class="node">
<title>19</title>
<path fill="#fae6d8" stroke="black" d="M1289.75,-53C1289.75,-53 1163.5,-53 1163.5,-53 1157.5,-53 1151.5,-47 1151.5,-41 1151.5,-41 1151.5,-12 1151.5,-12 1151.5,-6 1157.5,0 1163.5,0 1163.5,0 1289.75,0 1289.75,0 1295.75,0 1301.75,-6 1301.75,-12 1301.75,-12 1301.75,-41 1301.75,-41 1301.75,-47 1295.75,-53 1289.75,-53"/>
<text text-anchor="start" x="1159.5" y="-35.7" font-family="Helvetica,sans-Serif" font-size="14.00">squared_error = 8.012</text>
<text text-anchor="start" x="1185.75" y="-20.7" font-family="Helvetica,sans-Serif" font-size="14.00">samples = 26</text>
<text text-anchor="start" x="1182" y="-5.7" font-family="Helvetica,sans-Serif" font-size="14.00">value = 17.827</text>
</g>
<!-- 18&#45;&gt;19 -->
<g id="edge19" class="edge">
<title>18&#45;&gt;19</title>
<path fill="none" stroke="black" d="M1281.01,-88.68C1273.21,-79.9 1264.78,-70.42 1256.94,-61.6"/>
<polygon fill="black" stroke="black" points="1259.9,-59.54 1250.64,-54.39 1254.67,-64.19 1259.9,-59.54"/>
</g>
<!-- 20 -->
<g id="node21" class="node">
<title>20</title>
<path fill="#fbede3" stroke="black" d="M1457.38,-53C1457.38,-53 1331.88,-53 1331.88,-53 1325.88,-53 1319.88,-47 1319.88,-41 1319.88,-41 1319.88,-12 1319.88,-12 1319.88,-6 1325.88,0 1331.88,0 1331.88,0 1457.38,0 1457.38,0 1463.38,0 1469.38,-6 1469.38,-12 1469.38,-12 1469.38,-41 1469.38,-41 1469.38,-47 1463.38,-53 1457.38,-53"/>
<text text-anchor="start" x="1327.88" y="-35.7" font-family="Helvetica,sans-Serif" font-size="14.00">squared_error = 4.111</text>
<text text-anchor="start" x="1353.75" y="-20.7" font-family="Helvetica,sans-Serif" font-size="14.00">samples = 34</text>
<text text-anchor="start" x="1350" y="-5.7" font-family="Helvetica,sans-Serif" font-size="14.00">value = 15.671</text>
</g>
<!-- 18&#45;&gt;20 -->
<g id="edge20" class="edge">
<title>18&#45;&gt;20</title>
<path fill="none" stroke="black" d="M1340.24,-88.68C1348.04,-79.9 1356.47,-70.42 1364.31,-61.6"/>
<polygon fill="black" stroke="black" points="1366.58,-64.19 1370.61,-54.39 1361.35,-59.54 1366.58,-64.19"/>
</g>
<!-- 22 -->
<g id="node23" class="node">
<title>22</title>
<path fill="#fae8db" stroke="black" d="M1706.5,-157C1706.5,-157 1572.75,-157 1572.75,-157 1566.75,-157 1560.75,-151 1560.75,-145 1560.75,-145 1560.75,-101 1560.75,-101 1560.75,-95 1566.75,-89 1572.75,-89 1572.75,-89 1706.5,-89 1706.5,-89 1712.5,-89 1718.5,-95 1718.5,-101 1718.5,-101 1718.5,-145 1718.5,-145 1718.5,-151 1712.5,-157 1706.5,-157"/>
<text text-anchor="start" x="1607" y="-139.7" font-family="Helvetica,sans-Serif" font-size="14.00">rm ≤ 6.843</text>
<text text-anchor="start" x="1568.75" y="-124.7" font-family="Helvetica,sans-Serif" font-size="14.00">squared_error = 16.192</text>
<text text-anchor="start" x="1598.75" y="-109.7" font-family="Helvetica,sans-Serif" font-size="14.00">samples = 11</text>
<text text-anchor="start" x="1595" y="-94.7" font-family="Helvetica,sans-Serif" font-size="14.00">value = 17.218</text>
</g>
<!-- 21&#45;&gt;22 -->
<g id="edge22" class="edge">
<title>21&#45;&gt;22</title>
<path fill="none" stroke="black" d="M1639.62,-192.6C1639.62,-184.85 1639.62,-176.49 1639.62,-168.35"/>
<polygon fill="black" stroke="black" points="1643.13,-168.47 1639.62,-158.47 1636.13,-168.47 1643.13,-168.47"/>
</g>
<!-- 25 -->
<g id="node26" class="node">
<title>25</title>
<path fill="#fefcfa" stroke="black" d="M1951.75,-157C1951.75,-157 1825.5,-157 1825.5,-157 1819.5,-157 1813.5,-151 1813.5,-145 1813.5,-145 1813.5,-101 1813.5,-101 1813.5,-95 1819.5,-89 1825.5,-89 1825.5,-89 1951.75,-89 1951.75,-89 1957.75,-89 1963.75,-95 1963.75,-101 1963.75,-101 1963.75,-145 1963.75,-145 1963.75,-151 1957.75,-157 1951.75,-157"/>
<text text-anchor="start" x="1851.88" y="-139.7" font-family="Helvetica,sans-Serif" font-size="14.00">lstat ≤ 19.54</text>
<text text-anchor="start" x="1821.5" y="-124.7" font-family="Helvetica,sans-Serif" font-size="14.00">squared_error = 7.751</text>
<text text-anchor="start" x="1847.75" y="-109.7" font-family="Helvetica,sans-Serif" font-size="14.00">samples = 54</text>
<text text-anchor="start" x="1844" y="-94.7" font-family="Helvetica,sans-Serif" font-size="14.00">value = 10.885</text>
</g>
<!-- 21&#45;&gt;25 -->
<g id="edge25" class="edge">
<title>21&#45;&gt;25</title>
<path fill="none" stroke="black" d="M1718.75,-193.59C1745.64,-182.57 1775.8,-170.22 1803.16,-159.01"/>
<polygon fill="black" stroke="black" points="1804.17,-161.97 1812.1,-154.94 1801.52,-155.49 1804.17,-161.97"/>
</g>
<!-- 23 -->
<g id="node24" class="node">
<title>23</title>
<path fill="#fbebe0" stroke="black" d="M1625.75,-53C1625.75,-53 1499.5,-53 1499.5,-53 1493.5,-53 1487.5,-47 1487.5,-41 1487.5,-41 1487.5,-12 1487.5,-12 1487.5,-6 1493.5,0 1499.5,0 1499.5,0 1625.75,0 1625.75,0 1631.75,0 1637.75,-6 1637.75,-12 1637.75,-12 1637.75,-41 1637.75,-41 1637.75,-47 1631.75,-53 1625.75,-53"/>
<text text-anchor="start" x="1495.5" y="-35.7" font-family="Helvetica,sans-Serif" font-size="14.00">squared_error = 6.183</text>
<text text-anchor="start" x="1521.75" y="-20.7" font-family="Helvetica,sans-Serif" font-size="14.00">samples = 10</text>
<text text-anchor="start" x="1521.75" y="-5.7" font-family="Helvetica,sans-Serif" font-size="14.00">value = 16.19</text>
</g>
<!-- 22&#45;&gt;23 -->
<g id="edge23" class="edge">
<title>22&#45;&gt;23</title>
<path fill="none" stroke="black" d="M1612.48,-88.68C1605.4,-79.99 1597.76,-70.62 1590.63,-61.87"/>
<polygon fill="black" stroke="black" points="1592.75,-59.94 1583.72,-54.39 1587.33,-64.36 1592.75,-59.94"/>
</g>
<!-- 24 -->
<g id="node25" class="node">
<title>24</title>
<path fill="#f4c8a8" stroke="black" d="M1783.5,-53C1783.5,-53 1667.75,-53 1667.75,-53 1661.75,-53 1655.75,-47 1655.75,-41 1655.75,-41 1655.75,-12 1655.75,-12 1655.75,-6 1661.75,0 1667.75,0 1667.75,0 1783.5,0 1783.5,0 1789.5,0 1795.5,-6 1795.5,-12 1795.5,-12 1795.5,-41 1795.5,-41 1795.5,-47 1789.5,-53 1783.5,-53"/>
<text text-anchor="start" x="1663.75" y="-35.7" font-family="Helvetica,sans-Serif" font-size="14.00">squared_error = &#45;0.0</text>
<text text-anchor="start" x="1688.5" y="-20.7" font-family="Helvetica,sans-Serif" font-size="14.00">samples = 1</text>
<text text-anchor="start" x="1688.5" y="-5.7" font-family="Helvetica,sans-Serif" font-size="14.00">value = 27.5</text>
</g>
<!-- 22&#45;&gt;24 -->
<g id="edge24" class="edge">
<title>22&#45;&gt;24</title>
<path fill="none" stroke="black" d="M1669.95,-88.68C1678.02,-79.81 1686.74,-70.23 1694.84,-61.33"/>
<polygon fill="black" stroke="black" points="1696.92,-64.15 1701.06,-54.39 1691.74,-59.43 1696.92,-64.15"/>
</g>
<!-- 26 -->
<g id="node27" class="node">
<title>26</title>
<path fill="#fdf4ee" stroke="black" d="M1951.75,-53C1951.75,-53 1825.5,-53 1825.5,-53 1819.5,-53 1813.5,-47 1813.5,-41 1813.5,-41 1813.5,-12 1813.5,-12 1813.5,-6 1819.5,0 1825.5,0 1825.5,0 1951.75,0 1951.75,0 1957.75,0 1963.75,-6 1963.75,-12 1963.75,-12 1963.75,-41 1963.75,-41 1963.75,-47 1957.75,-53 1951.75,-53"/>
<text text-anchor="start" x="1821.5" y="-35.7" font-family="Helvetica,sans-Serif" font-size="14.00">squared_error = 3.043</text>
<text text-anchor="start" x="1847.75" y="-20.7" font-family="Helvetica,sans-Serif" font-size="14.00">samples = 15</text>
<text text-anchor="start" x="1844" y="-5.7" font-family="Helvetica,sans-Serif" font-size="14.00">value = 13.407</text>
</g>
<!-- 25&#45;&gt;26 -->
<g id="edge26" class="edge">
<title>25&#45;&gt;26</title>
<path fill="none" stroke="black" d="M1888.62,-88.68C1888.62,-80.81 1888.62,-72.37 1888.62,-64.35"/>
<polygon fill="black" stroke="black" points="1892.13,-64.39 1888.62,-54.39 1885.13,-64.39 1892.13,-64.39"/>
</g>
<!-- 27 -->
<g id="node28" class="node">
<title>27</title>
<path fill="#ffffff" stroke="black" d="M2119.75,-53C2119.75,-53 1993.5,-53 1993.5,-53 1987.5,-53 1981.5,-47 1981.5,-41 1981.5,-41 1981.5,-12 1981.5,-12 1981.5,-6 1987.5,0 1993.5,0 1993.5,0 2119.75,0 2119.75,0 2125.75,0 2131.75,-6 2131.75,-12 2131.75,-12 2131.75,-41 2131.75,-41 2131.75,-47 2125.75,-53 2119.75,-53"/>
<text text-anchor="start" x="1989.5" y="-35.7" font-family="Helvetica,sans-Serif" font-size="14.00">squared_error = 6.175</text>
<text text-anchor="start" x="2015.75" y="-20.7" font-family="Helvetica,sans-Serif" font-size="14.00">samples = 39</text>
<text text-anchor="start" x="2015.75" y="-5.7" font-family="Helvetica,sans-Serif" font-size="14.00">value = 9.915</text>
</g>
<!-- 25&#45;&gt;27 -->
<g id="edge27" class="edge">
<title>25&#45;&gt;27</title>
<path fill="none" stroke="black" d="M1947.86,-88.68C1965.23,-78.91 1984.16,-68.26 2001.29,-58.63"/>
<polygon fill="black" stroke="black" points="2002.59,-61.35 2009.59,-53.39 1999.16,-55.25 2002.59,-61.35"/>
</g>
<!-- 29 -->
<g id="node30" class="node">
<title>29</title>
<path fill="#f0b88f" stroke="black" d="M2686.5,-365C2686.5,-365 2552.75,-365 2552.75,-365 2546.75,-365 2540.75,-359 2540.75,-353 2540.75,-353 2540.75,-309 2540.75,-309 2540.75,-303 2546.75,-297 2552.75,-297 2552.75,-297 2686.5,-297 2686.5,-297 2692.5,-297 2698.5,-303 2698.5,-309 2698.5,-309 2698.5,-353 2698.5,-353 2698.5,-359 2692.5,-365 2686.5,-365"/>
<text text-anchor="start" x="2584.38" y="-347.7" font-family="Helvetica,sans-Serif" font-size="14.00">nox ≤ 0.659</text>
<text text-anchor="start" x="2548.75" y="-332.7" font-family="Helvetica,sans-Serif" font-size="14.00">squared_error = 38.152</text>
<text text-anchor="start" x="2578.75" y="-317.7" font-family="Helvetica,sans-Serif" font-size="14.00">samples = 35</text>
<text text-anchor="start" x="2575" y="-302.7" font-family="Helvetica,sans-Serif" font-size="14.00">value = 32.509</text>
</g>
<!-- 28&#45;&gt;29 -->
<g id="edge29" class="edge">
<title>28&#45;&gt;29</title>
<path fill="none" stroke="black" d="M2619.62,-400.6C2619.62,-392.85 2619.62,-384.49 2619.62,-376.35"/>
<polygon fill="black" stroke="black" points="2623.13,-376.47 2619.62,-366.47 2616.13,-376.47 2623.13,-376.47"/>
</g>
<!-- 40 -->
<g id="node41" class="node">
<title>40</title>
<path fill="#e99356" stroke="black" d="M3087.5,-365C3087.5,-365 2953.75,-365 2953.75,-365 2947.75,-365 2941.75,-359 2941.75,-353 2941.75,-353 2941.75,-309 2941.75,-309 2941.75,-303 2947.75,-297 2953.75,-297 2953.75,-297 3087.5,-297 3087.5,-297 3093.5,-297 3099.5,-303 3099.5,-309 3099.5,-309 3099.5,-353 3099.5,-353 3099.5,-359 3093.5,-365 3087.5,-365"/>
<text text-anchor="start" x="2988" y="-347.7" font-family="Helvetica,sans-Serif" font-size="14.00">rm ≤ 8.753</text>
<text text-anchor="start" x="2949.75" y="-332.7" font-family="Helvetica,sans-Serif" font-size="14.00">squared_error = 48.869</text>
<text text-anchor="start" x="2979.75" y="-317.7" font-family="Helvetica,sans-Serif" font-size="14.00">samples = 20</text>
<text text-anchor="start" x="2976" y="-302.7" font-family="Helvetica,sans-Serif" font-size="14.00">value = 44.195</text>
</g>
<!-- 28&#45;&gt;40 -->
<g id="edge40" class="edge">
<title>28&#45;&gt;40</title>
<path fill="none" stroke="black" d="M2698.85,-413.85C2765.72,-396.84 2861.41,-372.5 2931.05,-354.78"/>
<polygon fill="black" stroke="black" points="2931.74,-357.97 2940.56,-352.11 2930.01,-351.18 2931.74,-357.97"/>
</g>
<!-- 30 -->
<g id="node31" class="node">
<title>30</title>
<path fill="#f0b58b" stroke="black" d="M2602.5,-261C2602.5,-261 2468.75,-261 2468.75,-261 2462.75,-261 2456.75,-255 2456.75,-249 2456.75,-249 2456.75,-205 2456.75,-205 2456.75,-199 2462.75,-193 2468.75,-193 2468.75,-193 2602.5,-193 2602.5,-193 2608.5,-193 2614.5,-199 2614.5,-205 2614.5,-205 2614.5,-249 2614.5,-249 2614.5,-255 2608.5,-261 2602.5,-261"/>
<text text-anchor="start" x="2502.62" y="-243.7" font-family="Helvetica,sans-Serif" font-size="14.00">dis ≤ 1.886</text>
<text text-anchor="start" x="2464.75" y="-228.7" font-family="Helvetica,sans-Serif" font-size="14.00">squared_error = 23.666</text>
<text text-anchor="start" x="2494.75" y="-213.7" font-family="Helvetica,sans-Serif" font-size="14.00">samples = 33</text>
<text text-anchor="start" x="2491" y="-198.7" font-family="Helvetica,sans-Serif" font-size="14.00">value = 33.485</text>
</g>
<!-- 29&#45;&gt;30 -->
<g id="edge30" class="edge">
<title>29&#45;&gt;30</title>
<path fill="none" stroke="black" d="M2592.12,-296.6C2585.09,-288.06 2577.43,-278.77 2570.1,-269.86"/>
<polygon fill="black" stroke="black" points="2572.25,-267.97 2563.19,-262.47 2566.85,-272.42 2572.25,-267.97"/>
</g>
<!-- 37 -->
<g id="node38" class="node">
<title>37</title>
<path fill="#fbebdf" stroke="black" d="M2763,-261C2763,-261 2644.25,-261 2644.25,-261 2638.25,-261 2632.25,-255 2632.25,-249 2632.25,-249 2632.25,-205 2632.25,-205 2632.25,-199 2638.25,-193 2644.25,-193 2644.25,-193 2763,-193 2763,-193 2769,-193 2775,-199 2775,-205 2775,-205 2775,-249 2775,-249 2775,-255 2769,-261 2763,-261"/>
<text text-anchor="start" x="2662.38" y="-243.7" font-family="Helvetica,sans-Serif" font-size="14.00">crim ≤ 13.929</text>
<text text-anchor="start" x="2640.25" y="-228.7" font-family="Helvetica,sans-Serif" font-size="14.00">squared_error = 1.96</text>
<text text-anchor="start" x="2666.5" y="-213.7" font-family="Helvetica,sans-Serif" font-size="14.00">samples = 2</text>
<text text-anchor="start" x="2666.5" y="-198.7" font-family="Helvetica,sans-Serif" font-size="14.00">value = 16.4</text>
</g>
<!-- 29&#45;&gt;37 -->
<g id="edge37" class="edge">
<title>29&#45;&gt;37</title>
<path fill="none" stroke="black" d="M2647.13,-296.6C2654.16,-288.06 2661.82,-278.77 2669.15,-269.86"/>
<polygon fill="black" stroke="black" points="2672.4,-272.42 2676.06,-262.47 2667,-267.97 2672.4,-272.42"/>
</g>
<!-- 31 -->
<g id="node32" class="node">
<title>31</title>
<path fill="#e88f4e" stroke="black" d="M2427.5,-157C2427.5,-157 2293.75,-157 2293.75,-157 2287.75,-157 2281.75,-151 2281.75,-145 2281.75,-145 2281.75,-101 2281.75,-101 2281.75,-95 2287.75,-89 2293.75,-89 2293.75,-89 2427.5,-89 2427.5,-89 2433.5,-89 2439.5,-95 2439.5,-101 2439.5,-101 2439.5,-145 2439.5,-145 2439.5,-151 2433.5,-157 2427.5,-157"/>
<text text-anchor="start" x="2320.12" y="-139.7" font-family="Helvetica,sans-Serif" font-size="14.00">indus ≤ 18.84</text>
<text text-anchor="start" x="2289.75" y="-124.7" font-family="Helvetica,sans-Serif" font-size="14.00">squared_error = 18.923</text>
<text text-anchor="start" x="2323.5" y="-109.7" font-family="Helvetica,sans-Serif" font-size="14.00">samples = 2</text>
<text text-anchor="start" x="2319.75" y="-94.7" font-family="Helvetica,sans-Serif" font-size="14.00">value = 45.65</text>
</g>
<!-- 30&#45;&gt;31 -->
<g id="edge31" class="edge">
<title>30&#45;&gt;31</title>
<path fill="none" stroke="black" d="M2478.32,-192.6C2462.01,-183.09 2444.09,-172.65 2427.27,-162.85"/>
<polygon fill="black" stroke="black" points="2429.46,-159.49 2419.06,-157.47 2425.93,-165.53 2429.46,-159.49"/>
</g>
<!-- 34 -->
<g id="node35" class="node">
<title>34</title>
<path fill="#f0b78e" stroke="black" d="M2603.5,-157C2603.5,-157 2469.75,-157 2469.75,-157 2463.75,-157 2457.75,-151 2457.75,-145 2457.75,-145 2457.75,-101 2457.75,-101 2457.75,-95 2463.75,-89 2469.75,-89 2469.75,-89 2603.5,-89 2603.5,-89 2609.5,-89 2615.5,-95 2615.5,-101 2615.5,-101 2615.5,-145 2615.5,-145 2615.5,-151 2609.5,-157 2603.5,-157"/>
<text text-anchor="start" x="2503.25" y="-139.7" font-family="Helvetica,sans-Serif" font-size="14.00">tax ≤ 267.0</text>
<text text-anchor="start" x="2465.75" y="-124.7" font-family="Helvetica,sans-Serif" font-size="14.00">squared_error = 13.808</text>
<text text-anchor="start" x="2495.75" y="-109.7" font-family="Helvetica,sans-Serif" font-size="14.00">samples = 31</text>
<text text-anchor="start" x="2499.5" y="-94.7" font-family="Helvetica,sans-Serif" font-size="14.00">value = 32.7</text>
</g>
<!-- 30&#45;&gt;34 -->
<g id="edge34" class="edge">
<title>30&#45;&gt;34</title>
<path fill="none" stroke="black" d="M2535.95,-192.6C2536.03,-184.85 2536.11,-176.49 2536.19,-168.35"/>
<polygon fill="black" stroke="black" points="2539.7,-168.51 2536.3,-158.47 2532.7,-168.44 2539.7,-168.51"/>
</g>
<!-- 32 -->
<g id="node33" class="node">
<title>32</title>
<path fill="#e58139" stroke="black" d="M2273.25,-53C2273.25,-53 2162,-53 2162,-53 2156,-53 2150,-47 2150,-41 2150,-41 2150,-12 2150,-12 2150,-6 2156,0 2162,0 2162,0 2273.25,0 2273.25,0 2279.25,0 2285.25,-6 2285.25,-12 2285.25,-12 2285.25,-41 2285.25,-41 2285.25,-47 2279.25,-53 2273.25,-53"/>
<text text-anchor="start" x="2158" y="-35.7" font-family="Helvetica,sans-Serif" font-size="14.00">squared_error = 0.0</text>
<text text-anchor="start" x="2180.5" y="-20.7" font-family="Helvetica,sans-Serif" font-size="14.00">samples = 1</text>
<text text-anchor="start" x="2180.5" y="-5.7" font-family="Helvetica,sans-Serif" font-size="14.00">value = 50.0</text>
</g>
<!-- 31&#45;&gt;32 -->
<g id="edge32" class="edge">
<title>31&#45;&gt;32</title>
<path fill="none" stroke="black" d="M2310.21,-88.68C2295.83,-79.18 2280.2,-68.85 2265.95,-59.43"/>
<polygon fill="black" stroke="black" points="2268.08,-55.99 2257.81,-53.39 2264.22,-61.83 2268.08,-55.99"/>
</g>
<!-- 33 -->
<g id="node34" class="node">
<title>33</title>
<path fill="#eb9c64" stroke="black" d="M2431.5,-53C2431.5,-53 2315.75,-53 2315.75,-53 2309.75,-53 2303.75,-47 2303.75,-41 2303.75,-41 2303.75,-12 2303.75,-12 2303.75,-6 2309.75,0 2315.75,0 2315.75,0 2431.5,0 2431.5,0 2437.5,0 2443.5,-6 2443.5,-12 2443.5,-12 2443.5,-41 2443.5,-41 2443.5,-47 2437.5,-53 2431.5,-53"/>
<text text-anchor="start" x="2311.75" y="-35.7" font-family="Helvetica,sans-Serif" font-size="14.00">squared_error = &#45;0.0</text>
<text text-anchor="start" x="2336.5" y="-20.7" font-family="Helvetica,sans-Serif" font-size="14.00">samples = 1</text>
<text text-anchor="start" x="2336.5" y="-5.7" font-family="Helvetica,sans-Serif" font-size="14.00">value = 41.3</text>
</g>
<!-- 31&#45;&gt;33 -->
<g id="edge33" class="edge">
<title>31&#45;&gt;33</title>
<path fill="none" stroke="black" d="M2365.21,-88.68C2366.3,-80.72 2367.48,-72.17 2368.59,-64.07"/>
<polygon fill="black" stroke="black" points="2372.17,-64.78 2370.06,-54.39 2365.23,-63.82 2372.17,-64.78"/>
</g>
<!-- 35 -->
<g id="node36" class="node">
<title>35</title>
<path fill="#efb083" stroke="black" d="M2599.75,-53C2599.75,-53 2473.5,-53 2473.5,-53 2467.5,-53 2461.5,-47 2461.5,-41 2461.5,-41 2461.5,-12 2461.5,-12 2461.5,-6 2467.5,0 2473.5,0 2473.5,0 2599.75,0 2599.75,0 2605.75,0 2611.75,-6 2611.75,-12 2611.75,-12 2611.75,-41 2611.75,-41 2611.75,-47 2605.75,-53 2599.75,-53"/>
<text text-anchor="start" x="2469.5" y="-35.7" font-family="Helvetica,sans-Serif" font-size="14.00">squared_error = 4.838</text>
<text text-anchor="start" x="2495.75" y="-20.7" font-family="Helvetica,sans-Serif" font-size="14.00">samples = 14</text>
<text text-anchor="start" x="2492" y="-5.7" font-family="Helvetica,sans-Serif" font-size="14.00">value = 34.943</text>
</g>
<!-- 34&#45;&gt;35 -->
<g id="edge35" class="edge">
<title>34&#45;&gt;35</title>
<path fill="none" stroke="black" d="M2536.62,-88.68C2536.62,-80.81 2536.62,-72.37 2536.62,-64.35"/>
<polygon fill="black" stroke="black" points="2540.13,-64.39 2536.62,-54.39 2533.13,-64.39 2540.13,-64.39"/>
</g>
<!-- 36 -->
<g id="node37" class="node">
<title>36</title>
<path fill="#f1bd98" stroke="black" d="M2767.75,-53C2767.75,-53 2641.5,-53 2641.5,-53 2635.5,-53 2629.5,-47 2629.5,-41 2629.5,-41 2629.5,-12 2629.5,-12 2629.5,-6 2635.5,0 2641.5,0 2641.5,0 2767.75,0 2767.75,0 2773.75,0 2779.75,-6 2779.75,-12 2779.75,-12 2779.75,-41 2779.75,-41 2779.75,-47 2773.75,-53 2767.75,-53"/>
<text text-anchor="start" x="2637.5" y="-35.7" font-family="Helvetica,sans-Serif" font-size="14.00">squared_error = 13.64</text>
<text text-anchor="start" x="2663.75" y="-20.7" font-family="Helvetica,sans-Serif" font-size="14.00">samples = 17</text>
<text text-anchor="start" x="2660" y="-5.7" font-family="Helvetica,sans-Serif" font-size="14.00">value = 30.853</text>
</g>
<!-- 34&#45;&gt;36 -->
<g id="edge36" class="edge">
<title>34&#45;&gt;36</title>
<path fill="none" stroke="black" d="M2595.86,-88.68C2613.23,-78.91 2632.16,-68.26 2649.29,-58.63"/>
<polygon fill="black" stroke="black" points="2650.59,-61.35 2657.59,-53.39 2647.16,-55.25 2650.59,-61.35"/>
</g>
<!-- 38 -->
<g id="node39" class="node">
<title>38</title>
<path fill="#fae6d8" stroke="black" d="M2758.25,-149.5C2758.25,-149.5 2647,-149.5 2647,-149.5 2641,-149.5 2635,-143.5 2635,-137.5 2635,-137.5 2635,-108.5 2635,-108.5 2635,-102.5 2641,-96.5 2647,-96.5 2647,-96.5 2758.25,-96.5 2758.25,-96.5 2764.25,-96.5 2770.25,-102.5 2770.25,-108.5 2770.25,-108.5 2770.25,-137.5 2770.25,-137.5 2770.25,-143.5 2764.25,-149.5 2758.25,-149.5"/>
<text text-anchor="start" x="2643" y="-132.2" font-family="Helvetica,sans-Serif" font-size="14.00">squared_error = 0.0</text>
<text text-anchor="start" x="2665.5" y="-117.2" font-family="Helvetica,sans-Serif" font-size="14.00">samples = 1</text>
<text text-anchor="start" x="2665.5" y="-102.2" font-family="Helvetica,sans-Serif" font-size="14.00">value = 17.8</text>
</g>
<!-- 37&#45;&gt;38 -->
<g id="edge38" class="edge">
<title>37&#45;&gt;38</title>
<path fill="none" stroke="black" d="M2703.3,-192.6C2703.2,-182.36 2703.09,-171.04 2702.98,-160.6"/>
<polygon fill="black" stroke="black" points="2706.47,-160.67 2702.88,-150.71 2699.48,-160.74 2706.47,-160.67"/>
</g>
<!-- 39 -->
<g id="node40" class="node">
<title>39</title>
<path fill="#fcefe6" stroke="black" d="M2911.25,-149.5C2911.25,-149.5 2800,-149.5 2800,-149.5 2794,-149.5 2788,-143.5 2788,-137.5 2788,-137.5 2788,-108.5 2788,-108.5 2788,-102.5 2794,-96.5 2800,-96.5 2800,-96.5 2911.25,-96.5 2911.25,-96.5 2917.25,-96.5 2923.25,-102.5 2923.25,-108.5 2923.25,-108.5 2923.25,-137.5 2923.25,-137.5 2923.25,-143.5 2917.25,-149.5 2911.25,-149.5"/>
<text text-anchor="start" x="2796" y="-132.2" font-family="Helvetica,sans-Serif" font-size="14.00">squared_error = 0.0</text>
<text text-anchor="start" x="2818.5" y="-117.2" font-family="Helvetica,sans-Serif" font-size="14.00">samples = 1</text>
<text text-anchor="start" x="2818.5" y="-102.2" font-family="Helvetica,sans-Serif" font-size="14.00">value = 15.0</text>
</g>
<!-- 37&#45;&gt;39 -->
<g id="edge39" class="edge">
<title>37&#45;&gt;39</title>
<path fill="none" stroke="black" d="M2753.4,-192.6C2771.09,-180.73 2790.95,-167.4 2808.42,-155.68"/>
<polygon fill="black" stroke="black" points="2809.96,-158.18 2816.32,-149.71 2806.06,-152.37 2809.96,-158.18"/>
</g>
<!-- 41 -->
<g id="node42" class="node">
<title>41</title>
<path fill="#e89050" stroke="black" d="M3087.5,-261C3087.5,-261 2953.75,-261 2953.75,-261 2947.75,-261 2941.75,-255 2941.75,-249 2941.75,-249 2941.75,-205 2941.75,-205 2941.75,-199 2947.75,-193 2953.75,-193 2953.75,-193 3087.5,-193 3087.5,-193 3093.5,-193 3099.5,-199 3099.5,-205 3099.5,-205 3099.5,-249 3099.5,-249 3099.5,-255 3093.5,-261 3087.5,-261"/>
<text text-anchor="start" x="2981.25" y="-243.7" font-family="Helvetica,sans-Serif" font-size="14.00">ptratio ≤ 17.6</text>
<text text-anchor="start" x="2949.75" y="-228.7" font-family="Helvetica,sans-Serif" font-size="14.00">squared_error = 23.903</text>
<text text-anchor="start" x="2979.75" y="-213.7" font-family="Helvetica,sans-Serif" font-size="14.00">samples = 19</text>
<text text-anchor="start" x="2976" y="-198.7" font-family="Helvetica,sans-Serif" font-size="14.00">value = 45.368</text>
</g>
<!-- 40&#45;&gt;41 -->
<g id="edge41" class="edge">
<title>40&#45;&gt;41</title>
<path fill="none" stroke="black" d="M3020.62,-296.6C3020.62,-288.85 3020.62,-280.49 3020.62,-272.35"/>
<polygon fill="black" stroke="black" points="3024.13,-272.47 3020.62,-262.47 3017.13,-272.47 3024.13,-272.47"/>
</g>
<!-- 48 -->
<g id="node49" class="node">
<title>48</title>
<path fill="#f7d9c4" stroke="black" d="M3241.25,-253.5C3241.25,-253.5 3130,-253.5 3130,-253.5 3124,-253.5 3118,-247.5 3118,-241.5 3118,-241.5 3118,-212.5 3118,-212.5 3118,-206.5 3124,-200.5 3130,-200.5 3130,-200.5 3241.25,-200.5 3241.25,-200.5 3247.25,-200.5 3253.25,-206.5 3253.25,-212.5 3253.25,-212.5 3253.25,-241.5 3253.25,-241.5 3253.25,-247.5 3247.25,-253.5 3241.25,-253.5"/>
<text text-anchor="start" x="3126" y="-236.2" font-family="Helvetica,sans-Serif" font-size="14.00">squared_error = 0.0</text>
<text text-anchor="start" x="3148.5" y="-221.2" font-family="Helvetica,sans-Serif" font-size="14.00">samples = 1</text>
<text text-anchor="start" x="3148.5" y="-206.2" font-family="Helvetica,sans-Serif" font-size="14.00">value = 21.9</text>
</g>
<!-- 40&#45;&gt;48 -->
<g id="edge48" class="edge">
<title>40&#45;&gt;48</title>
<path fill="none" stroke="black" d="M3074.65,-296.6C3093.96,-284.67 3115.63,-271.27 3134.67,-259.5"/>
<polygon fill="black" stroke="black" points="3136.11,-262.1 3142.78,-253.87 3132.43,-256.15 3136.11,-262.1"/>
</g>
<!-- 42 -->
<g id="node43" class="node">
<title>42</title>
<path fill="#e78a48" stroke="black" d="M3087.5,-157C3087.5,-157 2953.75,-157 2953.75,-157 2947.75,-157 2941.75,-151 2941.75,-145 2941.75,-145 2941.75,-101 2941.75,-101 2941.75,-95 2947.75,-89 2953.75,-89 2953.75,-89 3087.5,-89 3087.5,-89 3093.5,-89 3099.5,-95 3099.5,-101 3099.5,-101 3099.5,-145 3099.5,-145 3099.5,-151 3093.5,-157 3087.5,-157"/>
<text text-anchor="start" x="2983.12" y="-139.7" font-family="Helvetica,sans-Serif" font-size="14.00">crim ≤ 0.577</text>
<text text-anchor="start" x="2949.75" y="-124.7" font-family="Helvetica,sans-Serif" font-size="14.00">squared_error = 15.141</text>
<text text-anchor="start" x="2979.75" y="-109.7" font-family="Helvetica,sans-Serif" font-size="14.00">samples = 15</text>
<text text-anchor="start" x="2976" y="-94.7" font-family="Helvetica,sans-Serif" font-size="14.00">value = 47.033</text>
</g>
<!-- 41&#45;&gt;42 -->
<g id="edge42" class="edge">
<title>41&#45;&gt;42</title>
<path fill="none" stroke="black" d="M3020.62,-192.6C3020.62,-184.85 3020.62,-176.49 3020.62,-168.35"/>
<polygon fill="black" stroke="black" points="3024.13,-168.47 3020.62,-158.47 3017.13,-168.47 3024.13,-168.47"/>
</g>
<!-- 45 -->
<g id="node46" class="node">
<title>45</title>
<path fill="#eca36f" stroke="black" d="M3257.75,-157C3257.75,-157 3131.5,-157 3131.5,-157 3125.5,-157 3119.5,-151 3119.5,-145 3119.5,-145 3119.5,-101 3119.5,-101 3119.5,-95 3125.5,-89 3131.5,-89 3131.5,-89 3257.75,-89 3257.75,-89 3263.75,-89 3269.75,-95 3269.75,-101 3269.75,-101 3269.75,-145 3269.75,-145 3269.75,-151 3263.75,-157 3257.75,-157"/>
<text text-anchor="start" x="3162" y="-139.7" font-family="Helvetica,sans-Serif" font-size="14.00">rm ≤ 7.728</text>
<text text-anchor="start" x="3127.5" y="-124.7" font-family="Helvetica,sans-Serif" font-size="14.00">squared_error = 7.387</text>
<text text-anchor="start" x="3157.5" y="-109.7" font-family="Helvetica,sans-Serif" font-size="14.00">samples = 4</text>
<text text-anchor="start" x="3150" y="-94.7" font-family="Helvetica,sans-Serif" font-size="14.00">value = 39.125</text>
</g>
<!-- 41&#45;&gt;45 -->
<g id="edge45" class="edge">
<title>41&#45;&gt;45</title>
<path fill="none" stroke="black" d="M3077.6,-192.6C3093.82,-183.09 3111.63,-172.65 3128.36,-162.85"/>
<polygon fill="black" stroke="black" points="3129.67,-165.55 3136.52,-157.47 3126.13,-159.51 3129.67,-165.55"/>
</g>
<!-- 43 -->
<g id="node44" class="node">
<title>43</title>
<path fill="#e88e4d" stroke="black" d="M2943.5,-53C2943.5,-53 2809.75,-53 2809.75,-53 2803.75,-53 2797.75,-47 2797.75,-41 2797.75,-41 2797.75,-12 2797.75,-12 2797.75,-6 2803.75,0 2809.75,0 2809.75,0 2943.5,0 2943.5,0 2949.5,0 2955.5,-6 2955.5,-12 2955.5,-12 2955.5,-41 2955.5,-41 2955.5,-47 2949.5,-53 2943.5,-53"/>
<text text-anchor="start" x="2805.75" y="-35.7" font-family="Helvetica,sans-Serif" font-size="14.00">squared_error = 16.282</text>
<text text-anchor="start" x="2835.75" y="-20.7" font-family="Helvetica,sans-Serif" font-size="14.00">samples = 11</text>
<text text-anchor="start" x="2832" y="-5.7" font-family="Helvetica,sans-Serif" font-size="14.00">value = 45.955</text>
</g>
<!-- 42&#45;&gt;43 -->
<g id="edge43" class="edge">
<title>42&#45;&gt;43</title>
<path fill="none" stroke="black" d="M2969.86,-88.68C2955.24,-79.09 2939.34,-68.65 2924.88,-59.16"/>
<polygon fill="black" stroke="black" points="2927.36,-55.95 2917.08,-53.39 2923.52,-61.81 2927.36,-55.95"/>
</g>
<!-- 44 -->
<g id="node45" class="node">
<title>44</title>
<path fill="#e58139" stroke="black" d="M3097.25,-53C3097.25,-53 2986,-53 2986,-53 2980,-53 2974,-47 2974,-41 2974,-41 2974,-12 2974,-12 2974,-6 2980,0 2986,0 2986,0 3097.25,0 3097.25,0 3103.25,0 3109.25,-6 3109.25,-12 3109.25,-12 3109.25,-41 3109.25,-41 3109.25,-47 3103.25,-53 3097.25,-53"/>
<text text-anchor="start" x="2982" y="-35.7" font-family="Helvetica,sans-Serif" font-size="14.00">squared_error = 0.0</text>
<text text-anchor="start" x="3004.5" y="-20.7" font-family="Helvetica,sans-Serif" font-size="14.00">samples = 4</text>
<text text-anchor="start" x="3004.5" y="-5.7" font-family="Helvetica,sans-Serif" font-size="14.00">value = 50.0</text>
</g>
<!-- 42&#45;&gt;44 -->
<g id="edge44" class="edge">
<title>42&#45;&gt;44</title>
<path fill="none" stroke="black" d="M3028.03,-88.68C3029.8,-80.72 3031.7,-72.17 3033.5,-64.07"/>
<polygon fill="black" stroke="black" points="3037.12,-64.91 3035.87,-54.39 3030.28,-63.4 3037.12,-64.91"/>
</g>
<!-- 46 -->
<g id="node47" class="node">
<title>46</title>
<path fill="#efb082" stroke="black" d="M3250.25,-53C3250.25,-53 3139,-53 3139,-53 3133,-53 3127,-47 3127,-41 3127,-41 3127,-12 3127,-12 3127,-6 3133,0 3139,0 3139,0 3250.25,0 3250.25,0 3256.25,0 3262.25,-6 3262.25,-12 3262.25,-12 3262.25,-41 3262.25,-41 3262.25,-47 3256.25,-53 3250.25,-53"/>
<text text-anchor="start" x="3135" y="-35.7" font-family="Helvetica,sans-Serif" font-size="14.00">squared_error = 0.0</text>
<text text-anchor="start" x="3157.5" y="-20.7" font-family="Helvetica,sans-Serif" font-size="14.00">samples = 1</text>
<text text-anchor="start" x="3157.5" y="-5.7" font-family="Helvetica,sans-Serif" font-size="14.00">value = 35.2</text>
</g>
<!-- 45&#45;&gt;46 -->
<g id="edge46" class="edge">
<title>45&#45;&gt;46</title>
<path fill="none" stroke="black" d="M3194.62,-88.68C3194.62,-80.81 3194.62,-72.37 3194.62,-64.35"/>
<polygon fill="black" stroke="black" points="3198.13,-64.39 3194.62,-54.39 3191.13,-64.39 3198.13,-64.39"/>
</g>
<!-- 47 -->
<g id="node48" class="node">
<title>47</title>
<path fill="#eb9f68" stroke="black" d="M3418.75,-53C3418.75,-53 3292.5,-53 3292.5,-53 3286.5,-53 3280.5,-47 3280.5,-41 3280.5,-41 3280.5,-12 3280.5,-12 3280.5,-6 3286.5,0 3292.5,0 3292.5,0 3418.75,0 3418.75,0 3424.75,0 3430.75,-6 3430.75,-12 3430.75,-12 3430.75,-41 3430.75,-41 3430.75,-47 3424.75,-53 3418.75,-53"/>
<text text-anchor="start" x="3288.5" y="-35.7" font-family="Helvetica,sans-Serif" font-size="14.00">squared_error = 3.002</text>
<text text-anchor="start" x="3318.5" y="-20.7" font-family="Helvetica,sans-Serif" font-size="14.00">samples = 3</text>
<text text-anchor="start" x="3311" y="-5.7" font-family="Helvetica,sans-Serif" font-size="14.00">value = 40.433</text>
</g>
<!-- 45&#45;&gt;47 -->
<g id="edge47" class="edge">
<title>45&#45;&gt;47</title>
<path fill="none" stroke="black" d="M3251.39,-88.68C3267.89,-79 3285.84,-68.46 3302.13,-58.9"/>
<polygon fill="black" stroke="black" points="3303.66,-61.47 3310.51,-53.39 3300.11,-55.44 3303.66,-61.47"/>
</g>
</g>
</svg>