<?xml version="1.0" encoding="utf-8" standalone="no"?>
<!DOCTYPE svg PUBLIC "-//W3C//DTD SVG 1.1//EN"
  "http://www.w3.org/Graphics/SVG/1.1/DTD/svg11.dtd">
<svg xmlns:xlink="http://www.w3.org/1999/xlink" width="415.398172pt" height="333.344873pt" viewBox="0 0 415.398172 333.344873" xmlns="http://www.w3.org/2000/svg" version="1.1">
 <metadata>
  <rdf:RDF xmlns:dc="http://purl.org/dc/elements/1.1/" xmlns:cc="http://creativecommons.org/ns#" xmlns:rdf="http://www.w3.org/1999/02/22-rdf-syntax-ns#">
   <cc:Work>
    <dc:type rdf:resource="http://purl.org/dc/dcmitype/StillImage"/>
    <dc:date>2023-09-28T16:41:43.757379</dc:date>
    <dc:format>image/svg+xml</dc:format>
    <dc:creator>
     <cc:Agent>
      <dc:title>Matplotlib v3.7.1, https://matplotlib.org/</dc:title>
     </cc:Agent>
    </dc:creator>
   </cc:Work>
  </rdf:RDF>
 </metadata>
 <defs>
  <style type="text/css">*{stroke-linejoin: round; stroke-linecap: butt}</style>
 </defs>
 <g id="figure_1">
  <g id="patch_1">
   <path d="M 0 333.344873 
L 415.398172 333.344873 
L 415.398172 0 
L 0 0 
z
" style="fill: #ffffff"/>
  </g>
  <g id="axes_1">
   <g id="patch_2">
    <path d="M 51.078172 273.312 
L 408.198172 273.312 
L 408.198172 7.2 
L 51.078172 7.2 
z
" style="fill: #ffffff"/>
   </g>
   <g id="matplotlib.axis_1">
    <g id="xtick_1">
     <g id="line2d_1">
      <defs>
       <path id="m0017e5299c" d="M 0 0 
L 0 3.5 
" style="stroke: #000000; stroke-width: 0.8"/>
      </defs>
      <g>
       <use xlink:href="#m0017e5299c" x="122.337093" y="273.312" style="stroke: #000000; stroke-width: 0.8"/>
      </g>
     </g>
     <g id="text_1">
      <!-- $\mathdefault{2}$ -->
      <g transform="translate(116.854236 294.920305) scale(0.24 -0.24)">
       <defs>
        <path id="CMR17-32" d="M 2669 989 
L 2554 989 
C 2490 536 2438 459 2413 420 
C 2381 369 1920 369 1830 369 
L 602 369 
C 832 619 1280 1072 1824 1597 
C 2214 1967 2669 2402 2669 3035 
C 2669 3790 2067 4224 1395 4224 
C 691 4224 262 3604 262 3030 
C 262 2780 448 2748 525 2748 
C 589 2748 781 2787 781 3010 
C 781 3207 614 3264 525 3264 
C 486 3264 448 3258 422 3245 
C 544 3790 915 4058 1306 4058 
C 1862 4058 2227 3617 2227 3035 
C 2227 2479 1901 2000 1536 1584 
L 262 146 
L 262 0 
L 2515 0 
L 2669 989 
z
" transform="scale(0.015625)"/>
       </defs>
       <use xlink:href="#CMR17-32" transform="scale(0.996264)"/>
      </g>
     </g>
    </g>
    <g id="xtick_2">
     <g id="line2d_2">
      <g>
       <use xlink:href="#m0017e5299c" x="232.389481" y="273.312" style="stroke: #000000; stroke-width: 0.8"/>
      </g>
     </g>
     <g id="text_2">
      <!-- $\mathdefault{4}$ -->
      <g transform="translate(226.906624 294.920305) scale(0.24 -0.24)">
       <defs>
        <path id="CMR17-34" d="M 2150 4122 
C 2150 4256 2144 4256 2029 4256 
L 128 1254 
L 128 1088 
L 1779 1088 
L 1779 457 
C 1779 224 1766 160 1318 160 
L 1197 160 
L 1197 0 
C 1402 0 1747 0 1965 0 
C 2182 0 2528 0 2733 0 
L 2733 160 
L 2611 160 
C 2163 160 2150 224 2150 457 
L 2150 1088 
L 2803 1088 
L 2803 1254 
L 2150 1254 
L 2150 4122 
z
M 1798 3703 
L 1798 1254 
L 256 1254 
L 1798 3703 
z
" transform="scale(0.015625)"/>
       </defs>
       <use xlink:href="#CMR17-34" transform="scale(0.996264)"/>
      </g>
     </g>
    </g>
    <g id="xtick_3">
     <g id="line2d_3">
      <g>
       <use xlink:href="#m0017e5299c" x="342.44187" y="273.312" style="stroke: #000000; stroke-width: 0.8"/>
      </g>
     </g>
     <g id="text_3">
      <!-- $\mathdefault{6}$ -->
      <g transform="translate(336.959012 294.920305) scale(0.24 -0.24)">
       <defs>
        <path id="CMR17-36" d="M 678 2176 
C 678 3690 1395 4032 1811 4032 
C 1946 4032 2272 4009 2400 3776 
C 2298 3776 2106 3776 2106 3553 
C 2106 3381 2246 3323 2336 3323 
C 2394 3323 2566 3348 2566 3560 
C 2566 3954 2246 4179 1805 4179 
C 1043 4179 243 3390 243 1984 
C 243 253 966 -128 1478 -128 
C 2099 -128 2688 427 2688 1283 
C 2688 2081 2170 2662 1517 2662 
C 1126 2662 838 2407 678 1960 
L 678 2176 
z
M 1478 25 
C 691 25 691 1200 691 1436 
C 691 1896 909 2560 1504 2560 
C 1613 2560 1926 2560 2138 2120 
C 2253 1870 2253 1609 2253 1289 
C 2253 944 2253 690 2118 434 
C 1978 171 1773 25 1478 25 
z
" transform="scale(0.015625)"/>
       </defs>
       <use xlink:href="#CMR17-36" transform="scale(0.996264)"/>
      </g>
     </g>
    </g>
    <g id="text_4">
     <!-- petal length (cm) -->
     <g transform="translate(128.646453 320.832762) scale(0.24 -0.24)">
      <defs>
       <path id="SFTT3583-70" d="M 934 2325 
L 934 2573 
C 934 2688 902 2752 774 2752 
L 346 2752 
C 250 2752 173 2707 173 2605 
C 173 2503 250 2459 352 2459 
L 627 2459 
L 627 -1115 
L 333 -1115 
C 237 -1115 173 -1172 173 -1261 
C 173 -1370 256 -1408 352 -1408 
L 1203 -1408 
C 1299 -1408 1382 -1376 1382 -1261 
C 1382 -1172 1331 -1115 1229 -1115 
L 934 -1115 
L 934 459 
C 1107 210 1318 -32 1722 -32 
C 2432 -32 2848 729 2848 1407 
C 2848 1984 2528 2764 1869 2764 
L 1818 2764 
C 1453 2764 1158 2592 934 2325 
z
M 2528 1290 
C 2490 826 2195 261 1651 261 
C 1254 261 1018 631 934 975 
L 934 1866 
C 998 2206 1357 2496 1702 2496 
C 2253 2496 2534 1848 2534 1378 
C 2534 1347 2534 1322 2528 1290 
z
" transform="scale(0.015625)"/>
       <path id="SFTT3583-65" d="M 691 1287 
L 2573 1287 
C 2675 1287 2733 1338 2733 1447 
L 2733 1511 
C 2733 2163 2362 2816 1606 2816 
C 858 2816 378 2098 378 1405 
C 378 743 806 38 1606 -32 
L 1683 -32 
C 2106 -32 2592 208 2714 632 
C 2720 656 2726 682 2726 707 
C 2726 789 2662 827 2573 827 
C 2413 827 2419 689 2368 601 
C 2240 393 2003 261 1754 261 
C 1210 261 691 758 691 1287 
z
M 691 1536 
C 710 1620 717 1702 742 1786 
C 864 2177 1184 2516 1619 2516 
C 2157 2516 2419 2023 2419 1536 
L 691 1536 
z
" transform="scale(0.015625)"/>
       <path id="SFTT3583-74" d="M 960 2752 
L 486 2752 
C 442 2752 397 2752 352 2752 
C 224 2752 147 2709 147 2602 
C 147 2483 237 2459 320 2459 
L 960 2459 
L 960 637 
C 998 242 1261 -32 1683 -32 
C 2125 -32 2669 191 2669 751 
L 2669 898 
C 2669 993 2624 1076 2515 1076 
C 2413 1076 2362 1006 2362 904 
L 2362 783 
C 2362 407 2080 261 1786 261 
C 1370 261 1267 535 1267 809 
L 1267 2459 
L 2227 2459 
C 2259 2459 2304 2459 2342 2459 
C 2451 2459 2534 2490 2534 2627 
C 2534 2739 2432 2752 2355 2752 
L 1267 2752 
L 1267 3351 
C 1267 3439 1235 3520 1120 3520 
C 1011 3520 954 3451 954 3333 
C 954 3290 960 3239 960 3201 
L 960 2752 
z
" transform="scale(0.015625)"/>
       <path id="SFTT3583-61" d="M 2093 1625 
C 1472 1625 365 1490 365 716 
C 365 294 717 -32 1158 -32 
C 1498 -32 1882 77 2112 326 
C 2144 114 2349 -32 2554 -32 
C 2842 -32 3078 194 3078 490 
L 3078 580 
C 3078 613 3085 652 3085 691 
C 3085 789 3027 861 2925 861 
C 2829 861 2771 795 2771 704 
L 2771 665 
C 2771 619 2778 574 2778 528 
C 2778 410 2714 267 2586 267 
C 2470 267 2400 377 2400 506 
L 2400 1938 
C 2355 2462 1888 2816 1376 2816 
C 1037 2816 544 2646 544 2216 
C 544 2096 627 2026 730 2026 
C 838 2026 909 2108 909 2208 
L 909 2234 
C 902 2252 890 2277 890 2303 
L 890 2316 
C 934 2473 1248 2523 1370 2523 
C 1632 2523 1888 2397 2016 2158 
C 2086 2026 2093 1882 2093 1744 
L 2093 1625 
z
M 2093 1408 
L 2093 870 
C 2093 434 1702 261 1299 261 
C 1037 261 672 389 672 723 
C 672 1113 1171 1286 1478 1351 
C 1683 1389 1888 1408 2093 1408 
z
" transform="scale(0.015625)"/>
       <path id="SFTT3583-6c" d="M 1402 3604 
L 1402 293 
L 877 293 
C 832 293 774 293 723 293 
C 602 293 499 256 499 144 
C 499 38 576 0 672 0 
L 2419 0 
C 2541 0 2605 45 2605 147 
C 2605 223 2560 293 2464 293 
L 1709 293 
L 1709 3745 
C 1709 3891 1619 3904 1523 3904 
L 691 3904 
C 602 3904 506 3891 506 3764 
C 506 3636 595 3604 723 3604 
C 774 3604 832 3604 877 3604 
L 1402 3604 
z
" transform="scale(0.015625)"/>
       <path id="SFTT3583-6e" d="M 941 2312 
L 934 2573 
C 934 2688 902 2752 774 2752 
L 346 2752 
C 250 2752 173 2707 173 2605 
C 173 2503 250 2459 352 2459 
L 627 2459 
L 627 293 
L 333 293 
C 237 293 173 236 173 147 
C 173 39 256 0 352 0 
L 1203 0 
C 1299 0 1382 32 1382 147 
C 1382 236 1331 293 1229 293 
L 934 293 
L 934 1641 
C 960 2037 1178 2496 1619 2496 
C 2061 2496 2176 2189 2176 1819 
L 2176 293 
L 1882 293 
C 1786 293 1722 236 1722 147 
C 1722 39 1805 0 1901 0 
L 2752 0 
C 2848 0 2931 32 2931 147 
C 2931 236 2880 293 2778 293 
L 2483 293 
L 2483 1864 
C 2483 2291 2355 2789 1734 2789 
C 1414 2789 1082 2619 941 2312 
z
" transform="scale(0.015625)"/>
       <path id="SFTT3583-67" d="M 698 219 
C 384 105 173 -237 173 -560 
C 173 -1231 1030 -1472 1568 -1472 
C 2106 -1472 2938 -1211 2938 -555 
L 2938 -497 
C 2912 -160 2707 109 2387 224 
C 2112 332 1818 332 1530 332 
L 1101 332 
C 870 332 723 532 723 751 
L 723 763 
C 730 863 768 942 800 1036 
C 960 924 1120 832 1318 832 
L 1370 832 
C 1952 832 2317 1320 2317 1789 
C 2317 1998 2253 2209 2118 2381 
C 2336 2442 2490 2497 2694 2497 
C 2707 2411 2778 2356 2861 2356 
C 2976 2356 3027 2455 3027 2548 
C 3008 2733 2790 2791 2637 2791 
C 2426 2791 2208 2708 2048 2587 
C 2029 2574 2003 2548 1978 2548 
L 1971 2548 
C 1939 2548 1843 2625 1792 2657 
C 1683 2714 1549 2752 1421 2752 
C 826 2752 448 2278 448 1765 
C 448 1568 512 1333 627 1188 
C 640 1169 659 1150 659 1125 
C 659 1068 576 979 557 897 
C 538 827 525 751 525 681 
C 525 517 582 352 698 219 
z
M 448 -611 
C 442 -585 442 -566 442 -541 
C 442 -154 800 64 1178 64 
L 1581 64 
C 1946 64 2669 64 2669 -554 
C 2669 -1043 1952 -1223 1568 -1223 
C 1139 -1223 499 -1058 448 -611 
z
M 755 1727 
L 755 1788 
C 755 2124 1011 2497 1395 2497 
L 1421 2497 
C 1747 2448 1971 2186 2010 1844 
L 2010 1783 
C 2010 1449 1754 1074 1376 1074 
L 1350 1074 
C 1024 1129 794 1370 755 1727 
z
" transform="scale(0.015625)"/>
       <path id="SFTT3583-68" d="M 627 3611 
L 627 293 
L 333 293 
C 237 293 173 236 173 147 
C 173 39 256 0 352 0 
L 1203 0 
C 1299 0 1382 32 1382 147 
C 1382 236 1331 293 1229 293 
L 934 293 
L 934 1641 
C 960 2037 1178 2496 1619 2496 
C 2061 2496 2176 2189 2176 1819 
L 2176 293 
L 1882 293 
C 1786 293 1722 236 1722 147 
C 1722 39 1805 0 1901 0 
L 2752 0 
C 2848 0 2931 32 2931 147 
C 2931 236 2880 293 2778 293 
L 2483 293 
L 2483 1864 
C 2483 2291 2355 2789 1734 2789 
C 1414 2789 1082 2617 941 2304 
C 934 2330 934 2350 934 2375 
L 934 3744 
C 934 3840 890 3904 794 3904 
L 358 3904 
C 275 3904 179 3891 179 3757 
C 179 3662 237 3611 333 3611 
L 627 3611 
z
" transform="scale(0.015625)"/>
       <path id="SFTT3583-28" d="M 2362 4435 
C 2285 4410 2189 4327 2118 4270 
C 1421 3709 1062 2824 1062 1952 
C 1062 1035 1472 74 2259 -448 
C 2323 -486 2355 -512 2451 -512 
C 2522 -512 2586 -499 2586 -423 
C 2586 -340 2438 -270 2368 -212 
C 1709 315 1370 1144 1370 1977 
C 1370 2780 1690 3576 2310 4098 
L 2483 4231 
C 2528 4257 2592 4295 2592 4352 
C 2592 4422 2515 4448 2451 4448 
C 2419 4448 2381 4442 2362 4435 
z
" transform="scale(0.015625)"/>
       <path id="SFTT3583-63" d="M 1638 2816 
C 896 2701 486 2066 486 1392 
C 486 724 934 -32 1715 -32 
C 2125 -32 2515 146 2694 515 
C 2720 559 2758 642 2758 706 
C 2758 757 2733 789 2688 801 
L 2579 801 
C 2406 801 2387 261 1856 261 
C 1242 261 794 812 794 1394 
C 794 1914 1133 2516 1747 2516 
L 1798 2516 
C 1952 2516 2349 2459 2349 2306 
C 2349 2262 2330 2223 2330 2179 
C 2342 2084 2419 2014 2509 2014 
C 2643 2014 2694 2122 2694 2218 
C 2694 2720 2029 2816 1709 2816 
L 1638 2816 
z
" transform="scale(0.015625)"/>
       <path id="SFTT3583-6d" d="M 621 2463 
L 614 2463 
C 614 2495 621 2533 621 2572 
C 621 2720 544 2752 442 2752 
L 230 2752 
C 134 2752 64 2714 64 2605 
C 64 2503 141 2452 237 2452 
C 282 2452 326 2459 365 2459 
L 365 299 
L 230 299 
C 134 299 64 255 64 153 
C 64 57 128 0 218 0 
C 243 0 275 0 301 0 
L 736 0 
C 832 0 915 33 915 150 
C 915 260 838 299 749 299 
L 614 299 
L 614 1522 
C 614 1840 653 2496 1082 2496 
L 1101 2496 
C 1402 2439 1434 2159 1434 1917 
L 1434 299 
L 1299 299 
C 1203 299 1133 255 1133 153 
C 1133 57 1197 0 1286 0 
C 1312 0 1344 0 1370 0 
L 1805 0 
C 1901 0 1984 33 1984 150 
C 1984 260 1907 299 1818 299 
L 1683 299 
L 1683 1522 
C 1683 1840 1722 2496 2150 2496 
L 2170 2496 
C 2470 2439 2502 2159 2502 1917 
L 2502 299 
L 2368 299 
C 2272 299 2202 254 2202 150 
C 2202 40 2272 0 2381 0 
L 2816 0 
C 2842 0 2867 0 2899 0 
C 2989 0 3053 57 3053 153 
C 3053 255 2982 299 2886 299 
L 2752 299 
L 2752 1891 
C 2752 2235 2707 2789 2208 2789 
C 1952 2789 1696 2588 1638 2363 
C 1562 2576 1446 2789 1146 2789 
C 928 2789 704 2658 621 2463 
z
" transform="scale(0.015625)"/>
       <path id="SFTT3583-29" d="M 589 4441 
C 544 4428 525 4403 525 4365 
C 525 4282 621 4237 678 4199 
C 1389 3702 1741 2797 1741 1962 
C 1741 1165 1427 387 813 -155 
C 717 -244 525 -321 525 -429 
C 525 -493 576 -512 640 -512 
L 710 -512 
C 909 -512 1338 -47 1536 246 
C 1875 757 2048 1362 2048 1968 
C 2048 2841 1690 3721 992 4276 
C 890 4358 800 4448 672 4448 
C 640 4448 608 4448 589 4441 
z
" transform="scale(0.015625)"/>
      </defs>
      <use xlink:href="#SFTT3583-70" transform="scale(0.996264)"/>
      <use xlink:href="#SFTT3583-65" transform="translate(48.495008 0) scale(0.996264)"/>
      <use xlink:href="#SFTT3583-74" transform="translate(96.990017 0) scale(0.996264)"/>
      <use xlink:href="#SFTT3583-61" transform="translate(145.485025 0) scale(0.996264)"/>
      <use xlink:href="#SFTT3583-6c" transform="translate(193.980033 0) scale(0.996264)"/>
      <use xlink:href="#SFTT3583-6c" transform="translate(290.97005 0) scale(0.996264)"/>
      <use xlink:href="#SFTT3583-65" transform="translate(339.465058 0) scale(0.996264)"/>
      <use xlink:href="#SFTT3583-6e" transform="translate(387.960067 0) scale(0.996264)"/>
      <use xlink:href="#SFTT3583-67" transform="translate(436.455075 0) scale(0.996264)"/>
      <use xlink:href="#SFTT3583-74" transform="translate(484.950083 0) scale(0.996264)"/>
      <use xlink:href="#SFTT3583-68" transform="translate(533.445092 0) scale(0.996264)"/>
      <use xlink:href="#SFTT3583-28" transform="translate(630.435108 0) scale(0.996264)"/>
      <use xlink:href="#SFTT3583-63" transform="translate(678.930117 0) scale(0.996264)"/>
      <use xlink:href="#SFTT3583-6d" transform="translate(727.425125 0) scale(0.996264)"/>
      <use xlink:href="#SFTT3583-29" transform="translate(775.920133 0) scale(0.996264)"/>
     </g>
    </g>
   </g>
   <g id="matplotlib.axis_2">
    <g id="ytick_1">
     <g id="line2d_4">
      <defs>
       <path id="m2409cb9f71" d="M 0 0 
L -3.5 0 
" style="stroke: #000000; stroke-width: 0.8"/>
      </defs>
      <g>
       <use xlink:href="#m2409cb9f71" x="51.078172" y="271.296" style="stroke: #000000; stroke-width: 0.8"/>
      </g>
     </g>
     <g id="text_5">
      <!-- $\mathdefault{0}$ -->
      <g transform="translate(33.112457 278.600152) scale(0.24 -0.24)">
       <defs>
        <path id="CMR17-30" d="M 2688 2025 
C 2688 2416 2682 3080 2413 3591 
C 2176 4039 1798 4198 1466 4198 
C 1158 4198 768 4058 525 3597 
C 269 3118 243 2524 243 2025 
C 243 1661 250 1106 448 619 
C 723 -39 1216 -128 1466 -128 
C 1760 -128 2208 -7 2470 600 
C 2662 1042 2688 1559 2688 2025 
z
M 1466 -26 
C 1056 -26 813 325 723 812 
C 653 1188 653 1738 653 2096 
C 653 2588 653 2997 736 3387 
C 858 3929 1216 4096 1466 4096 
C 1728 4096 2067 3923 2189 3400 
C 2272 3036 2278 2607 2278 2096 
C 2278 1680 2278 1169 2202 792 
C 2067 95 1690 -26 1466 -26 
z
" transform="scale(0.015625)"/>
       </defs>
       <use xlink:href="#CMR17-30" transform="scale(0.996264)"/>
      </g>
     </g>
    </g>
    <g id="ytick_2">
     <g id="line2d_5">
      <g>
       <use xlink:href="#m2409cb9f71" x="51.078172" y="170.496" style="stroke: #000000; stroke-width: 0.8"/>
      </g>
     </g>
     <g id="text_6">
      <!-- $\mathdefault{1}$ -->
      <g transform="translate(33.112457 177.800152) scale(0.24 -0.24)">
       <defs>
        <path id="CMR17-31" d="M 1702 4058 
C 1702 4192 1696 4192 1606 4192 
C 1357 3916 979 3827 621 3827 
C 602 3827 570 3827 563 3808 
C 557 3795 557 3782 557 3648 
C 755 3648 1088 3686 1344 3839 
L 1344 461 
C 1344 236 1331 160 781 160 
L 589 160 
L 589 0 
C 896 0 1216 0 1523 0 
C 1830 0 2150 0 2458 0 
L 2458 160 
L 2266 160 
C 1715 160 1702 230 1702 458 
L 1702 4058 
z
" transform="scale(0.015625)"/>
       </defs>
       <use xlink:href="#CMR17-31" transform="scale(0.996264)"/>
      </g>
     </g>
    </g>
    <g id="ytick_3">
     <g id="line2d_6">
      <g>
       <use xlink:href="#m2409cb9f71" x="51.078172" y="69.696" style="stroke: #000000; stroke-width: 0.8"/>
      </g>
     </g>
     <g id="text_7">
      <!-- $\mathdefault{2}$ -->
      <g transform="translate(33.112457 77.000152) scale(0.24 -0.24)">
       <use xlink:href="#CMR17-32" transform="scale(0.996264)"/>
      </g>
     </g>
    </g>
    <g id="text_8">
     <!-- petal width (cm) -->
     <g transform="translate(23.800346 235.307029) rotate(-90) scale(0.24 -0.24)">
      <defs>
       <path id="SFTT3583-77" d="M 358 2439 
C 378 2254 422 2064 461 1880 
C 531 1467 614 1060 691 647 
L 768 209 
C 794 76 806 -32 992 -32 
C 1210 -32 1229 44 1382 583 
C 1453 825 1549 1079 1574 1333 
L 1581 1333 
C 1581 1156 1664 946 1715 768 
C 1779 545 1830 291 1926 76 
C 1965 -13 2042 -32 2131 -32 
C 2317 -32 2317 95 2342 215 
C 2458 888 2579 1574 2720 2236 
C 2733 2305 2746 2369 2752 2439 
C 2784 2439 2822 2432 2861 2432 
C 2957 2432 3027 2483 3027 2579 
C 3027 2687 2970 2732 2848 2732 
L 2157 2732 
C 2067 2732 2016 2666 2016 2581 
C 2016 2477 2080 2432 2170 2432 
L 2502 2432 
L 2118 305 
C 2074 635 1939 984 1837 1314 
C 1798 1454 1786 1638 1574 1638 
C 1402 1638 1370 1499 1325 1359 
L 1229 1035 
C 1178 877 1133 717 1082 559 
C 1056 476 1024 394 1011 305 
L 608 2432 
L 941 2432 
C 1030 2432 1094 2477 1094 2581 
C 1094 2666 1043 2732 954 2732 
L 262 2732 
C 141 2732 83 2687 83 2579 
C 83 2483 154 2432 250 2432 
C 288 2432 326 2439 358 2439 
z
" transform="scale(0.015625)"/>
       <path id="SFTT3583-69" d="M 1478 2432 
L 1478 293 
L 813 293 
C 691 293 621 249 621 147 
C 621 77 659 13 736 0 
L 2394 0 
C 2490 0 2554 38 2554 144 
C 2554 249 2470 293 2368 293 
C 2323 293 2278 293 2240 293 
L 1786 293 
L 1786 2548 
C 1786 2713 1715 2732 1613 2732 
L 864 2732 
C 774 2732 666 2719 666 2585 
C 666 2471 749 2432 858 2432 
C 902 2432 954 2432 998 2432 
L 1478 2432 
z
M 1549 3898 
C 1523 3898 1498 3885 1472 3872 
L 1414 3814 
C 1389 3782 1382 3743 1382 3705 
C 1382 3602 1466 3499 1581 3499 
C 1619 3499 1658 3512 1696 3531 
L 1754 3589 
C 1779 3621 1786 3660 1786 3698 
C 1786 3801 1702 3904 1587 3904 
C 1574 3904 1562 3898 1549 3898 
z
" transform="scale(0.015625)"/>
       <path id="SFTT3583-64" d="M 2176 3611 
L 2170 2354 
C 2029 2667 1619 2808 1376 2808 
C 653 2808 269 2034 269 1388 
C 269 793 582 -32 1318 -32 
C 1651 -32 2048 192 2170 486 
L 2176 153 
C 2176 51 2227 0 2336 0 
L 2765 0 
C 2861 0 2938 39 2938 147 
C 2938 249 2861 293 2758 293 
L 2483 293 
L 2483 3731 
C 2483 3834 2451 3904 2304 3904 
L 1894 3904 
C 1798 3904 1728 3872 1728 3764 
C 1728 3674 1786 3611 1882 3611 
L 2176 3611 
z
M 576 1291 
L 576 1349 
C 576 1838 838 2496 1434 2496 
L 1459 2496 
C 1722 2496 1965 2327 2086 2103 
C 2125 2040 2170 1959 2176 1884 
L 2176 995 
C 2086 646 1837 261 1408 261 
C 832 261 640 891 576 1291 
z
" transform="scale(0.015625)"/>
      </defs>
      <use xlink:href="#SFTT3583-70" transform="scale(0.996264)"/>
      <use xlink:href="#SFTT3583-65" transform="translate(48.495008 0) scale(0.996264)"/>
      <use xlink:href="#SFTT3583-74" transform="translate(96.990017 0) scale(0.996264)"/>
      <use xlink:href="#SFTT3583-61" transform="translate(145.485025 0) scale(0.996264)"/>
      <use xlink:href="#SFTT3583-6c" transform="translate(193.980033 0) scale(0.996264)"/>
      <use xlink:href="#SFTT3583-77" transform="translate(290.97005 0) scale(0.996264)"/>
      <use xlink:href="#SFTT3583-69" transform="translate(339.465058 0) scale(0.996264)"/>
      <use xlink:href="#SFTT3583-64" transform="translate(387.960067 0) scale(0.996264)"/>
      <use xlink:href="#SFTT3583-74" transform="translate(436.455075 0) scale(0.996264)"/>
      <use xlink:href="#SFTT3583-68" transform="translate(484.950083 0) scale(0.996264)"/>
      <use xlink:href="#SFTT3583-28" transform="translate(581.9401 0) scale(0.996264)"/>
      <use xlink:href="#SFTT3583-63" transform="translate(630.435108 0) scale(0.996264)"/>
      <use xlink:href="#SFTT3583-6d" transform="translate(678.930117 0) scale(0.996264)"/>
      <use xlink:href="#SFTT3583-29" transform="translate(727.425125 0) scale(0.996264)"/>
     </g>
    </g>
   </g>
   <g id="line2d_7">
    <defs>
     <path id="m9f0b5e09f2" d="M -3 3 
L 3 3 
L 3 -3 
L -3 -3 
z
" style="stroke: #1f77b4; stroke-linejoin: miter"/>
    </defs>
    <g clip-path="url(#p540ab73073)">
     <use xlink:href="#m9f0b5e09f2" x="89.321377" y="251.136" style="fill: #1f77b4; stroke: #1f77b4; stroke-linejoin: miter"/>
     <use xlink:href="#m9f0b5e09f2" x="89.321377" y="251.136" style="fill: #1f77b4; stroke: #1f77b4; stroke-linejoin: miter"/>
     <use xlink:href="#m9f0b5e09f2" x="83.818757" y="251.136" style="fill: #1f77b4; stroke: #1f77b4; stroke-linejoin: miter"/>
     <use xlink:href="#m9f0b5e09f2" x="94.823996" y="251.136" style="fill: #1f77b4; stroke: #1f77b4; stroke-linejoin: miter"/>
     <use xlink:href="#m9f0b5e09f2" x="89.321377" y="251.136" style="fill: #1f77b4; stroke: #1f77b4; stroke-linejoin: miter"/>
     <use xlink:href="#m9f0b5e09f2" x="105.829235" y="230.976" style="fill: #1f77b4; stroke: #1f77b4; stroke-linejoin: miter"/>
     <use xlink:href="#m9f0b5e09f2" x="89.321377" y="241.056" style="fill: #1f77b4; stroke: #1f77b4; stroke-linejoin: miter"/>
     <use xlink:href="#m9f0b5e09f2" x="94.823996" y="251.136" style="fill: #1f77b4; stroke: #1f77b4; stroke-linejoin: miter"/>
     <use xlink:href="#m9f0b5e09f2" x="89.321377" y="251.136" style="fill: #1f77b4; stroke: #1f77b4; stroke-linejoin: miter"/>
     <use xlink:href="#m9f0b5e09f2" x="94.823996" y="261.216" style="fill: #1f77b4; stroke: #1f77b4; stroke-linejoin: miter"/>
     <use xlink:href="#m9f0b5e09f2" x="94.823996" y="251.136" style="fill: #1f77b4; stroke: #1f77b4; stroke-linejoin: miter"/>
     <use xlink:href="#m9f0b5e09f2" x="100.326615" y="251.136" style="fill: #1f77b4; stroke: #1f77b4; stroke-linejoin: miter"/>
     <use xlink:href="#m9f0b5e09f2" x="89.321377" y="261.216" style="fill: #1f77b4; stroke: #1f77b4; stroke-linejoin: miter"/>
     <use xlink:href="#m9f0b5e09f2" x="72.813518" y="261.216" style="fill: #1f77b4; stroke: #1f77b4; stroke-linejoin: miter"/>
     <use xlink:href="#m9f0b5e09f2" x="78.316138" y="251.136" style="fill: #1f77b4; stroke: #1f77b4; stroke-linejoin: miter"/>
     <use xlink:href="#m9f0b5e09f2" x="94.823996" y="230.976" style="fill: #1f77b4; stroke: #1f77b4; stroke-linejoin: miter"/>
     <use xlink:href="#m9f0b5e09f2" x="83.818757" y="230.976" style="fill: #1f77b4; stroke: #1f77b4; stroke-linejoin: miter"/>
     <use xlink:href="#m9f0b5e09f2" x="89.321377" y="241.056" style="fill: #1f77b4; stroke: #1f77b4; stroke-linejoin: miter"/>
     <use xlink:href="#m9f0b5e09f2" x="105.829235" y="241.056" style="fill: #1f77b4; stroke: #1f77b4; stroke-linejoin: miter"/>
     <use xlink:href="#m9f0b5e09f2" x="94.823996" y="241.056" style="fill: #1f77b4; stroke: #1f77b4; stroke-linejoin: miter"/>
     <use xlink:href="#m9f0b5e09f2" x="105.829235" y="251.136" style="fill: #1f77b4; stroke: #1f77b4; stroke-linejoin: miter"/>
     <use xlink:href="#m9f0b5e09f2" x="94.823996" y="230.976" style="fill: #1f77b4; stroke: #1f77b4; stroke-linejoin: miter"/>
     <use xlink:href="#m9f0b5e09f2" x="67.310899" y="251.136" style="fill: #1f77b4; stroke: #1f77b4; stroke-linejoin: miter"/>
     <use xlink:href="#m9f0b5e09f2" x="105.829235" y="220.896" style="fill: #1f77b4; stroke: #1f77b4; stroke-linejoin: miter"/>
     <use xlink:href="#m9f0b5e09f2" x="116.834474" y="251.136" style="fill: #1f77b4; stroke: #1f77b4; stroke-linejoin: miter"/>
     <use xlink:href="#m9f0b5e09f2" x="100.326615" y="251.136" style="fill: #1f77b4; stroke: #1f77b4; stroke-linejoin: miter"/>
     <use xlink:href="#m9f0b5e09f2" x="100.326615" y="230.976" style="fill: #1f77b4; stroke: #1f77b4; stroke-linejoin: miter"/>
     <use xlink:href="#m9f0b5e09f2" x="94.823996" y="251.136" style="fill: #1f77b4; stroke: #1f77b4; stroke-linejoin: miter"/>
     <use xlink:href="#m9f0b5e09f2" x="89.321377" y="251.136" style="fill: #1f77b4; stroke: #1f77b4; stroke-linejoin: miter"/>
     <use xlink:href="#m9f0b5e09f2" x="100.326615" y="251.136" style="fill: #1f77b4; stroke: #1f77b4; stroke-linejoin: miter"/>
     <use xlink:href="#m9f0b5e09f2" x="100.326615" y="251.136" style="fill: #1f77b4; stroke: #1f77b4; stroke-linejoin: miter"/>
     <use xlink:href="#m9f0b5e09f2" x="94.823996" y="230.976" style="fill: #1f77b4; stroke: #1f77b4; stroke-linejoin: miter"/>
     <use xlink:href="#m9f0b5e09f2" x="94.823996" y="261.216" style="fill: #1f77b4; stroke: #1f77b4; stroke-linejoin: miter"/>
     <use xlink:href="#m9f0b5e09f2" x="89.321377" y="251.136" style="fill: #1f77b4; stroke: #1f77b4; stroke-linejoin: miter"/>
     <use xlink:href="#m9f0b5e09f2" x="94.823996" y="251.136" style="fill: #1f77b4; stroke: #1f77b4; stroke-linejoin: miter"/>
     <use xlink:href="#m9f0b5e09f2" x="78.316138" y="251.136" style="fill: #1f77b4; stroke: #1f77b4; stroke-linejoin: miter"/>
     <use xlink:href="#m9f0b5e09f2" x="83.818757" y="251.136" style="fill: #1f77b4; stroke: #1f77b4; stroke-linejoin: miter"/>
     <use xlink:href="#m9f0b5e09f2" x="89.321377" y="261.216" style="fill: #1f77b4; stroke: #1f77b4; stroke-linejoin: miter"/>
     <use xlink:href="#m9f0b5e09f2" x="83.818757" y="251.136" style="fill: #1f77b4; stroke: #1f77b4; stroke-linejoin: miter"/>
     <use xlink:href="#m9f0b5e09f2" x="94.823996" y="251.136" style="fill: #1f77b4; stroke: #1f77b4; stroke-linejoin: miter"/>
     <use xlink:href="#m9f0b5e09f2" x="83.818757" y="241.056" style="fill: #1f77b4; stroke: #1f77b4; stroke-linejoin: miter"/>
     <use xlink:href="#m9f0b5e09f2" x="83.818757" y="241.056" style="fill: #1f77b4; stroke: #1f77b4; stroke-linejoin: miter"/>
     <use xlink:href="#m9f0b5e09f2" x="83.818757" y="251.136" style="fill: #1f77b4; stroke: #1f77b4; stroke-linejoin: miter"/>
     <use xlink:href="#m9f0b5e09f2" x="100.326615" y="210.816" style="fill: #1f77b4; stroke: #1f77b4; stroke-linejoin: miter"/>
     <use xlink:href="#m9f0b5e09f2" x="116.834474" y="230.976" style="fill: #1f77b4; stroke: #1f77b4; stroke-linejoin: miter"/>
     <use xlink:href="#m9f0b5e09f2" x="89.321377" y="241.056" style="fill: #1f77b4; stroke: #1f77b4; stroke-linejoin: miter"/>
     <use xlink:href="#m9f0b5e09f2" x="100.326615" y="251.136" style="fill: #1f77b4; stroke: #1f77b4; stroke-linejoin: miter"/>
     <use xlink:href="#m9f0b5e09f2" x="89.321377" y="251.136" style="fill: #1f77b4; stroke: #1f77b4; stroke-linejoin: miter"/>
     <use xlink:href="#m9f0b5e09f2" x="94.823996" y="251.136" style="fill: #1f77b4; stroke: #1f77b4; stroke-linejoin: miter"/>
     <use xlink:href="#m9f0b5e09f2" x="89.321377" y="251.136" style="fill: #1f77b4; stroke: #1f77b4; stroke-linejoin: miter"/>
    </g>
   </g>
   <g id="line2d_8">
    <defs>
     <path id="m0352c4c667" d="M -3 3 
L 3 -3 
M -3 -3 
L 3 3 
" style="stroke: #ff7f0e"/>
    </defs>
    <g clip-path="url(#p540ab73073)">
     <use xlink:href="#m0352c4c667" x="270.907817" y="130.176" style="fill: #ff7f0e; stroke: #ff7f0e"/>
     <use xlink:href="#m0352c4c667" x="259.902578" y="120.096" style="fill: #ff7f0e; stroke: #ff7f0e"/>
     <use xlink:href="#m0352c4c667" x="281.913056" y="120.096" style="fill: #ff7f0e; stroke: #ff7f0e"/>
     <use xlink:href="#m0352c4c667" x="232.389481" y="140.256" style="fill: #ff7f0e; stroke: #ff7f0e"/>
     <use xlink:href="#m0352c4c667" x="265.405198" y="120.096" style="fill: #ff7f0e; stroke: #ff7f0e"/>
     <use xlink:href="#m0352c4c667" x="259.902578" y="140.256" style="fill: #ff7f0e; stroke: #ff7f0e"/>
     <use xlink:href="#m0352c4c667" x="270.907817" y="110.016" style="fill: #ff7f0e; stroke: #ff7f0e"/>
     <use xlink:href="#m0352c4c667" x="193.871146" y="170.496" style="fill: #ff7f0e; stroke: #ff7f0e"/>
     <use xlink:href="#m0352c4c667" x="265.405198" y="140.256" style="fill: #ff7f0e; stroke: #ff7f0e"/>
     <use xlink:href="#m0352c4c667" x="226.886862" y="130.176" style="fill: #ff7f0e; stroke: #ff7f0e"/>
     <use xlink:href="#m0352c4c667" x="204.876384" y="170.496" style="fill: #ff7f0e; stroke: #ff7f0e"/>
     <use xlink:href="#m0352c4c667" x="243.39472" y="120.096" style="fill: #ff7f0e; stroke: #ff7f0e"/>
     <use xlink:href="#m0352c4c667" x="232.389481" y="170.496" style="fill: #ff7f0e; stroke: #ff7f0e"/>
     <use xlink:href="#m0352c4c667" x="270.907817" y="130.176" style="fill: #ff7f0e; stroke: #ff7f0e"/>
     <use xlink:href="#m0352c4c667" x="210.379004" y="140.256" style="fill: #ff7f0e; stroke: #ff7f0e"/>
     <use xlink:href="#m0352c4c667" x="254.399959" y="130.176" style="fill: #ff7f0e; stroke: #ff7f0e"/>
     <use xlink:href="#m0352c4c667" x="259.902578" y="120.096" style="fill: #ff7f0e; stroke: #ff7f0e"/>
     <use xlink:href="#m0352c4c667" x="237.892101" y="170.496" style="fill: #ff7f0e; stroke: #ff7f0e"/>
     <use xlink:href="#m0352c4c667" x="226.886862" y="160.416" style="fill: #ff7f0e; stroke: #ff7f0e"/>
     <use xlink:href="#m0352c4c667" x="232.389481" y="140.256" style="fill: #ff7f0e; stroke: #ff7f0e"/>
     <use xlink:href="#m0352c4c667" x="270.907817" y="150.336" style="fill: #ff7f0e; stroke: #ff7f0e"/>
     <use xlink:href="#m0352c4c667" x="248.89734" y="140.256" style="fill: #ff7f0e; stroke: #ff7f0e"/>
     <use xlink:href="#m0352c4c667" x="254.399959" y="130.176" style="fill: #ff7f0e; stroke: #ff7f0e"/>
     <use xlink:href="#m0352c4c667" x="276.410437" y="130.176" style="fill: #ff7f0e; stroke: #ff7f0e"/>
     <use xlink:href="#m0352c4c667" x="259.902578" y="120.096" style="fill: #ff7f0e; stroke: #ff7f0e"/>
     <use xlink:href="#m0352c4c667" x="204.876384" y="170.496" style="fill: #ff7f0e; stroke: #ff7f0e"/>
     <use xlink:href="#m0352c4c667" x="221.384243" y="160.416" style="fill: #ff7f0e; stroke: #ff7f0e"/>
     <use xlink:href="#m0352c4c667" x="215.881623" y="170.496" style="fill: #ff7f0e; stroke: #ff7f0e"/>
     <use xlink:href="#m0352c4c667" x="226.886862" y="150.336" style="fill: #ff7f0e; stroke: #ff7f0e"/>
     <use xlink:href="#m0352c4c667" x="259.902578" y="120.096" style="fill: #ff7f0e; stroke: #ff7f0e"/>
     <use xlink:href="#m0352c4c667" x="259.902578" y="110.016" style="fill: #ff7f0e; stroke: #ff7f0e"/>
     <use xlink:href="#m0352c4c667" x="270.907817" y="120.096" style="fill: #ff7f0e; stroke: #ff7f0e"/>
     <use xlink:href="#m0352c4c667" x="254.399959" y="140.256" style="fill: #ff7f0e; stroke: #ff7f0e"/>
     <use xlink:href="#m0352c4c667" x="237.892101" y="140.256" style="fill: #ff7f0e; stroke: #ff7f0e"/>
     <use xlink:href="#m0352c4c667" x="232.389481" y="140.256" style="fill: #ff7f0e; stroke: #ff7f0e"/>
     <use xlink:href="#m0352c4c667" x="254.399959" y="150.336" style="fill: #ff7f0e; stroke: #ff7f0e"/>
     <use xlink:href="#m0352c4c667" x="265.405198" y="130.176" style="fill: #ff7f0e; stroke: #ff7f0e"/>
     <use xlink:href="#m0352c4c667" x="232.389481" y="150.336" style="fill: #ff7f0e; stroke: #ff7f0e"/>
     <use xlink:href="#m0352c4c667" x="193.871146" y="170.496" style="fill: #ff7f0e; stroke: #ff7f0e"/>
     <use xlink:href="#m0352c4c667" x="243.39472" y="140.256" style="fill: #ff7f0e; stroke: #ff7f0e"/>
     <use xlink:href="#m0352c4c667" x="243.39472" y="150.336" style="fill: #ff7f0e; stroke: #ff7f0e"/>
     <use xlink:href="#m0352c4c667" x="243.39472" y="140.256" style="fill: #ff7f0e; stroke: #ff7f0e"/>
     <use xlink:href="#m0352c4c667" x="248.89734" y="140.256" style="fill: #ff7f0e; stroke: #ff7f0e"/>
     <use xlink:href="#m0352c4c667" x="177.363287" y="160.416" style="fill: #ff7f0e; stroke: #ff7f0e"/>
     <use xlink:href="#m0352c4c667" x="237.892101" y="140.256" style="fill: #ff7f0e; stroke: #ff7f0e"/>
    </g>
   </g>
   <g id="line2d_9">
    <defs>
     <path id="m0a6bac4735" d="M 0 3 
C 0.795609 3 1.55874 2.683901 2.12132 2.12132 
C 2.683901 1.55874 3 0.795609 3 0 
C 3 -0.795609 2.683901 -1.55874 2.12132 -2.12132 
C 1.55874 -2.683901 0.795609 -3 0 -3 
C -0.795609 -3 -1.55874 -2.683901 -2.12132 -2.12132 
C -2.683901 -1.55874 -3 -0.795609 -3 0 
C -3 0.795609 -2.683901 1.55874 -2.12132 2.12132 
C -1.55874 2.683901 -0.795609 3 0 3 
z
" style="stroke: #2ca02c"/>
    </defs>
    <g clip-path="url(#p540ab73073)">
     <use xlink:href="#m0a6bac4735" x="259.902578" y="120.096" style="fill: #2ca02c; stroke: #2ca02c"/>
     <use xlink:href="#m0a6bac4735" x="276.410437" y="89.856" style="fill: #2ca02c; stroke: #2ca02c"/>
     <use xlink:href="#m0a6bac4735" x="281.913056" y="120.096" style="fill: #2ca02c; stroke: #2ca02c"/>
     <use xlink:href="#m0a6bac4735" x="287.415676" y="99.936" style="fill: #2ca02c; stroke: #2ca02c"/>
     <use xlink:href="#m0a6bac4735" x="292.918295" y="110.016" style="fill: #2ca02c; stroke: #2ca02c"/>
     <use xlink:href="#m0a6bac4735" x="342.44187" y="19.296" style="fill: #2ca02c; stroke: #2ca02c"/>
     <use xlink:href="#m0a6bac4735" x="292.918295" y="79.776" style="fill: #2ca02c; stroke: #2ca02c"/>
     <use xlink:href="#m0a6bac4735" x="336.93925" y="59.616" style="fill: #2ca02c; stroke: #2ca02c"/>
     <use xlink:href="#m0a6bac4735" x="320.431392" y="89.856" style="fill: #2ca02c; stroke: #2ca02c"/>
     <use xlink:href="#m0a6bac4735" x="331.436631" y="49.536" style="fill: #2ca02c; stroke: #2ca02c"/>
     <use xlink:href="#m0a6bac4735" x="375.457586" y="59.616" style="fill: #2ca02c; stroke: #2ca02c"/>
     <use xlink:href="#m0a6bac4735" x="259.902578" y="99.936" style="fill: #2ca02c; stroke: #2ca02c"/>
     <use xlink:href="#m0a6bac4735" x="358.949728" y="89.856" style="fill: #2ca02c; stroke: #2ca02c"/>
     <use xlink:href="#m0a6bac4735" x="331.436631" y="89.856" style="fill: #2ca02c; stroke: #2ca02c"/>
     <use xlink:href="#m0a6bac4735" x="347.944489" y="19.296" style="fill: #2ca02c; stroke: #2ca02c"/>
     <use xlink:href="#m0a6bac4735" x="292.918295" y="69.696" style="fill: #2ca02c; stroke: #2ca02c"/>
     <use xlink:href="#m0a6bac4735" x="303.923534" y="79.776" style="fill: #2ca02c; stroke: #2ca02c"/>
     <use xlink:href="#m0a6bac4735" x="314.928773" y="59.616" style="fill: #2ca02c; stroke: #2ca02c"/>
     <use xlink:href="#m0a6bac4735" x="287.415676" y="69.696" style="fill: #2ca02c; stroke: #2ca02c"/>
     <use xlink:href="#m0a6bac4735" x="292.918295" y="29.376" style="fill: #2ca02c; stroke: #2ca02c"/>
     <use xlink:href="#m0a6bac4735" x="303.923534" y="39.456" style="fill: #2ca02c; stroke: #2ca02c"/>
     <use xlink:href="#m0a6bac4735" x="314.928773" y="89.856" style="fill: #2ca02c; stroke: #2ca02c"/>
     <use xlink:href="#m0a6bac4735" x="380.960206" y="49.536" style="fill: #2ca02c; stroke: #2ca02c"/>
     <use xlink:href="#m0a6bac4735" x="391.965444" y="39.456" style="fill: #2ca02c; stroke: #2ca02c"/>
     <use xlink:href="#m0a6bac4735" x="287.415676" y="120.096" style="fill: #2ca02c; stroke: #2ca02c"/>
     <use xlink:href="#m0a6bac4735" x="325.934011" y="39.456" style="fill: #2ca02c; stroke: #2ca02c"/>
     <use xlink:href="#m0a6bac4735" x="281.913056" y="69.696" style="fill: #2ca02c; stroke: #2ca02c"/>
     <use xlink:href="#m0a6bac4735" x="380.960206" y="69.696" style="fill: #2ca02c; stroke: #2ca02c"/>
     <use xlink:href="#m0a6bac4735" x="281.913056" y="89.856" style="fill: #2ca02c; stroke: #2ca02c"/>
     <use xlink:href="#m0a6bac4735" x="325.934011" y="59.616" style="fill: #2ca02c; stroke: #2ca02c"/>
     <use xlink:href="#m0a6bac4735" x="342.44187" y="89.856" style="fill: #2ca02c; stroke: #2ca02c"/>
     <use xlink:href="#m0a6bac4735" x="276.410437" y="89.856" style="fill: #2ca02c; stroke: #2ca02c"/>
     <use xlink:href="#m0a6bac4735" x="281.913056" y="89.856" style="fill: #2ca02c; stroke: #2ca02c"/>
     <use xlink:href="#m0a6bac4735" x="320.431392" y="59.616" style="fill: #2ca02c; stroke: #2ca02c"/>
     <use xlink:href="#m0a6bac4735" x="331.436631" y="110.016" style="fill: #2ca02c; stroke: #2ca02c"/>
     <use xlink:href="#m0a6bac4735" x="347.944489" y="79.776" style="fill: #2ca02c; stroke: #2ca02c"/>
     <use xlink:href="#m0a6bac4735" x="364.452347" y="69.696" style="fill: #2ca02c; stroke: #2ca02c"/>
     <use xlink:href="#m0a6bac4735" x="320.431392" y="49.536" style="fill: #2ca02c; stroke: #2ca02c"/>
     <use xlink:href="#m0a6bac4735" x="292.918295" y="120.096" style="fill: #2ca02c; stroke: #2ca02c"/>
     <use xlink:href="#m0a6bac4735" x="320.431392" y="130.176" style="fill: #2ca02c; stroke: #2ca02c"/>
     <use xlink:href="#m0a6bac4735" x="347.944489" y="39.456" style="fill: #2ca02c; stroke: #2ca02c"/>
     <use xlink:href="#m0a6bac4735" x="320.431392" y="29.376" style="fill: #2ca02c; stroke: #2ca02c"/>
     <use xlink:href="#m0a6bac4735" x="314.928773" y="89.856" style="fill: #2ca02c; stroke: #2ca02c"/>
     <use xlink:href="#m0a6bac4735" x="276.410437" y="89.856" style="fill: #2ca02c; stroke: #2ca02c"/>
     <use xlink:href="#m0a6bac4735" x="309.426153" y="59.616" style="fill: #2ca02c; stroke: #2ca02c"/>
     <use xlink:href="#m0a6bac4735" x="320.431392" y="29.376" style="fill: #2ca02c; stroke: #2ca02c"/>
     <use xlink:href="#m0a6bac4735" x="292.918295" y="39.456" style="fill: #2ca02c; stroke: #2ca02c"/>
     <use xlink:href="#m0a6bac4735" x="292.918295" y="79.776" style="fill: #2ca02c; stroke: #2ca02c"/>
     <use xlink:href="#m0a6bac4735" x="336.93925" y="39.456" style="fill: #2ca02c; stroke: #2ca02c"/>
     <use xlink:href="#m0a6bac4735" x="325.934011" y="19.296" style="fill: #2ca02c; stroke: #2ca02c"/>
     <use xlink:href="#m0a6bac4735" x="298.420914" y="39.456" style="fill: #2ca02c; stroke: #2ca02c"/>
     <use xlink:href="#m0a6bac4735" x="287.415676" y="79.776" style="fill: #2ca02c; stroke: #2ca02c"/>
     <use xlink:href="#m0a6bac4735" x="298.420914" y="69.696" style="fill: #2ca02c; stroke: #2ca02c"/>
     <use xlink:href="#m0a6bac4735" x="309.426153" y="39.456" style="fill: #2ca02c; stroke: #2ca02c"/>
     <use xlink:href="#m0a6bac4735" x="292.918295" y="89.856" style="fill: #2ca02c; stroke: #2ca02c"/>
    </g>
   </g>
   <g id="patch_3">
    <path d="M 51.078172 273.312 
L 51.078172 7.2 
" style="fill: none; stroke: #000000; stroke-width: 0.8; stroke-linejoin: miter; stroke-linecap: square"/>
   </g>
   <g id="patch_4">
    <path d="M 408.198172 273.312 
L 408.198172 7.2 
" style="fill: none; stroke: #000000; stroke-width: 0.8; stroke-linejoin: miter; stroke-linecap: square"/>
   </g>
   <g id="patch_5">
    <path d="M 51.078172 273.312 
L 408.198172 273.312 
" style="fill: none; stroke: #000000; stroke-width: 0.8; stroke-linejoin: miter; stroke-linecap: square"/>
   </g>
   <g id="patch_6">
    <path d="M 51.078172 7.2 
L 408.198172 7.2 
" style="fill: none; stroke: #000000; stroke-width: 0.8; stroke-linejoin: miter; stroke-linecap: square"/>
   </g>
   <g id="legend_1">
    <g id="patch_7">
     <path d="M 59.478172 67.968166 
L 153.232027 67.968166 
Q 155.632027 67.968166 155.632027 65.568166 
L 155.632027 15.6 
Q 155.632027 13.2 153.232027 13.2 
L 59.478172 13.2 
Q 57.078172 13.2 57.078172 15.6 
L 57.078172 65.568166 
Q 57.078172 67.968166 59.478172 67.968166 
z
" style="fill: #ffffff; opacity: 0.8; stroke: #cccccc; stroke-linejoin: miter"/>
    </g>
    <g id="line2d_10">
     <g>
      <use xlink:href="#m9f0b5e09f2" x="73.878172" y="22.2" style="fill: #1f77b4; stroke: #1f77b4; stroke-linejoin: miter"/>
     </g>
    </g>
    <g id="text_9">
     <!-- Cluster 0 -->
     <g transform="translate(95.478172 26.4) scale(0.12 -0.12)">
      <defs>
       <path id="SFTT3583-43" d="M 2541 3573 
C 2330 3854 2003 3973 1658 3973 
L 1613 3973 
C 653 3973 237 2786 237 1974 
C 237 1103 685 -32 1619 -32 
L 1658 -32 
C 2304 -32 2874 475 2874 1152 
L 2874 1190 
C 2854 1261 2784 1267 2726 1267 
L 2701 1267 
C 2637 1267 2566 1261 2566 1159 
L 2566 1121 
C 2522 732 2298 242 1773 242 
C 877 242 544 1394 544 1986 
C 544 2438 666 2915 960 3272 
C 1146 3501 1440 3712 1754 3712 
C 2253 3712 2515 3165 2554 2790 
C 2566 2701 2566 2624 2688 2624 
L 2746 2624 
C 2848 2624 2874 2675 2874 2752 
L 2874 3898 
C 2874 3968 2829 4007 2765 4007 
C 2637 4007 2573 3720 2541 3573 
z
" transform="scale(0.015625)"/>
       <path id="SFTT3583-75" d="M 627 2459 
L 627 1068 
C 627 978 621 876 621 782 
C 621 216 902 -32 1338 -32 
C 1670 -32 2022 127 2170 370 
L 2176 172 
C 2176 64 2214 0 2336 0 
L 2765 0 
C 2861 0 2938 39 2938 147 
C 2938 249 2861 293 2758 293 
L 2483 293 
L 2483 2560 
C 2483 2649 2470 2726 2374 2752 
L 1888 2752 
C 1792 2752 1728 2707 1728 2605 
C 1728 2510 1792 2459 1882 2459 
L 2176 2459 
L 2176 1074 
C 2176 675 1971 268 1459 268 
C 1171 268 934 351 934 783 
L 934 2599 
C 934 2707 877 2752 774 2752 
L 346 2752 
C 250 2752 173 2707 173 2605 
C 173 2503 250 2459 352 2459 
L 627 2459 
z
" transform="scale(0.015625)"/>
       <path id="SFTT3583-73" d="M 730 350 
C 966 82 1254 -32 1587 -32 
C 2061 -32 2720 133 2720 777 
C 2720 1503 1830 1586 1434 1656 
C 1274 1681 723 1752 723 2089 
C 723 2516 1376 2516 1536 2516 
C 1837 2516 2170 2389 2221 2056 
C 2253 1955 2202 1809 2362 1809 
L 2413 1809 
C 2515 1809 2554 1854 2554 1943 
C 2554 1975 2547 2013 2547 2039 
L 2547 2676 
C 2547 2758 2528 2816 2438 2816 
C 2330 2816 2291 2669 2278 2580 
C 2189 2637 2112 2701 2010 2739 
C 1862 2797 1702 2816 1549 2816 
C 1050 2816 429 2660 429 2105 
C 429 1355 1638 1355 2048 1203 
C 2234 1136 2426 990 2426 790 
L 2426 758 
C 2368 344 1933 261 1613 261 
C 1210 261 922 465 774 923 
C 749 1051 742 1159 602 1159 
L 563 1159 
C 474 1159 422 1134 422 993 
C 422 936 429 885 429 834 
L 429 114 
C 429 38 442 -32 538 -32 
C 666 -32 698 216 730 350 
z
" transform="scale(0.015625)"/>
       <path id="SFTT3583-72" d="M 1274 2100 
L 1267 2599 
C 1267 2707 1210 2752 1101 2752 
L 486 2752 
C 384 2752 320 2714 320 2605 
C 320 2497 390 2459 499 2459 
L 960 2459 
L 960 293 
L 486 293 
C 378 293 320 236 320 147 
C 320 51 378 0 480 0 
L 1952 0 
C 2029 13 2067 77 2067 147 
C 2067 242 2016 293 1894 293 
L 1267 293 
L 1267 1232 
C 1267 1845 1632 2496 2336 2496 
L 2426 2496 
C 2598 2496 2509 2318 2714 2318 
C 2810 2318 2893 2393 2893 2494 
C 2893 2751 2573 2789 2362 2789 
L 2298 2789 
C 1882 2789 1408 2473 1274 2100 
z
" transform="scale(0.015625)"/>
       <path id="SFTT3583-30" d="M 1485 4012 
C 1075 3967 787 3608 614 3263 
C 416 2854 346 2406 346 1958 
C 346 1510 429 1024 646 627 
C 832 288 1139 -64 1555 -64 
L 1619 -64 
C 2029 -20 2317 333 2490 678 
C 2694 1081 2765 1542 2765 1990 
C 2765 2444 2682 2930 2464 3327 
C 2278 3666 1971 4018 1555 4018 
C 1530 4018 1510 4012 1485 4012 
z
M 653 1894 
L 653 1990 
C 653 2618 826 3507 1402 3693 
C 1453 3712 1498 3712 1549 3712 
C 2330 3712 2458 2376 2458 2063 
C 2458 1602 2394 1123 2170 715 
C 2048 491 1862 254 1594 229 
L 1555 229 
C 1043 229 774 984 691 1491 
C 672 1625 666 1759 653 1894 
z
" transform="scale(0.015625)"/>
      </defs>
      <use xlink:href="#SFTT3583-43" transform="scale(0.996264)"/>
      <use xlink:href="#SFTT3583-6c" transform="translate(48.495008 0) scale(0.996264)"/>
      <use xlink:href="#SFTT3583-75" transform="translate(96.990017 0) scale(0.996264)"/>
      <use xlink:href="#SFTT3583-73" transform="translate(145.485025 0) scale(0.996264)"/>
      <use xlink:href="#SFTT3583-74" transform="translate(193.980033 0) scale(0.996264)"/>
      <use xlink:href="#SFTT3583-65" transform="translate(242.475042 0) scale(0.996264)"/>
      <use xlink:href="#SFTT3583-72" transform="translate(290.97005 0) scale(0.996264)"/>
      <use xlink:href="#SFTT3583-30" transform="translate(387.960067 0) scale(0.996264)"/>
     </g>
    </g>
    <g id="line2d_11">
     <g>
      <use xlink:href="#m0352c4c667" x="73.878172" y="39.256055" style="fill: #ff7f0e; stroke: #ff7f0e"/>
     </g>
    </g>
    <g id="text_10">
     <!-- Cluster 1 -->
     <g transform="translate(95.478172 43.456055) scale(0.12 -0.12)">
      <defs>
       <path id="SFTT3583-31" d="M 1485 3256 
L 1485 293 
L 1018 293 
C 979 293 934 293 890 293 
C 768 293 710 236 710 144 
C 710 75 749 13 819 0 
L 2406 0 
C 2509 0 2573 44 2573 138 
C 2573 243 2496 293 2381 293 
C 2336 293 2291 293 2253 293 
L 1792 293 
L 1792 3802 
C 1792 3878 1760 3968 1664 3968 
C 1530 3968 1510 3805 1453 3705 
C 1338 3493 1165 3263 896 3213 
C 787 3200 672 3200 672 3051 
C 672 2944 749 2913 826 2913 
C 1094 2913 1312 3073 1485 3256 
z
" transform="scale(0.015625)"/>
      </defs>
      <use xlink:href="#SFTT3583-43" transform="scale(0.996264)"/>
      <use xlink:href="#SFTT3583-6c" transform="translate(48.495008 0) scale(0.996264)"/>
      <use xlink:href="#SFTT3583-75" transform="translate(96.990017 0) scale(0.996264)"/>
      <use xlink:href="#SFTT3583-73" transform="translate(145.485025 0) scale(0.996264)"/>
      <use xlink:href="#SFTT3583-74" transform="translate(193.980033 0) scale(0.996264)"/>
      <use xlink:href="#SFTT3583-65" transform="translate(242.475042 0) scale(0.996264)"/>
      <use xlink:href="#SFTT3583-72" transform="translate(290.97005 0) scale(0.996264)"/>
      <use xlink:href="#SFTT3583-31" transform="translate(387.960067 0) scale(0.996264)"/>
     </g>
    </g>
    <g id="line2d_12">
     <g>
      <use xlink:href="#m0a6bac4735" x="73.878172" y="56.312111" style="fill: #2ca02c; stroke: #2ca02c"/>
     </g>
    </g>
    <g id="text_11">
     <!-- Cluster 2 -->
     <g transform="translate(95.478172 60.512111) scale(0.12 -0.12)">
      <defs>
       <path id="SFTT3583-32" d="M 2490 293 
L 794 293 
C 1133 611 1478 923 1830 1234 
C 2285 1641 2797 2092 2797 2767 
C 2797 3395 2304 3968 1485 3968 
C 947 3968 314 3561 314 2785 
C 314 2657 397 2587 499 2587 
C 589 2587 678 2651 678 2778 
C 678 2836 640 2880 640 2931 
L 640 2950 
C 691 3344 998 3675 1414 3675 
C 1920 3675 2406 3394 2490 2822 
L 2490 2771 
C 2490 2047 1766 1544 1344 1157 
C 1030 871 717 592 416 305 
C 365 254 314 229 314 141 
C 314 13 410 0 486 0 
L 2643 0 
C 2733 0 2797 39 2797 134 
L 2797 369 
C 2797 458 2771 547 2650 547 
C 2541 547 2490 477 2490 363 
L 2490 293 
z
" transform="scale(0.015625)"/>
      </defs>
      <use xlink:href="#SFTT3583-43" transform="scale(0.996264)"/>
      <use xlink:href="#SFTT3583-6c" transform="translate(48.495008 0) scale(0.996264)"/>
      <use xlink:href="#SFTT3583-75" transform="translate(96.990017 0) scale(0.996264)"/>
      <use xlink:href="#SFTT3583-73" transform="translate(145.485025 0) scale(0.996264)"/>
      <use xlink:href="#SFTT3583-74" transform="translate(193.980033 0) scale(0.996264)"/>
      <use xlink:href="#SFTT3583-65" transform="translate(242.475042 0) scale(0.996264)"/>
      <use xlink:href="#SFTT3583-72" transform="translate(290.97005 0) scale(0.996264)"/>
      <use xlink:href="#SFTT3583-32" transform="translate(387.960067 0) scale(0.996264)"/>
     </g>
    </g>
   </g>
  </g>
 </g>
 <defs>
  <clipPath id="p540ab73073">
   <rect x="51.078172" y="7.2" width="357.12" height="266.112"/>
  </clipPath>
 </defs>
</svg>