<?xml version="1.0" encoding="utf-8" standalone="no"?>
<!DOCTYPE svg PUBLIC "-//W3C//DTD SVG 1.1//EN"
  "http://www.w3.org/Graphics/SVG/1.1/DTD/svg11.dtd">
<svg xmlns:xlink="http://www.w3.org/1999/xlink" width="667.660747pt" height="381.466505pt" viewBox="0 0 667.660747 381.466505" xmlns="http://www.w3.org/2000/svg" version="1.1">
 <metadata>
  <rdf:RDF xmlns:dc="http://purl.org/dc/elements/1.1/" xmlns:cc="http://creativecommons.org/ns#" xmlns:rdf="http://www.w3.org/1999/02/22-rdf-syntax-ns#">
   <cc:Work>
    <dc:type rdf:resource="http://purl.org/dc/dcmitype/StillImage"/>
    <dc:date>2023-02-03T15:49:27.995698</dc:date>
    <dc:format>image/svg+xml</dc:format>
    <dc:creator>
     <cc:Agent>
      <dc:title>Matplotlib v3.5.2, https://matplotlib.org/</dc:title>
     </cc:Agent>
    </dc:creator>
   </cc:Work>
  </rdf:RDF>
 </metadata>
 <defs>
  <style type="text/css">*{stroke-linejoin: round; stroke-linecap: butt}</style>
 </defs>
 <g id="figure_1">
  <g id="patch_1">
   <path d="M 0 381.466505 
L 667.660747 381.466505 
L 667.660747 0 
L 0 0 
L 0 381.466505 
z
" style="fill: none"/>
  </g>
  <g id="axes_1">
   <g id="patch_2">
    <path d="M 46.660747 346.666159 
L 660.460747 346.666159 
L 660.460747 20.506159 
L 46.660747 20.506159 
z
" style="fill: #ffffff"/>
   </g>
   <g id="matplotlib.axis_1">
    <g id="xtick_1">
     <g id="line2d_1">
      <path d="M 96.428314 346.666159 
L 96.428314 20.506159 
" clip-path="url(#pd62ecfbe8f)" style="fill: none; stroke-dasharray: 0.8,1.32; stroke-dashoffset: 0; stroke: #b0b0b0; stroke-width: 0.8"/>
     </g>
     <g id="line2d_2">
      <defs>
       <path id="m39855bb8c6" d="M 0 0 
L 0 3.5 
" style="stroke: #000000; stroke-width: 0.8"/>
      </defs>
      <g>
       <use xlink:href="#m39855bb8c6" x="96.428314" y="346.666159" style="stroke: #000000; stroke-width: 0.8"/>
      </g>
     </g>
     <g id="text_1">
      <!-- $\mathdefault{5}$ -->
      <g transform="translate(93.937647 359.752953)scale(0.1 -0.1)">
       <defs>
        <path id="CMR17-35" d="M 730 3692 
C 794 3666 1056 3584 1325 3584 
C 1920 3584 2246 3911 2432 4100 
C 2432 4157 2432 4192 2394 4192 
C 2387 4192 2374 4192 2323 4163 
C 2099 4058 1837 3973 1517 3973 
C 1325 3973 1037 3999 723 4139 
C 653 4171 640 4171 634 4171 
C 602 4171 595 4164 595 4037 
L 595 2203 
C 595 2089 595 2057 659 2057 
C 691 2057 704 2070 736 2114 
C 941 2401 1222 2522 1542 2522 
C 1766 2522 2246 2382 2246 1289 
C 2246 1085 2246 715 2054 421 
C 1894 159 1645 25 1370 25 
C 947 25 518 320 403 814 
C 429 807 480 795 506 795 
C 589 795 749 840 749 1038 
C 749 1210 627 1280 506 1280 
C 358 1280 262 1190 262 1011 
C 262 454 704 -128 1382 -128 
C 2042 -128 2669 440 2669 1264 
C 2669 2030 2170 2624 1549 2624 
C 1222 2624 947 2503 730 2274 
L 730 3692 
z
" transform="scale(0.015625)"/>
       </defs>
       <use xlink:href="#CMR17-35" transform="scale(0.996264)"/>
      </g>
     </g>
    </g>
    <g id="xtick_2">
     <g id="line2d_3">
      <path d="M 179.37426 346.666159 
L 179.37426 20.506159 
" clip-path="url(#pd62ecfbe8f)" style="fill: none; stroke-dasharray: 0.8,1.32; stroke-dashoffset: 0; stroke: #b0b0b0; stroke-width: 0.8"/>
     </g>
     <g id="line2d_4">
      <g>
       <use xlink:href="#m39855bb8c6" x="179.37426" y="346.666159" style="stroke: #000000; stroke-width: 0.8"/>
      </g>
     </g>
     <g id="text_2">
      <!-- $\mathdefault{10}$ -->
      <g transform="translate(174.392925 359.752953)scale(0.1 -0.1)">
       <defs>
        <path id="CMR17-31" d="M 1702 4058 
C 1702 4192 1696 4192 1606 4192 
C 1357 3916 979 3827 621 3827 
C 602 3827 570 3827 563 3808 
C 557 3795 557 3782 557 3648 
C 755 3648 1088 3686 1344 3839 
L 1344 461 
C 1344 236 1331 160 781 160 
L 589 160 
L 589 0 
C 896 0 1216 0 1523 0 
C 1830 0 2150 0 2458 0 
L 2458 160 
L 2266 160 
C 1715 160 1702 230 1702 458 
L 1702 4058 
z
" transform="scale(0.015625)"/>
        <path id="CMR17-30" d="M 2688 2025 
C 2688 2416 2682 3080 2413 3591 
C 2176 4039 1798 4198 1466 4198 
C 1158 4198 768 4058 525 3597 
C 269 3118 243 2524 243 2025 
C 243 1661 250 1106 448 619 
C 723 -39 1216 -128 1466 -128 
C 1760 -128 2208 -7 2470 600 
C 2662 1042 2688 1559 2688 2025 
z
M 1466 -26 
C 1056 -26 813 325 723 812 
C 653 1188 653 1738 653 2096 
C 653 2588 653 2997 736 3387 
C 858 3929 1216 4096 1466 4096 
C 1728 4096 2067 3923 2189 3400 
C 2272 3036 2278 2607 2278 2096 
C 2278 1680 2278 1169 2202 792 
C 2067 95 1690 -26 1466 -26 
z
" transform="scale(0.015625)"/>
       </defs>
       <use xlink:href="#CMR17-31" transform="scale(0.996264)"/>
       <use xlink:href="#CMR17-30" transform="translate(45.690477 0)scale(0.996264)"/>
      </g>
     </g>
    </g>
    <g id="xtick_3">
     <g id="line2d_5">
      <path d="M 262.320206 346.666159 
L 262.320206 20.506159 
" clip-path="url(#pd62ecfbe8f)" style="fill: none; stroke-dasharray: 0.8,1.32; stroke-dashoffset: 0; stroke: #b0b0b0; stroke-width: 0.8"/>
     </g>
     <g id="line2d_6">
      <g>
       <use xlink:href="#m39855bb8c6" x="262.320206" y="346.666159" style="stroke: #000000; stroke-width: 0.8"/>
      </g>
     </g>
     <g id="text_3">
      <!-- $\mathdefault{15}$ -->
      <g transform="translate(257.338871 359.752953)scale(0.1 -0.1)">
       <use xlink:href="#CMR17-31" transform="scale(0.996264)"/>
       <use xlink:href="#CMR17-35" transform="translate(45.690477 0)scale(0.996264)"/>
      </g>
     </g>
    </g>
    <g id="xtick_4">
     <g id="line2d_7">
      <path d="M 345.266152 346.666159 
L 345.266152 20.506159 
" clip-path="url(#pd62ecfbe8f)" style="fill: none; stroke-dasharray: 0.8,1.32; stroke-dashoffset: 0; stroke: #b0b0b0; stroke-width: 0.8"/>
     </g>
     <g id="line2d_8">
      <g>
       <use xlink:href="#m39855bb8c6" x="345.266152" y="346.666159" style="stroke: #000000; stroke-width: 0.8"/>
      </g>
     </g>
     <g id="text_4">
      <!-- $\mathdefault{20}$ -->
      <g transform="translate(340.284817 359.752953)scale(0.1 -0.1)">
       <defs>
        <path id="CMR17-32" d="M 2669 989 
L 2554 989 
C 2490 536 2438 459 2413 420 
C 2381 369 1920 369 1830 369 
L 602 369 
C 832 619 1280 1072 1824 1597 
C 2214 1967 2669 2402 2669 3035 
C 2669 3790 2067 4224 1395 4224 
C 691 4224 262 3604 262 3030 
C 262 2780 448 2748 525 2748 
C 589 2748 781 2787 781 3010 
C 781 3207 614 3264 525 3264 
C 486 3264 448 3258 422 3245 
C 544 3790 915 4058 1306 4058 
C 1862 4058 2227 3617 2227 3035 
C 2227 2479 1901 2000 1536 1584 
L 262 146 
L 262 0 
L 2515 0 
L 2669 989 
z
" transform="scale(0.015625)"/>
       </defs>
       <use xlink:href="#CMR17-32" transform="scale(0.996264)"/>
       <use xlink:href="#CMR17-30" transform="translate(45.690477 0)scale(0.996264)"/>
      </g>
     </g>
    </g>
    <g id="xtick_5">
     <g id="line2d_9">
      <path d="M 428.212098 346.666159 
L 428.212098 20.506159 
" clip-path="url(#pd62ecfbe8f)" style="fill: none; stroke-dasharray: 0.8,1.32; stroke-dashoffset: 0; stroke: #b0b0b0; stroke-width: 0.8"/>
     </g>
     <g id="line2d_10">
      <g>
       <use xlink:href="#m39855bb8c6" x="428.212098" y="346.666159" style="stroke: #000000; stroke-width: 0.8"/>
      </g>
     </g>
     <g id="text_5">
      <!-- $\mathdefault{25}$ -->
      <g transform="translate(423.230763 359.752953)scale(0.1 -0.1)">
       <use xlink:href="#CMR17-32" transform="scale(0.996264)"/>
       <use xlink:href="#CMR17-35" transform="translate(45.690477 0)scale(0.996264)"/>
      </g>
     </g>
    </g>
    <g id="xtick_6">
     <g id="line2d_11">
      <path d="M 511.158044 346.666159 
L 511.158044 20.506159 
" clip-path="url(#pd62ecfbe8f)" style="fill: none; stroke-dasharray: 0.8,1.32; stroke-dashoffset: 0; stroke: #b0b0b0; stroke-width: 0.8"/>
     </g>
     <g id="line2d_12">
      <g>
       <use xlink:href="#m39855bb8c6" x="511.158044" y="346.666159" style="stroke: #000000; stroke-width: 0.8"/>
      </g>
     </g>
     <g id="text_6">
      <!-- $\mathdefault{30}$ -->
      <g transform="translate(506.176709 359.752953)scale(0.1 -0.1)">
       <defs>
        <path id="CMR17-33" d="M 1414 2157 
C 1984 2157 2234 1662 2234 1090 
C 2234 320 1824 25 1453 25 
C 1114 25 563 194 390 693 
C 422 680 454 680 486 680 
C 640 680 755 782 755 948 
C 755 1133 614 1216 486 1216 
C 378 1216 211 1165 211 926 
C 211 335 787 -128 1466 -128 
C 2176 -128 2720 430 2720 1085 
C 2720 1707 2208 2157 1600 2227 
C 2086 2328 2554 2756 2554 3329 
C 2554 3820 2048 4179 1472 4179 
C 890 4179 378 3829 378 3329 
C 378 3110 544 3072 627 3072 
C 762 3072 877 3155 877 3321 
C 877 3486 762 3569 627 3569 
C 602 3569 570 3569 544 3557 
C 730 3959 1235 4032 1459 4032 
C 1683 4032 2106 3925 2106 3320 
C 2106 3143 2080 2828 1862 2550 
C 1670 2304 1453 2304 1242 2284 
C 1210 2284 1062 2269 1037 2269 
C 992 2263 966 2257 966 2208 
C 966 2163 973 2157 1101 2157 
L 1414 2157 
z
" transform="scale(0.015625)"/>
       </defs>
       <use xlink:href="#CMR17-33" transform="scale(0.996264)"/>
       <use xlink:href="#CMR17-30" transform="translate(45.690477 0)scale(0.996264)"/>
      </g>
     </g>
    </g>
    <g id="xtick_7">
     <g id="line2d_13">
      <path d="M 594.10399 346.666159 
L 594.10399 20.506159 
" clip-path="url(#pd62ecfbe8f)" style="fill: none; stroke-dasharray: 0.8,1.32; stroke-dashoffset: 0; stroke: #b0b0b0; stroke-width: 0.8"/>
     </g>
     <g id="line2d_14">
      <g>
       <use xlink:href="#m39855bb8c6" x="594.10399" y="346.666159" style="stroke: #000000; stroke-width: 0.8"/>
      </g>
     </g>
     <g id="text_7">
      <!-- $\mathdefault{35}$ -->
      <g transform="translate(589.122655 359.752953)scale(0.1 -0.1)">
       <use xlink:href="#CMR17-33" transform="scale(0.996264)"/>
       <use xlink:href="#CMR17-35" transform="translate(45.690477 0)scale(0.996264)"/>
      </g>
     </g>
    </g>
    <g id="text_8">
     <!-- $n$ -->
     <g transform="translate(350.570784 372.053126)scale(0.1 -0.1)">
      <defs>
       <path id="CMMI12-6e" d="M 1318 1871 
C 1331 1910 1491 2229 1728 2433 
C 1894 2586 2112 2689 2362 2689 
C 2618 2689 2707 2497 2707 2242 
C 2707 1878 2445 1150 2317 805 
C 2259 651 2227 568 2227 453 
C 2227 166 2426 -64 2733 -64 
C 3328 -64 3552 875 3552 913 
C 3552 945 3526 971 3488 971 
C 3430 971 3424 952 3392 843 
C 3245 319 3002 64 2752 64 
C 2688 64 2586 64 2586 269 
C 2586 429 2656 621 2694 710 
C 2822 1063 3091 1780 3091 2145 
C 3091 2528 2867 2816 2381 2816 
C 1811 2816 1510 2415 1395 2255 
C 1376 2618 1114 2816 832 2816 
C 627 2816 486 2695 378 2478 
C 262 2248 173 1865 173 1839 
C 173 1814 198 1782 243 1782 
C 294 1782 301 1788 339 1935 
C 442 2325 557 2689 813 2689 
C 960 2689 1011 2586 1011 2395 
C 1011 2254 947 2005 902 1807 
L 723 1118 
C 698 996 627 709 595 594 
C 550 428 480 128 480 96 
C 480 6 550 -64 646 -64 
C 723 -64 813 -26 864 70 
C 877 102 934 326 966 453 
L 1107 1028 
L 1318 1871 
z
" transform="scale(0.015625)"/>
      </defs>
      <use xlink:href="#CMMI12-6e" transform="scale(0.996264)"/>
     </g>
    </g>
   </g>
   <g id="matplotlib.axis_2">
    <g id="ytick_1">
     <g id="line2d_15">
      <path d="M 46.660747 328.244299 
L 660.460747 328.244299 
" clip-path="url(#pd62ecfbe8f)" style="fill: none; stroke-dasharray: 0.8,1.32; stroke-dashoffset: 0; stroke: #b0b0b0; stroke-width: 0.8"/>
     </g>
     <g id="line2d_16">
      <defs>
       <path id="mc1dd5d3a3b" d="M 0 0 
L -3.5 0 
" style="stroke: #000000; stroke-width: 0.8"/>
      </defs>
      <g>
       <use xlink:href="#mc1dd5d3a3b" x="46.660747" y="328.244299" style="stroke: #000000; stroke-width: 0.8"/>
      </g>
     </g>
     <g id="text_9">
      <!-- $\mathdefault{10^{-3}}$ -->
      <g transform="translate(19.500173 331.287696)scale(0.1 -0.1)">
       <defs>
        <path id="CMSY10-0" d="M 4218 1472 
C 4326 1472 4442 1472 4442 1600 
C 4442 1728 4326 1728 4218 1728 
L 755 1728 
C 646 1728 531 1728 531 1600 
C 531 1472 646 1472 755 1472 
L 4218 1472 
z
" transform="scale(0.015625)"/>
       </defs>
       <use xlink:href="#CMR17-31" transform="scale(0.996264)"/>
       <use xlink:href="#CMR17-30" transform="translate(45.690477 0)scale(0.996264)"/>
       <use xlink:href="#CMSY10-0" transform="translate(91.380954 36.153639)scale(0.697382)"/>
       <use xlink:href="#CMR17-33" transform="translate(145.621947 36.153639)scale(0.697382)"/>
      </g>
     </g>
    </g>
    <g id="ytick_2">
     <g id="line2d_17">
      <path d="M 46.660747 284.669534 
L 660.460747 284.669534 
" clip-path="url(#pd62ecfbe8f)" style="fill: none; stroke-dasharray: 0.8,1.32; stroke-dashoffset: 0; stroke: #b0b0b0; stroke-width: 0.8"/>
     </g>
     <g id="line2d_18">
      <g>
       <use xlink:href="#mc1dd5d3a3b" x="46.660747" y="284.669534" style="stroke: #000000; stroke-width: 0.8"/>
      </g>
     </g>
     <g id="text_10">
      <!-- $\mathdefault{10^{-2}}$ -->
      <g transform="translate(19.500173 287.71293)scale(0.1 -0.1)">
       <use xlink:href="#CMR17-31" transform="scale(0.996264)"/>
       <use xlink:href="#CMR17-30" transform="translate(45.690477 0)scale(0.996264)"/>
       <use xlink:href="#CMSY10-0" transform="translate(91.380954 36.153639)scale(0.697382)"/>
       <use xlink:href="#CMR17-32" transform="translate(145.621947 36.153639)scale(0.697382)"/>
      </g>
     </g>
    </g>
    <g id="ytick_3">
     <g id="line2d_19">
      <path d="M 46.660747 241.094768 
L 660.460747 241.094768 
" clip-path="url(#pd62ecfbe8f)" style="fill: none; stroke-dasharray: 0.8,1.32; stroke-dashoffset: 0; stroke: #b0b0b0; stroke-width: 0.8"/>
     </g>
     <g id="line2d_20">
      <g>
       <use xlink:href="#mc1dd5d3a3b" x="46.660747" y="241.094768" style="stroke: #000000; stroke-width: 0.8"/>
      </g>
     </g>
     <g id="text_11">
      <!-- $\mathdefault{10^{-1}}$ -->
      <g transform="translate(19.500173 244.138165)scale(0.1 -0.1)">
       <use xlink:href="#CMR17-31" transform="scale(0.996264)"/>
       <use xlink:href="#CMR17-30" transform="translate(45.690477 0)scale(0.996264)"/>
       <use xlink:href="#CMSY10-0" transform="translate(91.380954 36.153639)scale(0.697382)"/>
       <use xlink:href="#CMR17-31" transform="translate(145.621947 36.153639)scale(0.697382)"/>
      </g>
     </g>
    </g>
    <g id="ytick_4">
     <g id="line2d_21">
      <path d="M 46.660747 197.520002 
L 660.460747 197.520002 
" clip-path="url(#pd62ecfbe8f)" style="fill: none; stroke-dasharray: 0.8,1.32; stroke-dashoffset: 0; stroke: #b0b0b0; stroke-width: 0.8"/>
     </g>
     <g id="line2d_22">
      <g>
       <use xlink:href="#mc1dd5d3a3b" x="46.660747" y="197.520002" style="stroke: #000000; stroke-width: 0.8"/>
      </g>
     </g>
     <g id="text_12">
      <!-- $\mathdefault{10^{0}}$ -->
      <g transform="translate(25.726838 200.563399)scale(0.1 -0.1)">
       <use xlink:href="#CMR17-31" transform="scale(0.996264)"/>
       <use xlink:href="#CMR17-30" transform="translate(45.690477 0)scale(0.996264)"/>
       <use xlink:href="#CMR17-30" transform="translate(91.380954 36.153639)scale(0.697382)"/>
      </g>
     </g>
    </g>
    <g id="ytick_5">
     <g id="line2d_23">
      <path d="M 46.660747 153.945236 
L 660.460747 153.945236 
" clip-path="url(#pd62ecfbe8f)" style="fill: none; stroke-dasharray: 0.8,1.32; stroke-dashoffset: 0; stroke: #b0b0b0; stroke-width: 0.8"/>
     </g>
     <g id="line2d_24">
      <g>
       <use xlink:href="#mc1dd5d3a3b" x="46.660747" y="153.945236" style="stroke: #000000; stroke-width: 0.8"/>
      </g>
     </g>
     <g id="text_13">
      <!-- $\mathdefault{10^{1}}$ -->
      <g transform="translate(25.726838 156.988633)scale(0.1 -0.1)">
       <use xlink:href="#CMR17-31" transform="scale(0.996264)"/>
       <use xlink:href="#CMR17-30" transform="translate(45.690477 0)scale(0.996264)"/>
       <use xlink:href="#CMR17-31" transform="translate(91.380954 36.153639)scale(0.697382)"/>
      </g>
     </g>
    </g>
    <g id="ytick_6">
     <g id="line2d_25">
      <path d="M 46.660747 110.370471 
L 660.460747 110.370471 
" clip-path="url(#pd62ecfbe8f)" style="fill: none; stroke-dasharray: 0.8,1.32; stroke-dashoffset: 0; stroke: #b0b0b0; stroke-width: 0.8"/>
     </g>
     <g id="line2d_26">
      <g>
       <use xlink:href="#mc1dd5d3a3b" x="46.660747" y="110.370471" style="stroke: #000000; stroke-width: 0.8"/>
      </g>
     </g>
     <g id="text_14">
      <!-- $\mathdefault{10^{2}}$ -->
      <g transform="translate(25.726838 113.413867)scale(0.1 -0.1)">
       <use xlink:href="#CMR17-31" transform="scale(0.996264)"/>
       <use xlink:href="#CMR17-30" transform="translate(45.690477 0)scale(0.996264)"/>
       <use xlink:href="#CMR17-32" transform="translate(91.380954 36.153639)scale(0.697382)"/>
      </g>
     </g>
    </g>
    <g id="ytick_7">
     <g id="line2d_27">
      <path d="M 46.660747 66.795705 
L 660.460747 66.795705 
" clip-path="url(#pd62ecfbe8f)" style="fill: none; stroke-dasharray: 0.8,1.32; stroke-dashoffset: 0; stroke: #b0b0b0; stroke-width: 0.8"/>
     </g>
     <g id="line2d_28">
      <g>
       <use xlink:href="#mc1dd5d3a3b" x="46.660747" y="66.795705" style="stroke: #000000; stroke-width: 0.8"/>
      </g>
     </g>
     <g id="text_15">
      <!-- $\mathdefault{10^{3}}$ -->
      <g transform="translate(25.726838 69.839102)scale(0.1 -0.1)">
       <use xlink:href="#CMR17-31" transform="scale(0.996264)"/>
       <use xlink:href="#CMR17-30" transform="translate(45.690477 0)scale(0.996264)"/>
       <use xlink:href="#CMR17-33" transform="translate(91.380954 36.153639)scale(0.697382)"/>
      </g>
     </g>
    </g>
    <g id="ytick_8">
     <g id="line2d_29">
      <path d="M 46.660747 23.220939 
L 660.460747 23.220939 
" clip-path="url(#pd62ecfbe8f)" style="fill: none; stroke-dasharray: 0.8,1.32; stroke-dashoffset: 0; stroke: #b0b0b0; stroke-width: 0.8"/>
     </g>
     <g id="line2d_30">
      <g>
       <use xlink:href="#mc1dd5d3a3b" x="46.660747" y="23.220939" style="stroke: #000000; stroke-width: 0.8"/>
      </g>
     </g>
     <g id="text_16">
      <!-- $\mathdefault{10^{4}}$ -->
      <g transform="translate(25.726838 26.264336)scale(0.1 -0.1)">
       <defs>
        <path id="CMR17-34" d="M 2150 4122 
C 2150 4256 2144 4256 2029 4256 
L 128 1254 
L 128 1088 
L 1779 1088 
L 1779 457 
C 1779 224 1766 160 1318 160 
L 1197 160 
L 1197 0 
C 1402 0 1747 0 1965 0 
C 2182 0 2528 0 2733 0 
L 2733 160 
L 2611 160 
C 2163 160 2150 224 2150 457 
L 2150 1088 
L 2803 1088 
L 2803 1254 
L 2150 1254 
L 2150 4122 
z
M 1798 3703 
L 1798 1254 
L 256 1254 
L 1798 3703 
z
" transform="scale(0.015625)"/>
       </defs>
       <use xlink:href="#CMR17-31" transform="scale(0.996264)"/>
       <use xlink:href="#CMR17-30" transform="translate(45.690477 0)scale(0.996264)"/>
       <use xlink:href="#CMR17-34" transform="translate(91.380954 36.153639)scale(0.697382)"/>
      </g>
     </g>
    </g>
    <g id="ytick_9">
     <g id="line2d_31">
      <defs>
       <path id="m27d74dda53" d="M 0 0 
L -2 0 
" style="stroke: #000000; stroke-width: 0.6"/>
      </defs>
      <g>
       <use xlink:href="#m27d74dda53" x="46.660747" y="345.584442" style="stroke: #000000; stroke-width: 0.6"/>
      </g>
     </g>
    </g>
    <g id="ytick_10">
     <g id="line2d_32">
      <g>
       <use xlink:href="#m27d74dda53" x="46.660747" y="341.361611" style="stroke: #000000; stroke-width: 0.6"/>
      </g>
     </g>
    </g>
    <g id="ytick_11">
     <g id="line2d_33">
      <g>
       <use xlink:href="#m27d74dda53" x="46.660747" y="337.911307" style="stroke: #000000; stroke-width: 0.6"/>
      </g>
     </g>
    </g>
    <g id="ytick_12">
     <g id="line2d_34">
      <g>
       <use xlink:href="#m27d74dda53" x="46.660747" y="334.994116" style="stroke: #000000; stroke-width: 0.6"/>
      </g>
     </g>
    </g>
    <g id="ytick_13">
     <g id="line2d_35">
      <g>
       <use xlink:href="#m27d74dda53" x="46.660747" y="332.467131" style="stroke: #000000; stroke-width: 0.6"/>
      </g>
     </g>
    </g>
    <g id="ytick_14">
     <g id="line2d_36">
      <g>
       <use xlink:href="#m27d74dda53" x="46.660747" y="330.238171" style="stroke: #000000; stroke-width: 0.6"/>
      </g>
     </g>
    </g>
    <g id="ytick_15">
     <g id="line2d_37">
      <g>
       <use xlink:href="#m27d74dda53" x="46.660747" y="315.126988" style="stroke: #000000; stroke-width: 0.6"/>
      </g>
     </g>
    </g>
    <g id="ytick_16">
     <g id="line2d_38">
      <g>
       <use xlink:href="#m27d74dda53" x="46.660747" y="307.453852" style="stroke: #000000; stroke-width: 0.6"/>
      </g>
     </g>
    </g>
    <g id="ytick_17">
     <g id="line2d_39">
      <g>
       <use xlink:href="#m27d74dda53" x="46.660747" y="302.009676" style="stroke: #000000; stroke-width: 0.6"/>
      </g>
     </g>
    </g>
    <g id="ytick_18">
     <g id="line2d_40">
      <g>
       <use xlink:href="#m27d74dda53" x="46.660747" y="297.786845" style="stroke: #000000; stroke-width: 0.6"/>
      </g>
     </g>
    </g>
    <g id="ytick_19">
     <g id="line2d_41">
      <g>
       <use xlink:href="#m27d74dda53" x="46.660747" y="294.336541" style="stroke: #000000; stroke-width: 0.6"/>
      </g>
     </g>
    </g>
    <g id="ytick_20">
     <g id="line2d_42">
      <g>
       <use xlink:href="#m27d74dda53" x="46.660747" y="291.41935" style="stroke: #000000; stroke-width: 0.6"/>
      </g>
     </g>
    </g>
    <g id="ytick_21">
     <g id="line2d_43">
      <g>
       <use xlink:href="#m27d74dda53" x="46.660747" y="288.892365" style="stroke: #000000; stroke-width: 0.6"/>
      </g>
     </g>
    </g>
    <g id="ytick_22">
     <g id="line2d_44">
      <g>
       <use xlink:href="#m27d74dda53" x="46.660747" y="286.663406" style="stroke: #000000; stroke-width: 0.6"/>
      </g>
     </g>
    </g>
    <g id="ytick_23">
     <g id="line2d_45">
      <g>
       <use xlink:href="#m27d74dda53" x="46.660747" y="271.552222" style="stroke: #000000; stroke-width: 0.6"/>
      </g>
     </g>
    </g>
    <g id="ytick_24">
     <g id="line2d_46">
      <g>
       <use xlink:href="#m27d74dda53" x="46.660747" y="263.879087" style="stroke: #000000; stroke-width: 0.6"/>
      </g>
     </g>
    </g>
    <g id="ytick_25">
     <g id="line2d_47">
      <g>
       <use xlink:href="#m27d74dda53" x="46.660747" y="258.434911" style="stroke: #000000; stroke-width: 0.6"/>
      </g>
     </g>
    </g>
    <g id="ytick_26">
     <g id="line2d_48">
      <g>
       <use xlink:href="#m27d74dda53" x="46.660747" y="254.212079" style="stroke: #000000; stroke-width: 0.6"/>
      </g>
     </g>
    </g>
    <g id="ytick_27">
     <g id="line2d_49">
      <g>
       <use xlink:href="#m27d74dda53" x="46.660747" y="250.761775" style="stroke: #000000; stroke-width: 0.6"/>
      </g>
     </g>
    </g>
    <g id="ytick_28">
     <g id="line2d_50">
      <g>
       <use xlink:href="#m27d74dda53" x="46.660747" y="247.844585" style="stroke: #000000; stroke-width: 0.6"/>
      </g>
     </g>
    </g>
    <g id="ytick_29">
     <g id="line2d_51">
      <g>
       <use xlink:href="#m27d74dda53" x="46.660747" y="245.317599" style="stroke: #000000; stroke-width: 0.6"/>
      </g>
     </g>
    </g>
    <g id="ytick_30">
     <g id="line2d_52">
      <g>
       <use xlink:href="#m27d74dda53" x="46.660747" y="243.08864" style="stroke: #000000; stroke-width: 0.6"/>
      </g>
     </g>
    </g>
    <g id="ytick_31">
     <g id="line2d_53">
      <g>
       <use xlink:href="#m27d74dda53" x="46.660747" y="227.977456" style="stroke: #000000; stroke-width: 0.6"/>
      </g>
     </g>
    </g>
    <g id="ytick_32">
     <g id="line2d_54">
      <g>
       <use xlink:href="#m27d74dda53" x="46.660747" y="220.304321" style="stroke: #000000; stroke-width: 0.6"/>
      </g>
     </g>
    </g>
    <g id="ytick_33">
     <g id="line2d_55">
      <g>
       <use xlink:href="#m27d74dda53" x="46.660747" y="214.860145" style="stroke: #000000; stroke-width: 0.6"/>
      </g>
     </g>
    </g>
    <g id="ytick_34">
     <g id="line2d_56">
      <g>
       <use xlink:href="#m27d74dda53" x="46.660747" y="210.637314" style="stroke: #000000; stroke-width: 0.6"/>
      </g>
     </g>
    </g>
    <g id="ytick_35">
     <g id="line2d_57">
      <g>
       <use xlink:href="#m27d74dda53" x="46.660747" y="207.187009" style="stroke: #000000; stroke-width: 0.6"/>
      </g>
     </g>
    </g>
    <g id="ytick_36">
     <g id="line2d_58">
      <g>
       <use xlink:href="#m27d74dda53" x="46.660747" y="204.269819" style="stroke: #000000; stroke-width: 0.6"/>
      </g>
     </g>
    </g>
    <g id="ytick_37">
     <g id="line2d_59">
      <g>
       <use xlink:href="#m27d74dda53" x="46.660747" y="201.742833" style="stroke: #000000; stroke-width: 0.6"/>
      </g>
     </g>
    </g>
    <g id="ytick_38">
     <g id="line2d_60">
      <g>
       <use xlink:href="#m27d74dda53" x="46.660747" y="199.513874" style="stroke: #000000; stroke-width: 0.6"/>
      </g>
     </g>
    </g>
    <g id="ytick_39">
     <g id="line2d_61">
      <g>
       <use xlink:href="#m27d74dda53" x="46.660747" y="184.402691" style="stroke: #000000; stroke-width: 0.6"/>
      </g>
     </g>
    </g>
    <g id="ytick_40">
     <g id="line2d_62">
      <g>
       <use xlink:href="#m27d74dda53" x="46.660747" y="176.729555" style="stroke: #000000; stroke-width: 0.6"/>
      </g>
     </g>
    </g>
    <g id="ytick_41">
     <g id="line2d_63">
      <g>
       <use xlink:href="#m27d74dda53" x="46.660747" y="171.285379" style="stroke: #000000; stroke-width: 0.6"/>
      </g>
     </g>
    </g>
    <g id="ytick_42">
     <g id="line2d_64">
      <g>
       <use xlink:href="#m27d74dda53" x="46.660747" y="167.062548" style="stroke: #000000; stroke-width: 0.6"/>
      </g>
     </g>
    </g>
    <g id="ytick_43">
     <g id="line2d_65">
      <g>
       <use xlink:href="#m27d74dda53" x="46.660747" y="163.612244" style="stroke: #000000; stroke-width: 0.6"/>
      </g>
     </g>
    </g>
    <g id="ytick_44">
     <g id="line2d_66">
      <g>
       <use xlink:href="#m27d74dda53" x="46.660747" y="160.695053" style="stroke: #000000; stroke-width: 0.6"/>
      </g>
     </g>
    </g>
    <g id="ytick_45">
     <g id="line2d_67">
      <g>
       <use xlink:href="#m27d74dda53" x="46.660747" y="158.168067" style="stroke: #000000; stroke-width: 0.6"/>
      </g>
     </g>
    </g>
    <g id="ytick_46">
     <g id="line2d_68">
      <g>
       <use xlink:href="#m27d74dda53" x="46.660747" y="155.939108" style="stroke: #000000; stroke-width: 0.6"/>
      </g>
     </g>
    </g>
    <g id="ytick_47">
     <g id="line2d_69">
      <g>
       <use xlink:href="#m27d74dda53" x="46.660747" y="140.827925" style="stroke: #000000; stroke-width: 0.6"/>
      </g>
     </g>
    </g>
    <g id="ytick_48">
     <g id="line2d_70">
      <g>
       <use xlink:href="#m27d74dda53" x="46.660747" y="133.154789" style="stroke: #000000; stroke-width: 0.6"/>
      </g>
     </g>
    </g>
    <g id="ytick_49">
     <g id="line2d_71">
      <g>
       <use xlink:href="#m27d74dda53" x="46.660747" y="127.710613" style="stroke: #000000; stroke-width: 0.6"/>
      </g>
     </g>
    </g>
    <g id="ytick_50">
     <g id="line2d_72">
      <g>
       <use xlink:href="#m27d74dda53" x="46.660747" y="123.487782" style="stroke: #000000; stroke-width: 0.6"/>
      </g>
     </g>
    </g>
    <g id="ytick_51">
     <g id="line2d_73">
      <g>
       <use xlink:href="#m27d74dda53" x="46.660747" y="120.037478" style="stroke: #000000; stroke-width: 0.6"/>
      </g>
     </g>
    </g>
    <g id="ytick_52">
     <g id="line2d_74">
      <g>
       <use xlink:href="#m27d74dda53" x="46.660747" y="117.120287" style="stroke: #000000; stroke-width: 0.6"/>
      </g>
     </g>
    </g>
    <g id="ytick_53">
     <g id="line2d_75">
      <g>
       <use xlink:href="#m27d74dda53" x="46.660747" y="114.593302" style="stroke: #000000; stroke-width: 0.6"/>
      </g>
     </g>
    </g>
    <g id="ytick_54">
     <g id="line2d_76">
      <g>
       <use xlink:href="#m27d74dda53" x="46.660747" y="112.364343" style="stroke: #000000; stroke-width: 0.6"/>
      </g>
     </g>
    </g>
    <g id="ytick_55">
     <g id="line2d_77">
      <g>
       <use xlink:href="#m27d74dda53" x="46.660747" y="97.253159" style="stroke: #000000; stroke-width: 0.6"/>
      </g>
     </g>
    </g>
    <g id="ytick_56">
     <g id="line2d_78">
      <g>
       <use xlink:href="#m27d74dda53" x="46.660747" y="89.580024" style="stroke: #000000; stroke-width: 0.6"/>
      </g>
     </g>
    </g>
    <g id="ytick_57">
     <g id="line2d_79">
      <g>
       <use xlink:href="#m27d74dda53" x="46.660747" y="84.135848" style="stroke: #000000; stroke-width: 0.6"/>
      </g>
     </g>
    </g>
    <g id="ytick_58">
     <g id="line2d_80">
      <g>
       <use xlink:href="#m27d74dda53" x="46.660747" y="79.913016" style="stroke: #000000; stroke-width: 0.6"/>
      </g>
     </g>
    </g>
    <g id="ytick_59">
     <g id="line2d_81">
      <g>
       <use xlink:href="#m27d74dda53" x="46.660747" y="76.462712" style="stroke: #000000; stroke-width: 0.6"/>
      </g>
     </g>
    </g>
    <g id="ytick_60">
     <g id="line2d_82">
      <g>
       <use xlink:href="#m27d74dda53" x="46.660747" y="73.545521" style="stroke: #000000; stroke-width: 0.6"/>
      </g>
     </g>
    </g>
    <g id="ytick_61">
     <g id="line2d_83">
      <g>
       <use xlink:href="#m27d74dda53" x="46.660747" y="71.018536" style="stroke: #000000; stroke-width: 0.6"/>
      </g>
     </g>
    </g>
    <g id="ytick_62">
     <g id="line2d_84">
      <g>
       <use xlink:href="#m27d74dda53" x="46.660747" y="68.789577" style="stroke: #000000; stroke-width: 0.6"/>
      </g>
     </g>
    </g>
    <g id="ytick_63">
     <g id="line2d_85">
      <g>
       <use xlink:href="#m27d74dda53" x="46.660747" y="53.678393" style="stroke: #000000; stroke-width: 0.6"/>
      </g>
     </g>
    </g>
    <g id="ytick_64">
     <g id="line2d_86">
      <g>
       <use xlink:href="#m27d74dda53" x="46.660747" y="46.005258" style="stroke: #000000; stroke-width: 0.6"/>
      </g>
     </g>
    </g>
    <g id="ytick_65">
     <g id="line2d_87">
      <g>
       <use xlink:href="#m27d74dda53" x="46.660747" y="40.561082" style="stroke: #000000; stroke-width: 0.6"/>
      </g>
     </g>
    </g>
    <g id="ytick_66">
     <g id="line2d_88">
      <g>
       <use xlink:href="#m27d74dda53" x="46.660747" y="36.338251" style="stroke: #000000; stroke-width: 0.6"/>
      </g>
     </g>
    </g>
    <g id="ytick_67">
     <g id="line2d_89">
      <g>
       <use xlink:href="#m27d74dda53" x="46.660747" y="32.887946" style="stroke: #000000; stroke-width: 0.6"/>
      </g>
     </g>
    </g>
    <g id="ytick_68">
     <g id="line2d_90">
      <g>
       <use xlink:href="#m27d74dda53" x="46.660747" y="29.970756" style="stroke: #000000; stroke-width: 0.6"/>
      </g>
     </g>
    </g>
    <g id="ytick_69">
     <g id="line2d_91">
      <g>
       <use xlink:href="#m27d74dda53" x="46.660747" y="27.44377" style="stroke: #000000; stroke-width: 0.6"/>
      </g>
     </g>
    </g>
    <g id="ytick_70">
     <g id="line2d_92">
      <g>
       <use xlink:href="#m27d74dda53" x="46.660747" y="25.214811" style="stroke: #000000; stroke-width: 0.6"/>
      </g>
     </g>
    </g>
    <g id="text_17">
     <!-- $\mathcal L$ -->
     <g transform="translate(13.286794 187.021899)rotate(-90)scale(0.1 -0.1)">
      <defs>
       <path id="CMSY10-4c" d="M 1152 610 
C 1498 1151 1606 1562 1690 1903 
C 1914 2790 2157 3562 2554 4005 
C 2630 4090 2682 4147 2886 4147 
C 3328 4147 3341 3704 3341 3613 
C 3341 3498 3309 3407 3309 3375 
C 3309 3330 3347 3330 3354 3330 
C 3456 3330 3629 3401 3789 3517 
C 3904 3607 3962 3671 3962 3934 
C 3962 4281 3782 4544 3424 4544 
C 3219 4544 2656 4493 2029 3856 
C 1517 3329 1216 2172 1094 1690 
C 979 1248 928 1048 736 662 
C 691 586 525 303 435 219 
C 262 59 198 -57 198 -89 
C 198 -102 211 -128 256 -128 
C 282 -128 416 -102 582 5 
C 691 68 704 80 851 231 
C 1171 231 1395 173 1798 58 
C 2125 -32 2451 -128 2778 -128 
C 3296 -128 3821 264 4026 546 
C 4154 719 4192 880 4192 899 
C 4192 944 4154 944 4147 944 
C 4045 944 3891 874 3782 796 
C 3610 687 3597 649 3558 539 
C 3526 436 3488 385 3462 346 
C 3411 269 3405 269 3309 269 
C 3002 269 2682 366 2259 481 
C 2080 532 1728 636 1408 636 
C 1325 636 1235 629 1152 610 
z
" transform="scale(0.015625)"/>
      </defs>
      <use xlink:href="#CMSY10-4c" transform="scale(0.996264)"/>
     </g>
    </g>
   </g>
   <g id="line2d_93">
    <path d="M 46.660747 261.092696 
L 63.249936 256.477412 
L 79.839125 271.230733 
L 96.428314 271.205359 
L 113.017503 286.677402 
L 129.606693 285.248485 
L 146.195882 288.463663 
L 162.785071 286.665941 
L 179.37426 295.24109 
L 195.963449 294.334398 
L 212.552638 303.852464 
L 229.141828 302.34551 
L 245.731017 303.823069 
L 262.320206 302.278064 
L 278.909395 308.731869 
L 295.498584 307.616138 
L 312.087774 313.835379 
L 328.676963 312.490912 
L 345.266152 313.387713 
L 361.855341 312.355083 
L 378.44453 318.969215 
L 395.03372 318.316686 
L 411.622909 322.439068 
L 428.212098 321.667747 
L 444.801287 323.907019 
L 461.390476 323.403536 
L 477.979665 331.221237 
L 494.568855 330.614108 
L 511.158044 326.415328 
L 527.747233 330.302878 
L 544.336422 331.840704 
L 560.925611 321.302004 
L 577.514801 256.812022 
L 594.10399 317.823312 
L 610.693179 326.865852 
L 627.282368 319.715316 
L 643.871557 315.598192 
L 660.460747 321.173313 
" clip-path="url(#pd62ecfbe8f)" style="fill: none; stroke: #ff0000; stroke-width: 2; stroke-linecap: square"/>
   </g>
   <g id="line2d_94">
    <path d="M 46.660747 261.087404 
L 63.249936 256.567352 
L 79.839125 271.639808 
L 96.428314 271.673402 
L 113.017503 286.737504 
L 129.606693 285.223866 
L 146.195882 288.331798 
L 162.785071 286.557136 
L 179.37426 295.107256 
L 195.963449 294.175026 
L 212.552638 303.274591 
L 229.141828 301.8098 
L 245.731017 303.230237 
L 262.320206 301.81167 
L 278.909395 306.972726 
L 295.498584 306.009228 
L 312.087774 312.280009 
L 328.676963 311.065687 
L 345.266152 309.364328 
L 361.855341 307.851599 
L 378.44453 295.385211 
L 395.03372 294.552363 
L 411.622909 293.209175 
L 428.212098 293.340454 
L 444.801287 253.233047 
L 461.390476 251.759167 
L 477.979665 210.253112 
L 494.568855 210.277875 
L 511.158044 194.72164 
L 527.747233 194.142499 
L 544.336422 103.461658 
L 560.925611 153.830955 
L 577.514801 98.386437 
L 594.10399 112.214891 
L 610.693179 101.429672 
L 627.282368 78.797032 
L 643.871557 49.91763 
L 660.460747 35.331614 
" clip-path="url(#pd62ecfbe8f)" style="fill: none; stroke: #0000ff; stroke-width: 2; stroke-linecap: square"/>
   </g>
   <g id="patch_3">
    <path d="M 46.660747 346.666159 
L 46.660747 20.506159 
" style="fill: none; stroke: #000000; stroke-width: 0.8; stroke-linejoin: miter; stroke-linecap: square"/>
   </g>
   <g id="patch_4">
    <path d="M 660.460747 346.666159 
L 660.460747 20.506159 
" style="fill: none; stroke: #000000; stroke-width: 0.8; stroke-linejoin: miter; stroke-linecap: square"/>
   </g>
   <g id="patch_5">
    <path d="M 46.660747 346.666159 
L 660.460747 346.666159 
" style="fill: none; stroke: #000000; stroke-width: 0.8; stroke-linejoin: miter; stroke-linecap: square"/>
   </g>
   <g id="patch_6">
    <path d="M 46.660747 20.506159 
L 660.460747 20.506159 
" style="fill: none; stroke: #000000; stroke-width: 0.8; stroke-linejoin: miter; stroke-linecap: square"/>
   </g>
   <g id="text_18">
    <!-- Scores, $\ell=50$ -->
    <g transform="translate(312.776835 14.506159)scale(0.12 -0.12)">
     <defs>
      <path id="SFTT3583-53" d="M 608 363 
C 896 76 1274 -64 1696 -64 
C 2355 -64 2797 469 2797 1027 
C 2797 1458 2534 1902 2086 2055 
C 1498 2258 614 2258 614 2992 
L 614 2998 
C 614 3435 1037 3707 1427 3707 
C 1926 3707 2259 3331 2330 2751 
C 2349 2655 2374 2624 2458 2624 
L 2515 2624 
C 2630 2624 2643 2675 2643 2745 
L 2643 3891 
C 2643 3961 2598 4000 2534 4000 
C 2432 4000 2419 3910 2406 3828 
C 2387 3745 2362 3656 2349 3573 
C 2259 3648 2195 3730 2093 3799 
C 1901 3931 1651 4000 1414 4000 
C 838 4000 314 3567 314 2962 
C 314 2560 595 2197 960 2044 
C 1050 2006 1146 1987 1242 1961 
L 1619 1866 
C 1798 1821 1990 1796 2144 1687 
C 2362 1535 2496 1280 2496 1019 
C 2496 598 2144 229 1696 229 
C 1197 229 621 509 621 1171 
C 621 1254 602 1312 506 1312 
L 448 1312 
C 358 1312 314 1273 314 1203 
L 314 44 
C 314 -26 358 -64 422 -64 
C 525 -64 538 25 550 108 
C 570 191 595 281 608 363 
z
" transform="scale(0.015625)"/>
      <path id="SFTT3583-63" d="M 1638 2816 
C 896 2701 486 2066 486 1392 
C 486 724 934 -32 1715 -32 
C 2125 -32 2515 146 2694 515 
C 2720 559 2758 642 2758 706 
C 2758 757 2733 789 2688 801 
L 2579 801 
C 2406 801 2387 261 1856 261 
C 1242 261 794 812 794 1394 
C 794 1914 1133 2516 1747 2516 
L 1798 2516 
C 1952 2516 2349 2459 2349 2306 
C 2349 2262 2330 2223 2330 2179 
C 2342 2084 2419 2014 2509 2014 
C 2643 2014 2694 2122 2694 2218 
C 2694 2720 2029 2816 1709 2816 
L 1638 2816 
z
" transform="scale(0.015625)"/>
      <path id="SFTT3583-6f" d="M 1478 2810 
C 781 2722 390 2044 390 1380 
C 390 747 819 -32 1549 -32 
C 2298 -32 2726 747 2726 1386 
C 2726 2025 2291 2816 1562 2816 
C 1536 2816 1504 2810 1478 2810 
z
M 698 1326 
C 698 1357 691 1389 691 1420 
C 691 1922 1024 2498 1562 2498 
L 1594 2498 
C 2144 2498 2413 1899 2413 1440 
C 2413 930 2112 268 1555 268 
L 1517 268 
C 986 311 742 882 698 1326 
z
" transform="scale(0.015625)"/>
      <path id="SFTT3583-72" d="M 1274 2100 
L 1267 2599 
C 1267 2707 1210 2752 1101 2752 
L 486 2752 
C 384 2752 320 2714 320 2605 
C 320 2497 390 2459 499 2459 
L 960 2459 
L 960 293 
L 486 293 
C 378 293 320 236 320 147 
C 320 51 378 0 480 0 
L 1952 0 
C 2029 13 2067 77 2067 147 
C 2067 242 2016 293 1894 293 
L 1267 293 
L 1267 1232 
C 1267 1845 1632 2496 2336 2496 
L 2426 2496 
C 2598 2496 2509 2318 2714 2318 
C 2810 2318 2893 2393 2893 2494 
C 2893 2751 2573 2789 2362 2789 
L 2298 2789 
C 1882 2789 1408 2473 1274 2100 
z
" transform="scale(0.015625)"/>
      <path id="SFTT3583-65" d="M 691 1287 
L 2573 1287 
C 2675 1287 2733 1338 2733 1447 
L 2733 1511 
C 2733 2163 2362 2816 1606 2816 
C 858 2816 378 2098 378 1405 
C 378 743 806 38 1606 -32 
L 1683 -32 
C 2106 -32 2592 208 2714 632 
C 2720 656 2726 682 2726 707 
C 2726 789 2662 827 2573 827 
C 2413 827 2419 689 2368 601 
C 2240 393 2003 261 1754 261 
C 1210 261 691 758 691 1287 
z
M 691 1536 
C 710 1620 717 1702 742 1786 
C 864 2177 1184 2516 1619 2516 
C 2157 2516 2419 2023 2419 1536 
L 691 1536 
z
" transform="scale(0.015625)"/>
      <path id="SFTT3583-73" d="M 730 350 
C 966 82 1254 -32 1587 -32 
C 2061 -32 2720 133 2720 777 
C 2720 1503 1830 1586 1434 1656 
C 1274 1681 723 1752 723 2089 
C 723 2516 1376 2516 1536 2516 
C 1837 2516 2170 2389 2221 2056 
C 2253 1955 2202 1809 2362 1809 
L 2413 1809 
C 2515 1809 2554 1854 2554 1943 
C 2554 1975 2547 2013 2547 2039 
L 2547 2676 
C 2547 2758 2528 2816 2438 2816 
C 2330 2816 2291 2669 2278 2580 
C 2189 2637 2112 2701 2010 2739 
C 1862 2797 1702 2816 1549 2816 
C 1050 2816 429 2660 429 2105 
C 429 1355 1638 1355 2048 1203 
C 2234 1136 2426 990 2426 790 
L 2426 758 
C 2368 344 1933 261 1613 261 
C 1210 261 922 465 774 923 
C 749 1051 742 1159 602 1159 
L 563 1159 
C 474 1159 422 1134 422 993 
C 422 936 429 885 429 834 
L 429 114 
C 429 38 442 -32 538 -32 
C 666 -32 698 216 730 350 
z
" transform="scale(0.015625)"/>
      <path id="SFTT3583-2c" d="M 1632 13 
C 1632 -250 1498 -482 1235 -595 
C 1190 -613 1133 -626 1120 -682 
L 1120 -708 
C 1120 -770 1203 -851 1267 -864 
L 1286 -864 
C 1370 -864 1478 -801 1555 -737 
C 1786 -574 1926 -296 1926 -19 
C 1926 201 1830 497 1555 497 
C 1408 497 1306 376 1306 242 
C 1306 102 1414 0 1549 0 
C 1574 0 1606 7 1632 13 
z
" transform="scale(0.015625)"/>
      <path id="CMMI12-60" d="M 589 1088 
C 186 692 83 597 83 572 
C 83 546 109 501 154 501 
C 186 501 550 851 602 909 
C 640 482 800 -73 1299 -73 
C 1555 -73 1786 86 1888 163 
C 1971 227 2278 488 2278 546 
C 2278 578 2246 616 2214 616 
C 2189 616 2093 520 2067 495 
C 1843 278 1562 55 1306 55 
C 960 55 915 552 915 897 
C 915 960 915 1228 960 1279 
C 1338 1667 2522 2886 2522 4014 
C 2522 4269 2426 4492 2150 4492 
C 1555 4492 1037 3178 947 2936 
C 922 2873 550 1891 589 1088 
z
M 973 1471 
C 979 1509 1267 3186 1805 4082 
C 1914 4255 2022 4364 2150 4364 
C 2368 4364 2381 4159 2381 4018 
C 2381 3794 2317 3218 1760 2412 
C 1594 2175 1338 1855 973 1471 
z
" transform="scale(0.015625)"/>
      <path id="CMR17-3d" d="M 4115 2017 
C 4211 2017 4307 2017 4307 2125 
C 4307 2240 4198 2240 4090 2240 
L 512 2240 
C 403 2240 294 2240 294 2125 
C 294 2017 390 2017 486 2017 
L 4115 2017 
z
M 4090 896 
C 4198 896 4307 896 4307 1011 
C 4307 1119 4211 1119 4115 1119 
L 486 1119 
C 390 1119 294 1119 294 1011 
C 294 896 403 896 512 896 
L 4090 896 
z
" transform="scale(0.015625)"/>
     </defs>
     <use xlink:href="#SFTT3583-53" transform="scale(0.996264)"/>
     <use xlink:href="#SFTT3583-63" transform="translate(48.495008 0)scale(0.996264)"/>
     <use xlink:href="#SFTT3583-6f" transform="translate(96.990017 0)scale(0.996264)"/>
     <use xlink:href="#SFTT3583-72" transform="translate(145.485025 0)scale(0.996264)"/>
     <use xlink:href="#SFTT3583-65" transform="translate(193.980033 0)scale(0.996264)"/>
     <use xlink:href="#SFTT3583-73" transform="translate(242.475042 0)scale(0.996264)"/>
     <use xlink:href="#SFTT3583-2c" transform="translate(290.97005 0)scale(0.996264)"/>
     <use xlink:href="#CMMI12-60" transform="translate(387.960067 0)scale(0.996264)"/>
     <use xlink:href="#CMR17-3d" transform="translate(456.568295 0)scale(0.996264)"/>
     <use xlink:href="#CMR17-35" transform="translate(555.957092 0)scale(0.996264)"/>
     <use xlink:href="#CMR17-30" transform="translate(601.647569 0)scale(0.996264)"/>
    </g>
   </g>
   <g id="legend_1">
    <g id="patch_7">
     <path d="M 53.660747 56.932918 
L 137.951838 56.932918 
Q 139.951838 56.932918 139.951838 54.932918 
L 139.951838 27.506159 
Q 139.951838 25.506159 137.951838 25.506159 
L 53.660747 25.506159 
Q 51.660747 25.506159 51.660747 27.506159 
L 51.660747 54.932918 
Q 51.660747 56.932918 53.660747 56.932918 
z
" style="fill: #ffffff; opacity: 0.8; stroke: #cccccc; stroke-linejoin: miter"/>
    </g>
    <g id="line2d_95">
     <path d="M 55.660747 33.006159 
L 65.660747 33.006159 
L 75.660747 33.006159 
" style="fill: none; stroke: #ff0000; stroke-width: 2; stroke-linecap: square"/>
    </g>
    <g id="text_19">
     <!-- train loss -->
     <g transform="translate(83.660747 36.506159)scale(0.1 -0.1)">
      <defs>
       <path id="SFTT3583-74" d="M 960 2752 
L 486 2752 
C 442 2752 397 2752 352 2752 
C 224 2752 147 2709 147 2602 
C 147 2483 237 2459 320 2459 
L 960 2459 
L 960 637 
C 998 242 1261 -32 1683 -32 
C 2125 -32 2669 191 2669 751 
L 2669 898 
C 2669 993 2624 1076 2515 1076 
C 2413 1076 2362 1006 2362 904 
L 2362 783 
C 2362 407 2080 261 1786 261 
C 1370 261 1267 535 1267 809 
L 1267 2459 
L 2227 2459 
C 2259 2459 2304 2459 2342 2459 
C 2451 2459 2534 2490 2534 2627 
C 2534 2739 2432 2752 2355 2752 
L 1267 2752 
L 1267 3351 
C 1267 3439 1235 3520 1120 3520 
C 1011 3520 954 3451 954 3333 
C 954 3290 960 3239 960 3201 
L 960 2752 
z
" transform="scale(0.015625)"/>
       <path id="SFTT3583-61" d="M 2093 1625 
C 1472 1625 365 1490 365 716 
C 365 294 717 -32 1158 -32 
C 1498 -32 1882 77 2112 326 
C 2144 114 2349 -32 2554 -32 
C 2842 -32 3078 194 3078 490 
L 3078 580 
C 3078 613 3085 652 3085 691 
C 3085 789 3027 861 2925 861 
C 2829 861 2771 795 2771 704 
L 2771 665 
C 2771 619 2778 574 2778 528 
C 2778 410 2714 267 2586 267 
C 2470 267 2400 377 2400 506 
L 2400 1938 
C 2355 2462 1888 2816 1376 2816 
C 1037 2816 544 2646 544 2216 
C 544 2096 627 2026 730 2026 
C 838 2026 909 2108 909 2208 
L 909 2234 
C 902 2252 890 2277 890 2303 
L 890 2316 
C 934 2473 1248 2523 1370 2523 
C 1632 2523 1888 2397 2016 2158 
C 2086 2026 2093 1882 2093 1744 
L 2093 1625 
z
M 2093 1408 
L 2093 870 
C 2093 434 1702 261 1299 261 
C 1037 261 672 389 672 723 
C 672 1113 1171 1286 1478 1351 
C 1683 1389 1888 1408 2093 1408 
z
" transform="scale(0.015625)"/>
       <path id="SFTT3583-69" d="M 1478 2432 
L 1478 293 
L 813 293 
C 691 293 621 249 621 147 
C 621 77 659 13 736 0 
L 2394 0 
C 2490 0 2554 38 2554 144 
C 2554 249 2470 293 2368 293 
C 2323 293 2278 293 2240 293 
L 1786 293 
L 1786 2548 
C 1786 2713 1715 2732 1613 2732 
L 864 2732 
C 774 2732 666 2719 666 2585 
C 666 2471 749 2432 858 2432 
C 902 2432 954 2432 998 2432 
L 1478 2432 
z
M 1549 3898 
C 1523 3898 1498 3885 1472 3872 
L 1414 3814 
C 1389 3782 1382 3743 1382 3705 
C 1382 3602 1466 3499 1581 3499 
C 1619 3499 1658 3512 1696 3531 
L 1754 3589 
C 1779 3621 1786 3660 1786 3698 
C 1786 3801 1702 3904 1587 3904 
C 1574 3904 1562 3898 1549 3898 
z
" transform="scale(0.015625)"/>
       <path id="SFTT3583-6e" d="M 941 2312 
L 934 2573 
C 934 2688 902 2752 774 2752 
L 346 2752 
C 250 2752 173 2707 173 2605 
C 173 2503 250 2459 352 2459 
L 627 2459 
L 627 293 
L 333 293 
C 237 293 173 236 173 147 
C 173 39 256 0 352 0 
L 1203 0 
C 1299 0 1382 32 1382 147 
C 1382 236 1331 293 1229 293 
L 934 293 
L 934 1641 
C 960 2037 1178 2496 1619 2496 
C 2061 2496 2176 2189 2176 1819 
L 2176 293 
L 1882 293 
C 1786 293 1722 236 1722 147 
C 1722 39 1805 0 1901 0 
L 2752 0 
C 2848 0 2931 32 2931 147 
C 2931 236 2880 293 2778 293 
L 2483 293 
L 2483 1864 
C 2483 2291 2355 2789 1734 2789 
C 1414 2789 1082 2619 941 2312 
z
" transform="scale(0.015625)"/>
       <path id="SFTT3583-6c" d="M 1402 3604 
L 1402 293 
L 877 293 
C 832 293 774 293 723 293 
C 602 293 499 256 499 144 
C 499 38 576 0 672 0 
L 2419 0 
C 2541 0 2605 45 2605 147 
C 2605 223 2560 293 2464 293 
L 1709 293 
L 1709 3745 
C 1709 3891 1619 3904 1523 3904 
L 691 3904 
C 602 3904 506 3891 506 3764 
C 506 3636 595 3604 723 3604 
C 774 3604 832 3604 877 3604 
L 1402 3604 
z
" transform="scale(0.015625)"/>
      </defs>
      <use xlink:href="#SFTT3583-74" transform="scale(0.996264)"/>
      <use xlink:href="#SFTT3583-72" transform="translate(48.495008 0)scale(0.996264)"/>
      <use xlink:href="#SFTT3583-61" transform="translate(96.990017 0)scale(0.996264)"/>
      <use xlink:href="#SFTT3583-69" transform="translate(145.485025 0)scale(0.996264)"/>
      <use xlink:href="#SFTT3583-6e" transform="translate(193.980033 0)scale(0.996264)"/>
      <use xlink:href="#SFTT3583-6c" transform="translate(290.97005 0)scale(0.996264)"/>
      <use xlink:href="#SFTT3583-6f" transform="translate(339.465058 0)scale(0.996264)"/>
      <use xlink:href="#SFTT3583-73" transform="translate(387.960067 0)scale(0.996264)"/>
      <use xlink:href="#SFTT3583-73" transform="translate(436.455075 0)scale(0.996264)"/>
     </g>
    </g>
    <g id="line2d_96">
     <path d="M 55.660747 47.219539 
L 65.660747 47.219539 
L 75.660747 47.219539 
" style="fill: none; stroke: #0000ff; stroke-width: 2; stroke-linecap: square"/>
    </g>
    <g id="text_20">
     <!-- test loss -->
     <g transform="translate(83.660747 50.719539)scale(0.1 -0.1)">
      <use xlink:href="#SFTT3583-74" transform="scale(0.996264)"/>
      <use xlink:href="#SFTT3583-65" transform="translate(48.495008 0)scale(0.996264)"/>
      <use xlink:href="#SFTT3583-73" transform="translate(96.990017 0)scale(0.996264)"/>
      <use xlink:href="#SFTT3583-74" transform="translate(145.485025 0)scale(0.996264)"/>
      <use xlink:href="#SFTT3583-6c" transform="translate(242.475042 0)scale(0.996264)"/>
      <use xlink:href="#SFTT3583-6f" transform="translate(290.97005 0)scale(0.996264)"/>
      <use xlink:href="#SFTT3583-73" transform="translate(339.465058 0)scale(0.996264)"/>
      <use xlink:href="#SFTT3583-73" transform="translate(387.960067 0)scale(0.996264)"/>
     </g>
    </g>
   </g>
  </g>
 </g>
 <defs>
  <clipPath id="pd62ecfbe8f">
   <rect x="46.660747" y="20.506159" width="613.8" height="326.16"/>
  </clipPath>
 </defs>
</svg>