<?xml version="1.0" encoding="utf-8" standalone="no"?>
<!DOCTYPE svg PUBLIC "-//W3C//DTD SVG 1.1//EN"
  "http://www.w3.org/Graphics/SVG/1.1/DTD/svg11.dtd">
<svg xmlns:xlink="http://www.w3.org/1999/xlink" width="635.465025pt" height="408.8741pt" viewBox="0 0 635.465025 408.8741" xmlns="http://www.w3.org/2000/svg" version="1.1">
 <metadata>
  <rdf:RDF xmlns:dc="http://purl.org/dc/elements/1.1/" xmlns:cc="http://creativecommons.org/ns#" xmlns:rdf="http://www.w3.org/1999/02/22-rdf-syntax-ns#">
   <cc:Work>
    <dc:type rdf:resource="http://purl.org/dc/dcmitype/StillImage"/>
    <dc:date>2023-11-28T14:35:23.111707</dc:date>
    <dc:format>image/svg+xml</dc:format>
    <dc:creator>
     <cc:Agent>
      <dc:title>Matplotlib v3.7.1, https://matplotlib.org/</dc:title>
     </cc:Agent>
    </dc:creator>
   </cc:Work>
  </rdf:RDF>
 </metadata>
 <defs>
  <style type="text/css">*{stroke-linejoin: round; stroke-linecap: butt}</style>
 </defs>
 <g id="figure_1">
  <g id="patch_1">
   <path d="M 0 408.8741 
L 635.465025 408.8741 
L 635.465025 0 
L 0 0 
z
" style="fill: #ffffff"/>
  </g>
  <g id="axes_1">
   <g id="patch_2">
    <path d="M 57.928596 359.676997 
L 615.928596 359.676997 
L 615.928596 27.036997 
L 57.928596 27.036997 
z
" style="fill: #ffffff"/>
   </g>
   <g id="matplotlib.axis_1">
    <g id="xtick_1">
     <g id="line2d_1">
      <path d="M 57.928596 359.676997 
L 57.928596 27.036997 
" clip-path="url(#p9a6ff9e640)" style="fill: none; stroke-dasharray: 0.8,1.32; stroke-dashoffset: 0; stroke: #b0b0b0; stroke-width: 0.8"/>
     </g>
     <g id="line2d_2">
      <defs>
       <path id="m23bab62913" d="M 0 0 
L 0 3.5 
" style="stroke: #000000; stroke-width: 0.8"/>
      </defs>
      <g>
       <use xlink:href="#m23bab62913" x="57.928596" y="359.676997" style="stroke: #000000; stroke-width: 0.8"/>
      </g>
     </g>
     <g id="text_1">
      <!-- $\mathdefault{0}$ -->
      <g transform="translate(53.816454 379.130297) scale(0.18 -0.18)">
       <defs>
        <path id="CMR17-30" d="M 2688 2025 
C 2688 2416 2682 3080 2413 3591 
C 2176 4039 1798 4198 1466 4198 
C 1158 4198 768 4058 525 3597 
C 269 3118 243 2524 243 2025 
C 243 1661 250 1106 448 619 
C 723 -39 1216 -128 1466 -128 
C 1760 -128 2208 -7 2470 600 
C 2662 1042 2688 1559 2688 2025 
z
M 1466 -26 
C 1056 -26 813 325 723 812 
C 653 1188 653 1738 653 2096 
C 653 2588 653 2997 736 3387 
C 858 3929 1216 4096 1466 4096 
C 1728 4096 2067 3923 2189 3400 
C 2272 3036 2278 2607 2278 2096 
C 2278 1680 2278 1169 2202 792 
C 2067 95 1690 -26 1466 -26 
z
" transform="scale(0.015625)"/>
       </defs>
       <use xlink:href="#CMR17-30" transform="scale(0.996264)"/>
      </g>
     </g>
    </g>
    <g id="xtick_2">
     <g id="line2d_3">
      <path d="M 169.528596 359.676997 
L 169.528596 27.036997 
" clip-path="url(#p9a6ff9e640)" style="fill: none; stroke-dasharray: 0.8,1.32; stroke-dashoffset: 0; stroke: #b0b0b0; stroke-width: 0.8"/>
     </g>
     <g id="line2d_4">
      <g>
       <use xlink:href="#m23bab62913" x="169.528596" y="359.676997" style="stroke: #000000; stroke-width: 0.8"/>
      </g>
     </g>
     <g id="text_2">
      <!-- $\mathdefault{20}$ -->
      <g transform="translate(161.304311 379.130297) scale(0.18 -0.18)">
       <defs>
        <path id="CMR17-32" d="M 2669 989 
L 2554 989 
C 2490 536 2438 459 2413 420 
C 2381 369 1920 369 1830 369 
L 602 369 
C 832 619 1280 1072 1824 1597 
C 2214 1967 2669 2402 2669 3035 
C 2669 3790 2067 4224 1395 4224 
C 691 4224 262 3604 262 3030 
C 262 2780 448 2748 525 2748 
C 589 2748 781 2787 781 3010 
C 781 3207 614 3264 525 3264 
C 486 3264 448 3258 422 3245 
C 544 3790 915 4058 1306 4058 
C 1862 4058 2227 3617 2227 3035 
C 2227 2479 1901 2000 1536 1584 
L 262 146 
L 262 0 
L 2515 0 
L 2669 989 
z
" transform="scale(0.015625)"/>
       </defs>
       <use xlink:href="#CMR17-32" transform="scale(0.996264)"/>
       <use xlink:href="#CMR17-30" transform="translate(45.690477 0) scale(0.996264)"/>
      </g>
     </g>
    </g>
    <g id="xtick_3">
     <g id="line2d_5">
      <path d="M 281.128596 359.676997 
L 281.128596 27.036997 
" clip-path="url(#p9a6ff9e640)" style="fill: none; stroke-dasharray: 0.8,1.32; stroke-dashoffset: 0; stroke: #b0b0b0; stroke-width: 0.8"/>
     </g>
     <g id="line2d_6">
      <g>
       <use xlink:href="#m23bab62913" x="281.128596" y="359.676997" style="stroke: #000000; stroke-width: 0.8"/>
      </g>
     </g>
     <g id="text_3">
      <!-- $\mathdefault{40}$ -->
      <g transform="translate(272.904311 379.130297) scale(0.18 -0.18)">
       <defs>
        <path id="CMR17-34" d="M 2150 4122 
C 2150 4256 2144 4256 2029 4256 
L 128 1254 
L 128 1088 
L 1779 1088 
L 1779 457 
C 1779 224 1766 160 1318 160 
L 1197 160 
L 1197 0 
C 1402 0 1747 0 1965 0 
C 2182 0 2528 0 2733 0 
L 2733 160 
L 2611 160 
C 2163 160 2150 224 2150 457 
L 2150 1088 
L 2803 1088 
L 2803 1254 
L 2150 1254 
L 2150 4122 
z
M 1798 3703 
L 1798 1254 
L 256 1254 
L 1798 3703 
z
" transform="scale(0.015625)"/>
       </defs>
       <use xlink:href="#CMR17-34" transform="scale(0.996264)"/>
       <use xlink:href="#CMR17-30" transform="translate(45.690477 0) scale(0.996264)"/>
      </g>
     </g>
    </g>
    <g id="xtick_4">
     <g id="line2d_7">
      <path d="M 392.728596 359.676997 
L 392.728596 27.036997 
" clip-path="url(#p9a6ff9e640)" style="fill: none; stroke-dasharray: 0.8,1.32; stroke-dashoffset: 0; stroke: #b0b0b0; stroke-width: 0.8"/>
     </g>
     <g id="line2d_8">
      <g>
       <use xlink:href="#m23bab62913" x="392.728596" y="359.676997" style="stroke: #000000; stroke-width: 0.8"/>
      </g>
     </g>
     <g id="text_4">
      <!-- $\mathdefault{60}$ -->
      <g transform="translate(384.504311 379.130297) scale(0.18 -0.18)">
       <defs>
        <path id="CMR17-36" d="M 678 2176 
C 678 3690 1395 4032 1811 4032 
C 1946 4032 2272 4009 2400 3776 
C 2298 3776 2106 3776 2106 3553 
C 2106 3381 2246 3323 2336 3323 
C 2394 3323 2566 3348 2566 3560 
C 2566 3954 2246 4179 1805 4179 
C 1043 4179 243 3390 243 1984 
C 243 253 966 -128 1478 -128 
C 2099 -128 2688 427 2688 1283 
C 2688 2081 2170 2662 1517 2662 
C 1126 2662 838 2407 678 1960 
L 678 2176 
z
M 1478 25 
C 691 25 691 1200 691 1436 
C 691 1896 909 2560 1504 2560 
C 1613 2560 1926 2560 2138 2120 
C 2253 1870 2253 1609 2253 1289 
C 2253 944 2253 690 2118 434 
C 1978 171 1773 25 1478 25 
z
" transform="scale(0.015625)"/>
       </defs>
       <use xlink:href="#CMR17-36" transform="scale(0.996264)"/>
       <use xlink:href="#CMR17-30" transform="translate(45.690477 0) scale(0.996264)"/>
      </g>
     </g>
    </g>
    <g id="xtick_5">
     <g id="line2d_9">
      <path d="M 504.328596 359.676997 
L 504.328596 27.036997 
" clip-path="url(#p9a6ff9e640)" style="fill: none; stroke-dasharray: 0.8,1.32; stroke-dashoffset: 0; stroke: #b0b0b0; stroke-width: 0.8"/>
     </g>
     <g id="line2d_10">
      <g>
       <use xlink:href="#m23bab62913" x="504.328596" y="359.676997" style="stroke: #000000; stroke-width: 0.8"/>
      </g>
     </g>
     <g id="text_5">
      <!-- $\mathdefault{80}$ -->
      <g transform="translate(496.104311 379.130297) scale(0.18 -0.18)">
       <defs>
        <path id="CMR17-38" d="M 1741 2264 
C 2144 2467 2554 2773 2554 3263 
C 2554 3841 1990 4179 1472 4179 
C 890 4179 378 3759 378 3180 
C 378 3021 416 2747 666 2505 
C 730 2442 998 2251 1171 2130 
C 883 1983 211 1634 211 934 
C 211 279 838 -128 1459 -128 
C 2144 -128 2720 362 2720 1010 
C 2720 1590 2330 1857 2074 2029 
L 1741 2264 
z
M 902 2822 
C 851 2854 595 3051 595 3351 
C 595 3739 998 4032 1459 4032 
C 1965 4032 2336 3676 2336 3262 
C 2336 2669 1670 2331 1638 2331 
C 1632 2331 1626 2331 1574 2370 
L 902 2822 
z
M 2080 1519 
C 2176 1449 2483 1240 2483 851 
C 2483 381 2010 25 1472 25 
C 890 25 448 438 448 940 
C 448 1443 838 1862 1280 2060 
L 2080 1519 
z
" transform="scale(0.015625)"/>
       </defs>
       <use xlink:href="#CMR17-38" transform="scale(0.996264)"/>
       <use xlink:href="#CMR17-30" transform="translate(45.690477 0) scale(0.996264)"/>
      </g>
     </g>
    </g>
    <g id="xtick_6">
     <g id="line2d_11">
      <path d="M 615.928596 359.676997 
L 615.928596 27.036997 
" clip-path="url(#p9a6ff9e640)" style="fill: none; stroke-dasharray: 0.8,1.32; stroke-dashoffset: 0; stroke: #b0b0b0; stroke-width: 0.8"/>
     </g>
     <g id="line2d_12">
      <g>
       <use xlink:href="#m23bab62913" x="615.928596" y="359.676997" style="stroke: #000000; stroke-width: 0.8"/>
      </g>
     </g>
     <g id="text_6">
      <!-- $\mathdefault{100}$ -->
      <g transform="translate(603.592168 379.130297) scale(0.18 -0.18)">
       <defs>
        <path id="CMR17-31" d="M 1702 4058 
C 1702 4192 1696 4192 1606 4192 
C 1357 3916 979 3827 621 3827 
C 602 3827 570 3827 563 3808 
C 557 3795 557 3782 557 3648 
C 755 3648 1088 3686 1344 3839 
L 1344 461 
C 1344 236 1331 160 781 160 
L 589 160 
L 589 0 
C 896 0 1216 0 1523 0 
C 1830 0 2150 0 2458 0 
L 2458 160 
L 2266 160 
C 1715 160 1702 230 1702 458 
L 1702 4058 
z
" transform="scale(0.015625)"/>
       </defs>
       <use xlink:href="#CMR17-31" transform="scale(0.996264)"/>
       <use xlink:href="#CMR17-30" transform="translate(45.690477 0) scale(0.996264)"/>
       <use xlink:href="#CMR17-30" transform="translate(91.380954 0) scale(0.996264)"/>
      </g>
     </g>
    </g>
    <g id="text_7">
     <!-- time steps -->
     <g transform="translate(302.427338 398.379813) scale(0.17 -0.17)">
      <defs>
       <path id="CMR17-74" d="M 966 2560 
L 1862 2560 
L 1862 2725 
L 966 2725 
L 966 3904 
L 851 3904 
C 838 3245 614 2668 70 2668 
L 70 2560 
L 627 2560 
L 627 771 
C 627 650 627 -64 1370 -64 
C 1747 -64 1965 306 1965 777 
L 1965 1140 
L 1850 1140 
L 1850 783 
C 1850 344 1677 51 1408 51 
C 1222 51 966 178 966 758 
L 966 2560 
z
" transform="scale(0.015625)"/>
       <path id="CMR17-69" d="M 992 3909 
C 992 4049 877 4170 730 4170 
C 589 4170 467 4056 467 3909 
C 467 3769 582 3648 730 3648 
C 870 3648 992 3763 992 3909 
z
M 243 2706 
L 243 2541 
C 602 2541 653 2502 653 2197 
L 653 427 
C 653 184 627 153 218 153 
L 218 -13 
C 371 0 646 0 806 0 
C 960 0 1222 0 1370 -13 
L 1370 153 
C 992 153 979 191 979 420 
L 979 2776 
L 243 2706 
z
" transform="scale(0.015625)"/>
       <path id="CMR17-6d" d="M 4326 1933 
C 4326 2252 4269 2790 3507 2790 
C 3072 2790 2771 2496 2656 2151 
L 2650 2151 
C 2573 2676 2195 2790 1837 2790 
C 1331 2790 1069 2400 973 2144 
L 966 2144 
L 966 2790 
L 211 2720 
L 211 2554 
C 589 2554 646 2515 646 2208 
L 646 428 
C 646 184 621 153 211 153 
L 211 -13 
C 365 0 646 0 813 0 
C 979 0 1267 0 1421 -13 
L 1421 153 
C 1011 153 986 178 986 428 
L 986 1658 
C 986 2247 1344 2688 1792 2688 
C 2266 2688 2317 2266 2317 1958 
L 2317 428 
C 2317 184 2291 153 1882 153 
L 1882 -13 
C 2035 0 2317 0 2483 0 
C 2650 0 2938 0 3091 -13 
L 3091 153 
C 2682 153 2656 178 2656 428 
L 2656 1658 
C 2656 2247 3014 2688 3462 2688 
C 3936 2688 3987 2266 3987 1958 
L 3987 428 
C 3987 184 3962 153 3552 153 
L 3552 -13 
C 3706 0 3987 0 4154 0 
C 4320 0 4608 0 4762 -13 
L 4762 153 
C 4352 153 4326 178 4326 428 
L 4326 1933 
z
" transform="scale(0.015625)"/>
       <path id="CMR17-65" d="M 2438 1472 
C 2464 1498 2464 1511 2464 1576 
C 2464 2238 2118 2816 1389 2816 
C 710 2816 173 2169 173 1383 
C 173 551 781 -64 1459 -64 
C 2176 -64 2458 607 2458 740 
C 2458 784 2419 784 2406 784 
C 2362 784 2355 771 2330 696 
C 2189 265 1837 51 1504 51 
C 1229 51 954 203 781 480 
C 582 803 582 1176 582 1472 
L 2438 1472 
z
M 589 1568 
C 634 2505 1126 2714 1382 2714 
C 1818 2714 2112 2297 2118 1568 
L 589 1568 
z
" transform="scale(0.015625)"/>
       <path id="CMR17-73" d="M 1978 2697 
C 1978 2813 1971 2819 1933 2819 
C 1907 2819 1901 2813 1824 2717 
C 1805 2691 1747 2626 1728 2601 
C 1523 2819 1235 2819 1126 2819 
C 416 2819 160 2447 160 2076 
C 160 1498 813 1365 998 1325 
C 1402 1243 1542 1217 1677 1101 
C 1760 1025 1901 884 1901 654 
C 1901 384 1747 38 1158 38 
C 602 38 403 460 288 1021 
C 269 1110 269 1117 218 1117 
C 166 1117 160 1110 160 983 
L 160 63 
C 160 -51 166 -58 205 -58 
C 237 -58 243 -51 275 0 
C 314 57 410 211 448 276 
C 576 103 800 -64 1158 -64 
C 1792 -64 2131 283 2131 784 
C 2131 1112 1958 1285 1875 1362 
C 1683 1561 1459 1606 1190 1657 
C 838 1735 390 1825 390 2217 
C 390 2383 480 2737 1126 2737 
C 1811 2737 1850 2094 1862 1888 
C 1869 1856 1901 1849 1920 1849 
C 1978 1849 1978 1869 1978 1978 
L 1978 2697 
z
" transform="scale(0.015625)"/>
       <path id="CMR17-70" d="M 1408 -1063 
C 998 -1063 973 -1037 973 -789 
L 973 402 
C 1158 134 1427 -38 1766 -38 
C 2406 -38 3053 523 3053 1388 
C 3053 2191 2496 2802 1837 2802 
C 1453 2802 1139 2592 960 2338 
L 960 2802 
L 198 2732 
L 198 2567 
C 576 2567 634 2528 634 2223 
L 634 -789 
C 634 -1031 608 -1063 198 -1063 
L 198 -1228 
C 352 -1216 634 -1216 800 -1216 
C 966 -1216 1254 -1216 1408 -1228 
L 1408 -1063 
z
M 973 2012 
C 973 2102 973 2235 1222 2471 
C 1254 2497 1472 2688 1792 2688 
C 2259 2688 2643 2108 2643 1382 
C 2643 656 2234 64 1728 64 
C 1498 64 1248 172 1056 472 
C 973 612 973 650 973 752 
L 973 2012 
z
" transform="scale(0.015625)"/>
      </defs>
      <use xlink:href="#CMR17-74" transform="scale(0.996264)"/>
      <use xlink:href="#CMR17-69" transform="translate(35.280768 0) scale(0.996264)"/>
      <use xlink:href="#CMR17-6d" transform="translate(60.151826 0) scale(0.996264)"/>
      <use xlink:href="#CMR17-65" transform="translate(137.071416 0) scale(0.996264)"/>
      <use xlink:href="#CMR17-73" transform="translate(207.633043 0) scale(0.996264)"/>
      <use xlink:href="#CMR17-74" transform="translate(243.434381 0) scale(0.996264)"/>
      <use xlink:href="#CMR17-65" transform="translate(278.715148 0) scale(0.996264)"/>
      <use xlink:href="#CMR17-70" transform="translate(319.200809 0) scale(0.996264)"/>
      <use xlink:href="#CMR17-73" transform="translate(370.096179 0) scale(0.996264)"/>
     </g>
    </g>
   </g>
   <g id="matplotlib.axis_2">
    <g id="ytick_1">
     <g id="line2d_13">
      <path d="M 57.928596 359.676997 
L 615.928596 359.676997 
" clip-path="url(#p9a6ff9e640)" style="fill: none; stroke-dasharray: 0.8,1.32; stroke-dashoffset: 0; stroke: #b0b0b0; stroke-width: 0.8"/>
     </g>
     <g id="line2d_14">
      <defs>
       <path id="mbfe8d19f3c" d="M 0 0 
L -3.5 0 
" style="stroke: #000000; stroke-width: 0.8"/>
      </defs>
      <g>
       <use xlink:href="#mbfe8d19f3c" x="57.928596" y="359.676997" style="stroke: #000000; stroke-width: 0.8"/>
      </g>
     </g>
     <g id="text_8">
      <!-- 0 -->
      <g transform="translate(42.704311 365.903647) scale(0.18 -0.18)">
       <use xlink:href="#CMR17-30" transform="scale(0.996264)"/>
      </g>
     </g>
    </g>
    <g id="ytick_2">
     <g id="line2d_15">
      <path d="M 57.928596 326.412997 
L 615.928596 326.412997 
" clip-path="url(#p9a6ff9e640)" style="fill: none; stroke-dasharray: 0.8,1.32; stroke-dashoffset: 0; stroke: #b0b0b0; stroke-width: 0.8"/>
     </g>
     <g id="line2d_16">
      <g>
       <use xlink:href="#mbfe8d19f3c" x="57.928596" y="326.412997" style="stroke: #000000; stroke-width: 0.8"/>
      </g>
     </g>
     <g id="text_9">
      <!-- 10 -->
      <g transform="translate(34.480025 332.639647) scale(0.18 -0.18)">
       <use xlink:href="#CMR17-31" transform="scale(0.996264)"/>
       <use xlink:href="#CMR17-30" transform="translate(45.690477 0) scale(0.996264)"/>
      </g>
     </g>
    </g>
    <g id="ytick_3">
     <g id="line2d_17">
      <path d="M 57.928596 293.148997 
L 615.928596 293.148997 
" clip-path="url(#p9a6ff9e640)" style="fill: none; stroke-dasharray: 0.8,1.32; stroke-dashoffset: 0; stroke: #b0b0b0; stroke-width: 0.8"/>
     </g>
     <g id="line2d_18">
      <g>
       <use xlink:href="#mbfe8d19f3c" x="57.928596" y="293.148997" style="stroke: #000000; stroke-width: 0.8"/>
      </g>
     </g>
     <g id="text_10">
      <!-- 20 -->
      <g transform="translate(34.480025 299.375647) scale(0.18 -0.18)">
       <use xlink:href="#CMR17-32" transform="scale(0.996264)"/>
       <use xlink:href="#CMR17-30" transform="translate(45.690477 0) scale(0.996264)"/>
      </g>
     </g>
    </g>
    <g id="ytick_4">
     <g id="line2d_19">
      <path d="M 57.928596 259.884997 
L 615.928596 259.884997 
" clip-path="url(#p9a6ff9e640)" style="fill: none; stroke-dasharray: 0.8,1.32; stroke-dashoffset: 0; stroke: #b0b0b0; stroke-width: 0.8"/>
     </g>
     <g id="line2d_20">
      <g>
       <use xlink:href="#mbfe8d19f3c" x="57.928596" y="259.884997" style="stroke: #000000; stroke-width: 0.8"/>
      </g>
     </g>
     <g id="text_11">
      <!-- 30 -->
      <g transform="translate(34.480025 266.111647) scale(0.18 -0.18)">
       <defs>
        <path id="CMR17-33" d="M 1414 2157 
C 1984 2157 2234 1662 2234 1090 
C 2234 320 1824 25 1453 25 
C 1114 25 563 194 390 693 
C 422 680 454 680 486 680 
C 640 680 755 782 755 948 
C 755 1133 614 1216 486 1216 
C 378 1216 211 1165 211 926 
C 211 335 787 -128 1466 -128 
C 2176 -128 2720 430 2720 1085 
C 2720 1707 2208 2157 1600 2227 
C 2086 2328 2554 2756 2554 3329 
C 2554 3820 2048 4179 1472 4179 
C 890 4179 378 3829 378 3329 
C 378 3110 544 3072 627 3072 
C 762 3072 877 3155 877 3321 
C 877 3486 762 3569 627 3569 
C 602 3569 570 3569 544 3557 
C 730 3959 1235 4032 1459 4032 
C 1683 4032 2106 3925 2106 3320 
C 2106 3143 2080 2828 1862 2550 
C 1670 2304 1453 2304 1242 2284 
C 1210 2284 1062 2269 1037 2269 
C 992 2263 966 2257 966 2208 
C 966 2163 973 2157 1101 2157 
L 1414 2157 
z
" transform="scale(0.015625)"/>
       </defs>
       <use xlink:href="#CMR17-33" transform="scale(0.996264)"/>
       <use xlink:href="#CMR17-30" transform="translate(45.690477 0) scale(0.996264)"/>
      </g>
     </g>
    </g>
    <g id="ytick_5">
     <g id="line2d_21">
      <path d="M 57.928596 226.620997 
L 615.928596 226.620997 
" clip-path="url(#p9a6ff9e640)" style="fill: none; stroke-dasharray: 0.8,1.32; stroke-dashoffset: 0; stroke: #b0b0b0; stroke-width: 0.8"/>
     </g>
     <g id="line2d_22">
      <g>
       <use xlink:href="#mbfe8d19f3c" x="57.928596" y="226.620997" style="stroke: #000000; stroke-width: 0.8"/>
      </g>
     </g>
     <g id="text_12">
      <!-- 40 -->
      <g transform="translate(34.480025 232.847647) scale(0.18 -0.18)">
       <use xlink:href="#CMR17-34" transform="scale(0.996264)"/>
       <use xlink:href="#CMR17-30" transform="translate(45.690477 0) scale(0.996264)"/>
      </g>
     </g>
    </g>
    <g id="ytick_6">
     <g id="line2d_23">
      <path d="M 57.928596 193.356997 
L 615.928596 193.356997 
" clip-path="url(#p9a6ff9e640)" style="fill: none; stroke-dasharray: 0.8,1.32; stroke-dashoffset: 0; stroke: #b0b0b0; stroke-width: 0.8"/>
     </g>
     <g id="line2d_24">
      <g>
       <use xlink:href="#mbfe8d19f3c" x="57.928596" y="193.356997" style="stroke: #000000; stroke-width: 0.8"/>
      </g>
     </g>
     <g id="text_13">
      <!-- 50 -->
      <g transform="translate(34.480025 199.583647) scale(0.18 -0.18)">
       <defs>
        <path id="CMR17-35" d="M 730 3692 
C 794 3666 1056 3584 1325 3584 
C 1920 3584 2246 3911 2432 4100 
C 2432 4157 2432 4192 2394 4192 
C 2387 4192 2374 4192 2323 4163 
C 2099 4058 1837 3973 1517 3973 
C 1325 3973 1037 3999 723 4139 
C 653 4171 640 4171 634 4171 
C 602 4171 595 4164 595 4037 
L 595 2203 
C 595 2089 595 2057 659 2057 
C 691 2057 704 2070 736 2114 
C 941 2401 1222 2522 1542 2522 
C 1766 2522 2246 2382 2246 1289 
C 2246 1085 2246 715 2054 421 
C 1894 159 1645 25 1370 25 
C 947 25 518 320 403 814 
C 429 807 480 795 506 795 
C 589 795 749 840 749 1038 
C 749 1210 627 1280 506 1280 
C 358 1280 262 1190 262 1011 
C 262 454 704 -128 1382 -128 
C 2042 -128 2669 440 2669 1264 
C 2669 2030 2170 2624 1549 2624 
C 1222 2624 947 2503 730 2274 
L 730 3692 
z
" transform="scale(0.015625)"/>
       </defs>
       <use xlink:href="#CMR17-35" transform="scale(0.996264)"/>
       <use xlink:href="#CMR17-30" transform="translate(45.690477 0) scale(0.996264)"/>
      </g>
     </g>
    </g>
    <g id="ytick_7">
     <g id="line2d_25">
      <path d="M 57.928596 160.092997 
L 615.928596 160.092997 
" clip-path="url(#p9a6ff9e640)" style="fill: none; stroke-dasharray: 0.8,1.32; stroke-dashoffset: 0; stroke: #b0b0b0; stroke-width: 0.8"/>
     </g>
     <g id="line2d_26">
      <g>
       <use xlink:href="#mbfe8d19f3c" x="57.928596" y="160.092997" style="stroke: #000000; stroke-width: 0.8"/>
      </g>
     </g>
     <g id="text_14">
      <!-- 60 -->
      <g transform="translate(34.480025 166.319647) scale(0.18 -0.18)">
       <use xlink:href="#CMR17-36" transform="scale(0.996264)"/>
       <use xlink:href="#CMR17-30" transform="translate(45.690477 0) scale(0.996264)"/>
      </g>
     </g>
    </g>
    <g id="ytick_8">
     <g id="line2d_27">
      <path d="M 57.928596 126.828997 
L 615.928596 126.828997 
" clip-path="url(#p9a6ff9e640)" style="fill: none; stroke-dasharray: 0.8,1.32; stroke-dashoffset: 0; stroke: #b0b0b0; stroke-width: 0.8"/>
     </g>
     <g id="line2d_28">
      <g>
       <use xlink:href="#mbfe8d19f3c" x="57.928596" y="126.828997" style="stroke: #000000; stroke-width: 0.8"/>
      </g>
     </g>
     <g id="text_15">
      <!-- 70 -->
      <g transform="translate(34.480025 133.055647) scale(0.18 -0.18)">
       <defs>
        <path id="CMR17-37" d="M 2886 3941 
L 2886 4081 
L 1382 4081 
C 634 4081 621 4165 595 4288 
L 480 4288 
L 294 3094 
L 410 3094 
C 429 3215 474 3540 550 3661 
C 589 3712 1062 3712 1171 3712 
L 2579 3712 
L 1869 2661 
C 1395 1954 1069 999 1069 165 
C 1069 89 1069 -128 1299 -128 
C 1530 -128 1530 89 1530 171 
L 1530 465 
C 1530 1508 1709 2196 2003 2636 
L 2886 3941 
z
" transform="scale(0.015625)"/>
       </defs>
       <use xlink:href="#CMR17-37" transform="scale(0.996264)"/>
       <use xlink:href="#CMR17-30" transform="translate(45.690477 0) scale(0.996264)"/>
      </g>
     </g>
    </g>
    <g id="ytick_9">
     <g id="line2d_29">
      <path d="M 57.928596 93.564997 
L 615.928596 93.564997 
" clip-path="url(#p9a6ff9e640)" style="fill: none; stroke-dasharray: 0.8,1.32; stroke-dashoffset: 0; stroke: #b0b0b0; stroke-width: 0.8"/>
     </g>
     <g id="line2d_30">
      <g>
       <use xlink:href="#mbfe8d19f3c" x="57.928596" y="93.564997" style="stroke: #000000; stroke-width: 0.8"/>
      </g>
     </g>
     <g id="text_16">
      <!-- 80 -->
      <g transform="translate(34.480025 99.791647) scale(0.18 -0.18)">
       <use xlink:href="#CMR17-38" transform="scale(0.996264)"/>
       <use xlink:href="#CMR17-30" transform="translate(45.690477 0) scale(0.996264)"/>
      </g>
     </g>
    </g>
    <g id="ytick_10">
     <g id="line2d_31">
      <path d="M 57.928596 60.300997 
L 615.928596 60.300997 
" clip-path="url(#p9a6ff9e640)" style="fill: none; stroke-dasharray: 0.8,1.32; stroke-dashoffset: 0; stroke: #b0b0b0; stroke-width: 0.8"/>
     </g>
     <g id="line2d_32">
      <g>
       <use xlink:href="#mbfe8d19f3c" x="57.928596" y="60.300997" style="stroke: #000000; stroke-width: 0.8"/>
      </g>
     </g>
     <g id="text_17">
      <!-- 90 -->
      <g transform="translate(34.480025 66.527647) scale(0.18 -0.18)">
       <defs>
        <path id="CMR17-39" d="M 2253 1864 
C 2253 464 1670 31 1190 31 
C 1043 31 685 31 538 294 
C 704 268 826 357 826 518 
C 826 692 685 749 595 749 
C 538 749 365 723 365 506 
C 365 71 742 -128 1203 -128 
C 1939 -128 2688 674 2688 2073 
C 2688 3817 1971 4179 1485 4179 
C 851 4179 243 3628 243 2778 
C 243 1991 762 1408 1414 1408 
C 1952 1408 2189 1903 2253 2112 
L 2253 1864 
z
M 1427 1510 
C 1254 1510 1011 1542 813 1922 
C 678 2169 678 2461 678 2771 
C 678 3146 678 3405 858 3684 
C 947 3817 1114 4032 1485 4032 
C 2240 4032 2240 2885 2240 2632 
C 2240 2182 2035 1510 1427 1510 
z
" transform="scale(0.015625)"/>
       </defs>
       <use xlink:href="#CMR17-39" transform="scale(0.996264)"/>
       <use xlink:href="#CMR17-30" transform="translate(45.690477 0) scale(0.996264)"/>
      </g>
     </g>
    </g>
    <g id="ytick_11">
     <g id="line2d_33">
      <path d="M 57.928596 27.036997 
L 615.928596 27.036997 
" clip-path="url(#p9a6ff9e640)" style="fill: none; stroke-dasharray: 0.8,1.32; stroke-dashoffset: 0; stroke: #b0b0b0; stroke-width: 0.8"/>
     </g>
     <g id="line2d_34">
      <g>
       <use xlink:href="#mbfe8d19f3c" x="57.928596" y="27.036997" style="stroke: #000000; stroke-width: 0.8"/>
      </g>
     </g>
     <g id="text_18">
      <!-- 100 -->
      <g transform="translate(26.255739 33.263647) scale(0.18 -0.18)">
       <use xlink:href="#CMR17-31" transform="scale(0.996264)"/>
       <use xlink:href="#CMR17-30" transform="translate(45.690477 0) scale(0.996264)"/>
       <use xlink:href="#CMR17-30" transform="translate(91.380954 0) scale(0.996264)"/>
      </g>
     </g>
    </g>
    <g id="text_19">
     <!-- $\%$ -->
     <g transform="translate(18.961452 199.895162) rotate(-90) scale(0.17 -0.17)">
      <defs>
       <path id="CMR17-25" d="M 4640 959 
C 4640 1698 4275 2240 3846 2240 
C 3411 2240 2970 1736 2970 959 
C 2970 183 3405 -320 3846 -320 
C 4275 -320 4640 215 4640 959 
z
M 3853 -218 
C 3686 -218 3270 -66 3270 959 
C 3270 1991 3686 2138 3853 2138 
C 4205 2138 4525 1634 4525 959 
C 4525 285 4205 -218 3853 -218 
z
M 4083 4577 
C 4128 4647 4134 4653 4134 4685 
C 4134 4761 4077 4800 4026 4800 
C 3962 4800 3936 4756 3891 4706 
C 3520 4190 3008 4134 2746 4134 
C 2106 4134 1715 4494 1594 4607 
C 1510 4682 1389 4800 1171 4800 
C 736 4800 294 4296 294 3519 
C 294 2743 730 2240 1171 2240 
C 1600 2240 1965 2778 1965 3527 
C 1965 3969 1830 4270 1811 4308 
C 2202 4064 2586 4032 2752 4032 
C 3162 4032 3456 4183 3616 4289 
L 3622 4283 
L 858 -84 
C 800 -174 800 -187 800 -206 
C 800 -276 858 -320 915 -320 
C 973 -320 992 -289 1037 -218 
L 4083 4577 
z
M 1178 2342 
C 1011 2342 595 2494 595 3519 
C 595 4551 1011 4698 1178 4698 
C 1530 4698 1850 4194 1850 3519 
C 1850 2845 1530 2342 1178 2342 
z
" transform="scale(0.015625)"/>
      </defs>
      <use xlink:href="#CMR17-25" transform="scale(0.996264)"/>
     </g>
    </g>
   </g>
   <g id="line2d_35">
    <path d="M 57.928596 325.747717 
L 63.508596 324.583477 
L 69.088596 326.246677 
L 74.668596 324.916117 
L 80.248596 326.911957 
L 85.828596 326.911957 
L 91.408596 328.076197 
L 96.988596 325.581397 
L 102.568596 325.581397 
L 108.148596 329.074117 
L 113.728596 218.970277 
L 119.308596 278.512837 
L 124.888596 300.134437 
L 130.468596 319.593877 
L 136.048596 320.425477 
L 141.628596 329.739397 
L 147.208596 330.570997 
L 152.788596 327.909877 
L 158.368596 324.916117 
L 163.948596 311.610517 
L 169.528596 300.300757 
L 175.108596 293.481637 
L 180.688596 301.298677 
L 186.268596 302.130277 
L 191.848596 300.799717 
L 197.428596 306.787237 
L 203.008596 306.953557 
L 208.588596 310.446277 
L 214.168596 306.121957 
L 219.748596 305.789317 
L 225.328596 308.949397 
L 230.908596 308.450437 
L 236.488596 308.783077 
L 242.068596 305.456677 
L 247.648596 305.955637 
L 253.228596 303.627157 
L 258.808596 300.799717 
L 264.388596 299.968117 
L 269.968596 305.789317 
L 275.548596 300.300757 
L 281.128596 306.953557 
L 286.708596 300.633397 
L 292.288596 303.294517 
L 297.868596 301.464997 
L 303.448596 296.142757 
L 309.028596 303.294517 
L 314.608596 296.475397 
L 320.188596 300.799717 
L 325.768596 297.306997 
L 331.348596 299.469157 
L 336.928596 296.142757 
L 342.508596 295.144837 
L 348.088596 300.799717 
L 353.668596 297.473317 
L 359.248596 292.317397 
L 364.828596 297.805957 
L 370.408596 292.650037 
L 375.988596 295.643797 
L 381.568596 292.982677 
L 387.148596 291.818437 
L 392.728596 301.132357 
L 398.308596 289.157317 
L 403.888596 293.814277 
L 409.468596 289.822597 
L 415.048596 286.662517 
L 420.628596 291.319477 
L 426.208596 296.475397 
L 431.788596 286.995157 
L 437.368596 287.660437 
L 442.948596 286.163557 
L 448.528596 284.001397 
L 454.108596 286.662517 
L 459.688596 288.325717 
L 465.268596 283.835077 
L 470.848596 283.835077 
L 476.428596 280.342357 
L 482.008596 279.677077 
L 487.588596 286.828837 
L 493.168596 277.348597 
L 498.748596 281.672917 
L 504.328596 279.510757 
L 509.908596 276.184357 
L 515.488596 279.011797 
L 521.068596 277.514917 
L 526.648596 277.015957 
L 532.228596 273.356917 
L 537.808596 277.015957 
L 543.388596 274.354837 
L 548.968596 274.687477 
L 554.548596 267.868357 
L 560.128596 270.196837 
L 565.708596 265.040917 
L 571.288596 258.554437 
L 576.868596 268.200997 
L 582.448596 270.363157 
L 588.028596 267.203077 
L 593.608596 260.383957 
L 599.188596 260.217637 
L 604.768596 261.714517 
L 610.348596 262.213477 
" clip-path="url(#p9a6ff9e640)" style="fill: none; stroke: #ff0000; stroke-width: 1.5; stroke-linecap: square"/>
   </g>
   <g id="line2d_36">
    <path d="M 57.928596 325.248757 
L 63.508596 325.415077 
L 69.088596 325.248757 
L 74.668596 326.246677 
L 80.248596 324.749797 
L 85.828596 328.907797 
L 91.408596 326.246677 
L 96.988596 325.248757 
L 102.568596 330.737317 
L 108.148596 326.745637 
L 113.728596 265.373557 
L 119.308596 234.936997 
L 124.888596 217.473397 
L 130.468596 211.153237 
L 136.048596 205.664677 
L 141.628596 196.184437 
L 147.208596 198.013957 
L 152.788596 197.348677 
L 158.368596 187.036837 
L 163.948596 185.539957 
L 169.528596 181.215637 
L 175.108596 178.554517 
L 180.688596 176.724997 
L 186.268596 175.228117 
L 191.848596 176.392357 
L 197.428596 175.228117 
L 203.008596 170.404837 
L 208.588596 169.573237 
L 214.168596 165.747877 
L 219.748596 167.411077 
L 225.328596 169.573237 
L 230.908596 163.918357 
L 236.488596 166.579477 
L 242.068596 162.255157 
L 247.648596 165.581557 
L 253.228596 159.261397 
L 258.808596 162.088837 
L 264.388596 160.758277 
L 269.968596 159.095077 
L 275.548596 161.589877 
L 281.128596 156.600277 
L 286.708596 157.265557 
L 292.288596 158.097157 
L 297.868596 157.598197 
L 303.448596 159.427717 
L 309.028596 154.937077 
L 314.608596 152.275957 
L 320.188596 154.770757 
L 325.768596 153.939157 
L 331.348596 152.442277 
L 336.928596 153.273877 
L 342.508596 155.103397 
L 348.088596 152.442277 
L 353.668596 151.444357 
L 359.248596 154.770757 
L 364.828596 156.766597 
L 370.408596 153.273877 
L 375.988596 151.444357 
L 381.568596 151.278037 
L 387.148596 152.275957 
L 392.728596 149.947477 
L 398.308596 150.612757 
L 403.888596 151.111717 
L 409.468596 149.947477 
L 415.048596 145.124197 
L 420.628596 148.284277 
L 426.208596 145.456837 
L 431.788596 150.446437 
L 437.368596 148.616917 
L 442.948596 147.120037 
L 448.528596 145.789477 
L 454.108596 145.124197 
L 459.688596 146.454757 
L 465.268596 145.456837 
L 470.848596 149.947477 
L 476.428596 150.446437 
L 482.008596 150.113797 
L 487.588596 146.787397 
L 493.168596 148.117957 
L 498.748596 147.452677 
L 504.328596 148.616917 
L 509.908596 145.955797 
L 515.488596 143.294677 
L 521.068596 145.623157 
L 526.648596 147.286357 
L 532.228596 145.789477 
L 537.808596 144.957877 
L 543.388596 141.797797 
L 548.968596 146.122117 
L 554.548596 141.964117 
L 560.128596 140.467237 
L 565.708596 141.797797 
L 571.288596 141.132517 
L 576.868596 143.128357 
L 582.448596 141.132517 
L 588.028596 140.134597 
L 593.608596 140.799877 
L 599.188596 140.467237 
L 604.768596 141.132517 
L 610.348596 140.467237 
" clip-path="url(#p9a6ff9e640)" style="fill: none; stroke: #0000ff; stroke-width: 1.5; stroke-linecap: square"/>
   </g>
   <g id="line2d_37">
    <path d="M 57.928596 325.248757 
L 63.508596 313.772677 
L 69.088596 302.629237 
L 74.668596 295.144837 
L 80.248596 285.165637 
L 85.828596 279.178117 
L 91.408596 273.356917 
L 96.988596 270.196837 
L 102.568596 265.040917 
L 108.148596 258.554437 
L 113.728596 259.219717 
L 119.308596 255.893317 
L 124.888596 252.067957 
L 130.468596 253.731157 
L 136.048596 253.232197 
L 141.628596 249.739477 
L 147.208596 250.404757 
L 152.788596 248.575237 
L 158.368596 247.244677 
L 163.948596 246.246757 
L 169.528596 241.589797 
L 175.108596 239.427637 
L 180.688596 240.591877 
L 186.268596 236.600197 
L 191.848596 237.598117 
L 197.428596 235.602277 
L 203.008596 236.766517 
L 208.588596 234.105397 
L 214.168596 232.442197 
L 219.748596 235.934917 
L 225.328596 235.934917 
L 230.908596 233.606437 
L 236.488596 235.103317 
L 242.068596 231.277957 
L 247.648596 231.111637 
L 253.228596 226.620997 
L 258.808596 230.778997 
L 264.388596 229.614757 
L 269.968596 228.949477 
L 275.548596 230.778997 
L 281.128596 227.286277 
L 286.708596 226.122037 
L 292.288596 224.126197 
L 297.868596 224.126197 
L 303.448596 227.618917 
L 309.028596 225.290437 
L 314.608596 223.128277 
L 320.188596 221.964037 
L 325.768596 224.292517 
L 331.348596 223.460917 
L 336.928596 222.462997 
L 342.508596 222.130357 
L 348.088596 222.795637 
L 353.668596 220.966117 
L 359.248596 223.128277 
L 364.828596 222.795637 
L 370.408596 218.970277 
L 375.988596 216.309157 
L 381.568596 220.300837 
L 387.148596 218.637637 
L 392.728596 217.806037 
L 398.308596 217.473397 
L 403.888596 216.974437 
L 409.468596 218.637637 
L 415.048596 217.140757 
L 420.628596 216.309157 
L 426.208596 215.976517 
L 431.788596 214.978597 
L 437.368596 215.144917 
L 442.948596 214.313317 
L 448.528596 214.645957 
L 454.108596 209.490037 
L 459.688596 212.650117 
L 465.268596 211.984837 
L 470.848596 214.146997 
L 476.428596 215.144917 
L 482.008596 213.648037 
L 487.588596 212.982757 
L 493.168596 212.317477 
L 498.748596 212.650117 
L 504.328596 211.652197 
L 509.908596 210.321637 
L 515.488596 209.490037 
L 521.068596 210.820597 
L 526.648596 211.818517 
L 532.228596 211.984837 
L 537.808596 208.658437 
L 543.388596 208.658437 
L 548.968596 210.321637 
L 554.548596 208.325797 
L 560.128596 207.161557 
L 565.708596 207.494197 
L 571.288596 208.824757 
L 576.868596 211.153237 
L 582.448596 206.329957 
L 588.028596 208.824757 
L 593.608596 208.492117 
L 599.188596 208.991077 
L 604.768596 205.997317 
L 610.348596 205.664677 
" clip-path="url(#p9a6ff9e640)" style="fill: none; stroke: #008000; stroke-width: 1.5; stroke-linecap: square"/>
   </g>
   <g id="patch_3">
    <path d="M 57.928596 359.676997 
L 57.928596 27.036997 
" style="fill: none; stroke: #000000; stroke-width: 0.8; stroke-linejoin: miter; stroke-linecap: square"/>
   </g>
   <g id="patch_4">
    <path d="M 615.928596 359.676997 
L 615.928596 27.036997 
" style="fill: none; stroke: #000000; stroke-width: 0.8; stroke-linejoin: miter; stroke-linecap: square"/>
   </g>
   <g id="patch_5">
    <path d="M 57.928596 359.676997 
L 615.928596 359.676997 
" style="fill: none; stroke: #000000; stroke-width: 0.8; stroke-linejoin: miter; stroke-linecap: square"/>
   </g>
   <g id="patch_6">
    <path d="M 57.928596 27.036997 
L 615.928596 27.036997 
" style="fill: none; stroke: #000000; stroke-width: 0.8; stroke-linejoin: miter; stroke-linecap: square"/>
   </g>
   <g id="text_20">
    <!-- Percentage of optimal actions -->
    <g transform="translate(219.07988 21.036997) scale(0.2 -0.2)">
     <defs>
      <path id="CMR17-50" d="M 1267 2042 
L 2291 2042 
C 3117 2042 3718 2578 3718 3184 
C 3718 3791 3130 4352 2291 4352 
L 333 4352 
L 333 4186 
C 774 4186 845 4186 845 3899 
L 845 446 
C 845 160 774 160 333 160 
L 333 0 
C 518 0 858 0 1056 0 
C 1254 0 1594 0 1779 0 
L 1779 160 
C 1338 160 1267 160 1267 446 
L 1267 2042 
z
M 1254 2176 
L 1254 3938 
C 1254 4155 1267 4186 1523 4186 
L 2170 4186 
C 2995 4186 3232 3714 3232 3184 
C 3232 2604 2950 2176 2170 2176 
L 1254 2176 
z
" transform="scale(0.015625)"/>
      <path id="CMR17-72" d="M 960 1497 
C 960 2112 1222 2688 1702 2688 
C 1747 2688 1792 2682 1837 2662 
C 1837 2662 1696 2617 1696 2452 
C 1696 2298 1818 2234 1914 2234 
C 1990 2234 2131 2279 2131 2458 
C 2131 2663 1926 2790 1709 2790 
C 1222 2790 1011 2317 947 2093 
L 941 2093 
L 941 2790 
L 198 2720 
L 198 2554 
C 576 2554 634 2515 634 2208 
L 634 428 
C 634 184 608 153 198 153 
L 198 -13 
C 352 0 646 0 813 0 
C 998 0 1325 0 1498 -13 
L 1498 153 
C 1037 153 960 153 960 440 
L 960 1497 
z
" transform="scale(0.015625)"/>
      <path id="CMR17-63" d="M 2234 2240 
C 2112 2240 1933 2240 1933 2017 
C 1933 1838 2080 1787 2163 1787 
C 2208 1787 2394 1807 2394 2024 
C 2394 2467 1958 2803 1466 2803 
C 787 2803 211 2178 211 1363 
C 211 516 813 -64 1466 -64 
C 2259 -64 2458 677 2458 748 
C 2458 774 2451 793 2406 793 
C 2362 793 2355 787 2330 703 
C 2163 180 1798 51 1523 51 
C 1114 51 621 427 621 1369 
C 621 2338 1094 2688 1472 2688 
C 1722 2688 2093 2573 2234 2240 
z
" transform="scale(0.015625)"/>
      <path id="CMR17-6e" d="M 2656 1933 
C 2656 2259 2592 2790 1837 2790 
C 1331 2790 1069 2400 973 2144 
L 966 2144 
L 966 2790 
L 211 2720 
L 211 2554 
C 589 2554 646 2515 646 2208 
L 646 428 
C 646 184 621 153 211 153 
L 211 -13 
C 365 0 646 0 813 0 
C 979 0 1267 0 1421 -13 
L 1421 153 
C 1011 153 986 178 986 428 
L 986 1658 
C 986 2247 1344 2688 1792 2688 
C 2266 2688 2317 2266 2317 1958 
L 2317 428 
C 2317 184 2291 153 1882 153 
L 1882 -13 
C 2035 0 2317 0 2483 0 
C 2650 0 2938 0 3091 -13 
L 3091 153 
C 2682 153 2656 178 2656 428 
L 2656 1933 
z
" transform="scale(0.015625)"/>
      <path id="CMR17-61" d="M 2304 1653 
C 2304 2072 2304 2294 2035 2543 
C 1798 2752 1523 2816 1306 2816 
C 800 2816 435 2407 435 1971 
C 435 1728 627 1728 666 1728 
C 749 1728 896 1778 896 1954 
C 896 2112 774 2181 666 2181 
C 640 2181 608 2174 589 2168 
C 723 2592 1069 2714 1293 2714 
C 1613 2714 1965 2429 1965 1885 
L 1965 1600 
C 1587 1600 1133 1549 774 1357 
C 371 1133 256 813 256 570 
C 256 77 832 -64 1171 -64 
C 1523 -64 1850 139 1990 511 
C 2003 233 2182 -18 2464 -18 
C 2598 -18 2938 70 2938 567 
L 2938 920 
L 2822 920 
L 2822 562 
C 2822 178 2650 128 2566 128 
C 2304 128 2304 458 2304 738 
L 2304 1653 
z
M 1965 870 
C 1965 317 1568 38 1216 38 
C 896 38 646 275 646 570 
C 646 761 730 1100 1101 1305 
C 1408 1478 1760 1504 1965 1504 
L 1965 870 
z
" transform="scale(0.015625)"/>
      <path id="CMR17-67" d="M 710 1164 
C 832 1068 1043 960 1299 960 
C 1805 960 2240 1357 2240 1888 
C 2240 2054 2189 2310 1997 2509 
C 2176 2692 2438 2752 2586 2752 
C 2611 2752 2650 2752 2682 2734 
C 2656 2728 2598 2703 2598 2605 
C 2598 2527 2656 2471 2739 2471 
C 2835 2471 2886 2533 2886 2614 
C 2886 2731 2790 2854 2586 2854 
C 2330 2854 2106 2738 1926 2580 
C 1734 2753 1504 2816 1299 2816 
C 794 2816 358 2419 358 1888 
C 358 1522 570 1292 634 1228 
C 442 1004 442 743 442 711 
C 442 545 506 302 723 168 
C 390 85 128 -169 128 -486 
C 128 -943 736 -1280 1466 -1280 
C 2170 -1280 2803 -956 2803 -479 
C 2803 384 1856 384 1363 384 
C 1216 384 954 384 922 391 
C 723 423 589 602 589 826 
C 589 883 589 1024 710 1164 
z
M 1299 1068 
C 736 1068 736 1760 736 1889 
C 736 2016 736 2708 1299 2708 
C 1862 2708 1862 2016 1862 1889 
C 1862 1760 1862 1068 1299 1068 
z
M 1466 -1171 
C 826 -1171 384 -835 384 -486 
C 384 -289 493 -105 634 -4 
C 794 104 858 104 1293 104 
C 1818 104 2547 104 2547 -486 
C 2547 -835 2106 -1171 1466 -1171 
z
" transform="scale(0.015625)"/>
      <path id="CMR17-6f" d="M 2758 1356 
C 2758 2176 2163 2816 1466 2816 
C 768 2816 173 2176 173 1356 
C 173 551 768 -64 1466 -64 
C 2163 -64 2758 551 2758 1356 
z
M 1466 51 
C 1165 51 909 230 762 480 
C 602 767 582 1126 582 1408 
C 582 1677 595 2010 762 2298 
C 890 2509 1139 2714 1466 2714 
C 1754 2714 1997 2554 2150 2330 
C 2349 2029 2349 1607 2349 1408 
C 2349 1158 2336 775 2163 467 
C 1984 173 1709 51 1466 51 
z
" transform="scale(0.015625)"/>
      <path id="CMR17-66" d="M 979 2560 
L 1709 2560 
L 1709 2725 
L 966 2725 
L 966 3494 
C 966 4022 1235 4352 1510 4352 
C 1594 4352 1690 4327 1754 4282 
C 1702 4269 1568 4225 1568 4067 
C 1568 3901 1696 3850 1786 3850 
C 1875 3850 2003 3901 2003 4067 
C 2003 4308 1773 4454 1517 4454 
C 1152 4454 653 4156 653 3481 
L 653 2725 
L 141 2725 
L 141 2560 
L 653 2560 
L 653 427 
C 653 184 627 153 218 153 
L 218 -13 
C 371 0 666 0 832 0 
C 1018 0 1344 0 1517 -13 
L 1517 153 
C 1056 153 979 153 979 439 
L 979 2560 
z
" transform="scale(0.015625)"/>
      <path id="CMR17-6c" d="M 979 4396 
L 218 4326 
L 218 4160 
C 595 4160 653 4122 653 3817 
L 653 426 
C 653 184 627 153 218 153 
L 218 -13 
C 371 0 653 0 813 0 
C 979 0 1261 0 1414 -13 
L 1414 153 
C 1005 153 979 178 979 426 
L 979 4396 
z
" transform="scale(0.015625)"/>
     </defs>
     <use xlink:href="#CMR17-50" transform="scale(0.996264)"/>
     <use xlink:href="#CMR17-65" transform="translate(59.983847 0) scale(0.996264)"/>
     <use xlink:href="#CMR17-72" transform="translate(100.469507 0) scale(0.996264)"/>
     <use xlink:href="#CMR17-63" transform="translate(135.750275 0) scale(0.996264)"/>
     <use xlink:href="#CMR17-65" transform="translate(176.235935 0) scale(0.996264)"/>
     <use xlink:href="#CMR17-6e" transform="translate(216.721596 0) scale(0.996264)"/>
     <use xlink:href="#CMR17-74" transform="translate(265.014512 0) scale(0.996264)"/>
     <use xlink:href="#CMR17-61" transform="translate(300.295279 0) scale(0.996264)"/>
     <use xlink:href="#CMR17-67" transform="translate(345.985757 0) scale(0.996264)"/>
     <use xlink:href="#CMR17-65" transform="translate(391.676234 0) scale(0.996264)"/>
     <use xlink:href="#CMR17-6f" transform="translate(462.23786 0) scale(0.996264)"/>
     <use xlink:href="#CMR17-66" transform="translate(507.928338 0) scale(0.996264)"/>
     <use xlink:href="#CMR17-6f" transform="translate(565.477816 0) scale(0.996264)"/>
     <use xlink:href="#CMR17-70" transform="translate(611.168293 0) scale(0.996264)"/>
     <use xlink:href="#CMR17-74" transform="translate(662.063663 0) scale(0.996264)"/>
     <use xlink:href="#CMR17-69" transform="translate(697.344431 0) scale(0.996264)"/>
     <use xlink:href="#CMR17-6d" transform="translate(722.21549 0) scale(0.996264)"/>
     <use xlink:href="#CMR17-61" transform="translate(799.135079 0) scale(0.996264)"/>
     <use xlink:href="#CMR17-6c" transform="translate(844.825557 0) scale(0.996264)"/>
     <use xlink:href="#CMR17-61" transform="translate(899.772581 0) scale(0.996264)"/>
     <use xlink:href="#CMR17-63" transform="translate(945.463058 0) scale(0.996264)"/>
     <use xlink:href="#CMR17-74" transform="translate(985.948719 0) scale(0.996264)"/>
     <use xlink:href="#CMR17-69" transform="translate(1021.229487 0) scale(0.996264)"/>
     <use xlink:href="#CMR17-6f" transform="translate(1046.100545 0) scale(0.996264)"/>
     <use xlink:href="#CMR17-6e" transform="translate(1091.791022 0) scale(0.996264)"/>
     <use xlink:href="#CMR17-73" transform="translate(1142.686392 0) scale(0.996264)"/>
    </g>
   </g>
   <g id="legend_1">
    <g id="patch_7">
     <path d="M 370.455527 116.701189 
L 603.328596 116.701189 
Q 606.928596 116.701189 606.928596 113.101189 
L 606.928596 39.636997 
Q 606.928596 36.036997 603.328596 36.036997 
L 370.455527 36.036997 
Q 366.855527 36.036997 366.855527 39.636997 
L 366.855527 113.101189 
Q 366.855527 116.701189 370.455527 116.701189 
z
" style="fill: #ffffff; opacity: 0.8; stroke: #cccccc; stroke-linejoin: miter"/>
    </g>
    <g id="line2d_38">
     <path d="M 374.055527 49.536997 
L 392.055527 49.536997 
L 410.055527 49.536997 
" style="fill: none; stroke: #ff0000; stroke-width: 1.5; stroke-linecap: square"/>
    </g>
    <g id="text_21">
     <!-- $Q_1=5, \varepsilon=0, \alpha=0.1$ -->
     <g transform="translate(424.455527 55.836997) scale(0.18 -0.18)">
      <defs>
       <path id="CMMI12-51" d="M 2726 45 
C 3827 490 4646 1663 4646 2829 
C 4646 3893 3955 4544 3059 4544 
C 1690 4544 307 3062 307 1573 
C 307 561 973 -128 1901 -128 
C 2118 -128 2330 -96 2534 -33 
C 2496 -411 2496 -442 2496 -562 
C 2496 -744 2496 -1216 3008 -1216 
C 3770 -1216 4051 -37 4051 2 
C 4051 39 4026 64 3994 64 
C 3955 64 3942 34 3923 -36 
C 3782 -429 3450 -654 3168 -654 
C 2842 -654 2758 -435 2726 45 
z
M 1574 77 
C 1069 252 826 787 826 1379 
C 826 1831 992 2689 1414 3340 
C 1888 4075 2522 4404 3021 4404 
C 3686 4404 4134 3862 4134 3024 
C 4134 2547 3910 948 2707 240 
C 2675 571 2586 960 2163 960 
C 1818 960 1523 609 1523 291 
C 1523 220 1549 123 1574 77 
z
M 2547 156 
C 2317 52 2118 12 1939 12 
C 1875 12 1651 12 1651 298 
C 1651 533 1875 832 2163 832 
C 2483 832 2554 611 2554 286 
C 2554 246 2554 194 2547 156 
z
" transform="scale(0.015625)"/>
       <path id="CMR17-3d" d="M 4115 2017 
C 4211 2017 4307 2017 4307 2125 
C 4307 2240 4198 2240 4090 2240 
L 512 2240 
C 403 2240 294 2240 294 2125 
C 294 2017 390 2017 486 2017 
L 4115 2017 
z
M 4090 896 
C 4198 896 4307 896 4307 1011 
C 4307 1119 4211 1119 4115 1119 
L 486 1119 
C 390 1119 294 1119 294 1011 
C 294 896 403 896 512 896 
L 4090 896 
z
" transform="scale(0.015625)"/>
       <path id="CMMI12-3b" d="M 1248 -31 
C 1248 343 1126 619 864 619 
C 659 619 557 453 557 313 
C 557 172 653 0 870 0 
C 954 0 1024 26 1082 83 
C 1094 96 1101 96 1107 96 
C 1120 96 1120 5 1120 -27 
C 1120 -240 1082 -659 710 -1080 
C 640 -1157 640 -1170 640 -1183 
C 640 -1216 672 -1248 704 -1248 
C 755 -1248 1248 -771 1248 -31 
z
" transform="scale(0.015625)"/>
       <path id="CMMI12-22" d="M 890 1427 
C 1094 1345 1312 1345 1434 1345 
C 1600 1345 1933 1345 1933 1550 
C 1933 1678 1811 1728 1485 1728 
C 1325 1728 1133 1709 909 1613 
C 710 1708 634 1852 634 1990 
C 634 2379 1261 2606 1830 2606 
C 1939 2606 2170 2606 2438 2411 
C 2477 2387 2496 2367 2541 2367 
C 2618 2367 2701 2449 2701 2526 
C 2701 2639 2330 2880 1888 2880 
C 1171 2880 493 2449 493 1972 
C 493 1734 646 1586 755 1509 
C 384 1301 166 961 166 652 
C 166 219 563 -128 1178 -128 
C 2022 -128 2362 424 2362 512 
C 2362 543 2336 568 2304 568 
C 2272 568 2259 549 2234 512 
C 2163 395 1997 146 1235 146 
C 838 146 314 245 314 686 
C 314 898 474 1214 890 1427 
z
M 1088 1518 
C 1261 1600 1427 1600 1472 1600 
C 1651 1600 1683 1583 1786 1545 
C 1677 1472 1664 1472 1434 1472 
C 1318 1472 1216 1472 1088 1518 
z
" transform="scale(0.015625)"/>
       <path id="CMMI12-b" d="M 2963 1616 
C 2963 2235 2611 2815 1933 2815 
C 1094 2815 256 1902 256 996 
C 256 441 602 -64 1254 -64 
C 1651 -64 2125 89 2579 472 
C 2669 115 2867 -64 3142 -64 
C 3488 -64 3661 294 3661 377 
C 3661 434 3616 434 3597 434 
C 3546 434 3539 415 3520 364 
C 3462 204 3315 64 3162 64 
C 2963 64 2963 472 2963 862 
C 3616 1641 3770 2446 3770 2452 
C 3770 2510 3718 2510 3699 2510 
C 3642 2510 3635 2491 3610 2376 
C 3526 2095 3360 1597 2963 1073 
L 2963 1616 
z
M 2560 626 
C 1997 121 1491 64 1267 64 
C 813 64 685 466 685 766 
C 685 1040 826 1692 1024 2044 
C 1286 2491 1645 2688 1933 2688 
C 2554 2688 2554 1877 2554 1341 
C 2554 1182 2547 1016 2547 856 
C 2547 728 2554 696 2560 626 
z
" transform="scale(0.015625)"/>
       <path id="CMMI12-3a" d="M 1178 307 
C 1178 492 1024 619 870 619 
C 685 619 557 466 557 313 
C 557 128 710 0 864 0 
C 1050 0 1178 153 1178 307 
z
" transform="scale(0.015625)"/>
      </defs>
      <use xlink:href="#CMMI12-51" transform="scale(0.996264)"/>
      <use xlink:href="#CMR17-31" transform="translate(77.260399 -14.943915) scale(0.697382)"/>
      <use xlink:href="#CMR17-3d" transform="translate(137.415721 0) scale(0.996264)"/>
      <use xlink:href="#CMR17-35" transform="translate(236.804518 0) scale(0.996264)"/>
      <use xlink:href="#CMMI12-3b" transform="translate(282.494996 0) scale(0.996264)"/>
      <use xlink:href="#CMMI12-22" transform="translate(326.196578 0) scale(0.996264)"/>
      <use xlink:href="#CMR17-3d" transform="translate(399.520779 0) scale(0.996264)"/>
      <use xlink:href="#CMR17-30" transform="translate(498.909576 0) scale(0.996264)"/>
      <use xlink:href="#CMMI12-3b" transform="translate(544.600053 0) scale(0.996264)"/>
      <use xlink:href="#CMMI12-b" transform="translate(588.301636 0) scale(0.996264)"/>
      <use xlink:href="#CMR17-3d" transform="translate(678.656667 0) scale(0.996264)"/>
      <use xlink:href="#CMR17-30" transform="translate(778.045464 0) scale(0.996264)"/>
      <use xlink:href="#CMMI12-3a" transform="translate(823.735941 0) scale(0.996264)"/>
      <use xlink:href="#CMR17-31" transform="translate(850.833118 0) scale(0.996264)"/>
     </g>
    </g>
    <g id="line2d_39">
     <path d="M 374.055527 74.625061 
L 392.055527 74.625061 
L 410.055527 74.625061 
" style="fill: none; stroke: #0000ff; stroke-width: 1.5; stroke-linecap: square"/>
    </g>
    <g id="text_22">
     <!-- $Q_1=5, \varepsilon=0.1$ -->
     <g transform="translate(424.455527 80.925061) scale(0.18 -0.18)">
      <use xlink:href="#CMMI12-51" transform="scale(0.996264)"/>
      <use xlink:href="#CMR17-31" transform="translate(77.260399 -14.943915) scale(0.697382)"/>
      <use xlink:href="#CMR17-3d" transform="translate(137.415721 0) scale(0.996264)"/>
      <use xlink:href="#CMR17-35" transform="translate(236.804518 0) scale(0.996264)"/>
      <use xlink:href="#CMMI12-3b" transform="translate(282.494996 0) scale(0.996264)"/>
      <use xlink:href="#CMMI12-22" transform="translate(326.196578 0) scale(0.996264)"/>
      <use xlink:href="#CMR17-3d" transform="translate(399.520779 0) scale(0.996264)"/>
      <use xlink:href="#CMR17-30" transform="translate(498.909576 0) scale(0.996264)"/>
      <use xlink:href="#CMMI12-3a" transform="translate(544.600053 0) scale(0.996264)"/>
      <use xlink:href="#CMR17-31" transform="translate(571.69723 0) scale(0.996264)"/>
     </g>
    </g>
    <g id="line2d_40">
     <path d="M 374.055527 99.713125 
L 392.055527 99.713125 
L 410.055527 99.713125 
" style="fill: none; stroke: #008000; stroke-width: 1.5; stroke-linecap: square"/>
    </g>
    <g id="text_23">
     <!-- $Q_1=0, \varepsilon=0.1, \alpha=0.1$ -->
     <g transform="translate(424.455527 106.013125) scale(0.18 -0.18)">
      <use xlink:href="#CMMI12-51" transform="scale(0.996264)"/>
      <use xlink:href="#CMR17-31" transform="translate(77.260399 -14.943915) scale(0.697382)"/>
      <use xlink:href="#CMR17-3d" transform="translate(137.415721 0) scale(0.996264)"/>
      <use xlink:href="#CMR17-30" transform="translate(236.804518 0) scale(0.996264)"/>
      <use xlink:href="#CMMI12-3b" transform="translate(282.494996 0) scale(0.996264)"/>
      <use xlink:href="#CMMI12-22" transform="translate(326.196578 0) scale(0.996264)"/>
      <use xlink:href="#CMR17-3d" transform="translate(399.520779 0) scale(0.996264)"/>
      <use xlink:href="#CMR17-30" transform="translate(498.909576 0) scale(0.996264)"/>
      <use xlink:href="#CMMI12-3a" transform="translate(544.600053 0) scale(0.996264)"/>
      <use xlink:href="#CMR17-31" transform="translate(571.69723 0) scale(0.996264)"/>
      <use xlink:href="#CMMI12-3b" transform="translate(617.387707 0) scale(0.996264)"/>
      <use xlink:href="#CMMI12-b" transform="translate(661.08929 0) scale(0.996264)"/>
      <use xlink:href="#CMR17-3d" transform="translate(751.444321 0) scale(0.996264)"/>
      <use xlink:href="#CMR17-30" transform="translate(850.833118 0) scale(0.996264)"/>
      <use xlink:href="#CMMI12-3a" transform="translate(896.523596 0) scale(0.996264)"/>
      <use xlink:href="#CMR17-31" transform="translate(923.620773 0) scale(0.996264)"/>
     </g>
    </g>
   </g>
  </g>
 </g>
 <defs>
  <clipPath id="p9a6ff9e640">
   <rect x="57.928596" y="27.036997" width="558" height="332.64"/>
  </clipPath>
 </defs>
</svg>